<?xml version="1.0" encoding="UTF-8"?>
<svg xmlns="http://www.w3.org/2000/svg" viewBox="0 0 934.46 697.09">
  <defs>
    <style>
      .cls-1 {
        mix-blend-mode: multiply;
        opacity: .8;
      }

      .cls-2 {
        isolation: isolate;
      }

      .cls-3 {
        fill: #2b2623;
      }
    </style>
  </defs>
  <g class="cls-2">
    <g id="Layer_1" data-name="Layer 1">
      <g class="cls-1">
        <path class="cls-3" d="M459.65,73c-2.17-1.25-5.48-3.1-6.85-4.67l-7.18-8.28-4.34-5.46-8.06-11.81-2.11-4.2-4.04-6.59c-.25-.4-.16-2.66.23-2.39s1.46.93,1.8,1.3l6.92,7.83,8.72,11.4,5.08,6.75,6.72,9.49,3.12,6.62ZM436.91,41.89l-2.05-2,1.27,3.11.78-1.11ZM437.61,42.87l-.75,1.06,1.95,1.99-1.2-3.05ZM440.67,46.75l-1.32.79,2.74,4.56,1.32-.79-2.74-4.56Z"/>
        <path class="cls-3" d="M502.05,69.02l2.94-7.95,8.8-12.16,6.98-9.2,4.04-3.74,3.71-5.22,4.96-6.98-.31,2.31-5.52,9.62-11.78,19.21c-2.22,3.62-4.68,7.28-7.89,10.11l-3.77,3.32-2.15.67ZM509.95,59.01l.82-3.01-2.01,1.47c-.31.22.87,1.4,1.19,1.53Z"/>
        <path class="cls-3" d="M478.74,56.66l-1.4-6.29-.76-10.52-.85-13.88c-.07-1.13,1.39-3.39,2.04-4.17l-1.49-.47c-.41-.13-.59-1.91-.55-2.35l.23-2.21c.05-.46,1.06-.41,1.53-.43l-.46-8.17c-.16-2.8-.53-4.92,1.21-8.17l.55,10.95,1.07,7.82.18,16.24.33,7.91.14,8.34c.02,1.06-.67,3.03-1.78,5.4ZM476.91,25.04c.84-1.51.71-1.29,0,0,.73,3.32.28,1.27,0,0ZM477.38,28.88l-.03,4.07.03-4.07Z"/>
        <path class="cls-3" d="M405.17,54.19l-1.31-.72c-.38-.21.22-1.85.56-1.58l1.48,1.16.53.41c.2-.06,2.24-.05,2.81.25l7.1,3.83,11.72,10.11-5.14-1.62c-6.09-3.31-11.71-6.73-16.94-11.16l-.8-.68Z"/>
        <path class="cls-3" d="M523.35,71.39c-2.89-1.64,5.66-7.57,12.01-10.65l7.71-3.74c-3.2,3.51-6.24,5.51-10.17,8.1l-9.55,6.3Z"/>
        <path class="cls-3" d="M3.09,614.73l-1.8,1.12c-.3.19-1.26-.56-1.29-.74l5.73-4.1,9.03-4.8c.28-.15,1.06.58.79.75l-1.59,1.02-10.88,6.75Z"/>
        <path class="cls-3" d="M395.93,83.24l-3.98,1.45c-.59.89-1.1,1.79-1.45-1.41l5.43-.04Z"/>
        <path class="cls-3" d="M414.31,88.07l-2.6-.75,2.73-.17c.17-.01.86.52,1,.64l2.6.75-2.75.17c-.17.01-.83-.52-.98-.64Z"/>
        <path class="cls-3" d="M399.13,84.58c1.06.1.67.07-.43-.04-2.34-.22-2.16-.2.43.04Z"/>
        <g>
          <path class="cls-3" d="M62.24,679.38l-6.37,3.39c-.32.17-1.31-1.05-1.02-1.26l1.66-1.13,14.59-8.16,13.33-6.83,1.85-.5c.41-.11,1.14,1.29.75,1.47l-1.97.9-5.14,2.91-5.17,3.57-12.52,5.65Z"/>
          <path class="cls-3" d="M408.65,85.61c.83.17,2.27.37,2.19.8s-.29,1.56-.23,1.23l-4.9-1.19,2.95-.84Z"/>
          <path class="cls-3" d="M202.49,565.52l-5.7.02,7.99-2.51c.46-.14,2.33.24,3.29.48-1.2.85-4.01,2-5.57,2Z"/>
          <path class="cls-3" d="M254.22,421.11c-.04.52-2.85.5-3.02-.25l-1.13-4.95,4.15,5.2Z"/>
          <path class="cls-3" d="M312.86,443.37l-2.63-3.41c-.66-.86.61-3.04,1.33-4.22l1.3,7.64Z"/>
          <path class="cls-3" d="M302.05,443.56l.45,3.53-1.94-3.4c.63-2.31,1.11-1.43,1.48-.14Z"/>
          <path class="cls-3" d="M107.19,549.8l1.01-2.96,1.63,1.67c.33.34-1.88,1.18-2.63,1.29Z"/>
          <path class="cls-3" d="M129.22,537.67c.25,2.6.26,2.77.04.43-.11-1.1-.14-1.49-.04-.43Z"/>
          <path class="cls-3" d="M191.13,575.58c1.06.1.67.07-.43-.04-2.34-.22-2.16-.2.43.04Z"/>
          <path class="cls-3" d="M207.32,467.08c-1.35,1.42-1.69,1.77-1.18,1.24.91-.96,1.61-1.69,1.18-1.24Z"/>
          <path class="cls-3" d="M124.13,644.58c1.06.1.67.07-.43-.04-2.34-.22-2.16-.2.43.04Z"/>
          <path class="cls-3" d="M272.42,413.64l-3.55-.21,3.55.21Z"/>
          <path class="cls-3" d="M286.89,511.8l4.07-11.59c.2-.56,1.44-2.18,1.68-2.39.67,5.47-.92,10.71-5.75,13.97Z"/>
          <polygon class="cls-3" points="316.02 412.71 312.16 416.57 309.62 416.33 316.02 412.71"/>
          <rect class="cls-3" x="279.71" y="432.66" width="5.32" height="1.54" transform="translate(-182.76 207.05) rotate(-30.96)"/>
          <g>
            <polygon class="cls-3" points="430.9 190.94 430.86 194.9 428.05 192.34 429.27 189.66 430.9 190.94"/>
            <path class="cls-3" d="M364.23,415.11l-3,5.91-2.68,1.7-3.86,3.56,1.75-4.37-1.53,1.42c-1.02.85-3.16,1.5-4.74,1.59l-7.49.45,13.7-5.94c.96-.42,2.43-2.15,2.83-3.13l2.56-6.36,2.03-4.27c.07,2.33.45,6.83.43,9.44Z"/>
            <path class="cls-3" d="M234.88,548.95l-2.32-.43,2.21-1.7c.13,1.01.33,1.83.11,2.13Z"/>
            <path class="cls-3" d="M113.92,678.95l-.43,2.73-5.96,5.16-11.31,9.06c-.31.25-2.49-.03-2.22-.33l1.23-1.38,6.93-5.29c2.36-1.8,3.58-2.44,4.81-5.19l4.33-5.33,1.59-1.55,1.03,2.12Z"/>
            <polygon class="cls-3" points="325.56 563.2 324.76 559.08 326.86 557.47 325.56 563.2"/>
            <path class="cls-3" d="M105.7,647.96l1.77,6.11c-.26-.19-1.7-.84-1.8-1.15l-1.97-6.23,1.99,1.27Z"/>
            <path class="cls-3" d="M438.73,208.78c.31.23-.04-1.08-.4-.99-2.55.65-2.9,2.04-3.39,4.15l-1.73,7.37c-.66,2.84-2.01,5.51-2.1,8.65l-1.2,1.83-3.14,5.16c-.94,1.55-1.8,5.18-2.32,6.95l-.76-.6,1.99-7.57,2.22-4.64,3.68-11.38.61-3.47,2.46-10.51,2.55-3.44-2.55.77-1.42,3.2-2.77,8.67-.62-.56,1.55-8.43.29-3.15,1.5-4.27c-1.36-.28-1.96-.41-2.09-.41-.07,0-.21-1.1-.23-1.22l4.05-3.34-1.47-2.49-2.54,1.86c-.01-3.57,1.7-3.89,1.44-4.53,0-.02-.67-.6-1.23-1.11l2.69-1.77c-.07-.2-.83-2.29-.37-1.01l-7.55,3.76,2.21,2.04c-1.09.82-2.07,1.41-1.94,1.96l.71,3.06c.33,1.4-3.8,1.83-5.23,1l-2.84,1.87c-.39.26-1.83-.62-2.01-.79l5.66-3.83c1.59-.27,1.63-.27-.09.01l-5.13,1.14c-.54.12-1.98.09-2.28-.3l-.78-1.02,9.99-2.32c.75-.45,1.59-.95,1.48-.88l-1.69-2.72c-.17-.27-.64-.1-.67-.04.15,1.08.33,2.64-.17,2.59l-4.62-.53-.26,1.55c-.08.46-1.7.49-2.19.52l-7.99.44c-.33.58-1.26,2.23-.89,1.58l4.06-.36c-.12.57-2.82,2.27-3.63,1.72l-2.61-1.77-1.85,1.66-4.89.47-3.76.46,1.04-1.17,5.77-1.51,10.87-3.14,18.31-6.74,9.59-4.7c2.1.19,2.52,1.24.07,1.76-.95.8-1.06,2-.06,1.93l4.07-3.66,4.91-.21-3.96,13.92c2.17-4.68,4.46-9.36,5.23-14.79l1.77-12.44,3.56-19.26,3.06-16.08,2.49-12.25c.17-.82,2.5-1.9,2.84-1.24s.71,2.33.55,3.13l-5.68,28.54-2.46,11.45-1.61,6.47-2.99,12.1-4.26,15.91-1.34,4.78-2.97,14.96-4.51,16.24-2.58,9.52-3.23,13.04-7.76,25.97-1.95,5.9-3.67,10.2-3.55,9.87c-.48,1.33-.74,2.51-1.23,5.46.56-.14-.84.64-2.51,1.43-.18-.32-.04-2.89.27-3.63l4.02-9.67,2.93-9.2,2.13-6.71.13.36-3.38,1.26c.2,2.54-.14,5.33-1.18,7.26l-2.6,4.79c-1.06,1.95-2.77,3.72-3.46,5.38l-3.38,8.21-5.86,10.7-3.21,3.48-1.24,2.94.96,1.66c.52.91-4.27,3.52-3.34,7.33l10.86-12.47,2.62-3.1,1.05,2.55-2.33,3.92-8.06,12.16c-1.51,2.28-4.57,4.1-7.41,5.13l1.65-4.09-3.92,3.64.96,1.05,4.78-.24c-1.33,2.24-2.76,2.8-6.01,3.03l.5-2.51-.54-.63-3.19,3.42c-.35.37-.73,1.79-.85,2.16l-4.96,2.94c-.55.32-2.3.92-2.75.51l-2.06-1.9-.21-1.16,1.1-1.87c.45-.76,2.9,1.88,3.04,1.81-.02.01,1.32-.8,1.55-1.04l6.82-6.76,5.04-5.51-.62-3.19-6.94,8.24-4.44,5.28-1.27.02,1.37-4.66-3.31,3.65-3.86-3.58,3.91.6,3.7-3.91,2.48,1.93,3.95-4.65.22-4.11,1.61,1.6c.37.37,1.89-.16,2.32-.45l2.68-1.82c.43-.29-.86-2.29-.6-2.75l4.16-7.35c1.27-2.24,2.61-3.7,4.46-5.81,2.19-2.49,3.57-6.7,4.88-10.04l3.88-9.97,1.52-6.12,1.05-4.22-2.84,2.02,3.19-7.3,1.22,2.18.41-2.55-.85-.32-1.84-2.36c1.1-.33,2.1-.62,1.76-.53l.8,2.18c.07.2.18.29.6.52l.89,1.89,2.86-8.21-.72-.7-1.03-.93c-.36-.32.03-1.55.25-2.05l.99-2.27.32,4.78.42.27,1.96-4.05c.14.19,1.46,1.9.85,1.11l-2.09,4.91-2.06,5.12,1.54.82,2.01-4.01.99,3.43.82-7.56,4.37-13.62,2.73-8.63,2.4-10.76,1.4-6.29,3.18-12.78,2.7-10.84c-.6-1.68-.99-1.8-.77-.02l-1.64,2.25ZM442.25,192.93l2.3-7.69c.5-1.68.85-3.36.98-5.45l-3.21,8.56c-.42,1.12-.24,3.97-.07,4.58ZM436.8,188.2l1.13-2.14,2.13-4.05-5.49,2.45,1.84,1.33.39,2.4ZM442.54,183.57l-1.07-1.03c-1.22,2.72.05,2.33,1.07,1.03ZM434.94,197.83l4.06-7.62-2.47-1.28-.71,3.97-.88,4.94ZM437.37,196.99q0-1.23,0,0,0,2.34,0,0ZM442.21,197.31l-2.4-.08-.6,3.22,3-3.14ZM416.52,285.07c.34-2.01-.05-2.44-.69-.34-.95,1.38-.2,1.29.69.34Z"/>
            <path class="cls-3" d="M325.81,564.95s-.14-1.02-.25-1.75l2.42.17-2.18,1.58Z"/>
            <polygon class="cls-3" points="74.07 565.23 72.1 567.12 71.77 564.94 74.07 565.23"/>
            <path class="cls-3" d="M431.12,227.96c.99-1.51,2.86-4.43,3.32-6.42l2.08-9.14c.25-1.09,1.62-2.79,2.23-3.63l-1.25,6.48-2.91,10.53c-.45,1.62-2.15,4.52-2.24,6.04l-.3,5.07c-.02.4-.54,1.78-.68,2.19s-.82-.6-.8-1.04l.57-10.09Z"/>
            <path class="cls-3" d="M325.81,564.95l.02,5.12,2.12.36-.33,5.9-1.07-2.6c-.22-.53-1.61-.59-1.97-.09l-2.68,3.78-2.18.38,2.27-3.82c1.14-1.36,2.53-4.51,2.31-6.22l-.26-2.1c-.04-.34.61-.42,1.77-.7Z"/>
            <polygon class="cls-3" points="345.87 624.88 342.76 626.37 340.87 623.96 345.87 624.88"/>
            <polygon class="cls-3" points="321.99 573.98 319.94 574.07 321.41 570.56 321.99 573.98"/>
            <path class="cls-3" d="M391.83,100.8c-1.11.24-3.03-.22-3.96-.82,1.38.06,3,.34,3.96.82Z"/>
            <path class="cls-3" d="M339.31,261.59c-.28-1.94-.22-3.83.41-4.79l-.41,4.79Z"/>
            <path class="cls-3" d="M425.82,309.92l.1-2.96,2.02-1.95c-.15,1.46-1.15,3.77-2.13,4.91Z"/>
            <path class="cls-3" d="M356.01,83.88l-2.51,2.5-2.52.15c-.54.13-.83,1.84-.96,2.45l-2.57,11.53-2.15,9.7-3.7,18.13-2.63,14.62-1.7,10.77-2.17,12.27-3.01,16.06-1.7,9.48-3.5,25.42c-1.91,13.85-4.27,27-4.38,41l-.17,22.38-.1,6.25.62,8.42,1.23,11.81,2.21,15.83,3.39,12.66c.63,2.35,2.56,5.73,3.69,7.73l-1.23,2.88.76-.51,1.76-1.38c1.51,1.51,3.92,4.53,5.44,5.41l6.3,3.65,4.87,1.82.16.89-2.59.8,6.09,3.53,1.92-1.62-5.7-2.39,6.01.46-4.08-3.04c-2.88-.02-4.29-1.37-6.45-3.41l-5.52-5.22-5.27-9.05-3.72-7.28c-.47-.92-.59-3.6-.72-4.64l-1.27-9.92-1.13-17.06-.68-10.23-.29-7.79.11-22.96.64-8.02.85-10.99.96-10.09,1.03-9,.86-7.25,3.07-16.95-3-1.67-.72-1.74,2.43.44c.52.09,2.09-1.25,2.21-1.89l2.08-12.05,1.45-10.43,3.45-17.62,5.75-29.86.74.61-1.85,10.58-2.97,17.13-1.73,9.16-2.19,12.64-1.16,9.01-1.08,8.35c-.28,2.2,1.74,6.04,3.2,8.41l1.34-1.26c2.17,1.35,4.17,2.46,6.51,3.31l4.49,1.64c1.59.58,4.99.45,7.38.42l-1.42-1.16c-2.46.12-1.74-1.65-.05-1.67,5.06.59,9.91,1.16,14.07.6l7.23-.96-.94,1.65c-2.32-.21-1.68.3-.08.66,1.7-1.07,4.53-2.89,6.08-3.1l7.73-1.07,2.07,1.39,4.31-.4c.66-.06,1.77-1.3,2.27-1.93l4.55,3.67,3.26-1.79-.86,2.85-7.8.52,3.4-1.67c.43,1.26-.2-.59-.35-1.04l-1.94-.22c-.31-.03-1.17.46-1.43.66l-3.18,2.42.55.67c.19-.15,1.01-.78,1.36-.72l2.84.5.07,1.35-3.18.47c-.47.07-1.1-.7-1.42-1.05l-.63-.6-2.81.41-.64.12-4.42,1.39-5.11,1.02-1.9.22c-.14.02-.24.21-.38.4l-4.39,1.21c-.8.22-2.98,1.33-3.93,1.3l-8.77-.26-5.86-.17.34,2.63-2.26,1.53.44,4.87c.26.04-1.84-.29-2.66-.42l.03,5.85c0,1.35-1.36,4.26-1.93,5.44l-.59-6.21-1.2-.06c.15,2.46.28,3.88.09,4.88l-.89,4.93-3.47-.58-.75,3.7c-.08.41-.42,1.39-.46,1.47l-1.01-.12,1.18,3.06c.15.16.4.16.34-.05l1.65-4.33c.1-.27.82-1.48.99-1.75s.48.03.79.31l-1.99,9-1.38,6.71c.28,0-.93.03-2.37.06l-2.38,14.39-.59,5.7-1.46,9.3-1.02,8.06-.33,6.79.04,5.98.34,13.57c-.72-1.99-1.66-5.15-1.74-7.1l-.44-10.42.85-8.36.39-5.63.51-7.4.28-5.54-.22-3.23,1.9-2.23.98-9.8c.63-1.06-.15-1.81-1.17-1.24l-.14,6.59c0,.35-.96,1.61-1.15,1.91l.11-10.37-.73-.57-.87,7.51-1.02,12.67-.71,11.85-.34,11.07.21,4.42c.15,3.13,1,5.35-.69,8.35l-.52-7.86-.79-11.91-.57-14.04.83-13.04.83-7.11,1.87-22.68,1.53-11.09,1.96-12.38,4.51,1.46.16-1.53-9.54-3.15-1.27,7.44-1.03,8.01-1.05,10.11-1.03,9.75-.65,6.3-.82,7.85-.43,25.1-.02,7.9c-.03,9.01.71,17.57,3.11,26.03l2.68,9.44c.52-.97,1.26-3.31,1.12-4.44l-.93-7.46.91-.93,1.78,10.57,1.09-4.5,1.15,4.11c1.32,4.27-1.56,4.69.47,9.12l2.95,6.43c2.21,2.32,2.87,4.68,3.89,7.83l3.2,9.89c.75,2.33,4.64,5.84,6.9,6.48l7.91,2.26c.67.19,2.3,2.14,3.02,2.17l6.21.2,4.28.14c1.35-1.24,2.72-2.07,4.21-2.53l6.91-2.13c1.82-.65,1.45-.47-.44.37-1.25,1.83-3.37,5.33-5.06,6.07l-11.26,4.93c-2.01.88-3.87,2.15-5.94,1.26-1.7-.74-4.24-1.5-5.12-.65-.96.92-3.27,2.7-4.45,2.56l-3.39-.41,4.26-2.22-5.17-1.45c-.86-1.15-.8.04-.45.81.68.98,1,1.43,1.03,1.51.03.07-.76.76-1.49,1.43,1.29,1.3,3.35,2.39,5.25,2.93l5.19,1.87-.11,1.22-5.37-.69.49.71,3.16.93-3.76-.06-.7-.27-5.66-2.21-1.8,1.01,1.04,7.94.46,4.85c.03.34.85.57,2.55,1.11l-.32,1.53c-1.62-.26-2.6-.42-2.31-.37s.78,1.91,1.06,1.87l4.76-.62,3.28-.43.51-.75,2.41-2.57,3.17,2.06,1.9-1.57c.21-4.62,2.79-10.5,5.01-11.87l1.74-1.07c.34-.21-.47-1.13-.72-1.08l-5.72,2.49c-1.38.6-4.6.91-6.92,1.01l4.25-2.02c.35-.17,2.21.18,2.34-.18l.71-1.98-.69-.58c-2.11.96-5.69.51-7.44-1.65.98-.06,2.25-.12,2.65-.05l5.71,1,.43.93c5.35.04,8.86-3.04,12.57-7.32,1.37-1.58,4.39-3.88,6.36-5.13l5-3.16,4.72-5.27,3.53-4.56-3.43-.67,12.49-19.3,3.4-5.25,1.57,1.25c.17-8.3,2.42-9.18,3.4-11.43l7.29-16.88,1.96-5.06,3.82-11.39,3.63-11.16,5.93-20.07,4.14-15.53,2.35-9.33.1-.55.58-3.25,3.84-15.39,1.62-7.2,2.72-12.08.96-6.1,1.12-7.79,1.49-6.35.69-8.59c.28-3.51,1.96-6.95,2.71-10.04l1.04-4.24,1.57-10.58,1.4-9.48,1.46-4.48.4-2.4c.11-.67-1.97-.22-2.74-.17l-11.12.74c.3,1.14.81,3.76.57,5l-4.94,25.85-2.78,16.13-1.42,8.21c-.11.64-.62,1.78-1.24,2.78-.2-1.3-.25-3.75.05-5.43l8.57-46.66c.41-2.26-.08-6.21-.36-8.19-2.26.41-4.49.97-5.51.9l-7-.76-18.25-2.65-19.53-3.8-10.3-2.55c-.47-.12-1.69-.8-2.11-1.01l2.34.09.41-2.27c1.18,1.05,2.83,2.71,3.83,2.92l13.58,2.94,12.29,2.18,9.55,1.56,7.4.64c1.36-.78,1.51-1.11.56-1.08l-4.93-.62c-.45-.06-1.73-.54-2.14-.7s.52-1.22.93-1.17l4.4.54,6.97.8,8.96,1.03,7.82.53c2.1.14,3.93.61,6.17,1.29-.74-3.05-4.54-4.27-8.1-5.56-1.94-.7-3.71-2.6-5.64-3.22l-6.61-2.11-1.86-.98-.37-.62-8.91,1.02,2.11-1.7c-.3-.29-1.19-1.09-1.15-1.11.06-.03-1.04,1.92-1.33,1.84l-5.56-1.52,2.36-.69c.31-.05.93-.59,1.15-.8,1.14-.23,3.85-.03,5.11.37l6.68,2.13.55.36,4.93,1.34c6.54,1.78,15.77,5.26,18.11,9.09.9,1.47,1.21,5.73.92,7.41l-1.93,10.95-1.68,7.5-.59,7.93-.89,6.48-.99,6.94-3.17,19.55-1.83,8.13-1.43,5.45-.75,5.46-2.59,12.88-.25.64-2.18,9.07-1.68,7.68-1.89,8.97-2.1,9.97c-.41-.82-1.16-2.22-1.1-2.21.05,0-1.03.87-1.33,1.11l1.79,2.75-3.37,12.39-2.14,7.85c-.31,1.14-1.86,3.41-2.37,4.25-.11,1.65-.47,4.61-1.06,6.31l-2.85,8.24-2.69,8.58-.95-3.85-1.59,4.48,2.59.22-3.5,9.5c-.35.94-1.32,2.5-1.91,3.08l.75-5.86c.11-.17-.49.74-1.02,1.54l-1.76,6.26-2.02,4.99-2.11,2.82,2.08.2-2.14,5.74-5.33,9.87-6.38,10.52-11.2,15.74-6.84,8.22-5.52,6.63-3.18,4.31,3.35,1.36,7.04,2.96c1.51.63,4.29,2.79,5.92,4.1,1.36,1.1,1.27,5.84-.12,7.04l-6.42,5.51c-3.91,3.36-9.75,4.51-14.81,5.17l-7.32.95c-2.65.34-.95,9.47.66,12.18s4.87,5.93,7.14,7.53l7.16,5.05,10.05,8.1,4.33,4.72c1.76,1.92,3.28,5.21,3.18,7.65-.07,1.82-1.88,5.48-3.63,5.88l-4.65,1.06c-2.4.55-6.71,1.25-8.87,1.08l-7.67-.62-6.21-.5-.22,1.57,7.41,7.39,4.54,4.99.51.5,4.61,4.74,5.38,7.87c3.27,4.78-5.6,13.16-14.32,11.5l5.11-1.39c3.45-1.87,5.87-5.64,7.59-9.12l-3.56-.75c-.52-6.4-5.63-4.61-5.49-8.25l.14-3.79-.69-.52-.8,3.29-12.69-12.35-10.32-9.59,3.42-1.19,4.29.5-6.48-3.68-1.57-2.04-.62,2.26c-.5-.34-2.44,1.12-2.49,2l-.45,7.62-1.96,12.98c-.35.63-1.5,2.6-1.45,2.52l1.62,4.65,1.5-1.84c-.11-1.62-.1-1.41-.02-.22l3.11,4.67c3.4,5.12,12.05,9.71,17.08,9.82l7.26.16.65,1.79-5.26,2.68c.04.06-.39-.62-1.05-1.64.44-.05-2.11.2-2.79.23-3.65-.21-9.77-1.96-12.36-4.5l-4.17-4.1c-.44-.44-.26-2.42-.21-3.04l-4.35-3.45-.09,6.07c-.71.78-2.12,2.66-2.22,3.67l-.63,6.41-1.56,11.32-.94,6.81c6.22,4.25,13.65,5.31,20.16,2.39l6.53-2.94c1.52-.68.59-4.91-.51-5.99-.88-.8-1.17-1.07-1.07-.98l.96,6.98-4.06-6.31c-1.66-2.58-7.44-4.97-12.17-10.59l-4.72-5.61c-.26-.31-.57-1.5-.21-1.39s1.83.51,2.1.72l5.05,3.86,8.33,6.43,3.44,1.89,4.15,4.02c1.14,1.11,2.51,4.5,2.21,6.03-.81,4.16-7.27,7.98-12.89,10.08-4.78,1.78-10.51.1-14.71-1.97l3.44-.8s-1.54-.63-1.93-.97l-3.73-3.24c.06-.04-1.39.72-1.66.87l3.5,2.29-3.91,2.63-1.8,20.95-1.81,21.31c-.63,7.39.44,14.61,1.61,22.36.33,2.21,3.38,6.35,5.38,7.32l23.16,6.7,11.96,5.22,7.27,4.19c2.64,1.52,7.31,5.78,7.29,8.98s-4.47,5.92-6.76,7.31-5.43,3.82-7.55,4.19l-10.22,1.8-30.7.17-10.15-.83-11.87-1.15-18.2-3.54-11.36-2.56c-9.85-2.22-18.93-5.84-28.17-9.81l-7.82-3.36c-3.09-1.33-5.43-2.78-7.94-5.59l7.73,3.23.33-2.77,6.1,5.06,6.49,3.35c4.65,2.4,8.27,3.58,14.03,4.78l-2.42-2.06-.51-.13-5.53-2.12,6.35.96.46.54,3.29,1.64-2.12,1.36,2.55.56.5-.92,1.05-1.51,8.07,4.26c3.39-.84,6.36-.62,9.78.06l21.43,4.23-3.68.77-.55.66c1.4.3,3.62-.27,5.55-1.19l2.86.97,6.53-.29c.55-.02,2.77.18,2.45.18l-4.73,1.3,8.24.67,4.33.57-1.22-2.06,6.27.41-4.73,1.21,4.92.21,9.41.41c.44.02.92-2.46.72-1.89l6.65,1.79-2.55-1.63,10.61-1.87,2.98-.39-6.69,2.71c2.85-.19,4.97-.51,6.97-1.13l6.85-2.13,6.78-2.11-2.99-.71,3.72-3.57.43,2.37,1.63-1.3c.76-.61-1.8-3.71-3.39-3.3l-2.66.68c-.46.13.46-2.06.99-2.05l1.84.05c.02.62.26-1.46-.05-1.74l-3.05-2.84c-1.32-1.23-5.03-1.94-6.89-2.29l-.42-2.23-2.86,2.34-5.39-1.85c-3.02-1.03-5.11-2.07-7.7-3.77l5.17.71.71-.7-5.61-2.05-5.46-1.73c-1.1-.35-3.09-1.09-4.36-.96-3.51.37-5.63-.07-8.35-1.44.16-.12-.18.14-.61.57.82.71,2.74,2.02,3.91,2.41l9.32,2.44,2.96,1.57c.77.25,1.89,1.47,2.68,2.33l-.35,1.93-6.66-2.12c-.77-.25-2.14-1.78-2.76-2.31-.8-.68-2.8-1.68-3.91-1.93l-4.98-1.08,1.98,1.98-4.3-.6c-.26-.06-.44-1.6-.23-1.78l1.5-1.25-3.53-.6-1.56,1.45c3.05,2.52,3.83,2.99,7.05,4.84l-8.16-.68-18.69-2.06c-5.52-.61-10.34-.69-15.37-2.84l-2.22,1.51-.79.66,3.32.22,10.01,3.01,5.82,1.75c.27-1.2-.26,1.16-.32,1.42-1.72.73-2.04.87-.7.3l6.24,1.62,1.99.51c.42.11-.43,1.16-.83,1.09l-6.14-1.12-2.64,1.59-2.37-3.16c-.76-1.01-2.8-2.05-4.02-1.83-.91-.8-2.47-1.46-4.35-1.97l-12.06-3.24c-.49-.13-1.43-2.4-1.35-2.51l-4.86,2.21c-.29-.81.1.28.13.37l5.6,1.88-7.16.07-2.04-.5-12.05-2.12-2.32-.61c-.46-.12,1.15-1.29,1.48-1.63l1.77-1.79,4.07-.51.06,1.75c.01.36,1.49,1.04,1.9,1.09l8.82,1.03c-.25-1.99-1.12-4.83-2.3-5.55-.17-1.01,1.02-3.41,2.08-3.49l6.28-.47c-.06,4.09,2.14,6.88,6.4,6.66l-4.76-3.98c-.42-.35.41-2.36,1.03-2.55,1.11-.32,2.95-.55,3.95-.48l.63-.14,2.16-2.94c-.8.43-2.12,1.52-2.7,1.56l-6.86.56c-.47.04-2.08-.17-2.11-.62l-.1-1.63c-1.88.34-4.5.33-6.51-.16l-3.99-.97-3.21-.77-10.83.6-5.02.86c-.75.13-2.86-.32-3.38-.51l5.84-1.1c-.5-.19-2.73-.79-3.44-.7l-6.98.9-5.05.68.58.91,8.04-.66c-.52-1.16.35.78.53,1.18l-4.45.96-4.63,1c-.38.36-1.73,1.54-2.38,1.77l-4.04,1.44v.25c1.55.76,3.1,1.97,4.83,3.49,7.57,6.64,16.66,10.83,26.16,13.9l14.36,4.64,8.52,2.03,6.98,1.27,16.06,2.89,12.63,1.36,19.93,1.26,5.91-.95,12.68-.42,9.83-2.35,7.85-1.26c-4.14,2.6-10.06,4.47-15.21,4.93l-9.06.81-14.17.68-6.72-.02-9.19-.18-7.67-.76-10.32-1.32-25.19-4.86-11.06-3.09-9.5-2.55-17.47-8.39-8.65-5.99-1.71,1.16c-.34.23-1.13-.51-2.29-1.36-.79-1.57-1.26.17-.92.97l4.76,7.1c-3.06-.17-7.64-3.95-7.4-6.89l.61-7.39c.19-2.33,4.45-5.44,6.72-5.87l15.34-2.88,6.59-.64c4.76-.46,9.43-.4,14.17.17l10.11,1.21,6.62,1.34c5.57-1.67,7.99-5.11,10.44-11.05l3.23-7.84,5.15-15.76,2.04-8.74,1.67-8.37,1.94-11.63c.2-1.17-2.39-2.68-4.45-3.28-.5-.08-.46-.26.05-.42,2.49.25,2.36-.56,1.07-1.73l-8.34-.43-.78.74,5.19.65c.41-.79-.4.77-.49.95l-8.53-.2-8.81,2.81c-.52.17-2.28-1.37-2.19-1.45l5.01-2.57-1.55-.79-5.67,3.56,2.62,1.83-6.05,2.83-1.74.8c-.27.44-.4.57-.55.62l-7.53,2.94c-1.56.61-5.12,2.39-6.17,3.65l-7.6,11.27-6.26,8.73-5.16,5.98-4.64,5.38-6.72,8.17-4.79,5.22-5.81,6.35-4.24,4.62-15.92,13.18c-2.97,2.46-6.79,4-10.4,5.62l-4.69,2.11c-13.07,4.71-24.35,11.43-35.48,19.62l-11.51,8.47-5.78,4.15-12.27,10.03c-2.51,2.05-4.07,5.82-6.57,8.43l-5.27,5.5c-.41.43-2.24.47-2.67.05l-.48.28-1.94,4.51,3.25,1.36.55,2.4,7.06-7.05,4.24-3.31c.16-.28.79-1.85,1.13-2.19l4.47-4.59c1.33-1.37,4.04-2.94,5.59-3.36l-9.47,10.67-3.77,4.39-3.83,3.73-3.27,1.88c-.83.48-.37,3.47-.46,4.44l-.52,5.57-3.44-.98-.65.67c-.62.71-2.78,1.86-3.39,1.18l-2.48-2.76c.07-.45.55-1.22.84-1.76l-1.87-.36-2.89-3.28-4.41,4.16-4.1,3.68-12.65,9.6-7.84,6.09c.16-.92.36-2.03.65-2.33l3.27-3.27,11.71-8.92,7.42-6.17c.25-.21-.62-1.45-1.33-2.23l4.23-.31-2.06-2.12c.33-1.48.44-1.99.34-1.55l-10.79,5.4c-.47.24-.39.61.08.53l7.62-1.31-3.42,4.24c-2.27,2.81-4.43-1.69-8.92-.22l-17.46,5.7-6.19,1.35c-3.37.74-7.14,1.07-10.23.89l-.57-.81-1.53-.49c-.42-.13.46-1.67.56-1.49l1.48,1.44.5.52,6.72-.11-2.24-1.57,8.69-1.52,8.81-2.25c4.68-1.19,8.6-2.88,12.89-5.22l10.11-5.53c.84-.46,2.64-2.59,3.26-3.25.39-.42-.23-2.43-.77-2.6l-1.96-.64-3.09-7.2-4.47-10.41-2.1-4.85-7.89-15.09-4.55-8.67-4.09-7.8-1.62-3.2-3.76-6.49-5.26-8.83-3.75-5.34-4.67-7.91c-.29-.49-2.37-1.82-2.16-1.6l-.37,3.14-30.65,22.5-6.73,4.28-.48-2.74,4.07-2.04,4.12-3.45,6.95-5.12,6.27-4.72,6.82-5.28,3.55-2.74,4.74-4.96-1.58-1.26,2.93-2.18c.69-.51-.31-2.99-.79-3.7l-1.23-1.83c-.12,1.7-.03,4.77-.81,5.66l-5.12,5.85c-2.4,2.74-6.87,3.5-9.77,5.36l-9.58,6.14-7.41,4.73-1.3-1.79c3.33-2.58,5.26-3.66,8.12-5l4.06-3.44,6.77-5.13c1.93-1.46,5.43-2.54,6.06-4.22.36-.96.55-3.93,4.07-4.45l1.67-.24c1.08-.16-.61-4.21,3.25-7.16.9.96,1.3,1.43,1.3,1.41-.08-.45,8.05-.45,11.5-2.33l10.28-5.62.36-.27,4.61-2.23,6.26-4.5,7.24-5.22-1.62,4.95,5.16-5.94,2.78-3.85.51-.35,9.89-6.56c1.5-1,3.19-1.85,3.97-2.9l3.76-5.03c.62-.36,2.01-1.3,2.55-1.85l6.62-6.7c3.26-3.3,5.45-8.7,8.05-12.67l5.59-8.55,11.84-19.07,7.34-12.63,3.69-6.35,3.5-5.51,4.18-6.84,6.02-10.94,8.47-16.4,7.12-13.93c2.67-5.23,9.75-12.88,13.84-13.13,2.31-.14,7.36-.28,9.03-1.78,2.96-2.66,5.61-6.16,9-7.1l14.1-3.88,10.26-1.95,10.43-1.76,9.27-1.47,8.4-1.58,12.92-3.13,11.56-2.26,9.91-1.5c2.84-.43,6.09-.71,8.94-.47l11.89.99-2.89-9.26-4.77-12.05-5.74-23.3-1.92-16.55-.27-10.07-.07-17.1.51-8.09.72-10.87.34-7.05,3.23-28.74,2.34-17.07,2.12-13.03,3.23-18.36,1.91-10.15,3.09-16.08,1.68-8.17,5.53-23.43,1.92-9.11,4.16-16.87,3.17-8.12.83-.6c1.87-.64,5.44-1.51,7.61-1.26l19.56,2.28.49.68,5.45.46.56.49,4.64.77-5.14.16-.55-.66-5.46-.49-1.27-.65.14,1.41,7.41,2.27-15.34-1.83-9.87-1.18c-.86-.1-2.44-.44-2.84.08l-1.12,2.21ZM352.39,79.82l-.69.58-.96,5.01,5.68-5.3-4.03-.29ZM376.03,81.6l-1.64-.74-3.57.33.56.87,4.65-.45ZM446.69,108.54c-2.34-.22-2.16-.2.43.04,1.06.1.67.07-.43-.04ZM466.96,110.36l-5.2-.04c1.53.38,3.69.4,5.2.04ZM334.41,151.85l-.22,4.06.22-4.06ZM341.72,196.72c-.17-.64-3.02-.53-2.94.12.15,1.24,3.3,1.26,2.94-.12ZM394.9,198.28l-3.61-.9,2.88,1.85.73-.95ZM369.87,198.33c-1.83-.27-3.08-.44-2.98-.02l.35,1.53,2.63-1.52ZM371.8,198.39l4.05.23-4.05-.23ZM382.7,201.2l2.56-1.79,4.89-1.34c-3.44-.29-5.9.85-8.81,2.17l-4.81,1.36,5.84.4.33-.8ZM456.36,198.99c.02-1.21.02-1.24,0,.01.06,2.39.06,2.31,0-.01ZM357.52,201.8c-.43-.65-2.62-2.19-2.34-1.67.35.67,1.72,1.58,2.34,1.67ZM375.78,203.04c-.7-.91-1.84-2.21-2.2-2.2l-12.62.23.4.7,5.42.48,8.99.8ZM456.02,205.4l-.71-3.98-.22,4.56.93-.59ZM345.22,204.5c-.11-1.28-.05-.61.06.66.2,2.36.17,2.04-.06-.66ZM355.34,209.84l2.06-.8-3.73-2.82,5.16-.57c.42-.05-.33-1.24-.76-1.2l-8.31.85,2.83,1.03c-.74.76-1.54,1.57-1.28,1.31l2.31.96c.3.13-.27,1.11-.6,1.71-.18.32.98.85,1.25.59l1.07-1.06ZM350.4,212.49c.99-1.78,2.18-3.92,1.33-2.4l-3.96-5.2c.03-.11-.62,2.75-.85,3.75l1.4,5.62.97-4.5,1.1,2.72ZM341.22,218.07l.71-1.64-.32-3.56-.84.56.44,4.64ZM343.62,222.54v-2.56s-1.77,1.39-1.77,1.39c-.25.2,1.77,1.44,1.77,1.17ZM449.61,220.9l-.85.56.79,2.92.06-3.48ZM345.72,227.08c1.2-.85,1.57-1.13.24-.2-.91.75-1.45,1.2-.24.2ZM341.26,229.11c-.11-1.1-.14-1.49-.04-.43.25,2.6.26,2.77.04.43ZM346,231.39l-.81-2.67v3.22s.81-.56.81-.56ZM344.31,243.07l.39-6.27-2.5,4.5,2.11,1.77ZM340.37,241.99q0-1.23,0,0,0,2.34,0,0ZM445.37,245.99q0-1.23,0,0,0,2.34,0,0ZM421.7,317.04c-1.55-.24-2.95,1.16-2.64,2.97l2.64-2.97ZM408.37,332.99q0-1.23,0,0,0,2.34,0,0ZM343.24,341.52c-.36-2.97-1.26-2.82-1.47-.27l1.47.27ZM402.95,344.02l.82-3.01-2,1.47c-.31.23.87,1.39,1.19,1.54ZM333.54,345.81l-1.06.75,1.2,2.62-.14-3.37ZM363.73,358.63c-.52-1.06-1.58-2.82-2.39-2.46l-2.92,1.28,5.31,1.18ZM341.47,360.13l-1.1-2.2-1.2.6,1.2,2.4,1.1-.8ZM369.14,360.31c.91-.96,1.61-1.69,1.18-1.24-1.35,1.42-1.69,1.77-1.18,1.24ZM374.76,360.93l-1.89-1.89c.31.88,1.01,1.58,1.89,1.89ZM341.77,360.73l-1.1.8,1.2,2.4,1.2-.6-1.3-2.6ZM349.76,363.93l-1.89-1.89c.31.88,1.01,1.58,1.89,1.89ZM366.76,363.93l-1.89-1.89c.31.88,1.01,1.58,1.89,1.89ZM383.8,364.82c1.55-.61,1.33-.52.01-.01-1.26,1.35-.71.76-.01.01ZM332.87,365.31l-3.35-.07,2.76.91.59-.84ZM198.25,403.11l-.81-4.47-1.51,5.31c-.87.23-2.34,1.59-2.7,2.37l-3.26,6.96-1.12,4.51c-1.46.56-2.99,3.85-3.07,5.46-.84,1.21-2.24,2.69-2.75,3.76l-4.71,9.87-1.77,2.67-1.68,4.27-5.28,9.88-4.04,6.25c-.51-.79-1.27-2-1.27-1.97s-.87,1.26-1.03,1.48c-.04,10.41-7.33,12.77-10.08,18.55l-2.34,4.91c-.55,1.15-1.27,3.65-2.23,4.52l-3.16,2.84,1.17,2.57,8.2-14.86.6-2.11c.1-.36,1.11.94,1.23,1.23l-.32,3.22,1.98-4.13,3.08-6.6,5.46-8.76,3.5-5.43,9.71-17.35,2.61-3.01c-.09.42-.5,2.08-.72,2.5l-5.61,10.83-12.72,22.33-6.36,11.21-3.28,3.47-12.61,20.03c-.57.91-2.33,2.14-3.25,2.84l-2.65,2.01.25.63c.18,5.59-4.76,8.42-6.37,16.06l-3.03-1.76-2.46,2.83c-.02,1.88.6,2.25,1.66.51.81-2,1.38-1.29,1.35.33l-3.31,5.78c-1.41,2.47-3.19,4.68-5.28,5.88.18.14,1.27.98,1.22,1.06-1.21,2.28-5,5.28-8.33,5.04l3.69-3.53,4.78-5.66-1.5-1.95c-.64-.84,3.56-2.93,2.14-6.61l2.91-2.82,7.64-7.9c2.68-2.77,1.57-5.51,1.57-5.39-.02-.43-.68.8-1.03,1.34l-4.66,7.11-1.4-2.24-1.59,1.63c.26.95.31,2.69-.12,3.15l-5.66,6.09-5.34,5.92-2.66,3.42-5.88,4.73-6.06,6.04-8.56,6.38-8.65,5.62-6.69,3.29,2.46-2.73c.29-.26.53-.81,1.15-2.22l-5.91,4.66-2.81,1.4c1.12.77,1.85,1.22,1.52,1.47-.22.17-1.25,1.19-1.15,1.45l1.99,5.12,5.3,9.69,11.36,20.75,13.79,25.4,5.29,8.56,4.96,10.18,2.4,5.73,2.23-1.19-1.74-1.96c.59-.35,2.9-1.36,3.96-1.6l8.65-1.98-7.64,5.42.67.81,15.67-9.1.48-2.07-3.94,1.76c-.28.13-1.43.95-1.47.93-.03-.02-.72-.65-1.49-1.41l12.86-8.66,4.32-2.89c.84-.56,1.83-2.38,2.12-3.63l-5.73,2.92-6.09,2.27-7.94,3.75-5.39,2.11c1.55-2.29,2.78-3.07,4.86-4.26l19.08-10.88,7.18-4.01,13.02-6.82,4.01-.66c2.79-2.89,5.84-4.98,8.89-6.22-3.39-.58-6.06-1.33-8.73-3.03l9.72-.54,6.24-1.2,11.39-3.88,9.23-3.55c.7-.27,3.53.59,3.67.6-.19-.22-.25-3.44.48-3.84l8.29-4.53,2.32-1.85,2.2-.82c-.91-.67-1.74-1.22-1.63-1.22-.79.04,3.72-4.25,4.25-2.51l.92,3.04,1.54-1.91c-.31-1.4-.94-4.22-.92-4.11l5.17-4.05c.81-1.86.98-.96.66.33l-2.17,4.11.83.64,7.4-9.41c-.26-.54-.96-1.93-.75-1.51-1.15,1.18-1.75,1.81-1.78,1.78l-1.26-1.29,2.64-5.89c.49-1.1,2.13-2.74,2.93-4.04l5.18-8.41,6.37-5.63-1.23-.71.28-6.14.78,5.66.25.49,3.68-3.81,2.38-3.6,3.61-5.58c.68-1.05,3.2-2.85,4.32-3.43l2.03-1.06c.37-.19.25-1.32.33-1.79,3.69-8.19,7.5-16.32,9.53-25.04l2.6-11.17-4.89,6.77c-.37.51-.97,1.44-1.42,1.43l-1.28-.02.03,2.04-3.29,5.74c-.79,1.37-1.71,4.64-2.25,6.47l-2.61,2.62.39,3.09-2.25,7.73-.61-4.65-3.48,6.59-3.01,4.88-3.05,4.88-4.6,1.98c-.1.04-.31.43-.33.56l-.53,2.36c-.17.78-1.07,2.3-1.7,2.84l-5.45,4.75-9.58,8.46c-7.99,7.05-16.87,12.27-26.76,16.27l-12.83,5.19-10.9,4.02-7.87,2.3-9.95,3.03-9.86,3.12-9.32,2.73-8.69,2.55c1.09-1.29,2.5-2.56,3.42-2.86l13.52-4.3,10.87-3.37,14.91-4.05,11.04-4.13,5.96-2.14,8.96-3.17c2.88-1.02,5.97-3.09,8.56-5.12l-5.52,2.3-4.59-.74,4.41-1.33,5.07-2.85c1.91-1.07,3.95-2.19,5.62-3.56.54-.19,2.12-.81,2.11-.8l-5.34,5.59,2.21-.32,3.54-2.82,4.92-3.91c.7-.56,2.15-2.65,2.66-3.43l1.1-1.67c.25-.37-2.54-1.19-2.73-.78l-2.34,4.81c-.3.61-1.77,1.69-2.23,1.19l-1.46-1.59-4.85,2.75c-.9.51-3.36.92-4.9.92l12.22-6.76,7.75-5.46.78,2.56,1.54-2.13c.6-.13,1.47-1.03,2.63-2.08l-1.66-1.56,5.49-6.03,7.39-6.55c1.53-1.35,2.8-3.04,4.17-4.74l6.3-7.8c.58.52,1.8,1.53,1.99,1.2,2.46-4.25.35-4.18,1.63-7.46l2.26-5.8c.71-1.84,3.12-.53,3.83-3.73.1-.43-1.24-1.34-1.6-1.09s-1.49,1.14-1.79,1.53l-5.81,7.69c-.27.36-1.86,1.21-2.17.91l-1.14-1.11c-1.35,1.79-3.18,2.82-5.62,2.34l5.51-4.3c3.27-2.55,6.23-5.3,8.27-8.66,1.23-.78,3.53-2.47,4.28-3.56l2.43-3.67-.9-.57-3.5,3.61.19-4.39-3.16,5.17-3.8,3.65c-.23.22-2.24-.16-2.08-.45l1.04-1.88,10.74-9.63,12.11-9.32,10.74-8.35c.47-.37,2.41-.3,2.83-.73.79-.8,2.17-1.83,3.01-2.42l9.26-6.43,12.77-7.32,3.45-2.3,7.75-5.35,13.97-10.06,5.39-4.55,1.55-1.4,6.39-7.82,2.21-2.95c1.22-1.64,2.22-3.94,3-5.91l.47-2.37,1.14-5.81c.11-.57-1.49-1.11-2.04-1.27l-3.11-.92,1.76-1.47c-.2-.62-.95-2.77-1.43-3.51l-2.77-4.29-2.1-.38c-.48-.09-.91-1.06-1.86-2.49-.05-1.16-.04-.83.08,1.77-1.07,1.63-2.61,3.34-4.56,4.49l-16.2,9.52-.61.21-5.34,3.15-12.08,7.89-25.17,14.9-5.33,3.46-7.97,4.29-11.2,4.65-5.04,1.95-9.83,4.1-12.68,5.34-14.03,6.3c-1.53.69-3.51,1.08-5.49,1.58l-4.73,1.19c-.55.14-2.57-.35-2.07-.62l11.98-6.43c.73-.39,3.32.07,4.15.11l2.8.15-3.51-1.15,2.95-1.8c1.59-.38,1.67-.4-.15.04-2.25.39-4.58.05-5.92-1.07l-2.89,1.73-6.48,3.55-6.96,3.82s.43-1.41.58-1.89l4.73-3.57,8.11-5.5,4.58-1.51,6.24-2.73,3.57.35-2.8-3.1-4.69-6.3-3.99-6.67c2.62.89,3.81,2.22,4.71,4.16,1.05,2.23,5.68.88,7.34,10.15l5.13-.71,1.96.2-3.02-5.12-2.19-.66c-1.16-.35,2.12-4.13,1.04-7.57l-4.58-14.52,4.07,4.81c-.29,1.69-.17,1.84.46,1.92l5.27,11.07c2.19,4.6-.84,6.39,2.45,9.11l5.23-1.27-5.56-.77,1.67-1.6c-.59.56,3.78-.24,4.53.37l2.07,1.7,1.6-3.35.67,4.34,1.92-3.26c.44-.75,3.73.06,3.97-.91l.43-1.72,4.94-4.6,1.19,2.01c1.99-.27,5.09-2.21,6.19-4.45l4.7-9.61.8-1.63c.19-.38,1.88.22,1.69.6l-.88,1.7-2.74,5.31-3.04,6.24c-.71,1.46-3.89,3.07-5.36,4.14,5.14-1.7,10.11-4.12,14.71-6.98l6.9-4.28-1.43-.89-3.76,2.18-.51-.76,10.18-5.75.33-.18,4.37-3.35c.71-.54,2.7-.94,4.02-1.17l-2.32,4.15,6.8-3.55,4.38-2.75c1.04-1.54,2.93-3.7,4.75-4.76l7.3-4.25c-.97-.81-1.61-1.25-1.34-1.59l1.51-1.85-6.43.08c-4.68.06-9.38-.13-13.98,1.26l-12.08,3.65-.49.55-7.51,2.12-5.56,1.02-4.73,2.49-3.18,1.71c-1.09.59-3.88,1.78-4.47,2.95l-7.17,14.33-6.31,8.17-1.25-2.14,3.94-5.43,4.27-8.5,2.43-9.4-4.56-5.19,2.07-1.44-4.13-.66c-.65-.1-.71-1.65-.73-2.74l8.94,4.11c1.48.68,3.7,4.17,5.31,3.72l5.68-1.61c.46-.13,1.56-.82,2.19-1.26l-5.39.79c-.33.05-.97-.74-.63-.84l1.81-.54,11.44-3.59,7.86-3.19,7.66-3.47,5.37-2.43,1.26-4.22-2.86-2.54-1.53-4.82,1.31-2.5,4.42,6.51,4.97,3.89c.67.52,3.04,1.08,3.91,1.08h7.74s7.28-.6,7.28-.6l5.65-.85c1.01-.15,1.43-3.57,1.46-4.66l.2-6.72-.97-6.52-1.72-7.26-4.14-2.16,2.33-.85c-.22,1.2.19-1.04.22-1.22l-3.48-.28-.59.62,1.44,1.42-5.81-.53c-6.71-.62-13.67-.77-20.55.58l-7.29,1.42-11.34,2.16-9.07,1.73-11.94,2.26-19.05,3.85-11.77,2.38-10.3,3.55-7.18,1.85c-.58.15-.89,1.76-.28,1.71l4.65-.45,8.13-.08-4.28.93-13.39,2.53c-6.41,1.21-12.99,4.05-15.05,8.34l-1.44,3ZM351.11,367.87l-2.88-1.32.03,2.58,4.79.89-1.94-2.14ZM291.45,368.6c-2.48-1.36-2.8-.27-1.22,1.17l1.22-1.17ZM280.37,372.15c1.57-.5,1.68-.96-.18-1.5l-7.52,2.03,7.7-.53ZM269.69,373.54c-2.34-.22-2.16-.2.43.04,1.06.1.67.07-.43-.04ZM344.75,373.43c.53.21-1.52-.99-1.53-.56l-.06,2.87c-.1.14.16-.24,1.59-2.31ZM377.95,375.03c-.13-.32-1.3-1.52-1.52-1.22l-1.48,2,3-.79ZM245.93,377.72l-.55-.85-5.56.27.55.85,5.56-.27ZM364.95,397.53l.4,2.36c.1.6,2.08,1.14,2.19.96l-.23-3.01c1.61.34,4.59,1.24,5.69,1.03l11.46-2.22c1.49-.29,2.82-1.01,3.97-1.96l5.85-4.85c.52-.43.39-3.23.22-3.58l-9.79-5.7-3.01-3.81c-3.07,2.78-6.22,6.23-8.31,9.64l-4.28,7-3.8,3.53-.37.62ZM344.21,391.5l.53,2.16c.51,2.07,5.23-4.08-.59-13.69v6.15s-.88,2.62-.88,2.62l.93,2.76ZM397.51,386.64l-1.32-2.73c-.04.9,1.07,3.09,1.32,2.73ZM361.43,388.76l-.7.91,3.39-.06-2.7-.85ZM364.56,396.35l1.82-6.78c.35-.6.4-.68-.33.57l-4.12,1.04c.46.59,1.57,1.97,1.57,2.68v2.25c0,.31.5.64.78.87l.29-.63ZM342.1,394c.56-1.5.46-1.24-.55,1.47l2.27-.2c.84.62,1.53,1.12-1.73-1.27ZM332.85,403.44l.53,1.23,5.06-2.28,7.41-3.7,6.85-5.14-2.02-.63-6.13,4.54c-.71.53-3.33,1.03-3.71,1.12l-7.26,4.65-.73.21ZM317.15,399.85c.64-.11,3.4-1.64,2.58-1.28l-9.12-.38-2.54,3.2c-1.36-.02-1.16-.02.45,0l8.63-1.55ZM332.65,402.27l-.93-2.05c3.02-.47,5.51,1.48,7.29-2.24-2.56.11-4.98.43-6.66,1.08l-3.63,1.4,3.57,2.59.36-.77ZM315.99,403.21l5.97-1.94c-.34-.1-2.97-.22-3.8.01l-8.31,2.29c1.75.2,4.84.06,6.13-.36ZM327.1,402.05l-1.8-1.47-2.48.82c-.41.14.4,1.3.55,1.22l3.73-.57ZM365.64,404.78l-.1-2.83c-.02-.55-1.33-.68-2.04-.65l2.14,3.48ZM307.69,404.54c-2.34-.22-2.16-.2.43.04,1.06.1.67.07-.43-.04ZM332.51,407.29l1.19-1.56-2.56,1.54.94.21.43-.19ZM293.57,409.3l1.07-1.49-3.84,1.77,2.32-.05.45-.23ZM264.7,415.12c1.16-.88,1.59-1.22.28-.24-.89.77-1.52,1.31-.28.24ZM397.64,446.76c.27.39,1.31.7,2.54,1.16l-2.41-4.79c.07-.87-.8-2.27-1.36-2.76l-4.14-3.63-5.71-4.41-5.05-3.9-.22,3.17-4.59-4.04,1.86-1.19-3.4-3.86-.6,2.16-1.75-1.37c-1.49-1.17.89-2.55-1.18-5.07l-3.32-4.05-2.15,2.96-2.06,5.34-5.72,14.58c-.59,1.49.33,5.79,1.7,6.58l6.36,3.7c8.72,5.07,17.29,3.6,23.45,6.9.62-.23,1.58-.51,1.57-.8l-.11-1.59,3.29,1.17,3.66-2.58-.66-3.69ZM267.79,415.23l-2.45,4.08,1.62.97,2.45-4.08-1.62-.97ZM302.87,424.82c-.31-.88-1.01-1.58-1.89-1.89l1.89,1.89ZM298.71,425.48l-.89-.07-.87,2,2.65-1.83-.89-.1ZM324.76,559.08l-2.75-1.48c-.31.6-.98,1.98-1.02,1.98-.02,0,.93.23,2.38.57-.02-.11.25,1.1.36,1.6l-2.6,3.28,1.65,2.13-2.36,2.8-.75.36-2.19,3.64c.8.03,2.26.07,2.46.12-.01.03-.46,1.04-.57,1.04h-1.94c-1.7,0-.84,2.15-5.83,8.03-.21.25-.5,1.64-.23,1.46l1.5-.99,1.83.64c1.28-1.14,4.17-2.46,5.7-2.04l5.61,1.56c4.12,1.14,3.63,4.82,4.77,4.7l2.17-.24,2.34,2.94-1.8.46c-1.36-.48-3.02-.93-3.53-1.57l-1.92-2.38-2.37,2.78c-1.2-.69-3.59-1.96-4.95-2.25l-8.81-1.87-.78,1.75c3.01.22,5.8,1.29,9.15,2.33l9.09,2.83c1.39.43,3.55.76,4.55,1.28l3.08,1.6c1.91,1,6.01-1.13,6.11-3.66.07-1.84-1.97-5.02-2.47-7.22l-2.6-11.44-.69-9.1.9-14.65,1.23-12.26.68-8.91.95-7.55.99-7.02.91-6.04,3.44-21.6,1.5-9.6.97-.83.31-2.26.4-4.7,1.79-10.62,1.96-10.99-.17-1.07.13-5.04.71,4.83.32.45,2.32-11.13c.11-.53.23-2.26-.24-2.14l-2.6.68c.65.49.81.56.79.71l-.36,5.3-1.58.33,1.21-5.19-.68-.47-5.17,4.12c-.7.02-.32.05,2.15.16-.47-.73.65,1.01.72,1.11l-5.4,4.1-1.66,1.27,2.94.59-2.61,2.84c.09.59.74,3.14.56,3.9l-2.04,8.53-.39,6.6-1.55,7.73-1.41,8.06-1.13,9.29-1.47,8.58c-.09.56.29,2.13.53,2.7l-2.18,1.86,1.89,2.62-1.43,4.45.06.23-.25,4.77-.78-3.97-.62-.57-.67,8.03-1.08,4.1-.55,11.01-1.13.2-1.99,2.79c.55,1.87,1.38,2.59,1.55-.6-.52-.21-.5-.2,1.74.7l-3.77,3.9-.27,8.03.28,4.1c.04.54-1.62.47-2.92.22l-.4,2.67ZM269.03,442.17c-.21-.38-2.06-1.31-2.23-.89-.2.5-.71,1.77-.58,1.43l3.48.85c.2.41-.45-.91-.67-1.38ZM243.27,444.75c.22-2.36.2-2.15-.04.43-.1,1.06-.06.67.04-.43ZM402.48,446.56l-1.73-.29-.72,5.91,2.45-5.61ZM249.69,449.54c-2.34-.22-2.16-.2.43.04,1.06.1.67.07-.43-.04ZM239.31,452.63c.71-.59,3.31-.96,4.52-1.28-1.07-.44-4.96-.88-6.04.2l-4.03,4.03,2.2-.16,3.35-2.79ZM335.87,453.42l.84-2.44c-.28-.03-1.65.09-1.78.47l-.58,1.7c-1.16.31-3.15,1.27-3.88,2.17-1.87,2.31-4.06,2.75-5.84,4.63l-5.63,5.96c-.84.89-2.29,1.84-2.16,2.58l.55,3.08-3.91,3.51c6.39-1.07,8.8-4.36,10.14-9.5l1.29-4.98,4.03,2.47c-1.42,1.03-3.47,2.65-3.9,3.84l-1.32,3.68,4.65.93c-.06.65-.12,1.42-.08,1.01-3.83-.14-6.08.32-8.51,1.68l4.97,2.13,5.02,1.74,1.19-3.47,1.35-1.41.7-7.02.77-7.4c.17-1.66.74-3.78,1.3-4.91.07-.14.23-.21.8-.44ZM343.26,452.11c-.11-1.1-.14-1.49-.04-.43.25,2.6.26,2.77.04.43ZM374.76,453.93l-1.89-1.89c.31.88,1.01,1.58,1.89,1.89ZM230.99,454.93c0-.62-.5-1.11-1.11-1.11s-1.11.5-1.11,1.11.5,1.11,1.11,1.11,1.11-.5,1.11-1.11ZM336.88,454.07l-.72.66,1.53,3.27-.81-3.93ZM226.81,455.75c1.47-.41,1.43-.41,0,0-1.36,1.44-.84.89,0,0ZM341.26,457.11c-.11-1.1-.14-1.49-.04-.43.25,2.6.26,2.77.04.43ZM369.87,456.43l-1,1,4.5,4.5,1-1-4.5-4.5ZM336.15,484.34l.37-3.65.51-2.07c-.05-2.36-.08-5.57.45-8.07l1.97-9.18c.09-.42-.79-1.7-1.33-2.52l-2.12,12.11-2.31,13.81-.47,3.19-.13,8.09,3.07-11.69ZM319.69,463.27c-2.51-.9-4.18.88-3.72,2.61l3.72-2.61ZM341.39,464.99c-.01-1.26,0-1.22,0-.02-.03,2.35-.03,2.37,0,.02ZM313.8,465.82c1.55-.61,1.33-.52.01-.01-1.26,1.35-.71.76-.01.01ZM303.61,474.34l-1.56,3.53,2.27-.5c.91-2.09,3.52-3.85,5.75-4.01l2.98-4.49-2.75-1.21-.86,4.46-3.94-.91-14.21,9.08,1.51.78,4.41-2.74,6.4-3.99ZM314.77,469.49c1.03.1,2.19.22,0,0-1.16,1.98-.65,1.1,0,0ZM317.85,477.61l-4.05-.23,4.05.23ZM333.26,478.11c-.11-1.1-.14-1.49-.04-.43.25,2.6.26,2.77.04.43ZM351.08,482.99l.89-.55-.33-5.56-.84.55.27,5.56ZM315.01,479.76c-2.67-1.98-5.69-2.07-8.28,0h8.28ZM330.71,485l-.38-3.91c-2.25-.68-7.02-2.18-9.26-1.54l-6.24,1.79,8.28,2.37c2.63.75,5.72,1.24,7.59,1.29ZM316.96,509.76l6.04,2.04c1.28.43,2.61,2.26,3.82,4.13l.9-9.06,1.36-8.54,1.04-8.71c-2.14-1.01-3.86-1.9-4.96-2.73l-6.34-.3-13.45-2.44-1.04-1.01c3.28-.42,2.62-1.53.97-2.39l-5.83,1.13,3.59,1.72-13.05,2.81c-2.53.55-4.78,4.57-5.19,7.24-1.02,6.75-2.96,12.46-5.58,18.62l-3.57,8.42-1.52,3.25c4.56,2.08,5.06-5.54,6.98-4.15l2.41,1.74,6.13-4.02,5.87-2.93,8.44-4.95c7.2-4.22,11.83-.27,13,.13ZM287.95,485.04c-.15-.33-1.31-1.52-1.53-1.22l-1.49,2,3.01-.77ZM331.19,486.58c-2.55-.52-3.53-.68-3.35-.24l.96,2.39,2.39-2.15ZM277.8,488.82c1.55-.61,1.33-.52.01-.01-1.26,1.35-.71.76-.01.01ZM334.31,496.64l-1.88,1.9,1.06,3.68.82-5.58ZM141.95,502.02l.82-3.01-2.01,1.48c-.3.22.87,1.39,1.19,1.53ZM269.8,499.82c1.55-.61,1.33-.52.01-.01-1.26,1.35-.71.76-.01.01ZM134.79,509.39l4.9-8.08-.56-1.06-7.02,10.67,2.33-.79.35-.75ZM334,506.01c0-.64-.52-1.16-1.16-1.16s-1.16.52-1.16,1.16.52,1.16,1.16,1.16,1.16-.52,1.16-1.16ZM331.32,515.6c1.53-2.1,2.27-2.93,2.16-3.39l-1.15-4.75-2.27,6.6,1.26,1.53ZM294.8,517.82c1.55-.61,1.33-.52.01-.01-1.26,1.35-.71.76-.01.01ZM359.45,517.59c-2.48-1.36-2.81-.26-1.22,1.18l1.22-1.18ZM328.26,519.11c-.11-1.1-.14-1.49-.04-.43.25,2.6.26,2.77.04.43ZM330.14,519.31c.91-.96,1.61-1.69,1.18-1.24-1.35,1.42-1.69,1.77-1.18,1.24ZM290.77,521.59l.7-1.86-1.55,1.37.85.49ZM326.26,530.11c-.11-1.1-.14-1.49-.04-.43.25,2.6.26,2.77.04.43ZM328.26,531.11c-.11-1.1-.14-1.49-.04-.43.25,2.6.26,2.77.04.43ZM259.84,545.29l5.7-6.83c1.8-2.15,3.16-4.4,3.23-7.76l-2.78,4.6-7.3,9.75c.36,2.08.88,1.83,1.15.24ZM330.98,536.39l-.78-2.66-.07,3.36.85-.69ZM250.82,537.49l1.06-2.59-1.5,1.06c-.37.26-.41,1.24-.13,1.6l.56-.08ZM340.69,536.93v11h1.18v-11h-1.18ZM101.52,539.24l-.23.36-1.45,1.45,3-1.1-1.31-.71ZM240.14,545.2l5.17-5.28-1.28-.58-4.72,4.98c-.5-.54.19.21.82.89ZM324.52,553.71l1.73-4.69c.69-1.87.42-5.54.25-8.26l-3.04,12.57,1.07.38ZM240.8,546.82c1.55-.61,1.33-.52.01-.01-1.26,1.35-.71.76-.01.01ZM244.51,565.96c.55-1.65,1.17-3.85,1.57-4.28l8.97-9.54.47-2.22-6.23,6.23-6.4,8.25,1.6,1.55ZM86.95,554.03c-.13-.31-1.3-1.51-1.52-1.21l-1.48,2,3-.79ZM232.14,554.31c.91-.95,1.61-1.69,1.18-1.24-1.35,1.42-1.69,1.77-1.18,1.24ZM322.52,556.26c2.35-.33,1.07-.83.22-.83-.26,1-.7,2.67-.22.83ZM76.49,556.16l-.27.33-8.13,6.03c-1.04.77-3.31,1.04-5.06.92l-7.62,6.9c2.51.38,5.14-2.58,6.69-4.23.73-.79,3.1-1.17,4.74-1.66,1.97-.58,4.97-3.13,6.84-4.6l4.3-3.41-1.48-.28ZM56.87,565.82c-.31-.88-1.01-1.58-1.89-1.89l1.89,1.89ZM246.8,564.82c1.55-.61,1.33-.52.01-.01-1.26,1.35-.71.76-.01.01ZM107.47,654.07l2.37,1.67c.09-.25-.52-2.74-1.07-3.62l-3.07-4.16v-1.61c-.17-.56-1.68-.15-1.99.34l-.52-3.02c-1-1.65-1.74-3.1-2.11-4.38l-1.74-6.12-1.87-5.74-4.35-9.45c-.78-.42-2.81-1.3-2.95-2.03-.2-1.02-.41-3.89-.94-4.68l-4.99-7.39-5.81-11.55-7.67-14.37-4.35-9.68-8.74,5.28,3.36,5.26,4.27,6.72,6.03,9.97,4.46,7.62,4.6,8.31,5.84,11.17,6.58,12.63,1.73,3.54,5.14,11.45c1.44,3.21,3.62,6.4,5.73,9.13l4.8,6.21.28-1.41,1.12-2.58c-2.02-2.62-3.42-4.98-4.13-7.51ZM319.85,568.72c1.14-.06.16-.04-1.99.02l1.41,1.3.58-1.32ZM301.18,585.32c.85-.95,1.59-1.78,1.09-1.22-1.35,1.5-1.63,1.82-1.09,1.22ZM251.85,585.61l-4.05-.23,4.05.23ZM246.72,589.26c-.65-.54-2.34-.73-3.18-.4-.04-.01,2.6,1.06,2.72,1.1l.45-.7ZM306.46,587.83l-.65.99,4.13,1.05-3.48-2.04ZM305.68,589.99l-2.81-.96,2.32,2.11.49-1.15ZM221.14,591.32c.92-.96,1.61-1.69,1.18-1.24-1.35,1.42-1.69,1.77-1.18,1.24ZM306.47,590.71l-.6,1c1.07.89,3.55,1.2,5.07.93l-4.47-1.93ZM247.67,591.63c-2.16.76-2.84.99-2.65.93l2.36,1.48c.37.23.35-1.59.29-2.4ZM296.67,592.99l-2.82-.97,2.35,2.14.47-1.17ZM348.87,593.45l-1.55-.56c-.41-.15-.35,1.41-.28,2.04l1.35-.96.48-.52ZM297.59,593.6l-.69,1.02,4.32,1.23-3.63-2.25ZM324.69,593.89c.02-.06-2.13.81-1.76.93l4.05,1.3-2.28-2.23ZM304.93,597.41l-2.93-1.37c-.06.37-.06,1.81.36,1.87l1.88.28.69-.79ZM336.01,597.58l-1.64-.71-3.56.31.56.84,4.64-.45ZM193.8,604.39l4.05.23-4.05-.23ZM189.73,606.95l2.17-.65c.42-.13-.32-1.16-.64-1.1l-4.21,1.16-12.21,6.22c4.23,1.13,7.91-3.55,14.89-5.64ZM286.41,616.81l-.7.82,3.34-.04-2.64-.78ZM165.95,619.05c-.15-.34-1.3-1.54-1.52-1.23l-1.49,2,3.02-.77ZM314.84,622.68c-3.31-.88-5.32-.83-7.09-.07l7.09.07ZM321.86,623.24l-6.54-.17c.64.36,1.85.98,2.39,1.03l3.47.29.68-1.15ZM159.01,627.56c.96-.87,1.06-1.62-.33-.68-2.1.64-1.69,1.03.33.68ZM153.7,628.04c-1.55-.24-2.95,1.16-2.64,2.97l2.64-2.97ZM141.95,640.21c-2-.17-3.27-.27-3.12.14l.83,2.22,2.28-2.36ZM124.14,655.31c.9-.95,1.61-1.7,1.18-1.23-1.35,1.41-1.69,1.77-1.18,1.23ZM120.73,661.52l-1.95-3,3.91-2.17c-.35-.49-4.46-.47-4.5.84l-.21,6.67,2.19-2.16.56-.18ZM114.39,666.04c-1.41-1.99-3.62-1.14-1.66,1.4-.13.11.59-.5,1.66-1.4ZM108.77,667.62h-4.08s2.44,2.32,2.44,2.32c.86.12,1.67-1.13,1.64-2.32ZM118.18,677.04l-3.15-2.3,2.25,3.08.9-.79ZM118.43,677.91l-.52.56,1.43,1.43.46-.45-1.37-1.54Z"/>
            <path class="cls-3" d="M290.33,591.91l-3.32,1.54,3.04,1.53-8.2-1.39c-.06-1.6,4.91-3.85,8.48-1.68Z"/>
            <polygon class="cls-3" points="349.21 474 347.94 477.09 346.49 476.52 348.4 470.56 349.21 474"/>
            <polygon class="cls-3" points="423.88 314.97 423.9 311.95 425.82 309.92 423.88 314.97"/>
            <polygon class="cls-3" points="432.96 93.64 432.54 95.5 427.79 94.25 432.96 93.64"/>
            <path class="cls-3" d="M436.05,94l-3.09-.36-3.5-1.19-5.1-1.73-.05,1.53,3.47,2-6.01-1.13c-3.34-.63-6.02-1.49-9.14-2.94l8.23.58-2.48-2.25,16.2,3.96c.49.12,1.68,1.32,1.46,1.54Z"/>
            <path class="cls-3" d="M360.84,446.92l2.19,3.18c-1.51-.46-3.29-1.88-4.38-2.96l2.19-.22Z"/>
            <path class="cls-3" d="M362.04,596.49c.19.68,1.32,1.44,1.6,1.68.3.25.19,1.92-.19,1.84s-1.19-.26-1.49-.49l-3.11-2.38,3.2-.65Z"/>
            <polygon class="cls-3" points="397.76 443.14 397.64 446.76 395.19 443.17 395.55 441.3 397.76 443.14"/>
            <path class="cls-3" d="M387.86,99.98c-2.28-.1-5.11-.47-7.63-1.39l-13.02-4.78-3.07-.66-6.95-3.55c-1.19-.61-3.33-2.61-3.69-3.22.74-.28,1.45-.46,1.61-.77l.9-1.73,1.38,1.82c.78,1.02,2.68,2.55,4.3,3.73,3.63,2.64,5.36.59,10.07,3.73,2.59,1.73,7.9,4.63,10.8,4.44l6.23-.4.61.59,3.63.76-4.14.12-.54-.81-3.54.38,3.04,1.74Z"/>
            <path class="cls-3" d="M314.98,603.94l.1,1.58,3.93.25-2.01,1.14-6.99-1.15-8.15-1.14-7.22-1.43-3.75-1.42,7.25.87,7.97.44c1.35.07,3.69.8,5.23,1.5l3.64-.63Z"/>
            <path class="cls-3" d="M357.83,600.92l.06,2.09-5.14-1.13c-.68-.15-1.83-1.33-1.83-1.99l6.91,1.03Z"/>
            <polygon class="cls-3" points="290.93 600.75 290.89 601.76 287.65 601.31 290.93 600.75"/>
            <path class="cls-3" d="M185.78,423.26c.51.28,1.97-.71,2.1-1.31l.97-4.14,2.65-1.01c.44-.29-.44,2.28-.8,2.95l-5.08,9.39c-.39,1.95-.45,2.22-.16.33l.32-6.2Z"/>
            <path class="cls-3" d="M195.93,403.96l2.31-.85-2.01,5.01-4.25,7.91c-.93-4.01,2.29-6.19,3.95-12.07Z"/>
            <path class="cls-3" d="M421.36,102.97l-3.58-.06c-.55,0-1.55-1.31-2.05-2.03l6.15,1.57.53.64,9.36,1.21s-.75.86-.95,1.18c-.26.41-1.26.08-2.14-.13l-6.77-1.61c-.19-.04-.24-.2-.54-.76Z"/>
            <polygon class="cls-3" points="398.93 86.72 393.37 86.99 392.81 86.14 398.38 85.87 398.93 86.72"/>
            <path class="cls-3" d="M389.37,85.46c.96-.23-.57.13-2.11.5-.77-1.52.43-3.46,2.11-.5Z"/>
            <path class="cls-3" d="M403.41,86l-2.74-.6,2.94-.46.64,1.12,2.42,2.62c.36-.09-1.02.24-1.42.33-.6.14-1.26-1.19-1.45-1.79l-.39-1.21Z"/>
            <path class="cls-3" d="M403.85,100.61l-4.05-.23,4.05.23Z"/>
            <path class="cls-3" d="M455.13,101.58c1.06.1.67.07-.43-.04-2.34-.22-2.16-.2.43.04Z"/>
            <path class="cls-3" d="M396.13,97.58c1.06.1.67.07-.43-.04-2.34-.22-2.16-.2.43.04Z"/>
            <path class="cls-3" d="M411.13,89.58c1.06.1.67.07-.43-.04-2.34-.22-2.16-.2.43.04Z"/>
            <path class="cls-3" d="M361.87,86.82l-1.89-1.89c.88.31,1.58,1.01,1.89,1.89Z"/>
            <path class="cls-3" d="M338.46,408.79c-3.01,4.92-2.61,11.21,1.27,14.7.06.06-.66.81-.84,1.04-1.48,1.95-6.79-8.52-2.64-14.97l1.14-1.76c.22-.34,1.19.76,1.07.99Z"/>
            <path class="cls-3" d="M393.39,181.99l-1.97,2.24c-4.86,0-8.27.43-12.99,1.31-3.84.72-8.84,0-12.88.19l-2.18.1c-.58.03-.89-.7-1.53-1.94l20.8-1.67,5.76-.46-3.96-.87c-1.68.18-1.89-.53-.27-1.32l2.79-5.33.28,2.6c-.65.92-1.41,1.94-.94,2.06l2.44.59,3.63,1.39-1.5-4.79,2.71.55c.55.11-.31,2.12-.21,2.68l.39,2.15c.03.18.16.22.71.52l10.27-3.89-.07,2.65-6.95,2.12c-.81.25-2.96-.11-3.77-.37-.2-.06-.32-.17-.55-.53ZM372.69,184.54c-2.34-.22-2.16-.2.43.04,1.06.1.67.07-.43-.04Z"/>
            <path class="cls-3" d="M422.57,228.65l.81,3.5.2-3.29,2.46-4.76,3.67-9.26c-.36,3.42-1.38,6.22-2.43,9.34l-2.29,6.87-2.66,8.46-2.2,7.58c-3.56-6.63,1-7.77,1.83-13.98l.6-4.46Z"/>
            <path class="cls-3" d="M423.59,228.86l-1.01-.21,1.77-7.17c.78-3.16,1.79-5.9,3.61-8.71l-3.54,12.68-.83,3.41Z"/>
            <path class="cls-3" d="M351,239.02l.22-7.51c.03-.87,1.01-2.24,2.47-3.66l-.44,7.18c-.06,1.02-1.01,2.58-2.25,3.99Z"/>
            <path class="cls-3" d="M345.7,264.46c.19.17-1.46-.17-1.46-.48v-2.09s.36-5.84.36-5.84l1.25-8.27,1.76.09c-.6,1.69-1.42,3.86-1.47,5.14l-.45,11.45Z"/>
            <path class="cls-3" d="M373.54,209.97l2.08-4.36-.13,3.76c-.05,1.45,1.39,3.77,2.37,5.67l-2.54-1.21c-.44-.14-1.57-.17-1.7-.64l-.68-2.59-.55-.75-1.23,2.34-.13-3.36,1.84.45.66.67Z"/>
            <path class="cls-3" d="M366.29,296.88c.03-.08-.71.82-.75,1.11l-.29,2.25-2.23-2.45,2.34-1.61c.09,1.18-.08-1.01-.09-1.14-1.05-.94-1.34-1.06-1.08-1.15l1.95-.67c.27-.09,1.03-.3,1.26-.11l1.51,1.24c-1.01.62-1.74,1.1-1.68,1.1-.52-.03,1.83,1.67,1.2,2.3-.22.22-1.04,1.13-1.03,1.11,0-.02-.58-1.05-1.1-1.98Z"/>
            <path class="cls-3" d="M388.09,221.23c-.84-.38-2.77-1.23-1.76-.78l5.06-5.07c-.49-.96.41.8.84,1.63l-4.14,4.22Z"/>
            <path class="cls-3" d="M427.28,241.96c-.65,1.96-1.46,3.59-2.37,5.16.31-3.99,1.34-6.83,2.72-10.39l.74-1.89c.15-.4,1.14.53,1.04.73l-2.13,6.39Z"/>
            <path class="cls-3" d="M436.52,174.56l-5.49-2.15,3.47-2.35,2.43,4.28.41.57,1.38-.99c.07.63.13,2.19-.28,2.04l-1.55-.56-.36-.84Z"/>
            <path class="cls-3" d="M360.41,114.24l-1.04,2.78c0,.37-.51-2.04-.39-2.54l3.45-14.48c.11,1.67-.08,4.19-.41,5.94l-1.61,8.3Z"/>
            <path class="cls-3" d="M402.7,158.76c-.13.2.46-.74,1.3-2.08l-3.02-1.37.18-4.51c2.29,1.17,4.7,4.16,3.88,7.08-.63,2.25-3.86,3.67-6.25,2.5l3.9-1.62Z"/>
            <polygon class="cls-3" points="350.08 117 351.73 106.38 353.27 106.59 350.08 117"/>
            <path class="cls-3" d="M361.95,234.17c-.24.22-2.09,1.86-2.09,1.86l1.6-7.22.49,5.36Z"/>
            <path class="cls-3" d="M416.41,201.91c-.1.08-1.21,1.1-1.14.95.07-.14-.29-1.2-.4-1.56s1.27-.18,1.6-.03l.87.41,3.88-.7-3.42,2.7c-.49,1.3-.67,1.09-.52-.19l-.89-1.59Z"/>
            <path class="cls-3" d="M421.02,260.91l.49-5.06c.04-.41.61-1.65.78-2.04s1.77.78,1.09.41l-1.77,6.13.78.55,2.6,1.52-1.68,1.14-3.38-.04c-.05-.06.1-1.36.47-1.53l1.44-.63-.81-.46Z"/>
            <path class="cls-3" d="M410.09,246.09l-1.76,5.9c.03.29-.64-1.91-.52-2.33l2.62-8.73c.22,1.02.05,3.85-.34,5.16Z"/>
            <path class="cls-3" d="M414.17,168.02c.4-.96.8-1.65.86-2.12l.41-3.04,1.58,2.7c.49.84-2.21,2.57-2.85,2.46Z"/>
            <path class="cls-3" d="M387.08,249.25l-2.2-.65c-.42-.12-.53.12-1.74,1.07.11.71-.22-1.36-.32-1.97s2.16-1.29,2.52-.81l1.74,2.36Z"/>
            <path class="cls-3" d="M380.12,230.9c.16-.14-1.66,1.42-2.47,2.11-.61.52-.8-3.37-.52-2.8l2.99.69Z"/>
            <path class="cls-3" d="M393.48,322.98l-1.1,2.08c-.19.36-1.39-.66-1.29-.74l2.49-4.4c.06.62.14,2.61-.1,3.06Z"/>
            <path class="cls-3" d="M424.87,173.97l-1.03,1.57c-.26.39-1.02-.11-2.44-.87-1.38.03-1.87-.24.04-1.23l3.42.53Z"/>
            <path class="cls-3" d="M449.22,173.5c.03,1.24-2.74,1.7-2.24.27l2.77-7.94-.53,7.67Z"/>
            <polygon class="cls-3" points="401.58 174.12 399.12 177.27 398.49 174.91 401.58 174.12"/>
            <path class="cls-3" d="M425.38,204.84c-.13.05-.13-1.94.05-2.34l1.14-2.6c.51,1.47,0,4.12-1.19,4.94Z"/>
            <polygon class="cls-3" points="403.78 309.81 402.39 308.11 404.85 304.89 403.78 309.81"/>
            <path class="cls-3" d="M362.11,224.02l-.05-4.13,1.93,1.64c.29.24-.47,1.02-1.87,2.49Z"/>
            <path class="cls-3" d="M420.42,141.63c-.96.25-.14-3.15.89-3.41.95-.21.17,3.12-.89,3.41Z"/>
            <polygon class="cls-3" points="343.08 274.99 342.81 269.43 343.66 268.87 343.93 274.44 343.08 274.99"/>
            <path class="cls-3" d="M388.27,214.59l-1.75-.05.77-2.62c.12-.42,1.73.11,1.61.54l-.63,2.13Z"/>
            <path class="cls-3" d="M368.8,224.78c-1.04-.57-1.97-1.02-1.82-1.29l.94-1.73.89-1.01v4.03Z"/>
            <polygon class="cls-3" points="361.01 185.58 356.37 186.02 355.82 185.18 359.38 184.86 361.01 185.58"/>
            <path class="cls-3" d="M386.32,252.53l-.7,2.34-.76-2.27c.14-1.48.55-2.11,1.46-.07Z"/>
            <polygon class="cls-3" points="355.22 95.07 354.78 90.43 355.62 89.87 355.94 93.44 355.22 95.07"/>
            <path class="cls-3" d="M369.62,209.7l-2.13-3.4c.73-.03,2.02.09,2.04.63l.09,2.76Z"/>
            <path class="cls-3" d="M353.12,105.08l.53-7.62c.53-1.62.98-1.65,1.28.04l-1.81,7.58Z"/>
            <path class="cls-3" d="M361.96,317.02c-.33-.16-1.5-1.32-1.2-1.54l2-1.48-.8,3.02Z"/>
            <path class="cls-3" d="M411.99,316.47c-2.11-1.38-2.24-1.47-1.71-1.12l1.25-2.55.46,3.67Z"/>
            <path class="cls-3" d="M390.95,329.02c-.32-.15-1.5-1.31-1.19-1.53l2.01-1.48-.82,3.01Z"/>
            <polygon class="cls-3" points="356.44 135.34 354.55 135.56 356.56 128.71 356.44 135.34"/>
            <path class="cls-3" d="M341.19,292.91l.23-4.05-.23,4.05Z"/>
            <path class="cls-3" d="M353.19,146.91l.23-4.05-.23,4.05Z"/>
            <path class="cls-3" d="M392.95,352.02c-.32-.14-1.49-1.31-1.19-1.53l2.01-1.48-.82,3.01Z"/>
            <path class="cls-3" d="M351.19,156.91l.23-4.05-.23,4.05Z"/>
            <path class="cls-3" d="M349.95,245.02c-.32-.15-1.49-1.32-1.19-1.53l2.01-1.48-.82,3.01Z"/>
            <path class="cls-3" d="M423.61,212.54c0,.32-2.01-.98-1.76-1.18l1.77-1.37v2.55Z"/>
            <path class="cls-3" d="M419.89,199.09l-.74-2.1,1.92,1.1.29.84c.26-.17.91-.62.97-.69.05-.07.59,1.27.55,1.19l.47.47,1.36-.97c.07.63.13,2.19-.28,2.04l-1.55-.56-.51-.47-1.5-.51-.98-.34Z"/>
            <path class="cls-3" d="M412.37,229.99q0,2.34,0,0,0-1.23,0,0Z"/>
            <path class="cls-3" d="M413.32,162.08c-1.35,1.42-1.69,1.77-1.18,1.24.92-.96,1.61-1.69,1.18-1.24Z"/>
            <path class="cls-3" d="M426.22,248.67c.25,2.6.26,2.77.04.43-.11-1.1-.14-1.49-.04-.43Z"/>
            <path class="cls-3" d="M419.22,249.67c.25,2.6.26,2.77.04.43-.11-1.1-.14-1.49-.04-.43Z"/>
            <path class="cls-3" d="M397.87,160.82l-1.89-1.89c.88.31,1.58,1.01,1.89,1.89Z"/>
            <path class="cls-3" d="M383.76,259.93c-.88-.31-1.58-1.01-1.89-1.89l1.89,1.89Z"/>
            <path class="cls-3" d="M396.22,298.67c.25,2.6.26,2.77.04.43-.11-1.1-.14-1.49-.04-.43Z"/>
            <path class="cls-3" d="M394.32,310.08c-1.35,1.42-1.69,1.77-1.18,1.24.91-.96,1.61-1.69,1.18-1.24Z"/>
            <polygon class="cls-3" points="339.1 603.22 333.95 603.24 329.99 602.63 321.7 601.34 330.22 601.26 337.25 601.71 339.1 603.22"/>
            <path class="cls-3" d="M388.13,608.58c1.06.1.67.07-.43-.04-2.34-.22-2.16-.2.43.04Z"/>
            <path class="cls-3" d="M361.22,625.65l-3.2-.23,3.2.23Z"/>
            <path class="cls-3" d="M336.91,583.74l-2.21,2.29,1.27-4.04c.12-.39,1.02,1.78.95,1.75Z"/>
            <path class="cls-3" d="M340.07,594.08l-1-2.14,1,2.14Z"/>
            <path class="cls-3" d="M376.13,367.58c1.06.1.67.07-.43-.04-2.34-.22-2.16-.2.43.04Z"/>
          </g>
        </g>
        <g>
          <path class="cls-3" d="M880.07,526.61l-3.57.72,3.41,1.55,7.33,4.61,5.09,2.93.23-2.89,2.56,1.83,2.39,3.79-.61-3.41,14.05,6.49c.12.08.48.46.57.57l5.13,2.24,8.4,3.64,9.42,5.22c-3.28-.28-5.5-.69-7.77-1.53l-15.33-5.71,2.37-1.22-3.51-1.58.05-.74c-.3.02-1.42.11-1.06.08l2.14,3.13-14.84-6.3-14.35-7.41-14.76-8.18-4.77-2.7,2.26-1.46-2.38-1.48-.29,2.6-9.08-7.09,4.24.36.27-.27-2.9-2.33-2.19,2.13-4.6-3.57c-.57-.44-.49-2.7-.36-4.16.6-.09-1.49.24-2.05.32s-2.01-.94-1.99-1.05l2.31-1.32c.31-.18-.95-1.02-1.41-1.34l-1.81,2.19-5.97-6.32c-1.1-1.16-3.21-3.47-3.86-4.76l-3.68-7.28-1.21,3.59c-1.25-1.25-3.2-3.66-4.06-5.47l1.43-2.3-4.37-3.89-2.4-4.75c-.66-1.3-3.29-2.83-4.56-3.39l-.99-4-2.09,1.22c-.38-.49-1.18-1.21-1.91-1.87l-3.82-3.48-4.61-5.3-10.54-13.71c-1.21-1.57-2.05-4.22-2.45-6.69-.24-1.44-3.19-3.41-4.02-4.6l-2.6-3.37-1.6-3.3-.78,2.57-3.76-4.7,3.63.78-2.82-3.27-1.77,2.5-1.05-3.02-.45-.52-2.87-3.32-.3-.35-2.01-1.97c-1.81-1.78-2.87-4.71-3.24-7.32-.52-.04-2.53-2.89-1.75-3.02,1.38-.23,3.64,1.62,4.57,2.93l3.91,5.52.95.5,1.95,3.96-2.89-3.26-.29-.75-1.58.46,1.36,1.94.43.43,2.41,3.63.47.67c.34-.29,1.1-.95,1.08-.93.01-1.98.01-2.41,0-1.65l10.15,11.73,5.09,5.88,5.74,7.24,15.35,19.65,6.92,9.06,9.25,10.86c2.6,3.05,6.64,6.92,8.11,10.23l2.62,5.88,2.2-2.17,6.57,6.54,7.74,7.14,10.14,7.93,4.31,2.53,11.33,6.68ZM797.37,448.99q0-1.23,0,0,0,2.34,0,0ZM807.24,460.21l-2.61-3.1c-.33-.4-2.1.85-1.74,1.25l1.39,1.54,2.95.3ZM859.39,516.17l-1.46-.2,1.46.2Z"/>
          <polygon class="cls-3" points="780.92 428.94 780.48 431.21 778.55 428.2 780.92 428.94"/>
          <path class="cls-3" d="M813.95,470.74l3.49,4.67,3.48,3.46,1.31,2.74,1.64,3.45-6.39-6.8-7.94-9.39,1.33-.92c.74.95,2.08,2.34,3.08,2.78Z"/>
          <path class="cls-3" d="M879.91,528.89l.16-2.28,4.35,2.56c.04-.44-.04.48-.09,1.07l-4.42-1.35Z"/>
          <path class="cls-3" d="M756.86,399.67c-1.71,0-3.55-.32-5.69-.88l-4.88-1.27c-.43-.11-1.35-1.05-1.93-1.62l4.63.67,7.86,3.1Z"/>
          <path class="cls-3" d="M836.79,585.67c-.96.02-3.22-.36-4.48-.84l-6.62-2.54c1.29-.07,3.67-.14,4.45.22l6.65,3.15Z"/>
          <rect class="cls-3" x="714.44" y="409.12" width="5.05" height="1.81" transform="translate(-88.43 593.05) rotate(-42.57)"/>
          <path class="cls-3" d="M889.37,532.68c-.25.3-1.92-.87-2.23-1.57-.23-.54,2.2,1.12,2.23,1.57Z"/>
          <g>
            <path class="cls-3" d="M700.88,506.04c-1.09-.54-2.24-2.68-1.88-4.1,1.03.85,1.69,2.34,1.88,4.1Z"/>
            <path class="cls-3" d="M691.2,612.27c-1.49.54-3.59.69-4.95.37.95-.74,3.18-.73,4.95-.37Z"/>
            <path class="cls-3" d="M604.9,437.08c-.41,2-1.64,4.65-2.67,6.89l-1.55,3.37c-.22.02-1.92.15-1.38.11l-1.27-2.68.88-3.05,1.66,2.22.84-3.27-.28-.63.1-3.26.75,2.62.19.31,2.73-2.63Z"/>
            <polygon class="cls-3" points="722.91 390.95 722.76 392.26 719.69 391.24 722.91 390.95"/>
            <path class="cls-3" d="M858.17,619.53l-2.29.82c.69.96.91,1.46.73,1.87-1.56-.74-3.57-1.95-4.75-3.22l2.25-.54-6.51-4.51c.08-.33.6-.8,1.48-1.56l5.26,4.14,3.84,3.02Z"/>
            <path class="cls-3" d="M722.76,392.26l4.26-.78-4.11-.53-2.49-1.05c-.34-.1-.66.76-.73,1.34l-4-1.18-8.16-2.82-8.58-3.4-12.65-4.43-13.87-5.19-13.4-4.65c-1.32-.46-4.65-.16-6.16,0l-9.3.99-8.18.88c-4.25.45-5.04,13.33-3.69,22.16l6.24,1.26,2.02,3.4,1.53-2.07c.34-.46,1.8.24,2.55.5l6.94,2.43c1.11.39,3.9-.34,4.76-1.06l1.52-1.28.86-.38,1.82-6.95c.29-1.55.84-1.91.86.35l2.88,1.37c-1.08,1.98-2.21,6.18-1.23,7.93,2.01,3.63,6.61,4.99,9.82,6.42l8.21,3.66,9.84,4.35,6.5,3.33,5.82,3.44c1.78,1.05,2.74,2.14,4.06,4.27l1.15-2.52,2.51-5.5c.94,1.01,1.62,1.73.82.88l-1.73,5.96c.68,1.25,1.27,2.83.95,3.66l-1.38,3.56,8.51,5.64,8.87,5.93c.48.32,2.32,1.56,1.57,1.06l-3.42,2.54c1.21,1.76,2.62,1.5,1.82-.52l2.95-.35.28-.49-.06-1.91,2.75,2.28c.54-5.22,7.17-13.04,11.22-15.93l5.57-3.98c-1.01,3.41-4.24,4.72-6.29,7.04l-6.04,6.86c-.56.64-1.44,2.37-1.74,3.1l-1.61,3.91,1.97,1.37,9.04,2.02,7.59,1.7,9.85,3.35c1.91.65,4.44,2.31,6.63,4.18l-12.55-1.93-8.95-1.73-16.18-3.37,2.96-.38c-.36.43.8-.96.95-1.14l-7.48-.68c.57,3.01,1.07,6.82.15,9.93l-2.36,8c-1.12,3.8-2.43,8.77-5.39,11.54l-7.2,6.72-5.79,2.27c-.71.28-2.83,1.67-2.53,1.5l5.22,3.33,8.78,5.38,8.44,4.31c2.8,1.43,5.17,1.89,7.73,3.55l-9.99-2.19-7.84-1.72,5.6,6.03,5.78,6.16,6.86,7.32,5.49,7.2,6.77,7.62,7.22,6.39,9.73,6.46,5.32,3.69,16.55,8.46,4.09,1.78,6.61,2.12,11.02,2.57,4.29.97,10.36,1.88-6.53.39c-11.18.66-14.6-2.36-17.65-2.18l-2.3.13c-.44.03-.36-.38-.43-1.63l-6.89-2.82-4.81-1.97-3.01.2-6.53-3.78-5.86-3.4-5.93-3.86c-.86-.56-2.25-2.28-2.92-3.16.03-.03-.74.76-1.12,1.16l-2.59-1.92-.58.75,6.57,6.92c6.4,6.74,10.54,5.44,15.79,9.96l4.08.35c1.18-1.02,3.41-1.63,4.44-.88l4.32,3.12-6.71-.57-.49,2.18.48-.18c.99.08,3.43.73,4.47,1.33l4.69,2.66-1.99-3.91,17.15,7.22c.74.31,3.21.47,4.24.56.02.07.66,1.97.41,1.22l5.39.77c.18.03.28.2.6.55l6.55,1.49-1.71,1.71-5.35-2.34-.57-.5-2.06.24-3.24-.67-11.63-2.97c-1.8-.12-5.21-.46-6.68-1.13l-6.44-2.92-4.47-2.03-.73-.21-21.83-11.62-5.43-4.59-5.21-4.26-2.99-1.94c-1.05-.68-2.89-2.66-3.89-3.72l-6.86-7.34-10.14-11.64c-2.22-2.55-6.14-4.4-7.86-7.07l-2.79-4.33v-1.9s6.6,6.69,6.6,6.69l1.59-.56-3.83-3.61-5.54-6.53-5.6-6.59c-4.38-5.16-4.1-9.85-9.88-10.64l-3.6,1.13-2.24-.88,1.28,3.21-4.09.16-13.82.61-8.93,2.2-9.73,1.03,2.72-2.11-3.06.71-2.26,3.54-.68.31,1.1,4.17,4.17,15.8.94,3.55,1.29-1.4,7.13.39c.44.02,2.04-.53,2.47-.64s-.63-.79-1.07-.79l-6.63-.11,10.71-3.15-1.97-7-.9-3.21,1.06-2.32,1.45,3.57.79,5.08,5.02,3.93-.35,2.74c-.07.56,2.03.74,2.35.67l-2.11-3.28,11.8,1.96c7.31,1.21,12.58-1.85,11.67,1.41l-3.34.54,3.63.3-.5,1.82-4.6-.28-2.73-.43c-7,2.63-13.27-2.33-21.11-.63l-7.81,1.7c-1.18.26-2.96.22-5.57.2l2.7,7.9,2.68,7.37,4.9,13c2.76,7.33,6.38,13.77,11.04,20.08,2.35,3.18,5.29,5.49,8.69,7.37l10.42,5.78,4.82,2.2,3.78,1.55-2.05,1.4c-5.03-2.63-9.32-1.57-17.94-5.95-2.41-1.22-6.71-1-9.38-.5l-5.01.93c-.34.72-1.16,2.19-1.69,2.52l-4.86,3.13-4.91,3.4c-1.57,1.09-3.33,1.99-5.12,2.83l-3.43,1.6,9.59-.29,1.03-1.3c-.02-.84,1.42-2.6,2.42-2.73l8.48-1.06,8.62-1.95,4.91,1.35,5.38.88c-.45,1.78-2.56,3.94-4.84,4.47l-14.59,3.42c-4.88,1.15-9.65,2.12-14.3,3.9l-12.4,4.73-1.03,2.16-11.59-.26c-.31,0-2.19-.75-1.9-.65,2.66.95-7.24,1.72-13.46,5.85l-1.5-.78c6.59-3.71,13.47-5.7,20.77-7.53l8.1-2.03.48-.44,6.34-3.02c.22-.72.4-1.36.41-1.33,0,.02,1.66.65,1.91.65.7,0,2.27-.73,2.83-1.19l1.6-1.32-6.25.28c-.51.02-1.77-1.97-2.17-2.54l-7.39,2.32c-2.54-.06-5.82-.34-7.97.49l-10.28,3.98-4.79,2.34c.15.07-.62-2.5-1.02-2.42l-2.54-.24,4.31-2.58,12.18-5.2,4.26-2.35,4.22-2.27c.42.58,1.73,2.15,2.27,1.94l2.97-1.17.04-2.79-3.71,3.66c-.13-2.9-.12-5,.25-6.31l2.3-8.23c.15-.54.4-1.58.79-1.63l1.41-.15-1.28-5.66-1.26,4.49.18-5.3-.65-10.13-1.06-8.73-4.18-18.85c-.2-.92-.91-3.59-.81-3.16-2.5.94-3.35,1.26-4.79,1.47l-4.76.68c-.71.1-2.73.35-3.5.24l-15.52-2.22.95-3.42-4.55,1.24-.38-4.82c-.08-1.04.92-3.09,1.51-4.47l-3.42,2.04c-3.23.16-7.75-1.5-10.26-3.7-4.81-4.19-3.11-9.17-.65-13.8l7.67-14.42,1.47-2.24-1.31,4.9s1,1.06,1.36,1.44l1.32-3.38c.26-.67.45-2.26.41-2.61l2.23-3.5,2.55-4.26c.58-.97,1.26-2.09-.12.21l-2.56-1.34,4.89-6.47-11.31,3.46-8.98,1.93c-1.74.37-5.6-1.12-7.2-1.56-.68-1.28-.9-1.71-.55-1.03,2.45-1.23,2.64-1.33,2.41-1.21l-4.66.61-5.08-5.6c-.35-.38.44-3.22.41-2.74l1.07,2.43c.39-2.29,1.23-5.42,2.37-6.73l5.42-6.18c1.77-2.02,2.75-3.09,5.31-4.93.08.7-.18-1.56-.25-2.11l3.86-4.21-.22,3.99c-.05.87,1.21,3.01.71,3.66l-3,3.87-.25.4-2.24,4.49-2.99,3.86-2.58,4.01-.66.43-.63.94s.91,1.1,1.17,1.18l5.24,1.67c.81.26,3.4.45,4.23.25l7.4-1.79c.22-.25.44-.56.59-.63l7.91-3.37c1.92-.82,5.77-2.42,6.39-4.16l2.2-6.14,2.06-6.63-2.42-8.96c-1.51-5.6-5.49-11.26-8.25-15.73l-3.05,3.16-.61.28-2.12,5.4c-.22.57-1.59,1.61-2,2.14l.97-4.73-2.22.03,2.08-4.88c2.88-6.76,4.36-10.02,1.17-17.35l-10.12,1.04c-6.58.68-13.62,1.93-20.13.01s-12.87-5.4-17.81-10.74c-1.39-1.51,1.62-6.1,3.3-7.16l6.24-3.92,9.46-4.5,6.97-1.85c.88-.23,3.47,1.16,4.13.51l2.54-2.52.61-.72-.77-1.96c-.14-.37-1.65-.74-1.94-1.02l-3.5-3.39-9.7-8.43-9.72-11.11-13.2-17.84-3.8-6.26-8.97-17-6.45-13.6-4-9.04-2.82-7.23-8.84-24.1-3.13-8.92-4.2-12.72-3.98-12.97-2.53-8.44-5.91-20.97-6.26-25.82-3.19-14.96-2.05-9.83-2.67-14.59-2.08-12.93,1.42-5.36c.4-1.5,1.76-4.2,2.99-4.74l5.65-2.48,15.88-5.13,8.7-2.36,11.57-3.41,10.46-2.41,16.84-3.3,13.97-3.05,7.41-1.62c.29.87.54,1.64.43,1.31l-2.85.81c-.4.11.25,1.19.54,1.47.24-.54.3-.68.45-.71l4.3-.82,1.56-2.26,4.41-.39,5.43-1.29c8.69-2.07,17.52,1.52,17.22,3.08-.07.39-.38,1.64-.3,1.31-.89-.87-2.92-2.52-3.25-1.85l-2.23,4.62,1.88-.17c.47-.04.47-.93.7-2.54-.3-.27,1.32,1.2,1.82,1.65l-3.95,3.81,6.18-2.07,1.57,5.34,4.98,22.19,4.79,22.1,2.66,11.4,3.96,19.17,1.66,7.21,3.02,15.06,2.77,15.13,1.51,8.14,1.66,9.31,2.51,14.7.93,7.9,1.1,11.98.75,8.24,1.41,19.74.64,10.22.08,14.91-1.14,15.34-4.17,22.92-.98,3.56-2.06,6.73c-.42,1.36-2.49,3.8-3.36,5.01,1.01.2,3.21.67,3.98.6l8.74-.74,3.55-1.02,5.81-.33c1.73-.1,5.8.7,7.43,1.33l14.44,5.68-.54,3.71,2.51-2.81,8.66,3.4,4.67,1.83-3.34,1.63,4.52-1.28,4.83,1.9,18.88,7.24,15.41,5.47,8.72,2.52,2.08.75c.7.25-.52,3.12-1.24,2.87l-5.45-1.9-5.21-.83,1.09-.54,3.53-.89-5.61.61c-2.25.25-6.42-1.85-8.56-2.56ZM593.69,83.54c-2.35-.21-2.16-.19.44.04,1.06.1.66.06-.44-.04ZM621.78,197.08l.3,1.25c.08.33,1.05.96,1.23.67l.62-.97c.41,0,1.38,1.7.77,1.9l-2.05.67-5.57,3.68c-4.69,3.1-20.82,5.36-30.19,5.68l-10.09.34-9.09-.39,2.61,2.04-5.49.91c-3.37.56-6.37,1.77-9.34,3.64l-3.32-.35-3.33,3.18c-3.54-.44-4.12,3.44-5.26,2.51l-1.15-.93-.93.66c-.15,1.22.68,3.39,1.7,4.9l1.08,1.6,1.79-4.11c.26.22,1.91,1.55,1.47,1.2l-3.32,4.72-3.65-.88-.2,1.32,1.89,3.25c1.01-.98,2.74-2.09,4.76-2.71l-3.5,2.98-.48,1.95c1.4-.4,2.19-.64,2.11-.61-.06.03.55,1.38.73,1.77.25.57,1.89,1.37,2.44,1.1.37-.18,1.08-.75,1.36-1.07l2.19-2.55-.47-.49-1.74-1.69-2.46,2.21.6-3.31,3.79.15c.11-.15.87-1.32.85-1.29s1.09,1.1,1.35,1.37l-1.93,2.04.81.66c.22,1.25-.88,3.45-2.1,4.24l-4.83,3.14,2.43,5.74,1.3-2.3,1.58,2.42c-.84-.06-1.62-.28-1.73.14l-.51,1.97.6.6c-.05.07,1.96-.05,2.15-.48l1.36-3.06-.57-.6c-.23-.34-.46-1.26-.1-1.49l4.32-2.76-1.81-5.29,3.82,5.17c.83,1.13,2.48,3.45,2.96,4.85l2.96,8.71-1.87-1.47-2.29-4.61-1.07.5.03,4.04.19,5.53c-1.27.54-1.86.8-1.15.49l-1.25-5.09c-.05-.2-.26-.3-.65-.62-.12.02-1.69-.02-1.63-.44l.4-2.5,1.47,2.53,1.07.43-1.24-4.83.41-6.35-4.04,2.92.5.48c.34.46.75,2.22.32,2.58l-4.09,3.44-.83-1.57-.44-.49-.96-1.07-.45.52.91,3.97.57.52.91,4.37-1.53.33v-4.15s-.4-.74-.4-.74c-.34-.13-2.15-.79-1.75-.65l-1.38,3.8c-.59,1.62,1.16,4.42,3.38,5.58l-1.45,1.18,1.95,2.52,1.38,4.05,2.72,7.97,1.17-2.44c.12-.25.89-.3,1.68-.44l-.46-3.91-1.8-.77-.79-.52.17-3.41.75,2.68.87.91c.14-.57.06-3.07-.34-4.03l-3.63-8.59,1.59-.3,2.55,7.15,2.37,6.65-.33,3.86,3.56-3.26.32,3,.28,2.64.23.46,1.71,3.41.5.41-.13,3.39-.73-2.62c-.3-.25-.45-.33-.54-.51l-1.57-3.43c-.31-.3-.43-.36-.49-.54l-1.01-2.93c.6-.38-.47.3-1.45.92l-2.82.71,3.56,2.84-1.82.84-3.53-2.92,4.16,9.1,5.22,9.71c2.38,4.42,4.98,7.79,6.5,12.68l-3.45-4.39-2.84-4.64-7.84-14.09-4.03-8.64-5.91-14.34-6.01-15.27-5.02-9.57-6.42-22.05-1.71,2.41,1.15-4.54-1.47-5.14-1.07,3.36-1.65-5.49-1.19-4.03c-.39-4.2-2.28-8.22-6.44-9.83l1.63,7.27,5.18,22.8,9.51,29.47,4.58,12.55,4.52,11.59,6.14,13.81,7.36,14.7c1.7,3.4,4.92,6.51,7.47,9.31l2.44,2.68,3.71,3.43,3.66,1.49,9.59,9.18,4.76,5.31c.91,1.01,1.87,3.93,2.37,5.3l-3.28-1.13.85,2.81-1.91.57,6.36,7.72c.65.79,3.57,1.4,4.53,1.76l2.49.94-2.35,1.63c1.86,1.24,4.32,2.71,5.97,3.03l9.11,1.79,3.16-1.26c1.25-.04,4.23-.34,5.22-1.15l6.63-5.4,6.38-5.43,1.06-3.15,2.49.19c.52.04,1.38-1.64,1.53-2.24l3.39-13.52,1.62-8.56.67-10.2-.4-17.8-.69-8.25-3.95-36.96-2.03-15.96-2.39-14.8-2.58-15.93-.78-5.28-1.51-9.61-2.6-11.74-.85-4.35-2.27-9.43-3.29-15.72-1.59-8.39-1.56-8.53-3.04-13.94-3.54-16.16c-.25-1.16.5-3.96.79-5.2l-3.52.3-7.88,1.41c-6.64,3.47-12.77,6.04-20.1,7.76l-22.46,5.29-10.89,2.13c.22-.29,1.68-1.52,2.23-1.64l6.41-1.46,11.7-2.84,4.7-1.72,13.18-3.08c3.45-.81,8.46-2.56,10.82-4.26l-.47-.68-3.95.62,4.66-3.37c.18-1.45.54-1.5.98.35l-1.21,1.71.7.84,4.89-2.3c2.66-1.25,4.42-3.67,4.85-7.05l-4.38,1.5-1.72,3.65-2.07,1.67,1.44-5.69-7.68.76-10.61,1.3-1.9.27-.38.11-5.12,1.44c-2.11-.73-2.6-.9-.34-.13l3.59-2.75-9.21,1.36-7.94,1.63-15.73,4.24-3.85,1.03-26.73,6.09-11.05,3.21c-4.14,1.2-8.65,3.33-11.67,5.67l.44.62,1.82.7-.68,3.63-1.65-3.79-.76-.52-1.97,1.94c-.53.53-.2,2.94.54,2.94h4.21s10-.18,10-.18l9.93-1.73,2.16-.41c.43-.08-.48-1.14-.91-1.06l-8.93,1.49-10.02.64c-.64-1.57-1.1-2.72-.92-2.26h6s5.72.09,5.72.09l12.43-1.92,17.38-3.39c1.37-.28,1.02,2.12-.12,1.82l-11.9,1.79c-2.92.44-5.39.83-8.08,2.34l19.52-2.86,4.54-1.3,5.46-.67c.53-.74.14,1.63-.29,2.15l-7.78,1.24-13.33,2.12-6.94,1.02-7.97,1.21-14.44,1.77,7.16,32.42,5.3,22.87,2.46,11.74,3.98,1.55.43-1.04-3.65-17.39-3.46-16.53-3.65-17.61c-.54-2.59-.86-5.09-.84-7.87l2.16,7.42,1.93,9.26,2.61,12.53,1.29,5.54,4.92,20.28,2.19,6.89,1.37,3.79h4.26s-2.97,2.01-2.97,2.01l2.32,1.65.79-.99c1.13-.95,3.8-.09,5.43,1.09l.96-1.27c.86,1.11,2.17,2.84,3.03,3.29l5.23,2.74,8.22,1.58,5.99,1.79.61.25,2.79.94-3.52-.16-.52-.19-10.64-1.54-.98.64-.87,3.69c1.1-.43,2.81-1.08,1.85-.71-.05-3.06-.04-2.58-.03-1.98l5.03,1.47c1.46.43,3.78,2.68,5.47,4.18.86,1.24,1.73,1.61,1.26-.89l3.97.73,6.74,1.23c.53-2.14.65-2.64.33-1.34l-7.8-2.45c3.62-.26,6.37-.13,9.26.56l5.52,1.32,1.56-.64,14.8.12,11.17-.48,15.43-2.23c1.69-.34,1.75-.89-.03-1.34l-11.5,1.21-23.92,1.23-15.4-1.41-5.26-.39c-1.51-1.79-3.84-3.5-5.85-3.87l-6.01-1.11c-1.89-.35-3.77-1.1-5.94-2.23,2.98-.4,4.63-.27,6.75.25l16.24,3.95,9.39,1.81,11.35,1.61c3.62.51,9.25.07,12.96-.49l7.22-1.08,10.49-1.6c4.13-.63,6.16,1.28,6.89-.08l.72-1.35.52-.88c-.19-1.12-1.74-3.71-3.07-4.14l-8.85-2.84-.66-.12-4.64-.77,5.13-.17.56.89,5.45-.47-.51-.53-2.64-.77,3.2-.03c.16,0,.22.14.49.61l3.49.49.5.62,2.43-.19-2.01-8.76-2.71-14.17-1.5-8.51-7.78-38.33c-.48-2.37-.75-4.6-.5-7.26l2.69,10.1,2.91,14.06,2.78,14.12,1.64,8.65,2.59,13.22,1.38,7.76,1.98,9.87.44,2.28-4.75-2.35-.58-.58-3.45.28,5.66,3.02,3.2,1.9ZM610.07,95.74l-1.1-2.14.31,3.32.8-1.19ZM610.48,96.94l-.78,1.1.99,2.16-.21-3.26ZM613.26,112.11c-.11-1.1-.14-1.49-.04-.43.25,2.6.26,2.77.04.43ZM510.79,185.51l-.35,3.27c-.96-1.81-1.72-2.14-1.16.41l-1.56.17c.33-2.91-.64-2.62-1.77-.33l-5.17-21.13-3.67-15.28-7.31-30.78-.25-5.51-4.92.98,1.47,8.22,2.45,9.65,2.38,9.57,5.19,20.97,3.12,12.59,3.63,15.08,1.51-.14c.13-1.93.1-1.59.02-.33l6.45,28.05,8.09,27.71,1.72,3.92,1.67,2.05c0,.82-.03,3.12.32,3.97l5.57,13.61,2.51,5.8,4.31,9.64,6.75,15.2,4.59,9.51,2.76,5.3,2.88,5.91,3.86,6.29,3.82,5.5c.97,1.39,1.63,3.42,1.95,5.24l2.45,4.78,1.5-2.37,4.43,4.75,2.09,5.08,4.79,3.06-.77,3.79,4,3.93c.31.3,1.73-.08,1.41-.35l-4.57-4.72,1.02-2.39c2.73,1.81,5.76,3.45,9.05,4.67l4.98,1.84c.3-.14.62-.42.36-.6l-1.93-1.27-11.92-11.46-3.34-4.07c.29-.56-.31.59-.89,1.72l-1.98-2.53,2.36-.32-3.61-8.83c-.43-1.06-1.88-2.6-3.3-3.96l1.41,4.66c.1.23-1.84-1.33-2.39-1.93l-3.41-3.79,1.22-.85c-1.34-.5-3.77-1.7-4.44-2.84l-4.04-6.85-11.17-22.97c-6.81-14-12-28.21-16.97-42.98l-2.02-6.01-4.05-12.86-7.35-26.64-2.12-10.04c-.27-1.27-.14-4.05-.08-5.58l-2.04-2.12,2.95-.26-1.61-5.36-.88.57ZM616.37,127.99q0-1.23,0,0,0,2.34,0,0ZM618.04,133.82l-.99-2.17.2,3.27.79-1.1ZM618.49,134.94l-.79,1.1.99,2.17-.2-3.27ZM619.42,139.86l-.23,4.05.23-4.05ZM620.37,145.99q0-1.23,0,0,0,2.34,0,0ZM490.26,149.11c-.11-1.1-.14-1.49-.04-.43.25,2.6.26,2.77.04.43ZM493.26,162.11c-.11-1.1-.14-1.49-.04-.43.25,2.6.26,2.77.04.43ZM624.67,164.06l.25-3.19-2.02.38,1.78,2.8ZM627.05,174.56c-.37-1.3-.85-2.17-1.48.14l1.94,3.4-.45-3.53ZM497.37,176.99q0-1.23,0,0,0,2.34,0,0ZM629.26,186.11c-.11-1.1-.14-1.49-.04-.43.25,2.6.26,2.77.04.43ZM520.69,193.71l-1.04.94,2.69,1.47-1.65-2.41ZM527.76,198.93l-1.89-1.89c.31.88,1.01,1.58,1.89,1.89ZM618.81,200.43c-.15.14,1.9.78,1.89.33l-.07-3.03-1.29,2.19-.53.51ZM537.53,209.05l-3.38-4.52-6.34-4.79c-.14.33-.52,1.26-.51,1.23l5.09,4.53c1.02.9,2.32,3.6,3.02,5.12l2-.57.12-1ZM537.03,201.17h-4.59s3.89,1,3.89,1l.7-1ZM632.42,200.86l-.23,4.05.23-4.05ZM537.27,223.39l-6.59-13.93-1.59.49,2.86,5.79,3.75,8.3.78,1.85c.17.4,1.65-.07,1.51-.48l-.72-2.01ZM543.87,210.82c-.31-.88-1.01-1.58-1.89-1.89l1.89,1.89ZM563.95,210.35l-1.32-1.27-5.39,2.26-2.36.99c-.3.13.69,1.05.99,1.17s1.45.22,1.76.09l5.8-2.5c.18-.08.24-.2.52-.75ZM538.62,209.86l-.87.73c.18,1.56,1.19,3.23,3.23,3.92l-2.36-4.65ZM552.71,211.23c-.31-1.47-.58-1.16-.71.15l.22,2.57c.04.44,1.97-.21,1.75-.59l-1.26-2.13ZM563.83,211.54l1.57.55c.44.15.39-1.52.32-2.15l-1.36.96-.53.65ZM635.04,216.4l-.77-5.64-.21,6.13.99-.49ZM535.96,211.58l-1.62.97,3.44,5.74,1.62-.97-3.44-5.74ZM550.01,213.56c.96-.87,1.06-1.62-.33-.68-2.1.64-1.69,1.03.33.68ZM541.9,220.48l.9-3.73-1.72,1.3-2.46,1.33,2.72,1.39.56-.28ZM635.57,216.95l-.8.49.38,7.46.82-.51-.4-7.45ZM636.63,224.96l-.91.49.77,4.64.15-5.13ZM539.17,233.19l-1.94-4.83-1.32,1.79,2.07,3.95,1.2-.91ZM639.48,238.31l-2.42-7.62.49,7.86,1.93-.24ZM539.76,233.75l-.87.82,3.44,5.34.78-.66-3.35-5.5ZM535.26,238.11c-.11-1.1-.14-1.49-.04-.43.25,2.6.26,2.77.04.43ZM539.14,238.43c-1.12-2.15-2.46-1.86-1.24.46.29,2.29,1.04,2.1,1.24-.46ZM543.46,239.97l-.65.72,1.34,8.94,2.23-.67.48-.62-3.41-8.38ZM639.23,247.07l.71-1.64-.32-3.55-.84.55.45,4.64ZM560.17,248.3l-2.12-4.83,1.01,5.54,1.11-.71ZM542.78,249.22l-1.7-3.27.54,3.63c.83,1.77,1.18.95,1.16-.37ZM640.42,248.86l-.23,4.05.23-4.05ZM642.08,279.99l.85-.55-.27-5.56-.85.55.27,5.56ZM559.11,317.37c-1.17-2.94-2.17-4.1-3.94-4.66l1.98,4.88,1.96-.22ZM566.11,323.16l-3.33-3.23,2.31,4.09,1.02-.87ZM566.15,324.8l2.7-.16c-.79-.9-1.15-1.41-1.41-1.28l-1.08.54-.21.91ZM641.26,334.11c-.11-1.1-.14-1.49-.04-.43.25,2.6.26,2.77.04.43ZM582.41,342.02l.63-2.48c.97-.02,1.26-.02-.62.01l-4.1-4.1-3.29,2.07c-.23-.23.78.78,1.16,1.15l2.66-.37c.65-.09,3.13,5.42,3.57,3.72ZM639.78,342.81l1.07-4.92-2.46,3.22,1.39,1.69ZM633.14,347.31c.91-.96,1.61-1.69,1.18-1.24-1.35,1.42-1.69,1.77-1.18,1.24ZM632.44,354.04l.44-5.4-1.51,2.08,1.07,3.32ZM603.93,367.21l-6.9,3.35,8.54.94c.47,0,1.5-.02.86-.01l2-3.72.02,3.39c-.02.07,1.64.24,2.74.17l9.2-.57c1.29-.08,3.81-2.72,3.94-3.39l-5.55,1.5c4.75-3.46,8.22-6.8,9.35-12.97.21-1.14,1.41-3.14,2.38-4.63l-1.17-1.35-5.4,7.25c-2.22,2.98-14.09,9.07-18.41,8.46l-7.22-1.01c-1.04,1.02-3.77,1.75-4.9,1.22l-8.89-4.15-.79,1.07,8.55,3.75,4.74,1.91-2.45-.14c-.43-.02-.64.73-.79,1.14s1.96.73,2.33.49l5.88-3.86,1.96,1.14ZM599.01,360.58l-1.63-.71-3.57.32.56.84,4.64-.44ZM604.01,362.58l-1.63-.71-3.56.32.56.84,4.64-.44ZM658.74,367.64l-3.58-1.53c.04-.2-.19.92-.27,1.35s1.42.57,1.79.59c1.34-.27,2.42-.49,2.06-.41ZM643.69,367.54c-2.34-.22-2.16-.2.43.04,1.06.1.67.07-.43-.04ZM648.69,367.54c-2.34-.22-2.16-.2.43.04,1.06.1.67.07-.43-.04ZM636.96,369.12c1.71.66.41.16-1.03-.39-.77-.32-1.82-.91-2.1-.48-.19.29-1.03,1.28-.97,1.15.05-.1.8,1.03,1.36,1.78l2.74-2.05ZM620.07,391.41l1.93-18.61c-6.04-.88-8.06,5.55-15.26,6.15l-2.35-2.21c-.29-.27-1.55.84-1.52,1.25l.32,4.57c.03.42,2.02,1.33,1.21.82-.04-.89.12-3.17.48-2.77l3.5,3.8,5.79,6.35,2.22-.67c.34-.1.65,1.4.49,1.42l-4.18,1.2c1.74.07,4.8-.32,6.45-.75.12-.03.22-.16.91-.53ZM600.54,379.96l-2.07-4.21-.4,2.43.3,1.98c.06.42,1.57.14,2.18-.2ZM592.48,380.93l-.74.88,2.14,1.31-1.39-2.18ZM626.39,386.76l-.41-4.86c-.05-.63-2.18-.71-2.08-.06l.35,5.37c-.63.69,1.47.1,2.15-.45ZM584.85,385.64l-4.12-.28,4.12.28ZM593.4,407.31l9.43-.95c2.92-3.96-2.29-13.96-6.41-19.83.54-.65,1.33-1.64,1.16-1.42l-7.79,1.65-7.56,2.31-4.77,1.46c-4.92,1.51-8.7,4.09-12.02,8.4l4.86,4.74c1.8,1.76,6.91,3.98,9.65,3.92l13.45-.28ZM578.87,387.25l-3.54.35c-.36.04.13,1.55.31,1.48l3.23-1.82ZM604.87,386.43l-1,1,4.5,4.5,1-1-4.5-4.5ZM609.66,406.35l-3.19-9.28-2.45-4.85c-.63-1.42-1.02-1.28-1.06.37l3.15,8.47,1.31,6.09,1,1.91.85-2.36c.05-.14.16-.21.39-.36ZM620.56,392.29l-.43.25-2.56.79,1.46,1.04,7.28-.84.67-.3c-.39-.42-2.09-1.48-2.84-1.38l-3.58.44ZM627.44,393.74l-.52.85,6.37,1.55.52-.87-6.37-1.53ZM563.61,397.54l.02-2.55-1.78,1.37c-.25.19,1.76,1.48,1.76,1.18ZM613.65,416.56l2.81,4.79c1.33,2.27,3.15,5.01,5.08,6.8l6.23,5.8,5.17,4.31-2.63,1.86c.86.19,1.65.37,1.54.35,1.15-1.04,1.77-1.69,2.22-1.44l1.78.97,9.96,6.96,7.94,5.87,7.75,4.49,12.35,7.62,7.81,4.27c1.58.86,4.41,2.27,5.95,2.67l8.04,2.09,2.59-4.94c2.4-4.57,6.31-9.02,7.45-14.25l1.83-8.42c.08-.37-1.35-1.54-1.13-1.84l1.22-1.6-3.19-2.71c-4.46-3.79-3.83-7.14-10.25-5.87l-4.32-3.65-5.34-3.33-7.72-4.36-21.15-11.92-12.39-5.57-14.76-6.14-6.95-2.07-7.62-1.25c-1.32-.22-4,3.32-3.56,4.56l1.99,5.64c1.67,4.71,3.66,9.3,7.56,12.67,1.44,1.24,3.86,4.3,3.11,5.61-2.13.69-3.74-1.52-4.74-3.04l-3.69-5.6-.95.69ZM634.41,395.82l-.55.81,3.18-.04-2.63-.77ZM630.84,397.21l-4.12.1,3.62.75.5-.85ZM658.34,397.07l-.44.35-1.2,2.1,2.4-.15-.77-2.31ZM631.5,397.61l-.54,1c1.13.91,3.68,1.21,6.1.98l-5.56-1.98ZM639.69,400.54c-2.34-.22-2.16-.2.43.04,1.06.1.67.07-.43-.04ZM660.15,407.87l.5-2.27c.13-.59-3.23-3.31-8.24-4.3l-7.73-1.54-1.56,2.93,1.07,1.27,1.6-1.73,14.36,5.64ZM691.87,420.35l-4.02-2.23-14.66-7.58-7.57-4.08c-.56.3-1.34.96-1.84.72l-2.12-1.02c.62,1.97,2.11,4.13,3.75,4.94l11.03,5.45c2.44,1.21,5.05,3.6,7.23,5.4l4.01,3.3,1.81-1.91c.11.02,1.63.91,1.32,1.07l-2.34,1.18,6.57,3.93-1.65-2.97,2.05-1.39-5.67-3.56,1.57-.75.53-.5ZM610.46,406.82l-.35.66.23,7.16,2.88,1.47.57-.75-3.33-8.54ZM584.37,410.63c.46.05,2.11-1.19,1.67-1.23l-2.12-.22-9.18-.96,2.12,1.56,7.51.85ZM597.34,410.05l6.68-1.97-8,.85,1.32,1.12ZM594.93,409.74l-.55-.87-5.56.28.55.85,5.57-.25ZM612.8,420.82c1.55-.61,1.33-.52.01-.01-1.26,1.35-.71.76-.01.01ZM694.91,421.42l-.37-1.4-2.14.96-.53.49,2.46.57.58-.61ZM695.8,420.39l4.05.23-4.05-.23ZM695.4,422.6l-.4-.13,1.2,6.28,5.2,2.66,4.83,3.68.84-.86-3.04-3.09,2.44-1.54-1.48-4.38s-.45.22-1.85.91l-1.96-.55-1.77,1.41-2.61-1.56,2.24-1.07-3.64-1.77ZM703.68,423.98c-.9-1.61-1.33-2.21-1.51-2.27l1.51,2.27ZM616.79,426.91c-.93-1.45-1.36-1.9-1.62-1.93l1.62,1.93ZM609.01,428.39l-.72-2.85-.17,3.41.89-.56ZM625.29,435.17l-5.27-5.48c.06,1.21.47,3.46,1.06,4.04l4.24,4.18c.62-.72,1.24-1.44,1.23-1.4-.01.05-.82-.87-1.27-1.33ZM707.41,434.93l-.67.56c.08.15.63,1.08.59,1.14-.04.05.93-.57,1.19-.78.38-.33-1-.95-1.1-.92ZM714.29,461.7l3.3-8.81c1.7.5,3.13.91,1.38.4l-2.89,9.83c-.95,3.24-2.14,6-4.35,8.64-.28.56-.66,1.31-.57,1.13l2.19.56c.15.04,4-.87,6.01-5.1,1.59-3.34,3.62-7.83,3.31-11.08l-.7-7.44,1.72,4.36c1.25-5.48-3.54-12.86-3.28-12.84-.45-.04-1.93.3-2.31.07l-6.02-3.68-.53,5.1c-.06.57-1.72-.98-2.48-1.79-.37,3.12,1.94,4.16-.28,10.6l-4.26,12.38c-.32.93-.9,3.11-1.64,3.93l-5.24,5.78c-.36.4-1.21,1.47-.83,1.68l2.39,1.31c.03-.06,1.13-2.01.65-1.16-1.88-1.7-1.98-1.8-1.47-1.34,6.48.71,11.5-.65,13.62-6.37l2.28-6.14ZM665.7,582.21c-.07.09,1.25,1.01,1.69.78l1.84-1.39,3.18-1.36c2.4-1.35,5.02-1.61,6.78-.18l-4.18,2.1-6,3.02c.27.53,1.14,2.25.69,1.36l8.56-4.52c2.33-1.23,3.64.7,4.53-.64l-3.99-2.68c-.96-.65-1.27-3.5-1.91-4.53l-5.07-8.17-5.5-9.41-6.94-19.34-3.83-11.51c-.24-.73-.32-3-.31-3.02-.29-.15-1.47-1.69-1.7-2.64l-2.85-11.75-2.32-9.62-1.93-8.23-4.76-20.48-2.93-11.02-2.64-11.45c-.17-.74-1.08-2.14-1.74-2.53l-7.13-4.23,3.18,12.57,3.04,12,1.14,4.93,1.9,9.34,1.84,9.08c.21,1.02-.03,3.37-.14,4.92l2.73-.74,2.21,9.92.4,1.81c.11.49-.49.91-1.6,2l2.46.72-1.36,6.07,1.32.13c.4.04.96,1.21,1.12,1.76l3.08,10.91,1.42,6.03c.68,2.9,1.26,5.29,2.38,8.13l3.68,9.27,5.36,14.77c1.37,3.77,3.04,6.65,6.92,7.89l1.4.44,1.47,2.42-2.1-1.5-.83-.59-5.98-.95-1.34-1.11c-.1,1.58-.1,4.08-.79,4.99l-2.82,3.76,1,4.72,7.36-2.26ZM625.8,445.82c1.55-.61,1.33-.52.01-.01-1.26,1.35-.71.76-.01.01ZM730.42,445.03l-.64.46.55,1.49c.16.42,2.05-.59,1.77-.7l-1.69-1.24ZM740.74,450.64l-3.58-1.53c.04-.2-.19.92-.27,1.35s1.42.57,1.79.59c1.34-.27,2.42-.49,2.06-.41ZM594.7,454.79l-2.63-1.16,1.2,2.83.74-1.27.68-.41ZM651.67,454.97l-2.84-.96,2.37,2.1.46-1.14ZM652.71,455.69l-.61,1.1,2.1,1.16-1.49-2.26ZM646,457.62c-1.12-.21-3.13-.58-3-.56l1.37,2.01c.21.31,2.01-1.38,1.63-1.45ZM649.69,457.54c-2.34-.22-2.16-.2.43.04,1.06.1.67.07-.43-.04ZM590.96,462.02l.8-3.02-2.01,1.48c-.31.23.87,1.38,1.2,1.54ZM661.48,461.53l-4.89-2.74-.32,1.21,3.61,2.94,1.47,1.2c.34.28.5-2.4.14-2.6ZM624.78,465.38l2.14-3.61-.46-1.37-3.26,5.22,1.15.35.43-.59ZM656.53,479.75l.93-6.22.41,5.74,1.66,1.6-1.06-13.33-1.43,2.78-1.77,1.08c-.44.27-.95-2.55-.56-2.49l2.28.38-.87-4.99c-.17-.96-6.73-4.74-8-3.73l-2.87,2.29c-.42.22-1.38.72-1.35.7.02,0,.43,1.48.52,1.76l.99,2.82c.46-2.92,1.22-5.02,3.3-6l-1.47,3.78c-.24-.07,1.98.63,2.96.93,1.87-.77,2.16-.89.76-.31l1.1,5.01,1.79,8.18h2.68ZM586.92,468.44l.58-4.76c-1.03,1.62-1.57,3.79-1.41,5.27l.83-.52ZM625.22,466.86l-3.08,1.91-6.44,11.05-4.27,6.75-3.5,7.52-7.4,12.1-1.11,3.18-3.47,1.08,1.38,3.89c-.25.13,1.37-.66,1.92-.93,2.67,2.15,6.19,3.56,9.67,4.09-.4.2-1.92.93-1.93.95,0,.06,1.29,1.04,1.11.89l6.56-3.76,7.91-4.99,5.21-3.48,4.93-5.31c.73-.79,2.13-2.95,1.94-3.96l-3-16.28-2.47-10.85-1.02-4.09c-.1-.41-1.37-1.49-1.74-1.24l-1,.67-.21.81ZM678.89,480.94l3.61-1.48-.1-2.14-5.19-3.06c-.44.62-1.1,1.64-1.24,1.27l-.5-1.34c.67-2.98-2.23-.79-5.16-2.61l-4.87-3.01-5.53-2.52.45,4.47.72,9.03,3.28.28c1.77.15,4.3-1.28,5.15-2.79l.93,2.81c.14.41,1.46.15,3.18-.04l-.52-1.72c-2.58.5-2.61.5-.79.15l1.85-1.24,2.04,2.37c.27.31-.81.93-1.21,1.06l-5.61,1.81c.46.14,1.89.47,2.4.41l4.56-.54,1.88-.22c.07-.11.56-.9.67-.94ZM649.29,473.19c.07-.36.05-1.7.03-1.72,0,0,.65-.15,2.14-.5l-3.54-2.29.29,10.36,1.09-5.86ZM645.34,476.88c.89-2.78.36-4.96-1.43-7.08l1.43,7.08ZM605.66,472.26l-.72.1-3.3,2.26,3.84-.45.18-1.91ZM609.69,472.54c-2.34-.22-2.16-.2.43.04,1.06.1.67.07-.43-.04ZM716.95,476.01l.81-3.01-2,1.47c-.3.22.87,1.4,1.19,1.53ZM599.69,475.54c-2.34-.22-2.16-.2.43.04,1.06.1.67.07-.43-.04ZM697.32,482.76c.19-1,.13-2.31-.36-2.43s-1.62-.39-1.57-.38c-.21,1.15-.17,1.5-.41,1.73l-.94.91,1.37,1.44c.26.27,1.84-.92,1.91-1.27ZM661.09,482.29l-6.48-1.34,3.01,3.09,3.47-1.74ZM668.32,482.86c.3.12.51-2.05.25-1.86l-1.36.99c-.26.19.49.61,1.11.86ZM678.91,482.55l5.4.94c.46.08,1.76-.31,2.22-.47.43-.15-.67-1.7-1.08-2.07l-6.05.95-.5.64ZM700.69,482.54c-2.34-.22-2.16-.2.43.04,1.06.1.67.07-.43-.04ZM665.87,484.82c-.31-.88-1.01-1.58-1.89-1.89l1.89,1.89ZM699.8,484.82c1.55-.61,1.33-.52.01-.01-1.26,1.35-.71.76-.01.01ZM675.97,492.07l4.33-.96,8.61-1.53,2.12-2.76c-1.73-.7-4.36-1.59-5.73-1.53l-8.1.39-6.64.19-7.57,1.09-3.8.03-1.82-.44c-.42-.1-1.21.62-1.77,1.06l-3.08-1.72,2.38,8.89,7.23-1.31,13.85-1.4ZM696.69,485.54c-2.34-.22-2.16-.2.43.04,1.06.1.67.07-.43-.04ZM695.52,488.8c-.43-.64-2.62-2.18-2.35-1.66.36.67,1.72,1.57,2.35,1.66ZM685.93,492.69l-.55-.82-4.57.23.56.89,4.56-.3ZM638.76,498.93l-1.89-1.89c.31.88,1.01,1.58,1.89,1.89ZM652.6,498.44c.23,1.27.25,1.38.25,1.35l-.25-1.35ZM715.61,504.39l-4.14-3.59,3.76,6.43.38-2.84ZM633.66,505.44l.8-2.48-2.16,1.44c-.34.23.86.93,1.04,1.02l.32.03ZM634.49,506l-.64.43-3.09,2.37-2.79,3.32-13.06,11.27c-.72,1.89,3.18,4.79,4.88,5.51l4.23,1.79,3.16,1.23c.12-1.33.04-1.9.49-1.84l2.23.27c1.04.13,3.13-.41,4.32-.81l7.35-2.49-1.9-8.06-2.2-11.72-2.98-1.28ZM642.25,515.04l-2.18-7.32.63,7.83c.5,1.64,1.09,1.15,1.55-.5ZM723.96,515.25c-.82-1.82-2.56-3.78-5.2-4.39l4.53,5.07.67-.68ZM623.14,513.31c.91-.96,1.61-1.69,1.18-1.24-1.35,1.42-1.69,1.77-1.18,1.24ZM620.14,515.31c.91-.96,1.61-1.69,1.18-1.24-1.35,1.42-1.69,1.77-1.18,1.24ZM644.19,519.91l.23-4.05-.23,4.05ZM724.56,515.75l-.85.72,2.34,6.66c.93-.81,2.61-3.72,1.76-4.48l-3.26-2.91ZM615.95,520.01l.81-3.01-2,1.47c-.31.23.87,1.4,1.19,1.53ZM601.81,518.41l4.39.17-4.39-.17ZM672.87,520.81c1.26-.5,1.41-.56-.03.02-1.16.92-1.54,1.23.03-.02ZM682.69,521.38l4.16.23-4.16-.23ZM734.54,524.67l-1.35-2.78c-.04.96,1.04,3.05,1.35,2.78ZM730.79,523.23l-1.92-.04,1.5,1.73.42-1.7ZM731.56,524.74l-.56,1.01,2.29,3.18.7-1.3c-.43-.89-1.71-2.32-2.44-2.89ZM641.27,530.22c2.3-.87,2.04-2.36-.4-1.49-2.37.21-2.06,1.29.4,1.49ZM734.58,528.88l-.6,1.28c.57,1.01,2.38,2.44,3.87,2.88l-3.28-4.16ZM755.25,547.19l-2.59-2.97-10.4-10.4-1.08,2.99c-.12.32.09,1.86.43,1.8l1.84-.36c.34-.07,1.25-.18,1.47.09s.81.97.85,1c.04.04-1.32.78-2.55,1.49l4.59,2.28c.77.39,2.1,1.47,2.51,2.18l2.65,4.59,1.45-1.89.84-.81ZM648.2,538.22l-2.21-3.63,1.2,4.34,1.01-.71ZM648.64,538.96l-.92.49.77,4.64.16-5.14ZM651.98,543.39l-.77-2.64-.03,3.2.8-.56ZM652.5,543.94l-.71.56.66,8.13,2.98,12.05,1.79,8.54-2.09.58-.95,4.9,1.34-.31,2.2-4.59c1.39-2.91,1.88-5.41.99-8.47l-2.51-8.63-3.71-12.75ZM665.26,548.11c-.11-1.1-.14-1.49-.04-.43.25,2.6.26,2.77.04.43ZM671.51,561.63l-1.32-2.72c-.04.9,1.08,3.1,1.32,2.72ZM653.26,567.11c-.11-1.1-.14-1.49-.04-.43.25,2.6.26,2.77.04.43ZM653.26,571.11c-.11-1.1-.14-1.49-.04-.43.25,2.6.26,2.77.04.43ZM685.69,582.54c-2.34-.22-2.16-.2.43.04,1.06.1.67.07-.43-.04ZM651.94,592.6c1.73-.31,3.19-.58,3.14-.57l.93-6.01c1.76-.74.7-.79-.19-.63l-4.44,2.53s.44.67,1.02,1.54l-.47,3.14ZM663.1,594.5l-7.22-1.47-.99,3.3,8.21-1.83ZM643.59,600.3l8.31-2.26-1.13-2.71-4.57,1.42-2.6,3.54ZM665.79,599.78c2.24.17,6.29-.11,8.96-.76l9.14-2.25,1.98-.49c.4-.1-.89-1.16-1.3-1.07l-11.98,2.57-6.21,1.35-.59.65ZM691.86,596.42l-4.69-1.23-.63,1.2,3.66,1.82,1.66-1.8ZM638.87,600.24l-3.58.37c-.36.04.18,1.56.32,1.52l3.26-1.9ZM632.7,602.32c-1.93-.69-3.09.26-2.78,1.55l2.78-1.55ZM657.86,606.33c-1.83-.27-3.08-.44-2.98-.02l.35,1.53,2.63-1.51ZM650.41,607.82l-.5.77,3.11-.02-2.61-.76Z"/>
            <path class="cls-3" d="M834.85,615.93c1.09-.18,1.98-.33,1.87-.31l-.46-2.21,4.8,3.25c4.74,3.21,3.92,6.53,9.59,8.35l3.51,1.12c.11.03.25.23.43.39l5.67,4.68.38.31,2.44,2.54-3.43-1.31c-.12-.04-.19-.18-.35-.66l-7-3.68,1.21-.97-.22-.08c-1.24-.09-4.05-.69-5.19-1.46l-10.37-6.97-2.88-2.99Z"/>
            <path class="cls-3" d="M669.23,581.6l-3.53.61c.42-.69.62-1.31.98-1.22l2.55.62Z"/>
            <polygon class="cls-3" points="608.22 488.01 606.45 487.67 608.52 483.49 608.22 488.01"/>
            <path class="cls-3" d="M851.86,618.99l-2.95-2.18c1.03.52,2.15,1.32,2.95,2.18Z"/>
            <path class="cls-3" d="M620.46,605.5l3.56,2.66-3.77,2.56-.67-3.78-1.57,1.38c.45,1.02.88,2.86.4,3.15l-7.82,4.75-.56.4-4.91,4,2.66,2.75c1.99.1,2.01.1-.12,0l-1.47,1.29,14.8-.84,17.91-2.63,10.88-1.43,5.93-.42,24.08-5.53c2.04-.47,4.49-.8,6.47-1.17-.62.48-2.26,1.7-3.06,1.91l-18.71,4.96-8.54,1.69-9.37,1.45-9.34.68-10.2,1.99c-4.53.89-9.35.43-14.38-.22l2.43,1.99-7.96-.8-6.45-2.15,4-6.39c-3.73,1.06-5.37,4.07-6.84,7.56l2.81.7,4.94,1.72c4.74,1.65,9.6,3.26,14.51,1.99l7.08-1.83,1.22.3c.34.08,1.55-.85,2.02-.91l16.41-2.1,30.12-5.2,11.71-3.39,4.79-1.84c.8.29,2.94.73,3.94.51l6.52-1.4,5.68-2.07,7.05-2.93,5.09-2.04,6.58-2.46c.94-6.24,6.77-2.01,10.34-5.52l-1.82-1.69c-.41-.38,1.3-1.48,1.86-1.59l5.88-1.18,1.34-2.93c.28-.45-3.21-.43-3.02-.24l-.12,2.04-4.51.2-11.67,6.15-16.65,7.42-13.36,4.75c-1.72.61-3.61.83-5.37.47l1.53-1.46c12.68-3.07,24.33-7.82,35.41-14.55l10.38-5.62,2.28-3.52,1.82-.9c.36-.18-.33-1.9-.53-1.74l-3.36,2.42-7.54-1.49-6.38-.84-7.22-1.43c-1.74-.34-3.82-.56-5.46-.25l-6.68,1.24-.29-1.99s-.91.44-1.93.94c.03.09-.3-1.17-.4-1.59s1.38-1.19,1.83-1.21l9.14-.44,12.68.36,18.67,3.3c3.29.58,4.1,5.09,3.26,7.68-1.31,4.04-3.32,6.56-6.78,8.62l-12.42,7.39-8.34,3.95-6.35,2.55-13.77,4.27-14.11,3.9-31.77,7.08-14.96,1.93-13.28,1.49-6.2.23-15.04-1.21-8.01-1.45c-2.74-1.49-1.13-9.1,1.74-11.51l3.9-3.28,5.73-4.42c3.21-2.48,8.39-4.21,11.68-5.2ZM735.75,584.72l-3.05-1.25c1.12,1.14,2.53,1.51,3.05,1.25ZM609.85,615.43l1.23-1.57-3.06,1.25,1.34.78.5-.46ZM663.69,624.54c-2.34-.22-2.16-.2.43.04,1.06.1.67.07-.43-.04ZM652.62,626.98l7.42-1.8-7.69.53c-1.87.55-1.2,1.1.27,1.27ZM641.8,627.39l4.05.23-4.05-.23Z"/>
            <path class="cls-3" d="M856.61,622.22c.93-.46,2.37-.55,2.14-.54l-.57-2.15,4.17,2.09c.5.25-.71,1.79-1.03,2.04l3.71,1.05c3.86,1.09,13.33,7.54,17.29,12.53l-7.44-3.45-5.13-3.47-9.94-5.31c-1-.53-2.57-2.2-3.18-2.8Z"/>
            <path class="cls-3" d="M702.78,500c.07,0-.71,1.33-.82,1.74-.59-.25-1.29-1.17-1.7-1.7l-.42.36c-.32.37-1.07,1.25-.85,1.54-.49-.4-1.39-1.56-1.73-2.14l-3.34-5.67.96-2.33,3.08,2.22c4.14,3.04,2.9,5.23,4.82,5.99ZM700.05,499.27l-2.25-2.57,1.34,3.28.9-.72Z"/>
            <polygon class="cls-3" points="704.87 500.84 702.78 500 701.96 497.27 703.54 495.89 704.87 500.84"/>
            <path class="cls-3" d="M715.13,513.8l3,8.29c.77.25,2.61,1.29,2.72,2.02l.97,6.3,2.16,4.37,5.27,11.98c.99,2.26,3.13,4.91,5.03,6.68l14.08,13.06,8.68,7.34,9.38,6.5,7.18,4.04c5.18,2.92,9.97,6.88,15.92,7.8l7.04,1.09,3.47,1.27,6.12,1.61,5.36,1.33c.68-.45,2.07-1.65,2.68-1.32l2.21,1.17,5.3,2.81c.49.26,1.63.6,1.95.23.22-.25,1.06-.9.79-.68l-4.03-2.26-7.31-4.79c-2.4-1.57-4.19-3.24-5.03-5.85l4.63,3.29,6.21,3.83,6.76,4.27,15.19,9.61.09,3.71.42-.21,2.73-1.58s.73,1.87.92,2.33c.32.76,1.89,1.7,2.57,1.91l1.31,2.87-3.42-1.47-4.78-2.92-.51-.26-8.26-5.32-2.21-1.42h-1.19c.6,1.19,2.2,3.49,3.25,4.35l4.48,3.65-1.25,1.05c-.27.24-.32,1.5-.16,1.47l-3.46-1.64c-.44-.25-1.31-1.46-1.55-1.82l-5.84-2.74-9.54-5.06-21.2-5.14-9.9-2.85-12.37-4.92-6.22-3.6-4.71-3.18-5.98-3.46-5.63-4.15-19.4-17.59-7.38-7.71-4.15-4.79-6.66-8.49c-1.86-2.37-3.17-5.72-4.38-8.55l-1.96-4.56-1.25-2.92-.29-.84c.35,0,1.76-.04,1.65-.51l-.48-2.06c-.51-2.17-.18-5.73.31-7.98.33,0-1.98.27-2.14-.1-.57-1.29-1.3-3.88-1.44-5.22l2.24-1c.27.41,2.18,2.34,2.41,3.34l1.79,7.89c1.11,4.9,2.09,9.42,4.45,13.69l2.59,4.71s-1.21.73-1.16.79c.08.08.68.86.85,1.09.25.34.74-.6,1.49-1.77l.92,2.13.03,2.23c.02,1.52,2.83,1.42,5.19,4l4.18,4.56,1.19-.36-7.59-17.07-4.19-9.55-2.37-6.54-2.04.6c.8,2.81.66,2.3.15.53l-1.15-2.55c-.24-.54,1.29-.43,2.08-.44l-2.47-3.66c-.94-.32-2.68-1.44-2.97-2.35l-1.64-5.47c3.86,1.54,7.73,8.08,10.26,12.96ZM707.64,526.75l-.1-2.81c-.02-.55-1.32-.67-2.04-.65l2.14,3.46ZM727.45,548.27l-1.02.49,5.46,7.14,1.12-.59-2.92-3.68-2.65-3.36ZM729.82,555.75l-3.97-2.82c.15,1.09.76,2.97,1.57,2.93l2.41-.11ZM733.48,555.87l-.67.64,2,2.2,1.63-.77-2.96-2.06ZM737.25,564.19c.03-.25.26-1.85.23-1.77-.01.04.58-.42,1.36-1.01l-1.44-1.44c-.63.77-1.1,1.33-1.06,1.34.03,0-.63.12-1.88.33l2.79,2.54ZM747.63,569.52l-6.02-5.16-1.29.83,6.58,5.34c1.76.54,2.17.06.74-1.01ZM754.13,576.16c2.03,1.48,2.55,1.13.95-.98l-.95.98ZM756.54,576.81l-.52.91,4.01,3.26c-.68-2.08-2-3.37-3.49-4.18ZM793.69,596.54c-2.34-.22-2.16-.2.43.04,1.06.1.67.07-.43-.04ZM824.14,604.58c-1.4-1.05-3.56-2.29-4.97-2.64l-3.28-.82c-.11.13.34,2.27.84,2.28l2.08.02,5.32,1.16ZM828.49,604.41l-.49-3.1-2.09,1.82,2.36,1.78.22-.5Z"/>
            <path class="cls-3" d="M623.93,198.04l-2.14-.96.65-1.21c.19-.3,1.31.27,1.37.62l.12,1.55Z"/>
            <path class="cls-3" d="M703.12,505.04c-.71-.91-1.13-2.64-1.16-3.3l2.2.94-1.04,2.36Z"/>
            <path class="cls-3" d="M638.98,619.36c-1.96,1.68-12.18,2.4-15.11.23l13.68-3.68,6.85-1.84c.08-.27-.17.6-.25.86l-5.17,4.43Z"/>
            <path class="cls-3" d="M628.89,332.19l-2.26-4.46,1.56-8.81,1.19-11.47,4.24-13.53,1.31.78,1,7.14.78,8.86-.35,16.84-1.76,7.04c-.09.35-1.44,1.46-1.62,1.57l.44-7.43-2.96,11.19c-.54,2.04-4.75,3.74-6.92,3.47l3.07-2.89,1.73-7.61.55-.67ZM631.37,320.99h0q0,2.34,0,0ZM628.81,333.39l1.11,1.73.86-5.37-1.48,3.23-.5.42Z"/>
            <path class="cls-3" d="M629.99,296.5l-.41-9.47-.57-7.09-.92-10.96-.9-10.14-.59-8.78-.95-8.08-1.06-9-.98-7.98-1.01-7.95-1.58-12.41c2.23,2.75,2.7,5.59,3.12,9.17l1.05,9.04.93,8.02.96,9.08,1.11,11.9.68,9.07.73,9.1,1.01,8.89.34,17.56-.96.02Z"/>
            <path class="cls-3" d="M574.98,310.31l-2.83-4.45.94,4.27-2.5.72-1.35-6.33-4.81-11.28-1.99-5.13,1.16-2.4,2.69,9.04c.72,2.4,2.98,4.71,4.65,7l5.12,7.03c-.38.54-1.57,2.22-1.08,1.53Z"/>
            <path class="cls-3" d="M573.09,310.13c.12-.03.57.04,1.89.18l1.6,4.8,6.69,11.49,5.17,6.62c.37.47,2.65.25,3.11.2l2.98,4.64-3.64-2.11c-.4.54-1.23,2.26-.75,2.58l2.69,1.83.64.43,2.29-1.83.69,2.05.22,3.42-3.85-2.68-.43-.81c-.4.38-1.65,1.02-2.05.63l-2.3-2.23,1.85-3.04-5.03-4.56-4.42-5.39c-3.03-3.7-5.38-7.6-7.44-11.71-.56-1.11-.45-3.49.11-4.52Z"/>
            <polygon class="cls-3" points="624.76 310.37 624.76 304.91 624.92 273.44 625.85 272.86 625.85 315 624.81 314.45 624.76 310.37"/>
            <polygon class="cls-3" points="597.13 126.07 599.06 135.37 598.1 136.03 593.94 116.88 593.37 112.27 593.31 107.8 595.62 116.95 597.13 126.07"/>
            <path class="cls-3" d="M521.36,178.99l-2.42-.35c-.48-.07-.05-1.99.46-1.95l3.51.3-.39,1.39-.18.22,3.14-1.4.14,2.69c-2.02,1.02-1.82.91-1.1.55l5.95,1.15,2.66.51-1.63,1.54-4.55-.77-7.64-1.3,2.37-2.29-.31-.28Z"/>
            <path class="cls-3" d="M538.06,181.21l-3.32.46c-1.37-.97-3.52-1.76-6.26-1.99-2.39.13-2.2-1.5-.08-2.11,2.68.45,5.25,1.04,6.62,1.78l3.04,1.85Z"/>
            <path class="cls-3" d="M534.74,181.67l3.32-.46,4.11,1.81c2.36,1.16,5.99.83,8.97.16l5.68,1.21.68.41,3.35,1.65.67.7,4.57-.79c.25,1.11,2.35,2.53,3.43,2.39l4.31-.56.6.68,4.52,1.8c-1.5.23-3.92-.16-5.08-.94-.16-.11-.29-.3-.5-.73l-4.34.74c-.55.09-2.25-.97-2.72-.66l-1.93,1.24-3.49-1.14c-.32-.1-.64-.23-.54-.5l.46-1.22-.52-.27-3.42-1.57-.44-.46c-.42.1-1.46.22-1.87.15l-4.29-.74c-1.53.56-3.18.87-4.27.72l-6.98-.95c-1.32-.18-3.38-1.27-4.28-2.66Z"/>
            <path class="cls-3" d="M521.45,174.66l-2.93,1.39c1.08-5.61-3.14-10.41-1.67-15.82l3.51,12.01,1.1,2.42Z"/>
            <path class="cls-3" d="M581.85,192.5l-10.54.45c-.44.02-.45-2.11-.03-2l2.15.6c1.87.52,6.46.95,8.14.16l3.15-1.49,6.14.61c3.09.31,5.5.8,8.21,1.67-3,.33-5.5.41-7.93.08-3.26-.44-5.43-.25-9.29-.08Z"/>
            <path class="cls-3" d="M588.56,246.55c.67-3.58.83-4.44.61-3.24.87,1.43,1.5,2.41,1.42,2.4s1.08-.36,1.9-.6c.38-.31.8,2.5.15,2.75l-2.62,1-5.25-.43.82-5.85c.84-.39,1.77-.83.73-.34l1.62,2.28c.22.31-.51.7-1.56,1.32l-.21,1.16c2.39-.44,2.89-.54,2.39-.44Z"/>
            <polygon class="cls-3" points="511.09 131.9 511.26 126.76 512.03 131.4 512.47 131.93 513.15 136.69 514.1 143.39 514.51 143.95 516.11 152.37 516.55 152.94 516.92 159.1 515.11 157.59 516.01 153.47 515.07 152.85 513.57 144.52 513.23 143.95 512.61 140.13 511.64 132.46 511.09 131.9"/>
            <path class="cls-3" d="M601.29,149.92l-1.57-7.36c.44-1.76.84-1.65,1.12-.15l1.24,6.99.35.53.49,3.49.53.51,1.63,9.32c-.45,1.8-.9,1.75-1.31.18l-1.14-8.98-.34-.52-.49-3.48-.51-.52Z"/>
            <path class="cls-3" d="M558.22,172.94l-1.88-1.47-.12-6.52c1.6,1.04,2.82,4.16,2,7.98Z"/>
            <rect class="cls-3" x="559.78" y="286.78" width="1.79" height="8.5" transform="translate(-70.96 281.46) rotate(-26.57)"/>
            <path class="cls-3" d="M620.98,243.06c-.09,1.44-.57,2.38-1.6.52l-.29-6.84,1.88,6.32Z"/>
            <path class="cls-3" d="M553.13,170.25c1.96.83,2.37,2.46,0,3.24l-3.29-2.61,3.28-.63Z"/>
            <path class="cls-3" d="M527.59,223.38c-1.2.99-1.58,1.1-2.16.67l-.23-5.58,2.39,4.92Z"/>
            <path class="cls-3" d="M566.93,229.7l.02-3.09,3.81-1.34c.06-.19-.37,1.28-.5,1.71l-3.33,2.72Z"/>
            <polygon class="cls-3" points="556.7 186.64 557.68 189.27 551.66 187.38 556.7 186.64"/>
            <rect class="cls-3" x="623.19" y="264.96" width="1.26" height="6.64" transform="translate(-52.83 211.04) rotate(-18.43)"/>
            <path class="cls-3" d="M545.98,141.17l-4.19-.73,1.77-1.49c.58-.49,2.39.51,3.35,1.11-.44.53-1.21,1.44-.93,1.11Z"/>
            <polygon class="cls-3" points="555.33 228.86 551.54 228.21 556.84 226.9 555.33 228.86"/>
            <path class="cls-3" d="M547.1,105.14l-4.21.54c.44-.65,2.62-2.04,3.58-2.14l4.51-.45-3.88,2.04Z"/>
            <path class="cls-3" d="M600.73,258.15l-1.33,2.78c-.19.39-1.82-.12-1.64-.51l.84-1.81,1.15-2.45.97,2Z"/>
            <polygon class="cls-3" points="498.52 124.03 496.43 118.38 498.35 118.4 498.52 124.03"/>
            <polygon class="cls-3" points="621.13 253.91 621.25 249.76 622 253.4 622.71 253.96 622.47 261.1 621.69 254.44 621.13 253.91"/>
            <path class="cls-3" d="M555.81,223.4c-.43.72-2.58,1.52-3.71,1.26-.14-.82,1.63-1.71,3.71-1.26Z"/>
            <polygon class="cls-3" points="614.23 222.07 613.78 217.43 614.62 216.88 614.93 220.44 614.23 222.07"/>
            <polygon class="cls-3" points="566.09 231.56 562.37 232.73 565 229.95 566.09 231.56"/>
            <polygon class="cls-3" points="568.01 89.58 563.37 90.02 562.81 89.18 566.38 88.87 568.01 89.58"/>
            <path class="cls-3" d="M554.04,257.4l1.77,1.05c.27.16-.96,1.25-1.28,1.22-.53-.05-1.81-.8-1.64-1.31l.87-2.58c.12-.35,1.3-1.18,1.56-.91l1.61,1.65-2.89.87Z"/>
            <path class="cls-3" d="M596.32,256.53l-.7,2.34-.76-2.27c.14-1.48.55-2.11,1.46-.07Z"/>
            <path class="cls-3" d="M604.19,113.91l.23-4.05-.23,4.05Z"/>
            <path class="cls-3" d="M559.82,102.17c-2.01,1.18-4.31,1.76-7.06,1.28l7.06-1.28Z"/>
            <path class="cls-3" d="M602.54,288.66c-.3.3-1.39-1.81-1.34-2.76l1.34,2.76Z"/>
            <circle class="cls-3" cx="545.87" cy="143.93" r="1.11"/>
            <path class="cls-3" d="M570.34,159.04l-2.64-.77,3.21-.05c.19,0,.72.51.72.68l-.13,4.2-.76-3.65-.4-.42Z"/>
            <path class="cls-3" d="M605.19,169.91l.23-4.05-.23,4.05Z"/>
            <path class="cls-3" d="M608.18,182.96l.03-3.2.77,2.63.61.56-.1,4.13-.75-3.63c-.41-.28-.56-.34-.56-.5Z"/>
            <path class="cls-3" d="M617.19,236.91l.23-4.05-.23,4.05Z"/>
            <path class="cls-3" d="M561.75,227.43l-1.59,2.31.06-2.87c0-.44,2.06.76,1.53.56Z"/>
            <path class="cls-3" d="M548.99,227.23c1.07.99,1.01,1.67-.38.77-2.21-.71-1.63-1.17.38-.77Z"/>
            <path class="cls-3" d="M560.54,224.67c-.31.28-1.39-1.81-1.35-2.77l1.35,2.77Z"/>
            <path class="cls-3" d="M576.75,216.43l-1.59,2.31.06-2.87c0-.44,2.06.77,1.53.56Z"/>
            <path class="cls-3" d="M570.32,216.08c-1.35,1.42-1.69,1.77-1.18,1.24.91-.96,1.61-1.69,1.18-1.24Z"/>
            <path class="cls-3" d="M517.13,179.58c1.06.1.67.07-.43-.04-2.34-.22-2.16-.2.43.04Z"/>
            <path class="cls-3" d="M588.78,240.97c-1.24,1.1-.71.63.12-.1,1.43-.8,1.11-.61-.12.1Z"/>
            <path class="cls-3" d="M554.08,167.78l-1.01,2.14,1.01-2.14Z"/>
            <path class="cls-3" d="M552.32,241.08c-1.35,1.42-1.69,1.77-1.18,1.24.91-.95,1.61-1.69,1.18-1.24Z"/>
            <path class="cls-3" d="M600.13,253.58c1.06.1.67.07-.43-.04-2.34-.22-2.16-.2.43.04Z"/>
            <path class="cls-3" d="M599.22,137.67c.25,2.6.26,2.77.04.43-.11-1.1-.14-1.49-.04-.43Z"/>
            <path class="cls-3" d="M622.22,325.67c.25,2.6.26,2.77.04.43-.11-1.1-.14-1.49-.04-.43Z"/>
            <path class="cls-3" d="M602.22,103.67c.25,2.6.26,2.77.04.43-.11-1.1-.14-1.49-.04-.43Z"/>
            <path class="cls-3" d="M601.22,98.67c.25,2.6.26,2.77.04.43-.11-1.1-.14-1.49-.04-.43Z"/>
            <path class="cls-3" d="M589.76,343.93c-.88-.31-1.58-1.01-1.89-1.89l1.89,1.89Z"/>
            <polygon class="cls-3" points="647.87 411.57 645.7 413.74 644.6 411.57 644.22 411.22 642.3 408.29 645.27 407.75 644.97 410.43 645.33 410.76 647.59 408.79 647.87 411.57"/>
            <path class="cls-3" d="M645.7,413.74l2.11,1.29.06-3.47,1.42,2.25c1.28,2.32,1.33,8.02.06,10.84-.77,1.71-6.59,5.26-9.78,3.72-.63-.3.7-2.02,1.4-2.04,4.37-.11,6.29-6.25,5.76-8.21l-1.03-4.39Z"/>
            <path class="cls-3" d="M639.37,425.59c.2.05-1.44,2.87-1.9,2.73l-7.21-2.18-5.97-2.02-.1-2.59,9.17,2.64,6.03,1.42Z"/>
            <path class="cls-3" d="M675.03,442.15c-.88,2.22-1.72,3.51-4.65,4.74l2.67-5.88c1.03-2.28,2.63-4.29,4.92-6.29l-2.94,7.44Z"/>
            <path class="cls-3" d="M670.13,447.58c1.06.1.67.07-.43-.04-2.34-.22-2.16-.2.43.04Z"/>
            <path class="cls-3" d="M707.64,467.38c.47.04-.29-.02-1.17-.11l2.92-7.96c.37-1,1.48-2.5,2.6-3.64l-4.35,11.71Z"/>
            <path class="cls-3" d="M703.76,472.93c-.88-.31-1.58-1.01-1.89-1.89l1.89,1.89Z"/>
            <path class="cls-3" d="M719.22,448.67c.25,2.6.26,2.77.04.43-.11-1.1-.14-1.49-.04-.43Z"/>
            <path class="cls-3" d="M716.81,448.81c-1.26,1.35-.71.76-.01.01,1.55-.61,1.33-.52.01-.01Z"/>
            <path class="cls-3" d="M718.13,444.58c1.06.1.67.07-.43-.04-2.34-.22-2.16-.2.43.04Z"/>
            <path class="cls-3" d="M671.67,475.94l-2.89-2.82c1.52-.43,2.94.45,2.89,2.82Z"/>
            <path class="cls-3" d="M663.62,476.68l-2.13-3.37c.73-.03,2.02.08,2.04.63s.09,2.74.09,2.74Z"/>
            <polygon class="cls-3" points="665.83 471.16 662.02 469.51 663.93 468.26 665.83 471.16"/>
          </g>
        </g>
      </g>
    </g>
  </g>
</svg>