<?xml version="1.0" encoding="UTF-8"?>
<svg id="Layer_1" xmlns="http://www.w3.org/2000/svg" version="1.1" viewBox="0 0 575.25 510">
  <!-- Generator: Adobe Illustrator 30.0.0, SVG Export Plug-In . SVG Version: 2.1.1 Build 123)  -->
  <path d="M0,238.5c4.82-1.29,10.11-1.03,14.95.05-.25,4.59-.4,9.24-.68,13.84-.36,5.77-.59,11.87-1.17,17.62-.13,1.33-.8,1.91.78,2.99,4.16-14.09,12.84-27.22,26.63-33.36,22.85-10.17,50.2-1.98,62.63,19.85,13.16,23.1,12.66,62.92-1.57,85.46-18.58,29.43-63.66,29.44-81.63-.76l-6.44-14.18,1.4,64.03c-.1.36-.3.68-.61.89-1.33.89-12.06.54-14.29-.42v-156ZM28.72,257.47c-17.55,17.11-17.86,62.61-4.28,82.21,14.98,21.63,53.46,21.09,65.7-2.41,11.11-21.33,10.97-64.9-8.78-81.52-14.3-12.03-39.23-11.36-52.64,1.72Z"/>
  <path d="M89.25,0c.1.01.53.59,1.19.68,25.89,3.61,43.13,19.66,46.82,45.82l-14.21,1.45c-2.37-14.37-9.81-27.15-23.53-33.09-12.31-5.33-32.12-4.95-44.55-.02-6.41,2.55-10.66,6.46-13.29,12.96-5.17,12.77-2.91,29.45,9.68,36.71,21.56,12.44,55.51,5.74,75.41,22.09,13.69,11.25,14.67,35.68,5.87,50.15-16.41,26.96-66.19,28.9-91.14,14.13-13.8-8.17-22.49-23.89-22.74-39.89h13.88c1.83,2.52,1.85,6.91,2.8,9.95,1.35,4.26,4.83,10.62,7.68,14.07,13.85,16.79,50.06,16.94,67.91,7.12,16.11-8.87,17.46-40.61,1.44-50.97-25.3-16.35-78.92-2.36-86.75-40.75C20.99,27.36,34.17,8.71,56.25,2.62c3.54-.98,7.35-.95,10.5-2.62,7.06.66,15.65-.89,22.5,0Z"/>
  <path d="M174,510c-2.03-.26-7.75-2.38-9.68-3.44-9.78-5.39-11.7-15.7-10.51-26.12.86-7.56,7.2-13.06,14.18-15.07l13.5-2.61-25.5-13.88v-22.12h71.25v24.75h-45.75l12.76,10.86c3.53,2.36,1.93,6.42,2.24,10.14l-14.95.8c-5.22,18.33,11.27,19.31,24.55,15.54,1.18-5.85,3.5-18.01-5.85-16.34.2-1.7-.72-9.75,1.13-9.75h31.88v11.25l-6.76-.37,6.76,34.87h-17.25l-.06-4.81-2.93-19.18c-1.15,8.01-1.78,16.35-9.23,21.15-2.34,1.5-8.39,4.01-11.02,4.35-3.85.5-14.9.5-18.75,0Z"/>
  <path d="M575.25,325.5c.25,2.28.25,6.72,0,9-.41,3.76-3.37,12.49-5.66,15.71-14.44,20.28-56.64,20.7-76.32,8.9-12.94-7.76-18.14-20.45-20.76-34.78.09-4.03,12.78-2.64,15.65-1.74,1.43,9.39,4.1,19.19,11.72,25.4,11.38,9.28,29.6,9.47,43.35,6.61,1.7-.35,8.03-2.98,9.48-4.02,3.97-2.82,6.94-10.32,7.48-15.02,3.47-30.33-25.94-28.24-46.75-31.88-18.93-3.32-33.73-9.44-34.97-31.02-1.31-22.81,14.65-35.28,35.72-37.85,21.99-2.68,45.17,2.52,55.2,24.17,1.49,3.22,5.87,15.03,4.03,17.81l-10.62,2.16c-.85.13-1.89.24-2.6-.28-1.03-.74-1.97-8.92-2.56-10.94-5.68-19.55-21.83-23.96-40.52-22.5-4.51.35-14.45,3.16-17.63,6.37-8.43,8.53-8.54,28.36,1.55,35.98,18.9,14.27,63.32.82,72.52,30.98.5,1.65,1.55,5.57,1.7,6.93Z"/>
  <path d="M292.5,510c-4.18-.47-11.36-3.36-14.95-5.67-18.27-11.78-18.66-54.33-4.94-69.34,10.79-11.81,38.07-12.54,51.57-5.79,11.85,5.93,15.38,17.87,16.93,30.21l-1.06,1.02-25.78,2.31c-.66-6.22-1.47-15.06-8.08-17.79-4.36-1.8-10.57-1.04-15.13-.14.53,3.7-.69,7.35-.84,10.79-.32,7.16-1.03,24.82,2.69,30.38,4.52,6.76,13.51,5.84,20.55,4.48l.8-13.45h26.25c-.53,12.91-6.59,25.2-18.99,30.14-2.22.89-7.35,2.58-9.51,2.86-4.2.54-15.22.48-19.5,0Z"/>
  <path d="M391.5,510c-3.84.5-14.91.49-18.75,0-14.82-1.91-26.48-13.94-27.76-28.86-2.78-32.27,11.63-46.99,43.92-44.67,25.27,1.82,33.75,25.2,29.41,47.48-2.66,13.63-12.65,24.23-26.82,26.06ZM392.2,488.95c.18-3.35-.07-6.73.03-10.09.15-4.69.71-8.3-.15-13.32-1.65-9.6-12.16-11.39-19.97-7.92-.89,6.48-1.52,14.73-.88,21.27,1.13,11.51,11.55,13.52,20.97,10.06Z"/>
  <path d="M439.5,510h-12.75c-4.85-2.03-8.13-5.09-8.01-10.74.14-6.92,5.05-9.8,11.35-10.29,9.28-.73,18.71,1.58,16.74,12.99-.88,5.1-3.56,5.52-7.33,8.04Z"/>
  <path d="M171.75,31.5c.19,7.18-.01,14.32-1.51,21.36l.39,13.89c8.19-18.93,21.21-36.64,43.49-38.27,16.79-1.23,30.92,7.02,36.02,23.25,1.62,5.16,1.58,10.56,2.62,15.76l8.39-15.23c18.44-33.67,70.45-33.11,74.79,10.42,1.71,17.11-.19,38.52.03,56.22.02,1.81.79,3.36.82,5.18.14,9.51.77,21.59,0,30.82-.06.77-.33,2.59-1.16,2.59h-12.75l-1.03-1.22c-.11-2.44-.24-4.97-.11-7.42,1.39-27.34.61-54.95.7-82.42-1.39-11.54-8.75-23.49-21.28-24.47-18.69-1.47-28.37,4.3-38.23,19.59-2.99,4.63-9.06,15.34-9.46,20.54-1.24,15.99.5,32.83.82,48.75.15,7.38.6,16.91,0,24.07-.06.77-.33,2.59-1.16,2.59h-12.75l-1.03-1.22c-.08-3.69-.26-7.46-.11-11.17,1.01-25.87.89-51.94.7-77.93-1.63-11.85-8.12-24.18-21.28-25.22s-23.76,1.32-32.65,11.66c-4.18,4.86-14.4,21.02-15.03,26.97-1.27,11.94-.18,29.56,0,42.06.03,1.81.79,3.36.82,5.18.14,8.34.68,18.98,0,27.07-.06.77-.33,2.59-1.16,2.59h-12.75l-1.03-1.22c-.09-3.19-.25-6.47-.11-9.67,1.49-34.68,1.47-68.78,0-103.47-.16-3.86.15-7.78.01-11.64h15Z"/>
  <path d="M249.75,274.88c-1.49-14.41-10.94-27.52-25.93-29.57-12.68-1.73-30.79-.73-38.45,10.93-5.09,7.76-6.03,16.81-8.33,25.43l-1.11.33-13.18-2.25c2.01-15.23,8.71-29.98,22.27-38.11,21.03-12.61,60.15-10.51,72.63,13.35,9.2,17.6,5.16,49.08,5.57,69.43.2,9.84,1.04,20.11,1.55,29.95.16,3.07-.06,6.25-.1,9.3-.65-.04-1.6.83-1.79.83h-12c-1.99,0-.8-10.45-1.16-12.41,1.6-8.76,1.88-17.69,2.28-26.59-2.15-.41-1.17.6-1.7,1.64-3.86,7.63-7.71,15.43-13.31,21.98-13.79,16.12-35.65,22.18-55.7,14.46-24.18-9.31-25.93-48.36-3.78-61.19,17.98-10.42,47.09-6.49,67.38-5.41,1.96.11,4.18,1.92,5.5-.36-.01-.33-.64-.57-.64-.75,0-6.52.65-14.75,0-21ZM249.75,305.25c-10.13-.03-20.27.03-30.41.04-3.1,0-5.83-.1-8.95-.02-9.69.25-17.7.04-25.83,6.42-13.14,10.3-10.28,35.75,6.84,41.04,16.49,5.1,33.6-1.99,44.49-14.46,2.06-2.36,13.86-19.65,13.86-21.39v-11.62Z"/>
  <path d="M443.62,157.5c-1.65-.43-1.23-6.88-1.14-8.64.17-3.4,1.28-7.79,1.53-11.22.46-6.35-.38-12.88,1.48-19.14-1.53-.31-1.75.72-2.4,1.72-2.08,3.2-3.62,8.01-5.72,11.53-12.86,21.59-36.11,34.38-61.29,25.77-25.51-8.72-28.58-48.32-6.27-61.84,16.47-9.98,51.06-6.61,70.04-4.93,1.12.1,2.27-.05,3.39-.01-.2-4.35.25-8.79.01-13.14-.54-9.69-2.32-23.06-9.36-30.39-10.03-10.45-31.28-11.52-44.11-6.55-14.48,5.61-17.47,20.39-19.31,34.32l-13.91-2.19c-2.15-3.1,3.52-17.41,5.37-20.98,10.94-21.09,33.84-26.24,56.11-24,20.56,2.06,35.55,16.54,37.88,37.12,2.53,22.32.26,47.67.77,70.48.14,6.28,1.37,12.91.82,19.5-.06.77-.33,2.59-1.16,2.59h-12.75ZM442.42,98.33c-10.35-.16-20.72-.07-31.08-.04-5.11.02-10.45-.55-15.73-.05-11.11,1.05-23.95,7.13-25.68,19.32-3.16,22.27,11.34,32.91,32.38,29.38,16.79-2.82,27.14-14.28,35.55-28.2,3.18-5.26,5.43-10.02,5.46-16.36,0-1.44-.42-2.73-.9-4.05Z"/>
  <path d="M460.5,321c.4,4.77-1.55,9.84-3.38,14.25-19.49,46.97-90.2,41.21-103.66-9.58-8.76-33.05-.46-81.41,38.56-90.01,34.54-7.62,63.55,10.45,69.82,45.38.52,2.89,1.56,12.44.82,14.75-.66,2.06-5.07,1.01-7.05,1.2-26.53,2.59-54.79,2.89-81.72,4.53-2.86.17-5.78-.15-8.64-.02.1,1.86-.15,3.78-.01,5.64,1.1,14.9,5.97,33.78,18.8,42.7,16,11.12,42.53,8.11,55.11-7.08,3.54-4.28,5.62-11.61,6.94-17.06.26-1.06-.06-4.71,1.29-4.71h13.12ZM434.78,255.22c-14.22-14.27-43.4-14.04-57.48.2-9.61,9.71-9.97,23.15-11.91,35.98.12,1.53,4.99,1.21,6.25,1.11,19.63-1.52,39.54-2.55,59.22-3.78,5.39-.34,10.79-.61,16.18-1.07.81-.59.78-1.32.7-2.22-.13-1.6-1.22-6.37-1.66-8.14-1.8-7.14-6.09-16.86-11.3-22.08Z"/>
  <path d="M300.75,207v30.38c0,1.47,3.33.34,4.09.33,12-.15,27.44-1.01,39.06.02.77.07,3.28.48,3.39,1.24-.29,2.37.3,5.14-.03,7.42-.12.86-.32,1.51-1.23,1.77-11.2-.17-22.5.54-33.69.13-2.41-.09-10.7-2.31-11.5.43-.85,2.94.07,11.13-.08,14.92-.85,21.32-2.14,46.27-.8,67.52.47,7.4,2.71,16.58,9.53,20.47,8.9,5.08,19.34,3.05,28.76.5,1.94-.53,5.23-2.34,6.48-2.54,2.5-.41,2.04,8.2,1.78,10.05-.24,1.67-4.02,2.73-5.8,3.2-9.95,2.6-25.84,4.01-35.47.54-12.43-4.48-17.18-15.93-18.01-28.49-1.57-23.68.2-49.35-.75-73.5-.18-4.61.16-9.28.02-13.89-1-1-16.79,2.26-19.55.42-1.47-.98-.36-6.97-.74-8.95.06-.37,1.8-1.22,1.91-1.22h17.25c.22,0,.54.92,1.12.75v-30.38l1.12-1.12h13.12Z"/>
  <path d="M130.12,364.5c-.33-.06-1.1-.86-1.79-.84,1.59-23.21.1-46.74.63-70.07.56-24.76,1.11-50.8.07-75.75-.09-2.2-2.21-8.5.43-9.25,2.74.41,12.04-2.25,13.45-.13.81,1.21.43,25.2.37,28.96-.56,31.29-.49,62.4,0,93.68.17,10.72-.23,21.47,0,32.19-.06.37-1.8,1.22-1.91,1.22-3.24,0-8.35.49-11.25,0Z"/>
  <path d="M528,1.5c-.17,9.62.21,19.28.04,28.91-.58,31.29-.46,62.4,0,93.68.14,9.51.77,21.59,0,30.82-.06.77-.33,2.59-1.16,2.59h-12c-.11,0-1.9-.86-1.92-1.22.28-1.51.78-2.77.84-4.37.82-21.3-.55-43.19-.07-64.57.58-26.19.5-53.08.08-79.5-.04-2.31-1.26-3.92-.04-6.34h14.25Z"/>
  <path d="M492,1.5c-.17,9.62.21,19.28.04,28.91-.25,13.34-1.21,27.12-1.55,40.45-.46,17.9,1.28,36.12,1.55,53.98.14,9.27.75,21.07,0,30.07-.06.77-.33,2.59-1.16,2.59h-12.75l-1.03-1.22c-.86-3.77.57-7.61.69-11.12.68-19.47-.53-39.09-.07-58.57.58-24.69.4-50.16-.73-74.95-.08-1.81-.48-10.14,1.14-10.14h13.88Z"/>
</svg>