<?xml version="1.0" encoding="UTF-8"?>
<svg id="Layer_1" xmlns="http://www.w3.org/2000/svg" version="1.1" viewBox="0 0 1328.25 141">
  <!-- Generator: Adobe Illustrator 30.0.0, SVG Export Plug-In . SVG Version: 2.1.1 Build 123)  -->
  <path d="M59.97,0c2.6,1.48,6.38,1.09,9.18,1.68,19.56,4.09,33.69,19.56,35.72,39.29-.38.55-10.96,1.95-11.98,1.24-.47-.33-2.48-7.98-3.12-9.58-3.03-7.59-7.43-13.46-14.58-17.56-11.92-6.84-33.6-6.55-45.73-.29s-14.08,29.71-4.01,39.35c18.35,17.55,75.82,2.42,80.18,40.31,4.3,37.38-29.25,47.86-60.3,45.84-19.98-1.31-37.56-12.68-43.31-32.24-.77-2.61-.67-5.72-2.02-8.06v-1.49c4.09-1.39,9.25-.8,13.54-.42.7.48,1.15,5.59,1.65,7.31,6.21,21.11,25.69,26.56,45.92,25.2,6.58-.44,19.42-3.37,24.3-7.9,8.09-7.49,10.01-26.32,4.45-35.66-14.37-24.13-74.57-5.17-82.93-41.31C.97,19.97,20.73,1.79,45.33.71l1.15-.71h13.49Z"/>
  <path d="M778.81,0c2.61,2.38.82,3.91.73,6.33-.26,7.07.23,14.21.02,21.28h40.1c1.42,0,1.27,5.12,1.16,6.38-.04.45.01.91-.13,1.36l-1.03,1.22h-40.1c-.18,7.83.23,15.7.04,23.54-.39,15.88-1.92,32.53-.82,48.49.3,4.44,1.84,11.32,4.53,14.89,7.64,10.15,24.85,6.41,34.97,1.95,2.7-.44,2.17,9.22,1.03,10-.53.36-3.49,1.43-4.33,1.66-13.83,3.78-35.63,5.23-43.32-9.48-2.44-4.66-3.76-10.82-4.11-16.06-1.37-20.54.78-42.68.05-63.46-.12-3.36-1.89-7.02-.17-10.44l-.99-1.09h-16.49c-.83,0-1.09-1.81-1.16-2.57-.14-1.63.04-3.51.13-5.16l1.03-1.22h17.62c-.41-.9-.7-1.54-.78-2.58-.36-5.1-.73-17.78.01-22.43.24-1.53,1.4-1.65,2.27-2.6h9.74Z"/>
  <path d="M134.55,27.6c1.31.34,1.22,2.96,1.17,4.13-.18,4.39-1.34,9.76-1.56,14.13-.2,4.09.17,8.24.02,12.32l8.68-14.85c18-25.66,56.96-25.97,63.22,9.31.2,1.11-.16,7.06,1.18,7.04,8.13-22.59,28.35-41.64,54-32.11,13.96,5.18,18.29,19.56,19.12,33.19,1.1,18.11.29,37.1.73,55.23.18,7.33-.16,14.7-.01,22.02h-13.49c.14-4.59-.18-9.22-.01-13.82.79-21.51,1.05-43.2.7-64.83-1.67-10.54-7.2-21.19-19.02-22.1-13.26-1.01-21.07,1.51-29.64,11.6-3.5,4.13-11.49,17.29-12.03,22.35-1.52,14.17.48,30.54.81,44.75.17,7.34-.2,14.71-.04,22.04h-13.49c.14-5.83-.19-11.71-.01-17.55.53-18.02,2.73-42.8.7-60.35-1.23-10.68-7.1-21.97-19.02-22.85-8.73-.64-15.63-.2-22.84,4.93-7.23,5.14-19.62,23.91-19.59,32.77,0,2.18.78,3.91.84,5.93.4,14.19.24,28.41.73,42.54.17,4.84-.15,9.73-.01,14.56h-13.49c.14-6.33-.19-12.7-.01-19.04.61-22.26,1.22-44.78.8-67.16-.13-6.94-1.43-14.4-.82-21.64.06-.76.33-2.58,1.16-2.58h11.24Z"/>
  <path d="M748.08,138.02h-13.49c-.89-6.5.95-12.7,1.51-19.01.42-4.65.22-9.84.73-14.56-2.15-.41-1.17.6-1.7,1.63-11.4,22.42-24.15,36.88-51.83,34.11-21.68-2.17-30.54-24.48-23.48-43.38,8.84-23.66,48.34-18.76,68.4-17.75,1.78.09,5.51,1.89,6.77.02.58-.56-.42-.94-.42-1.12v-17.9c0-2.87-2.39-9.74-3.84-12.59-7.5-14.77-29.35-17.17-43.39-11.29-8.46,3.55-12.86,12.58-14.81,21.07-.43,1.86-.65,8.07-1.66,8.81-4.32-.25-8.62-.53-12.75-1.92,1.91-21.01,17-37.86,38.58-39.54,18.94-1.47,39.45,2.46,46.88,22,5.49,14.45,2.64,38.44,2.95,54.51.2,10.49.71,21.56,1.55,32.03.13,1.61-.1,3.26-.01,4.87ZM734.59,86.54c-8.87,0-17.77,0-26.65.04-4.89.02-9.9-.49-14.97-.05-13.87,1.2-24.45,10.31-22.79,24.94,2.58,22.7,31.83,21.66,46.03,10.12,5.03-4.09,17.11-19.06,18.2-25.15.57-3.14-.06-6.7.17-9.91Z"/>
  <path d="M386.78,138.02h-12.37c-1.53,0-.37-2.62-.36-3.33.15-10.39,1.04-20.65,2.22-30.99-1.13.18-1.41,1.39-1.88,2.23-5.15,9.14-8.53,17.14-16.84,24.28-19.69,16.93-58.35,14.08-60.77-16.4-3.38-42.56,45.01-36.35,73.1-33.96,1.37.12,2.77-.08,4.14-.01v-19.77c0-3.61-4.5-13.93-6.88-17.03-8.49-11.1-28.84-11.57-40.86-6.61s-14.24,18.7-15.98,29.98l-12.42-2.19c-.97-1.36,1.39-10.11,2.09-12.19,4.99-14.77,19.09-25.9,34.75-27.33,18.92-1.73,39.69,1.8,47.67,21.06,6.57,15.86,3.23,46.92,3.57,65.08.03,1.81.78,3.34.82,5.15.17,7.34-.2,14.71-.04,22.04ZM374.04,86.54c-9.12,0-18.26-.02-27.4.04-4.86.03-9.86-.43-14.89.03-15.05,1.36-23.88,11.05-22.12,26.36,2.17,18.8,26.72,19.37,40.18,12.51,7.81-3.98,15.11-13.37,19.59-20.79,1.02-1.69,4.17-6.76,4.48-8.22.64-3.02-.14-6.79.16-9.92Z"/>
  <path d="M836.53,82.81c.1,10.91,1.82,23.65,7.64,33.05,9.9,16.02,32.13,20.25,48.34,11.09,10.23-5.77,14.25-14.79,15.31-26.17.84-1.25,10.68-1.17,12.59,0,1.71,2.45-4.97,16.7-6.78,19.58-16.36,25.95-58.47,26.83-77.83,3.84-16.63-19.74-16.49-63.75,0-83.54,18.1-21.73,56.29-21.99,74.59-.4,6.97,8.23,11.5,22.52,12.36,33.2.57,7.03-.68,4.96-5.65,5.59-23.4,2.95-48.32,2.18-71.96,3.73-2.79.18-5.68,1.84-8.6.01ZM908.49,71.62c.14-13.83-7.46-30.16-21-35.43-14.65-5.7-34.53-2.65-43.79,10.87-5.22,7.62-5.93,19.32-7.18,28.29l71.96-3.73Z"/>
  <path d="M576.05,1.49c18.32,1.53,35.75,12.48,38.42,31.89,2.59,18.85-.84,39.8-19.87,48.49-14.52,6.62-36.58,6.16-52.29,4.69-2.29-.21-15.54-2.84-16.1-2.26l.75,53.72h-13.49c.14-6.58-.19-13.2-.01-19.78.6-22.84,2.08-45.63,1.55-68.66-.2-8.78-1.33-18.04-1.55-26.81-.17-7.08.16-14.2.01-21.28h62.59ZM526.2,78.33h42.35c.32,0,4.17-.65,5.18-.81,24.04-3.67,29.99-17.78,28.2-40.63-.88-11.28-8.51-21.44-19.5-24.61-16.97-4.9-37.44-1.65-55.02-2.49l-1.22,1.02v67.52Z"/>
  <path d="M1133.36,59.68v21.63h-39.73l12.8,10.76c1.45,1.76.39,5.6.7,7.89l-13.47.77c-1.83,8.82-.54,14.22,9.31,14.92,2.23.16,10.78-.26,12.05-1.51,1.88-1.84,1.44-12.72-.49-14.1-.69-.49-3.29.12-4.41-.09v-8.21h29.24v8.96s-6.01.38-6.01.38l6.01,30.21h-14.99l-2.25-20.89c-1.02-.18-1.18,2.07-1.3,2.8-.99,6.11-1.38,11.47-6.98,15.43-8.61,6.1-29.86,5.92-38.21-.69-6.82-5.4-8.66-17.64-5.14-25.29,2.54-5.53,10.19-9.42,16.09-10.1,2.33-.27,4.85.38,7.06-.43l-22.49-12.31v-20.14h62.21Z"/>
  <path d="M944.47,101.46c1.21,6.09,2.17,11.82,5.66,17.12,9.22,14,32.09,14.89,46.66,9.96,7.37-2.5,10.8-9.58,11.4-17,2.68-32.77-44.61-19.67-62.24-33.56-9.89-7.79-12.14-21.84-8.02-33.38,7.76-21.71,41.93-23.95,60.27-16.39,13.31,5.49,21.28,19.74,21.9,33.63l-12.64,1.55c-1.06-6.06-1.93-12.93-5.38-18.14-7.94-12.02-26.01-13.25-38.9-9.85-5.96,1.57-10.39,4.91-12.34,10.84-5.24,15.88.82,25.82,16.69,29.68,17.42,4.24,50.52,1.37,53.35,25.98,3.84,33.31-23.86,40.32-51.3,38.37-19.71-1.4-36.54-15.35-38.55-35.52-.09-.95.03-3.29,1.09-3.29h12.37Z"/>
  <path d="M1233.8,103.7c-.45,11.5-5.85,22.39-17.04,26.69-11.66,4.48-34.14,3.96-42.92-6.18-11.18-12.92-11.2-44.5,0-57.43,9.54-11.02,35.69-11.1,47.45-3.97,8.76,5.31,12.68,16,12.43,25.89l-23.14,2.3c-.3-13.29-6.85-19.16-20.21-15.6.37,2.73-.69,5.18-.83,7.75-.34,6.02-.74,20.66,1.16,25.77,3.08,8.26,11.52,8.47,19.06,6.67l.8-11.89h23.24Z"/>
  <path d="M1262.11,68.83c28.51-3.38,43.15,9.51,40.66,38.23-1.22,14.17-11.58,24.52-25.86,25.74-27.82,2.38-41.42-9.62-39.4-37.72,1.01-14.01,10.43-24.57,24.59-26.25ZM1265.85,85.99c-.82.11-3.08.56-3.58.9-2,1.34-1.78,15.72-1.49,18.69.38,3.85,3.09,8.35,6.9,9.54,2.52.79,9.72.89,10.98-1.47s1.18-13.77.88-17.05c-.72-7.79-5.89-11.7-13.69-10.61Z"/>
  <path d="M449,1.49c-.17,9.82.21,19.68.04,29.5-.61,33.54-1.85,68.67-.05,102.19.05.99,1.6,4.84-.36,4.84h-12.37c.39-20.25-.51-40.58-.04-60.84.15-6.25.15-10.83,0-17.09-.45-19.1.33-38.29.13-57.38l1.03-1.22h11.62Z"/>
  <path d="M417.51,1.49c-.17,8.32.21,16.7.04,25.03-.56,26.45-1.29,52.52-.8,79.06.03,1.4.77,2.78.8,4.43.18,9.33-.2,18.69-.04,28.01h-12.37c-2.37,0-.41-7.66-.34-9.29.72-17.23-.5-34.99-.07-52.29.52-21.19.93-43.52.07-64.9-.07-1.72-2.08-10.04.34-10.04h12.37Z"/>
  <rect x="628.11" y="1.49" width="12.81" height="136.52"/>
  <path d="M1311.57,114.33c6.77-.97,15.98.76,15.99,9.14,0,9.55-9.44,10.13-16.95,9.35-3.28-.34-7.3-2.97-7.81-6.39-1.07-7.12,1.65-11.07,8.78-12.1Z"/>
</svg>