<svg width="773" height="561" viewBox="0 0 773 561" fill="none" xmlns="http://www.w3.org/2000/svg">
<g id="Group 16">
<g id="Grupo completo">
<g id="Guest List">
<rect id="Rectangle 38" x="82" y="50" width="609" height="476" rx="20" fill="#EEEEEE"/>
<path id="Name" d="M128.093 193.281C128.266 193.281 128.393 193.305 128.473 193.351C128.559 193.391 128.656 193.478 128.763 193.611L137.063 204.411C137.043 204.238 137.029 204.071 137.023 203.911C137.016 203.745 137.013 203.585 137.013 203.431V193.281H138.713V207.611H137.733C137.579 207.611 137.449 207.585 137.343 207.531C137.243 207.478 137.143 207.388 137.043 207.261L128.753 196.471C128.766 196.638 128.776 196.801 128.783 196.961C128.789 197.121 128.793 197.268 128.793 197.401V207.611H127.093V193.281H128.093ZM149.77 207.611H148.98C148.806 207.611 148.666 207.585 148.56 207.531C148.453 207.478 148.383 207.365 148.35 207.191L148.15 206.251C147.883 206.491 147.623 206.708 147.37 206.901C147.116 207.088 146.85 207.248 146.57 207.381C146.29 207.508 145.99 207.605 145.67 207.671C145.356 207.738 145.006 207.771 144.62 207.771C144.226 207.771 143.856 207.718 143.51 207.611C143.17 207.498 142.873 207.331 142.62 207.111C142.366 206.891 142.163 206.615 142.01 206.281C141.863 205.941 141.79 205.541 141.79 205.081C141.79 204.681 141.9 204.298 142.12 203.931C142.34 203.558 142.693 203.228 143.18 202.941C143.673 202.655 144.316 202.421 145.11 202.241C145.903 202.055 146.873 201.948 148.02 201.921V201.131C148.02 200.345 147.85 199.751 147.51 199.351C147.176 198.945 146.68 198.741 146.02 198.741C145.586 198.741 145.22 198.798 144.92 198.911C144.626 199.018 144.37 199.141 144.15 199.281C143.936 199.415 143.75 199.538 143.59 199.651C143.436 199.758 143.283 199.811 143.13 199.811C143.01 199.811 142.903 199.781 142.81 199.721C142.723 199.655 142.653 199.575 142.6 199.481L142.28 198.911C142.84 198.371 143.443 197.968 144.09 197.701C144.736 197.435 145.453 197.301 146.24 197.301C146.806 197.301 147.31 197.395 147.75 197.581C148.19 197.768 148.56 198.028 148.86 198.361C149.16 198.695 149.386 199.098 149.54 199.571C149.693 200.045 149.77 200.565 149.77 201.131V207.611ZM145.15 206.521C145.463 206.521 145.75 206.491 146.01 206.431C146.27 206.365 146.513 206.275 146.74 206.161C146.973 206.041 147.193 205.898 147.4 205.731C147.613 205.565 147.82 205.375 148.02 205.161V203.051C147.2 203.078 146.503 203.145 145.93 203.251C145.356 203.351 144.89 203.485 144.53 203.651C144.17 203.818 143.906 204.015 143.74 204.241C143.58 204.468 143.5 204.721 143.5 205.001C143.5 205.268 143.543 205.498 143.63 205.691C143.716 205.885 143.833 206.045 143.98 206.171C144.126 206.291 144.3 206.381 144.5 206.441C144.7 206.495 144.916 206.521 145.15 206.521ZM152.866 207.611V197.481H153.926C154.18 197.481 154.34 197.605 154.406 197.851L154.536 198.891C154.91 198.431 155.326 198.055 155.786 197.761C156.253 197.468 156.793 197.321 157.406 197.321C158.093 197.321 158.646 197.511 159.066 197.891C159.493 198.271 159.8 198.785 159.986 199.431C160.126 199.065 160.31 198.748 160.536 198.481C160.77 198.215 161.03 197.995 161.316 197.821C161.603 197.648 161.906 197.521 162.226 197.441C162.553 197.361 162.883 197.321 163.216 197.321C163.75 197.321 164.223 197.408 164.636 197.581C165.056 197.748 165.41 197.995 165.696 198.321C165.99 198.648 166.213 199.051 166.366 199.531C166.52 200.005 166.596 200.548 166.596 201.161V207.611H164.816V201.161C164.816 200.368 164.643 199.768 164.296 199.361C163.95 198.948 163.446 198.741 162.786 198.741C162.493 198.741 162.213 198.795 161.946 198.901C161.686 199.001 161.456 199.151 161.256 199.351C161.056 199.551 160.896 199.805 160.776 200.111C160.663 200.411 160.606 200.761 160.606 201.161V207.611H158.826V201.161C158.826 200.348 158.663 199.741 158.336 199.341C158.01 198.941 157.533 198.741 156.906 198.741C156.466 198.741 156.056 198.861 155.676 199.101C155.303 199.335 154.96 199.655 154.646 200.061V207.611H152.866ZM173.702 197.321C174.309 197.321 174.869 197.425 175.382 197.631C175.896 197.831 176.339 198.125 176.712 198.511C177.086 198.891 177.376 199.365 177.582 199.931C177.796 200.491 177.902 201.131 177.902 201.851C177.902 202.131 177.872 202.318 177.812 202.411C177.752 202.505 177.639 202.551 177.472 202.551H170.732C170.746 203.191 170.832 203.748 170.992 204.221C171.152 204.695 171.372 205.091 171.652 205.411C171.932 205.725 172.266 205.961 172.652 206.121C173.039 206.275 173.472 206.351 173.952 206.351C174.399 206.351 174.782 206.301 175.102 206.201C175.429 206.095 175.709 205.981 175.942 205.861C176.176 205.741 176.369 205.631 176.522 205.531C176.682 205.425 176.819 205.371 176.932 205.371C177.079 205.371 177.192 205.428 177.272 205.541L177.772 206.191C177.552 206.458 177.289 206.691 176.982 206.891C176.676 207.085 176.346 207.245 175.992 207.371C175.646 207.498 175.286 207.591 174.912 207.651C174.539 207.718 174.169 207.751 173.802 207.751C173.102 207.751 172.456 207.635 171.862 207.401C171.276 207.161 170.766 206.815 170.332 206.361C169.906 205.901 169.572 205.335 169.332 204.661C169.092 203.988 168.972 203.215 168.972 202.341C168.972 201.635 169.079 200.975 169.292 200.361C169.512 199.748 169.826 199.218 170.232 198.771C170.639 198.318 171.136 197.965 171.722 197.711C172.309 197.451 172.969 197.321 173.702 197.321ZM173.742 198.631C172.882 198.631 172.206 198.881 171.712 199.381C171.219 199.875 170.912 200.561 170.792 201.441H176.302C176.302 201.028 176.246 200.651 176.132 200.311C176.019 199.965 175.852 199.668 175.632 199.421C175.412 199.168 175.142 198.975 174.822 198.841C174.509 198.701 174.149 198.631 173.742 198.631Z" fill="black"/>
<path id="Email &#38; Phone" d="M274.238 195.17V196.75H267.358V201.51H272.928V203.03H267.358V207.92H274.238V209.5H265.408V195.17H274.238ZM277.149 209.5V199.37H278.209C278.462 199.37 278.622 199.493 278.689 199.74L278.819 200.78C279.192 200.32 279.609 199.943 280.069 199.65C280.536 199.357 281.076 199.21 281.689 199.21C282.376 199.21 282.929 199.4 283.349 199.78C283.776 200.16 284.082 200.673 284.269 201.32C284.409 200.953 284.592 200.637 284.819 200.37C285.052 200.103 285.312 199.883 285.599 199.71C285.886 199.537 286.189 199.41 286.509 199.33C286.836 199.25 287.166 199.21 287.499 199.21C288.032 199.21 288.506 199.297 288.919 199.47C289.339 199.637 289.692 199.883 289.979 200.21C290.272 200.537 290.496 200.94 290.649 201.42C290.802 201.893 290.879 202.437 290.879 203.05V209.5H289.099V203.05C289.099 202.257 288.926 201.657 288.579 201.25C288.232 200.837 287.729 200.63 287.069 200.63C286.776 200.63 286.496 200.683 286.229 200.79C285.969 200.89 285.739 201.04 285.539 201.24C285.339 201.44 285.179 201.693 285.059 202C284.946 202.3 284.889 202.65 284.889 203.05V209.5H283.109V203.05C283.109 202.237 282.946 201.63 282.619 201.23C282.292 200.83 281.816 200.63 281.189 200.63C280.749 200.63 280.339 200.75 279.959 200.99C279.586 201.223 279.242 201.543 278.929 201.95V209.5H277.149ZM301.415 209.5H300.625C300.452 209.5 300.312 209.473 300.205 209.42C300.098 209.367 300.028 209.253 299.995 209.08L299.795 208.14C299.528 208.38 299.268 208.597 299.015 208.79C298.762 208.977 298.495 209.137 298.215 209.27C297.935 209.397 297.635 209.493 297.315 209.56C297.002 209.627 296.652 209.66 296.265 209.66C295.872 209.66 295.502 209.607 295.155 209.5C294.815 209.387 294.518 209.22 294.265 209C294.012 208.78 293.808 208.503 293.655 208.17C293.508 207.83 293.435 207.43 293.435 206.97C293.435 206.57 293.545 206.187 293.765 205.82C293.985 205.447 294.338 205.117 294.825 204.83C295.318 204.543 295.962 204.31 296.755 204.13C297.548 203.943 298.518 203.837 299.665 203.81V203.02C299.665 202.233 299.495 201.64 299.155 201.24C298.822 200.833 298.325 200.63 297.665 200.63C297.232 200.63 296.865 200.687 296.565 200.8C296.272 200.907 296.015 201.03 295.795 201.17C295.582 201.303 295.395 201.427 295.235 201.54C295.082 201.647 294.928 201.7 294.775 201.7C294.655 201.7 294.548 201.67 294.455 201.61C294.368 201.543 294.298 201.463 294.245 201.37L293.925 200.8C294.485 200.26 295.088 199.857 295.735 199.59C296.382 199.323 297.098 199.19 297.885 199.19C298.452 199.19 298.955 199.283 299.395 199.47C299.835 199.657 300.205 199.917 300.505 200.25C300.805 200.583 301.032 200.987 301.185 201.46C301.338 201.933 301.415 202.453 301.415 203.02V209.5ZM296.795 208.41C297.108 208.41 297.395 208.38 297.655 208.32C297.915 208.253 298.158 208.163 298.385 208.05C298.618 207.93 298.838 207.787 299.045 207.62C299.258 207.453 299.465 207.263 299.665 207.05V204.94C298.845 204.967 298.148 205.033 297.575 205.14C297.002 205.24 296.535 205.373 296.175 205.54C295.815 205.707 295.552 205.903 295.385 206.13C295.225 206.357 295.145 206.61 295.145 206.89C295.145 207.157 295.188 207.387 295.275 207.58C295.362 207.773 295.478 207.933 295.625 208.06C295.772 208.18 295.945 208.27 296.145 208.33C296.345 208.383 296.562 208.41 296.795 208.41ZM306.492 199.37V209.5H304.712V199.37H306.492ZM306.892 196.19C306.892 196.363 306.855 196.527 306.782 196.68C306.715 196.827 306.622 196.96 306.502 197.08C306.388 197.193 306.255 197.283 306.102 197.35C305.948 197.417 305.785 197.45 305.612 197.45C305.438 197.45 305.275 197.417 305.122 197.35C304.975 197.283 304.842 197.193 304.722 197.08C304.608 196.96 304.518 196.827 304.452 196.68C304.385 196.527 304.352 196.363 304.352 196.19C304.352 196.017 304.385 195.853 304.452 195.7C304.518 195.54 304.608 195.403 304.722 195.29C304.842 195.17 304.975 195.077 305.122 195.01C305.275 194.943 305.438 194.91 305.612 194.91C305.785 194.91 305.948 194.943 306.102 195.01C306.255 195.077 306.388 195.17 306.502 195.29C306.622 195.403 306.715 195.54 306.782 195.7C306.855 195.853 306.892 196.017 306.892 196.19ZM312.009 194.77V209.5H310.229V194.77H312.009ZM324.953 195.01C325.48 195.01 325.96 195.097 326.393 195.27C326.826 195.437 327.2 195.66 327.513 195.94C327.833 196.22 328.083 196.547 328.263 196.92C328.45 197.287 328.556 197.67 328.583 198.07L327.473 198.29C327.44 198.297 327.41 198.3 327.383 198.3C327.296 198.3 327.213 198.277 327.133 198.23C327.06 198.183 327.006 198.1 326.973 197.98C326.926 197.807 326.85 197.627 326.743 197.44C326.643 197.253 326.51 197.083 326.343 196.93C326.183 196.777 325.986 196.65 325.753 196.55C325.526 196.45 325.26 196.4 324.953 196.4C324.62 196.4 324.32 196.453 324.053 196.56C323.786 196.667 323.556 196.817 323.363 197.01C323.176 197.197 323.03 197.42 322.923 197.68C322.823 197.933 322.773 198.21 322.773 198.51C322.773 198.743 322.8 198.967 322.853 199.18C322.913 199.393 323 199.61 323.113 199.83C323.226 200.043 323.373 200.267 323.553 200.5C323.733 200.727 323.95 200.967 324.203 201.22L328.323 205.41C328.576 204.963 328.776 204.497 328.923 204.01C329.076 203.517 329.18 203.023 329.233 202.53C329.246 202.403 329.286 202.303 329.353 202.23C329.42 202.157 329.513 202.12 329.633 202.12H330.733C330.72 202.887 330.596 203.64 330.363 204.38C330.13 205.12 329.793 205.813 329.353 206.46L332.353 209.5H330.633C330.44 209.5 330.283 209.477 330.163 209.43C330.043 209.383 329.91 209.287 329.763 209.14L328.323 207.69C327.696 208.297 326.973 208.777 326.153 209.13C325.34 209.483 324.443 209.66 323.463 209.66C322.93 209.66 322.406 209.57 321.893 209.39C321.38 209.21 320.92 208.95 320.513 208.61C320.113 208.263 319.79 207.843 319.543 207.35C319.296 206.857 319.173 206.3 319.173 205.68C319.173 205.213 319.25 204.773 319.403 204.36C319.563 203.94 319.78 203.553 320.053 203.2C320.333 202.847 320.663 202.53 321.043 202.25C321.423 201.97 321.84 201.73 322.293 201.53C321.886 201.017 321.586 200.517 321.393 200.03C321.2 199.543 321.103 199.04 321.103 198.52C321.103 198.033 321.19 197.577 321.363 197.15C321.543 196.723 321.8 196.353 322.133 196.04C322.466 195.72 322.87 195.47 323.343 195.29C323.823 195.103 324.36 195.01 324.953 195.01ZM320.983 205.54C320.983 205.973 321.063 206.357 321.223 206.69C321.383 207.017 321.593 207.293 321.853 207.52C322.113 207.747 322.41 207.92 322.743 208.04C323.076 208.153 323.416 208.21 323.763 208.21C324.51 208.21 325.18 208.073 325.773 207.8C326.366 207.527 326.89 207.163 327.343 206.71L323.113 202.44C322.406 202.82 321.873 203.277 321.513 203.81C321.16 204.337 320.983 204.913 320.983 205.54ZM340.953 204.14V209.5H339.023V195.17H343.253C344.159 195.17 344.946 195.277 345.613 195.49C346.286 195.697 346.843 195.993 347.283 196.38C347.723 196.767 348.049 197.233 348.263 197.78C348.483 198.327 348.593 198.937 348.593 199.61C348.593 200.277 348.476 200.887 348.243 201.44C348.009 201.993 347.666 202.47 347.213 202.87C346.766 203.27 346.209 203.583 345.543 203.81C344.876 204.03 344.113 204.14 343.253 204.14H340.953ZM340.953 202.6H343.253C343.806 202.6 344.293 202.527 344.713 202.38C345.139 202.233 345.496 202.03 345.783 201.77C346.069 201.503 346.286 201.187 346.433 200.82C346.579 200.453 346.653 200.05 346.653 199.61C346.653 198.697 346.369 197.983 345.803 197.47C345.243 196.957 344.393 196.7 343.253 196.7H340.953V202.6ZM351.169 209.5V194.77H352.949V200.73C353.383 200.27 353.863 199.903 354.389 199.63C354.916 199.35 355.523 199.21 356.209 199.21C356.763 199.21 357.249 199.303 357.669 199.49C358.096 199.67 358.449 199.93 358.729 200.27C359.016 200.603 359.233 201.007 359.379 201.48C359.526 201.953 359.599 202.477 359.599 203.05V209.5H357.819V203.05C357.819 202.283 357.643 201.69 357.289 201.27C356.943 200.843 356.409 200.63 355.689 200.63C355.163 200.63 354.669 200.757 354.209 201.01C353.756 201.263 353.336 201.607 352.949 202.04V209.5H351.169ZM366.783 199.21C367.523 199.21 368.189 199.333 368.783 199.58C369.383 199.827 369.889 200.177 370.303 200.63C370.723 201.083 371.043 201.633 371.263 202.28C371.489 202.92 371.603 203.637 371.603 204.43C371.603 205.23 371.489 205.95 371.263 206.59C371.043 207.23 370.723 207.777 370.303 208.23C369.889 208.683 369.383 209.033 368.783 209.28C368.189 209.52 367.523 209.64 366.783 209.64C366.043 209.64 365.373 209.52 364.773 209.28C364.179 209.033 363.673 208.683 363.253 208.23C362.833 207.777 362.509 207.23 362.283 206.59C362.056 205.95 361.943 205.23 361.943 204.43C361.943 203.637 362.056 202.92 362.283 202.28C362.509 201.633 362.833 201.083 363.253 200.63C363.673 200.177 364.179 199.827 364.773 199.58C365.373 199.333 366.043 199.21 366.783 199.21ZM366.783 208.25C367.783 208.25 368.529 207.917 369.023 207.25C369.516 206.577 369.763 205.64 369.763 204.44C369.763 203.233 369.516 202.293 369.023 201.62C368.529 200.947 367.783 200.61 366.783 200.61C366.276 200.61 365.836 200.697 365.463 200.87C365.089 201.043 364.776 201.293 364.523 201.62C364.276 201.947 364.089 202.35 363.963 202.83C363.843 203.303 363.783 203.84 363.783 204.44C363.783 205.04 363.843 205.577 363.963 206.05C364.089 206.523 364.276 206.923 364.523 207.25C364.776 207.57 365.089 207.817 365.463 207.99C365.836 208.163 366.276 208.25 366.783 208.25ZM374.196 209.5V199.37H375.256C375.509 199.37 375.669 199.493 375.736 199.74L375.876 200.84C376.316 200.353 376.806 199.96 377.346 199.66C377.893 199.36 378.523 199.21 379.236 199.21C379.789 199.21 380.276 199.303 380.696 199.49C381.123 199.67 381.476 199.93 381.756 200.27C382.043 200.603 382.259 201.007 382.406 201.48C382.553 201.953 382.626 202.477 382.626 203.05V209.5H380.846V203.05C380.846 202.283 380.669 201.69 380.316 201.27C379.969 200.843 379.436 200.63 378.716 200.63C378.189 200.63 377.696 200.757 377.236 201.01C376.783 201.263 376.363 201.607 375.976 202.04V209.5H374.196ZM389.719 199.21C390.326 199.21 390.886 199.313 391.399 199.52C391.913 199.72 392.356 200.013 392.729 200.4C393.103 200.78 393.393 201.253 393.599 201.82C393.813 202.38 393.919 203.02 393.919 203.74C393.919 204.02 393.889 204.207 393.829 204.3C393.769 204.393 393.656 204.44 393.489 204.44H386.749C386.763 205.08 386.849 205.637 387.009 206.11C387.169 206.583 387.389 206.98 387.669 207.3C387.949 207.613 388.283 207.85 388.669 208.01C389.056 208.163 389.489 208.24 389.969 208.24C390.416 208.24 390.799 208.19 391.119 208.09C391.446 207.983 391.726 207.87 391.959 207.75C392.193 207.63 392.386 207.52 392.539 207.42C392.699 207.313 392.836 207.26 392.949 207.26C393.096 207.26 393.209 207.317 393.289 207.43L393.789 208.08C393.569 208.347 393.306 208.58 392.999 208.78C392.693 208.973 392.363 209.133 392.009 209.26C391.663 209.387 391.303 209.48 390.929 209.54C390.556 209.607 390.186 209.64 389.819 209.64C389.119 209.64 388.473 209.523 387.879 209.29C387.293 209.05 386.783 208.703 386.349 208.25C385.923 207.79 385.589 207.223 385.349 206.55C385.109 205.877 384.989 205.103 384.989 204.23C384.989 203.523 385.096 202.863 385.309 202.25C385.529 201.637 385.843 201.107 386.249 200.66C386.656 200.207 387.153 199.853 387.739 199.6C388.326 199.34 388.986 199.21 389.719 199.21ZM389.759 200.52C388.899 200.52 388.223 200.77 387.729 201.27C387.236 201.763 386.929 202.45 386.809 203.33H392.319C392.319 202.917 392.263 202.54 392.149 202.2C392.036 201.853 391.869 201.557 391.649 201.31C391.429 201.057 391.159 200.863 390.839 200.73C390.526 200.59 390.166 200.52 389.759 200.52Z" fill="black"/>
<path id="Recipe Status" d="M463.657 203.52V209.5H461.727V195.17H465.777C466.684 195.17 467.467 195.263 468.127 195.45C468.787 195.63 469.33 195.893 469.757 196.24C470.19 196.587 470.51 197.007 470.717 197.5C470.924 197.987 471.027 198.533 471.027 199.14C471.027 199.647 470.947 200.12 470.787 200.56C470.627 201 470.394 201.397 470.087 201.75C469.787 202.097 469.417 202.393 468.977 202.64C468.544 202.887 468.05 203.073 467.497 203.2C467.737 203.34 467.95 203.543 468.137 203.81L472.317 209.5H470.597C470.244 209.5 469.984 209.363 469.817 209.09L466.097 203.97C465.984 203.81 465.86 203.697 465.727 203.63C465.594 203.557 465.394 203.52 465.127 203.52H463.657ZM463.657 202.11H465.687C466.254 202.11 466.75 202.043 467.177 201.91C467.61 201.77 467.97 201.577 468.257 201.33C468.55 201.077 468.77 200.777 468.917 200.43C469.064 200.083 469.137 199.7 469.137 199.28C469.137 198.427 468.854 197.783 468.287 197.35C467.727 196.917 466.89 196.7 465.777 196.7H463.657V202.11ZM478.528 199.21C479.135 199.21 479.695 199.313 480.208 199.52C480.722 199.72 481.165 200.013 481.538 200.4C481.912 200.78 482.202 201.253 482.408 201.82C482.622 202.38 482.728 203.02 482.728 203.74C482.728 204.02 482.698 204.207 482.638 204.3C482.578 204.393 482.465 204.44 482.298 204.44H475.558C475.572 205.08 475.658 205.637 475.818 206.11C475.978 206.583 476.198 206.98 476.478 207.3C476.758 207.613 477.092 207.85 477.478 208.01C477.865 208.163 478.298 208.24 478.778 208.24C479.225 208.24 479.608 208.19 479.928 208.09C480.255 207.983 480.535 207.87 480.768 207.75C481.002 207.63 481.195 207.52 481.348 207.42C481.508 207.313 481.645 207.26 481.758 207.26C481.905 207.26 482.018 207.317 482.098 207.43L482.598 208.08C482.378 208.347 482.115 208.58 481.808 208.78C481.502 208.973 481.172 209.133 480.818 209.26C480.472 209.387 480.112 209.48 479.738 209.54C479.365 209.607 478.995 209.64 478.628 209.64C477.928 209.64 477.282 209.523 476.688 209.29C476.102 209.05 475.592 208.703 475.158 208.25C474.732 207.79 474.398 207.223 474.158 206.55C473.918 205.877 473.798 205.103 473.798 204.23C473.798 203.523 473.905 202.863 474.118 202.25C474.338 201.637 474.652 201.107 475.058 200.66C475.465 200.207 475.962 199.853 476.548 199.6C477.135 199.34 477.795 199.21 478.528 199.21ZM478.568 200.52C477.708 200.52 477.032 200.77 476.538 201.27C476.045 201.763 475.738 202.45 475.618 203.33H481.128C481.128 202.917 481.072 202.54 480.958 202.2C480.845 201.853 480.678 201.557 480.458 201.31C480.238 201.057 479.968 200.863 479.648 200.73C479.335 200.59 478.975 200.52 478.568 200.52ZM492.316 201.17C492.263 201.243 492.21 201.3 492.156 201.34C492.103 201.38 492.026 201.4 491.926 201.4C491.826 201.4 491.716 201.36 491.596 201.28C491.483 201.193 491.336 201.1 491.156 201C490.976 200.9 490.756 200.81 490.496 200.73C490.243 200.643 489.93 200.6 489.556 200.6C489.063 200.6 488.626 200.69 488.246 200.87C487.866 201.043 487.546 201.297 487.286 201.63C487.033 201.963 486.84 202.367 486.706 202.84C486.58 203.313 486.516 203.843 486.516 204.43C486.516 205.043 486.586 205.59 486.726 206.07C486.866 206.543 487.063 206.943 487.316 207.27C487.57 207.59 487.876 207.837 488.236 208.01C488.603 208.177 489.013 208.26 489.466 208.26C489.9 208.26 490.256 208.21 490.536 208.11C490.816 208.003 491.05 207.887 491.236 207.76C491.423 207.633 491.576 207.52 491.696 207.42C491.816 207.313 491.936 207.26 492.056 207.26C492.21 207.26 492.323 207.317 492.396 207.43L492.896 208.08C492.456 208.62 491.906 209.017 491.246 209.27C490.586 209.517 489.89 209.64 489.156 209.64C488.523 209.64 487.933 209.523 487.386 209.29C486.846 209.057 486.376 208.72 485.976 208.28C485.576 207.833 485.26 207.287 485.026 206.64C484.8 205.993 484.686 205.257 484.686 204.43C484.686 203.677 484.79 202.98 484.996 202.34C485.21 201.7 485.516 201.15 485.916 200.69C486.323 200.223 486.823 199.86 487.416 199.6C488.01 199.34 488.69 199.21 489.456 199.21C490.163 199.21 490.79 199.327 491.336 199.56C491.883 199.787 492.366 200.11 492.786 200.53L492.316 201.17ZM497.122 199.37V209.5H495.342V199.37H497.122ZM497.522 196.19C497.522 196.363 497.486 196.527 497.412 196.68C497.346 196.827 497.252 196.96 497.132 197.08C497.019 197.193 496.886 197.283 496.732 197.35C496.579 197.417 496.416 197.45 496.242 197.45C496.069 197.45 495.906 197.417 495.752 197.35C495.606 197.283 495.472 197.193 495.352 197.08C495.239 196.96 495.149 196.827 495.082 196.68C495.016 196.527 494.982 196.363 494.982 196.19C494.982 196.017 495.016 195.853 495.082 195.7C495.149 195.54 495.239 195.403 495.352 195.29C495.472 195.17 495.606 195.077 495.752 195.01C495.906 194.943 496.069 194.91 496.242 194.91C496.416 194.91 496.579 194.943 496.732 195.01C496.886 195.077 497.019 195.17 497.132 195.29C497.252 195.403 497.346 195.54 497.412 195.7C497.486 195.853 497.522 196.017 497.522 196.19ZM500.66 212.93V199.37H501.72C501.973 199.37 502.133 199.493 502.2 199.74L502.35 200.94C502.783 200.413 503.276 199.99 503.83 199.67C504.39 199.35 505.033 199.19 505.76 199.19C506.34 199.19 506.866 199.303 507.34 199.53C507.813 199.75 508.216 200.08 508.55 200.52C508.883 200.953 509.14 201.493 509.32 202.14C509.5 202.787 509.59 203.53 509.59 204.37C509.59 205.117 509.49 205.813 509.29 206.46C509.09 207.1 508.803 207.657 508.43 208.13C508.056 208.597 507.596 208.967 507.05 209.24C506.51 209.507 505.9 209.64 505.22 209.64C504.593 209.64 504.056 209.537 503.61 209.33C503.17 209.123 502.78 208.83 502.44 208.45V212.93H500.66ZM505.17 200.63C504.59 200.63 504.08 200.763 503.64 201.03C503.206 201.297 502.806 201.673 502.44 202.16V207.06C502.766 207.5 503.123 207.81 503.51 207.99C503.903 208.17 504.34 208.26 504.82 208.26C505.76 208.26 506.483 207.923 506.99 207.25C507.496 206.577 507.75 205.617 507.75 204.37C507.75 203.71 507.69 203.143 507.57 202.67C507.456 202.197 507.29 201.81 507.07 201.51C506.85 201.203 506.58 200.98 506.26 200.84C505.94 200.7 505.576 200.63 505.17 200.63ZM516.105 199.21C516.711 199.21 517.271 199.313 517.785 199.52C518.298 199.72 518.741 200.013 519.115 200.4C519.488 200.78 519.778 201.253 519.985 201.82C520.198 202.38 520.305 203.02 520.305 203.74C520.305 204.02 520.275 204.207 520.215 204.3C520.155 204.393 520.041 204.44 519.875 204.44H513.135C513.148 205.08 513.235 205.637 513.395 206.11C513.555 206.583 513.775 206.98 514.055 207.3C514.335 207.613 514.668 207.85 515.055 208.01C515.441 208.163 515.875 208.24 516.355 208.24C516.801 208.24 517.185 208.19 517.505 208.09C517.831 207.983 518.111 207.87 518.345 207.75C518.578 207.63 518.771 207.52 518.925 207.42C519.085 207.313 519.221 207.26 519.335 207.26C519.481 207.26 519.595 207.317 519.675 207.43L520.175 208.08C519.955 208.347 519.691 208.58 519.385 208.78C519.078 208.973 518.748 209.133 518.395 209.26C518.048 209.387 517.688 209.48 517.315 209.54C516.941 209.607 516.571 209.64 516.205 209.64C515.505 209.64 514.858 209.523 514.265 209.29C513.678 209.05 513.168 208.703 512.735 208.25C512.308 207.79 511.975 207.223 511.735 206.55C511.495 205.877 511.375 205.103 511.375 204.23C511.375 203.523 511.481 202.863 511.695 202.25C511.915 201.637 512.228 201.107 512.635 200.66C513.041 200.207 513.538 199.853 514.125 199.6C514.711 199.34 515.371 199.21 516.105 199.21ZM516.145 200.52C515.285 200.52 514.608 200.77 514.115 201.27C513.621 201.763 513.315 202.45 513.195 203.33H518.705C518.705 202.917 518.648 202.54 518.535 202.2C518.421 201.853 518.255 201.557 518.035 201.31C517.815 201.057 517.545 200.863 517.225 200.73C516.911 200.59 516.551 200.52 516.145 200.52ZM534.87 197.41C534.81 197.51 534.747 197.587 534.68 197.64C534.614 197.687 534.527 197.71 534.42 197.71C534.307 197.71 534.174 197.653 534.02 197.54C533.874 197.427 533.684 197.303 533.45 197.17C533.224 197.03 532.947 196.903 532.62 196.79C532.3 196.677 531.91 196.62 531.45 196.62C531.017 196.62 530.634 196.68 530.3 196.8C529.967 196.913 529.687 197.07 529.46 197.27C529.24 197.47 529.074 197.707 528.96 197.98C528.847 198.247 528.79 198.537 528.79 198.85C528.79 199.25 528.887 199.583 529.08 199.85C529.28 200.11 529.54 200.333 529.86 200.52C530.187 200.707 530.554 200.87 530.96 201.01C531.374 201.143 531.794 201.283 532.22 201.43C532.654 201.577 533.074 201.743 533.48 201.93C533.894 202.11 534.26 202.34 534.58 202.62C534.907 202.9 535.167 203.243 535.36 203.65C535.56 204.057 535.66 204.557 535.66 205.15C535.66 205.777 535.554 206.367 535.34 206.92C535.127 207.467 534.814 207.943 534.4 208.35C533.994 208.757 533.49 209.077 532.89 209.31C532.297 209.543 531.62 209.66 530.86 209.66C529.934 209.66 529.087 209.493 528.32 209.16C527.56 208.82 526.91 208.363 526.37 207.79L526.93 206.87C526.984 206.797 527.047 206.737 527.12 206.69C527.2 206.637 527.287 206.61 527.38 206.61C527.52 206.61 527.68 206.687 527.86 206.84C528.04 206.987 528.264 207.15 528.53 207.33C528.804 207.51 529.13 207.677 529.51 207.83C529.897 207.977 530.367 208.05 530.92 208.05C531.38 208.05 531.79 207.987 532.15 207.86C532.51 207.733 532.814 207.557 533.06 207.33C533.314 207.097 533.507 206.82 533.64 206.5C533.774 206.18 533.84 205.823 533.84 205.43C533.84 204.997 533.74 204.643 533.54 204.37C533.347 204.09 533.09 203.857 532.77 203.67C532.45 203.483 532.084 203.327 531.67 203.2C531.264 203.067 530.844 202.933 530.41 202.8C529.984 202.66 529.564 202.5 529.15 202.32C528.744 202.14 528.38 201.907 528.06 201.62C527.74 201.333 527.48 200.977 527.28 200.55C527.087 200.117 526.99 199.583 526.99 198.95C526.99 198.443 527.087 197.953 527.28 197.48C527.48 197.007 527.767 196.587 528.14 196.22C528.514 195.853 528.974 195.56 529.52 195.34C530.074 195.12 530.707 195.01 531.42 195.01C532.22 195.01 532.95 195.137 533.61 195.39C534.27 195.643 534.847 196.01 535.34 196.49L534.87 197.41ZM541.326 209.66C540.526 209.66 539.909 209.437 539.476 208.99C539.049 208.543 538.836 207.9 538.836 207.06V200.86H537.616C537.509 200.86 537.419 200.83 537.346 200.77C537.272 200.703 537.236 200.603 537.236 200.47V199.76L538.896 199.55L539.306 196.42C539.319 196.32 539.362 196.24 539.436 196.18C539.509 196.113 539.602 196.08 539.716 196.08H540.616V199.57H543.516V200.86H540.616V206.94C540.616 207.367 540.719 207.683 540.926 207.89C541.132 208.097 541.399 208.2 541.726 208.2C541.912 208.2 542.072 208.177 542.206 208.13C542.346 208.077 542.466 208.02 542.566 207.96C542.666 207.9 542.749 207.847 542.816 207.8C542.889 207.747 542.952 207.72 543.006 207.72C543.099 207.72 543.182 207.777 543.256 207.89L543.776 208.74C543.469 209.027 543.099 209.253 542.666 209.42C542.232 209.58 541.786 209.66 541.326 209.66ZM553.557 209.5H552.767C552.593 209.5 552.453 209.473 552.347 209.42C552.24 209.367 552.17 209.253 552.137 209.08L551.937 208.14C551.67 208.38 551.41 208.597 551.157 208.79C550.903 208.977 550.637 209.137 550.357 209.27C550.077 209.397 549.777 209.493 549.457 209.56C549.143 209.627 548.793 209.66 548.407 209.66C548.013 209.66 547.643 209.607 547.297 209.5C546.957 209.387 546.66 209.22 546.407 209C546.153 208.78 545.95 208.503 545.797 208.17C545.65 207.83 545.577 207.43 545.577 206.97C545.577 206.57 545.687 206.187 545.907 205.82C546.127 205.447 546.48 205.117 546.967 204.83C547.46 204.543 548.103 204.31 548.897 204.13C549.69 203.943 550.66 203.837 551.807 203.81V203.02C551.807 202.233 551.637 201.64 551.297 201.24C550.963 200.833 550.467 200.63 549.807 200.63C549.373 200.63 549.007 200.687 548.707 200.8C548.413 200.907 548.157 201.03 547.937 201.17C547.723 201.303 547.537 201.427 547.377 201.54C547.223 201.647 547.07 201.7 546.917 201.7C546.797 201.7 546.69 201.67 546.597 201.61C546.51 201.543 546.44 201.463 546.387 201.37L546.067 200.8C546.627 200.26 547.23 199.857 547.877 199.59C548.523 199.323 549.24 199.19 550.027 199.19C550.593 199.19 551.097 199.283 551.537 199.47C551.977 199.657 552.347 199.917 552.647 200.25C552.947 200.583 553.173 200.987 553.327 201.46C553.48 201.933 553.557 202.453 553.557 203.02V209.5ZM548.937 208.41C549.25 208.41 549.537 208.38 549.797 208.32C550.057 208.253 550.3 208.163 550.527 208.05C550.76 207.93 550.98 207.787 551.187 207.62C551.4 207.453 551.607 207.263 551.807 207.05V204.94C550.987 204.967 550.29 205.033 549.717 205.14C549.143 205.24 548.677 205.373 548.317 205.54C547.957 205.707 547.693 205.903 547.527 206.13C547.367 206.357 547.287 206.61 547.287 206.89C547.287 207.157 547.33 207.387 547.417 207.58C547.503 207.773 547.62 207.933 547.767 208.06C547.913 208.18 548.087 208.27 548.287 208.33C548.487 208.383 548.703 208.41 548.937 208.41ZM559.723 209.66C558.923 209.66 558.307 209.437 557.873 208.99C557.447 208.543 557.233 207.9 557.233 207.06V200.86H556.013C555.907 200.86 555.817 200.83 555.743 200.77C555.67 200.703 555.633 200.603 555.633 200.47V199.76L557.293 199.55L557.703 196.42C557.717 196.32 557.76 196.24 557.833 196.18C557.907 196.113 558 196.08 558.113 196.08H559.013V199.57H561.913V200.86H559.013V206.94C559.013 207.367 559.117 207.683 559.323 207.89C559.53 208.097 559.797 208.2 560.123 208.2C560.31 208.2 560.47 208.177 560.603 208.13C560.743 208.077 560.863 208.02 560.963 207.96C561.063 207.9 561.147 207.847 561.213 207.8C561.287 207.747 561.35 207.72 561.403 207.72C561.497 207.72 561.58 207.777 561.653 207.89L562.173 208.74C561.867 209.027 561.497 209.253 561.063 209.42C560.63 209.58 560.183 209.66 559.723 209.66ZM566.054 199.37V205.83C566.054 206.597 566.231 207.19 566.584 207.61C566.938 208.03 567.471 208.24 568.184 208.24C568.704 208.24 569.194 208.117 569.654 207.87C570.114 207.623 570.538 207.28 570.924 206.84V199.37H572.704V209.5H571.644C571.391 209.5 571.231 209.377 571.164 209.13L571.024 208.04C570.584 208.527 570.091 208.92 569.544 209.22C568.998 209.513 568.371 209.66 567.664 209.66C567.111 209.66 566.621 209.57 566.194 209.39C565.774 209.203 565.421 208.943 565.134 208.61C564.848 208.277 564.631 207.873 564.484 207.4C564.344 206.927 564.274 206.403 564.274 205.83V199.37H566.054ZM581.828 201.04C581.748 201.187 581.624 201.26 581.458 201.26C581.358 201.26 581.244 201.223 581.118 201.15C580.991 201.077 580.834 200.997 580.648 200.91C580.468 200.817 580.251 200.733 579.998 200.66C579.744 200.58 579.444 200.54 579.098 200.54C578.798 200.54 578.528 200.58 578.288 200.66C578.048 200.733 577.841 200.837 577.668 200.97C577.501 201.103 577.371 201.26 577.278 201.44C577.191 201.613 577.148 201.803 577.148 202.01C577.148 202.27 577.221 202.487 577.368 202.66C577.521 202.833 577.721 202.983 577.968 203.11C578.214 203.237 578.494 203.35 578.808 203.45C579.121 203.543 579.441 203.647 579.768 203.76C580.101 203.867 580.424 203.987 580.738 204.12C581.051 204.253 581.331 204.42 581.578 204.62C581.824 204.82 582.021 205.067 582.168 205.36C582.321 205.647 582.398 205.993 582.398 206.4C582.398 206.867 582.314 207.3 582.148 207.7C581.981 208.093 581.734 208.437 581.408 208.73C581.081 209.017 580.681 209.243 580.208 209.41C579.734 209.577 579.188 209.66 578.568 209.66C577.861 209.66 577.221 209.547 576.648 209.32C576.074 209.087 575.588 208.79 575.188 208.43L575.608 207.75C575.661 207.663 575.724 207.597 575.798 207.55C575.871 207.503 575.968 207.48 576.088 207.48C576.208 207.48 576.334 207.527 576.468 207.62C576.601 207.713 576.761 207.817 576.948 207.93C577.141 208.043 577.371 208.147 577.638 208.24C577.911 208.333 578.251 208.38 578.658 208.38C579.004 208.38 579.308 208.337 579.568 208.25C579.828 208.157 580.044 208.033 580.218 207.88C580.391 207.727 580.518 207.55 580.598 207.35C580.684 207.15 580.728 206.937 580.728 206.71C580.728 206.43 580.651 206.2 580.498 206.02C580.351 205.833 580.154 205.677 579.908 205.55C579.661 205.417 579.378 205.303 579.058 205.21C578.744 205.11 578.421 205.007 578.088 204.9C577.761 204.793 577.438 204.673 577.118 204.54C576.804 204.4 576.524 204.227 576.278 204.02C576.031 203.813 575.831 203.56 575.678 203.26C575.531 202.953 575.458 202.583 575.458 202.15C575.458 201.763 575.538 201.393 575.698 201.04C575.858 200.68 576.091 200.367 576.398 200.1C576.704 199.827 577.081 199.61 577.528 199.45C577.974 199.29 578.484 199.21 579.058 199.21C579.724 199.21 580.321 199.317 580.848 199.53C581.381 199.737 581.841 200.023 582.228 200.39L581.828 201.04Z" fill="black"/>
<path id="Your Guest List" d="M134.712 117.267V128.667H130.852V117.267L120.352 100.007H123.752C124.099 100.007 124.372 100.094 124.572 100.267C124.772 100.44 124.946 100.654 125.092 100.907L131.652 112.047C131.919 112.514 132.139 112.954 132.312 113.367C132.499 113.78 132.666 114.187 132.812 114.587C132.959 114.174 133.119 113.76 133.292 113.347C133.466 112.934 133.686 112.5 133.952 112.047L140.492 100.907C140.612 100.694 140.772 100.494 140.972 100.307C141.186 100.107 141.459 100.007 141.792 100.007H145.232L134.712 117.267ZM154.066 108.087C155.546 108.087 156.879 108.334 158.066 108.827C159.266 109.32 160.279 110.02 161.106 110.927C161.946 111.834 162.586 112.934 163.026 114.227C163.479 115.507 163.706 116.94 163.706 118.527C163.706 120.127 163.479 121.567 163.026 122.847C162.586 124.127 161.946 125.22 161.106 126.127C160.279 127.034 159.266 127.734 158.066 128.227C156.879 128.707 155.546 128.947 154.066 128.947C152.586 128.947 151.246 128.707 150.046 128.227C148.859 127.734 147.846 127.034 147.006 126.127C146.166 125.22 145.519 124.127 145.066 122.847C144.612 121.567 144.386 120.127 144.386 118.527C144.386 116.94 144.612 115.507 145.066 114.227C145.519 112.934 146.166 111.834 147.006 110.927C147.846 110.02 148.859 109.32 150.046 108.827C151.246 108.334 152.586 108.087 154.066 108.087ZM154.066 126.167C156.066 126.167 157.559 125.5 158.546 124.167C159.532 122.82 160.026 120.947 160.026 118.547C160.026 116.134 159.532 114.254 158.546 112.907C157.559 111.56 156.066 110.887 154.066 110.887C153.052 110.887 152.172 111.06 151.426 111.407C150.679 111.754 150.052 112.254 149.546 112.907C149.052 113.56 148.679 114.367 148.426 115.327C148.186 116.274 148.066 117.347 148.066 118.547C148.066 119.747 148.186 120.82 148.426 121.767C148.679 122.714 149.052 123.514 149.546 124.167C150.052 124.807 150.679 125.3 151.426 125.647C152.172 125.994 153.052 126.167 154.066 126.167ZM171.972 108.407V121.327C171.972 122.86 172.325 124.047 173.032 124.887C173.739 125.727 174.805 126.147 176.232 126.147C177.272 126.147 178.252 125.9 179.172 125.407C180.092 124.914 180.939 124.227 181.712 123.347V108.407H185.272V128.667H183.152C182.645 128.667 182.325 128.42 182.192 127.927L181.912 125.747C181.032 126.72 180.045 127.507 178.952 128.107C177.859 128.694 176.605 128.987 175.192 128.987C174.085 128.987 173.105 128.807 172.252 128.447C171.412 128.074 170.705 127.554 170.132 126.887C169.559 126.22 169.125 125.414 168.832 124.467C168.552 123.52 168.412 122.474 168.412 121.327V108.407H171.972ZM191.919 128.667V108.407H193.959C194.345 108.407 194.612 108.48 194.759 108.627C194.905 108.774 195.005 109.027 195.059 109.387L195.299 112.547C195.992 111.134 196.845 110.034 197.859 109.247C198.885 108.447 200.085 108.047 201.459 108.047C202.019 108.047 202.525 108.114 202.979 108.247C203.432 108.367 203.852 108.54 204.239 108.767L203.779 111.427C203.685 111.76 203.479 111.927 203.159 111.927C202.972 111.927 202.685 111.867 202.299 111.747C201.912 111.614 201.372 111.547 200.679 111.547C199.439 111.547 198.399 111.907 197.559 112.627C196.732 113.347 196.039 114.394 195.479 115.767V128.667H191.919ZM230.726 125.847C231.499 125.847 232.206 125.814 232.846 125.747C233.499 125.667 234.112 125.554 234.686 125.407C235.259 125.26 235.799 125.087 236.306 124.887C236.812 124.674 237.319 124.434 237.826 124.167V117.847H233.386C233.132 117.847 232.926 117.774 232.766 117.627C232.619 117.48 232.546 117.3 232.546 117.087V114.887H241.346V125.887C240.626 126.407 239.872 126.86 239.086 127.247C238.312 127.634 237.479 127.96 236.586 128.227C235.706 128.48 234.759 128.667 233.746 128.787C232.732 128.92 231.632 128.987 230.446 128.987C228.366 128.987 226.459 128.634 224.726 127.927C222.992 127.207 221.499 126.207 220.246 124.927C218.992 123.634 218.012 122.087 217.306 120.287C216.612 118.487 216.266 116.507 216.266 114.347C216.266 112.16 216.606 110.167 217.286 108.367C217.979 106.567 218.959 105.027 220.226 103.747C221.506 102.454 223.046 101.454 224.846 100.747C226.659 100.04 228.686 99.687 230.926 99.687C232.059 99.687 233.112 99.7737 234.086 99.947C235.059 100.107 235.959 100.347 236.786 100.667C237.626 100.974 238.399 101.354 239.106 101.807C239.812 102.247 240.472 102.747 241.086 103.307L239.986 105.067C239.759 105.427 239.466 105.607 239.106 105.607C238.892 105.607 238.659 105.534 238.406 105.387C238.072 105.2 237.699 104.974 237.286 104.707C236.872 104.44 236.366 104.187 235.766 103.947C235.179 103.694 234.479 103.48 233.666 103.307C232.866 103.134 231.912 103.047 230.806 103.047C229.192 103.047 227.732 103.314 226.426 103.847C225.119 104.367 224.006 105.12 223.086 106.107C222.166 107.08 221.459 108.267 220.966 109.667C220.472 111.054 220.226 112.614 220.226 114.347C220.226 116.16 220.479 117.78 220.986 119.207C221.506 120.62 222.232 121.82 223.166 122.807C224.099 123.794 225.206 124.547 226.486 125.067C227.766 125.587 229.179 125.847 230.726 125.847ZM250.641 108.407V121.327C250.641 122.86 250.994 124.047 251.701 124.887C252.407 125.727 253.474 126.147 254.901 126.147C255.941 126.147 256.921 125.9 257.841 125.407C258.761 124.914 259.607 124.227 260.381 123.347V108.407H263.941V128.667H261.821C261.314 128.667 260.994 128.42 260.861 127.927L260.581 125.747C259.701 126.72 258.714 127.507 257.621 128.107C256.527 128.694 255.274 128.987 253.861 128.987C252.754 128.987 251.774 128.807 250.921 128.447C250.081 128.074 249.374 127.554 248.801 126.887C248.227 126.22 247.794 125.414 247.501 124.467C247.221 123.52 247.081 122.474 247.081 121.327V108.407H250.641ZM278.607 108.087C279.821 108.087 280.941 108.294 281.967 108.707C282.994 109.107 283.881 109.694 284.627 110.467C285.374 111.227 285.954 112.174 286.367 113.307C286.794 114.427 287.007 115.707 287.007 117.147C287.007 117.707 286.947 118.08 286.827 118.267C286.707 118.454 286.481 118.547 286.147 118.547H272.667C272.694 119.827 272.867 120.94 273.187 121.887C273.507 122.834 273.947 123.627 274.507 124.267C275.067 124.894 275.734 125.367 276.507 125.687C277.281 125.994 278.147 126.147 279.107 126.147C280.001 126.147 280.767 126.047 281.407 125.847C282.061 125.634 282.621 125.407 283.087 125.167C283.554 124.927 283.941 124.707 284.247 124.507C284.567 124.294 284.841 124.187 285.067 124.187C285.361 124.187 285.587 124.3 285.747 124.527L286.747 125.827C286.307 126.36 285.781 126.827 285.167 127.227C284.554 127.614 283.894 127.934 283.187 128.187C282.494 128.44 281.774 128.627 281.027 128.747C280.281 128.88 279.541 128.947 278.807 128.947C277.407 128.947 276.114 128.714 274.927 128.247C273.754 127.767 272.734 127.074 271.867 126.167C271.014 125.247 270.347 124.114 269.867 122.767C269.387 121.42 269.147 119.874 269.147 118.127C269.147 116.714 269.361 115.394 269.787 114.167C270.227 112.94 270.854 111.88 271.667 110.987C272.481 110.08 273.474 109.374 274.647 108.867C275.821 108.347 277.141 108.087 278.607 108.087ZM278.687 110.707C276.967 110.707 275.614 111.207 274.627 112.207C273.641 113.194 273.027 114.567 272.787 116.327H283.807C283.807 115.5 283.694 114.747 283.467 114.067C283.241 113.374 282.907 112.78 282.467 112.287C282.027 111.78 281.487 111.394 280.847 111.127C280.221 110.847 279.501 110.707 278.687 110.707ZM303.964 111.747C303.804 112.04 303.557 112.187 303.224 112.187C303.024 112.187 302.797 112.114 302.544 111.967C302.291 111.82 301.977 111.66 301.604 111.487C301.244 111.3 300.811 111.134 300.304 110.987C299.797 110.827 299.197 110.747 298.504 110.747C297.904 110.747 297.364 110.827 296.884 110.987C296.404 111.134 295.991 111.34 295.644 111.607C295.311 111.874 295.051 112.187 294.864 112.547C294.691 112.894 294.604 113.274 294.604 113.687C294.604 114.207 294.751 114.64 295.044 114.987C295.351 115.334 295.751 115.634 296.244 115.887C296.737 116.14 297.297 116.367 297.924 116.567C298.551 116.754 299.191 116.96 299.844 117.187C300.511 117.4 301.157 117.64 301.784 117.907C302.411 118.174 302.971 118.507 303.464 118.907C303.957 119.307 304.351 119.8 304.644 120.387C304.951 120.96 305.104 121.654 305.104 122.467C305.104 123.4 304.937 124.267 304.604 125.067C304.271 125.854 303.777 126.54 303.124 127.127C302.471 127.7 301.671 128.154 300.724 128.487C299.777 128.82 298.684 128.987 297.444 128.987C296.031 128.987 294.751 128.76 293.604 128.307C292.457 127.84 291.484 127.247 290.684 126.527L291.524 125.167C291.631 124.994 291.757 124.86 291.904 124.767C292.051 124.674 292.244 124.627 292.484 124.627C292.724 124.627 292.977 124.72 293.244 124.907C293.511 125.094 293.831 125.3 294.204 125.527C294.591 125.754 295.051 125.96 295.584 126.147C296.131 126.334 296.811 126.427 297.624 126.427C298.317 126.427 298.924 126.34 299.444 126.167C299.964 125.98 300.397 125.734 300.744 125.427C301.091 125.12 301.344 124.767 301.504 124.367C301.677 123.967 301.764 123.54 301.764 123.087C301.764 122.527 301.611 122.067 301.304 121.707C301.011 121.334 300.617 121.02 300.124 120.767C299.631 120.5 299.064 120.274 298.424 120.087C297.797 119.887 297.151 119.68 296.484 119.467C295.831 119.254 295.184 119.014 294.544 118.747C293.917 118.467 293.357 118.12 292.864 117.707C292.371 117.294 291.971 116.787 291.664 116.187C291.371 115.574 291.224 114.834 291.224 113.967C291.224 113.194 291.384 112.454 291.704 111.747C292.024 111.027 292.491 110.4 293.104 109.867C293.717 109.32 294.471 108.887 295.364 108.567C296.257 108.247 297.277 108.087 298.424 108.087C299.757 108.087 300.951 108.3 302.004 108.727C303.071 109.14 303.991 109.714 304.764 110.447L303.964 111.747ZM316.648 128.987C315.048 128.987 313.814 128.54 312.948 127.647C312.094 126.754 311.668 125.467 311.668 123.787V111.387H309.228C309.014 111.387 308.834 111.327 308.688 111.207C308.541 111.074 308.468 110.874 308.468 110.607V109.187L311.788 108.767L312.608 102.507C312.634 102.307 312.721 102.147 312.868 102.027C313.014 101.894 313.201 101.827 313.428 101.827H315.228V108.807H321.028V111.387H315.228V123.547C315.228 124.4 315.434 125.034 315.848 125.447C316.261 125.86 316.794 126.067 317.448 126.067C317.821 126.067 318.141 126.02 318.408 125.927C318.688 125.82 318.928 125.707 319.128 125.587C319.328 125.467 319.494 125.36 319.628 125.267C319.774 125.16 319.901 125.107 320.008 125.107C320.194 125.107 320.361 125.22 320.508 125.447L321.548 127.147C320.934 127.72 320.194 128.174 319.328 128.507C318.461 128.827 317.568 128.987 316.648 128.987ZM339.204 125.407H351.604V128.667H335.324V100.007H339.204V125.407ZM360.071 108.407V128.667H356.511V108.407H360.071ZM360.871 102.047C360.871 102.394 360.797 102.72 360.651 103.027C360.517 103.32 360.331 103.587 360.091 103.827C359.864 104.054 359.597 104.234 359.291 104.367C358.984 104.5 358.657 104.567 358.311 104.567C357.964 104.567 357.637 104.5 357.331 104.367C357.037 104.234 356.771 104.054 356.531 103.827C356.304 103.587 356.124 103.32 355.991 103.027C355.857 102.72 355.791 102.394 355.791 102.047C355.791 101.7 355.857 101.374 355.991 101.067C356.124 100.747 356.304 100.474 356.531 100.247C356.771 100.007 357.037 99.8203 357.331 99.687C357.637 99.5537 357.964 99.487 358.311 99.487C358.657 99.487 358.984 99.5537 359.291 99.687C359.597 99.8203 359.864 100.007 360.091 100.247C360.331 100.474 360.517 100.747 360.651 101.067C360.797 101.374 360.871 101.7 360.871 102.047ZM378.745 111.747C378.585 112.04 378.339 112.187 378.005 112.187C377.805 112.187 377.579 112.114 377.325 111.967C377.072 111.82 376.759 111.66 376.385 111.487C376.025 111.3 375.592 111.134 375.085 110.987C374.579 110.827 373.979 110.747 373.285 110.747C372.685 110.747 372.145 110.827 371.665 110.987C371.185 111.134 370.772 111.34 370.425 111.607C370.092 111.874 369.832 112.187 369.645 112.547C369.472 112.894 369.385 113.274 369.385 113.687C369.385 114.207 369.532 114.64 369.825 114.987C370.132 115.334 370.532 115.634 371.025 115.887C371.519 116.14 372.079 116.367 372.705 116.567C373.332 116.754 373.972 116.96 374.625 117.187C375.292 117.4 375.939 117.64 376.565 117.907C377.192 118.174 377.752 118.507 378.245 118.907C378.739 119.307 379.132 119.8 379.425 120.387C379.732 120.96 379.885 121.654 379.885 122.467C379.885 123.4 379.719 124.267 379.385 125.067C379.052 125.854 378.559 126.54 377.905 127.127C377.252 127.7 376.452 128.154 375.505 128.487C374.559 128.82 373.465 128.987 372.225 128.987C370.812 128.987 369.532 128.76 368.385 128.307C367.239 127.84 366.265 127.247 365.465 126.527L366.305 125.167C366.412 124.994 366.539 124.86 366.685 124.767C366.832 124.674 367.025 124.627 367.265 124.627C367.505 124.627 367.759 124.72 368.025 124.907C368.292 125.094 368.612 125.3 368.985 125.527C369.372 125.754 369.832 125.96 370.365 126.147C370.912 126.334 371.592 126.427 372.405 126.427C373.099 126.427 373.705 126.34 374.225 126.167C374.745 125.98 375.179 125.734 375.525 125.427C375.872 125.12 376.125 124.767 376.285 124.367C376.459 123.967 376.545 123.54 376.545 123.087C376.545 122.527 376.392 122.067 376.085 121.707C375.792 121.334 375.399 121.02 374.905 120.767C374.412 120.5 373.845 120.274 373.205 120.087C372.579 119.887 371.932 119.68 371.265 119.467C370.612 119.254 369.965 119.014 369.325 118.747C368.699 118.467 368.139 118.12 367.645 117.707C367.152 117.294 366.752 116.787 366.445 116.187C366.152 115.574 366.005 114.834 366.005 113.967C366.005 113.194 366.165 112.454 366.485 111.747C366.805 111.027 367.272 110.4 367.885 109.867C368.499 109.32 369.252 108.887 370.145 108.567C371.039 108.247 372.059 108.087 373.205 108.087C374.539 108.087 375.732 108.3 376.785 108.727C377.852 109.14 378.772 109.714 379.545 110.447L378.745 111.747ZM391.429 128.987C389.829 128.987 388.596 128.54 387.729 127.647C386.876 126.754 386.449 125.467 386.449 123.787V111.387H384.009C383.796 111.387 383.616 111.327 383.469 111.207C383.322 111.074 383.249 110.874 383.249 110.607V109.187L386.569 108.767L387.389 102.507C387.416 102.307 387.502 102.147 387.649 102.027C387.796 101.894 387.982 101.827 388.209 101.827H390.009V108.807H395.809V111.387H390.009V123.547C390.009 124.4 390.216 125.034 390.629 125.447C391.042 125.86 391.576 126.067 392.229 126.067C392.602 126.067 392.922 126.02 393.189 125.927C393.469 125.82 393.709 125.707 393.909 125.587C394.109 125.467 394.276 125.36 394.409 125.267C394.556 125.16 394.682 125.107 394.789 125.107C394.976 125.107 395.142 125.22 395.289 125.447L396.329 127.147C395.716 127.72 394.976 128.174 394.109 128.507C393.242 128.827 392.349 128.987 391.429 128.987Z" fill="black"/>
<g id="Group 15">
<line id="Line 23" x1="131.545" y1="251.611" x2="186.252" y2="251.611" stroke="black" stroke-opacity="0.8"/>
<line id="Line 24" x1="131.545" y1="291.277" x2="186.252" y2="291.277" stroke="black" stroke-opacity="0.8"/>
<line id="Line 25" x1="131.545" y1="335.667" x2="186.252" y2="335.667" stroke="black" stroke-opacity="0.8"/>
<line id="Line 26" x1="131.545" y1="380.056" x2="186.252" y2="380.056" stroke="black" stroke-opacity="0.8"/>
<line id="Line 27" x1="131.545" y1="427.277" x2="186.252" y2="427.277" stroke="black" stroke-opacity="0.8"/>
<line id="Line 28" x1="131.545" y1="472.611" x2="186.252" y2="472.611" stroke="black" stroke-opacity="0.8"/>
</g>
<g id="Group 13">
<line id="Line 29" x1="263.668" y1="251.611" x2="431.917" y2="251.611" stroke="black" stroke-opacity="0.8"/>
<line id="Line 30" x1="263.668" y1="291.277" x2="431.917" y2="291.277" stroke="black" stroke-opacity="0.8"/>
<line id="Line 31" x1="263.668" y1="335.667" x2="431.917" y2="335.667" stroke="black" stroke-opacity="0.8"/>
<line id="Line 32" x1="263.668" y1="380.056" x2="431.917" y2="380.056" stroke="black" stroke-opacity="0.8"/>
<line id="Line 33" x1="263.668" y1="427.277" x2="431.917" y2="427.277" stroke="black" stroke-opacity="0.8"/>
<line id="Line 34" x1="263.668" y1="472.611" x2="431.917" y2="472.611" stroke="black" stroke-opacity="0.8"/>
</g>
<g id="Group 14">
<line id="Line 29_2" x1="468.044" y1="251.611" x2="601.198" y2="251.611" stroke="black" stroke-opacity="0.8"/>
<line id="Line 30_2" x1="468.044" y1="291.277" x2="601.198" y2="291.277" stroke="black" stroke-opacity="0.8"/>
<line id="Line 31_2" x1="468.044" y1="335.667" x2="601.198" y2="335.667" stroke="black" stroke-opacity="0.8"/>
<line id="Line 32_2" x1="468.044" y1="380.056" x2="601.198" y2="380.056" stroke="black" stroke-opacity="0.8"/>
<line id="Line 33_2" x1="468.044" y1="427.277" x2="601.198" y2="427.277" stroke="black" stroke-opacity="0.8"/>
<line id="Line 34_2" x1="468.044" y1="472.611" x2="601.198" y2="472.611" stroke="black" stroke-opacity="0.8"/>
</g>
</g>
<g id="Group 11">
<rect id="Rectangle 36" x="318" y="460" width="455" height="101" rx="40" fill="black"/>
<path id="Add Guests &#38; Recipes" d="M372.34 526H368.18C367.713 526 367.327 525.887 367.02 525.66C366.727 525.42 366.513 525.127 366.38 524.78L364.22 518.88H352.24L350.08 524.78C349.973 525.087 349.76 525.367 349.44 525.62C349.133 525.873 348.753 526 348.3 526H344.12L355.48 497.08H360.98L372.34 526ZM353.62 515.08H362.84L359.32 505.46C359.16 505.033 358.98 504.533 358.78 503.96C358.593 503.373 358.407 502.74 358.22 502.06C358.033 502.74 357.847 503.373 357.66 503.96C357.487 504.547 357.313 505.06 357.14 505.5L353.62 515.08ZM390.278 526C389.638 526 389.218 525.7 389.018 525.1L388.618 523.12C388.192 523.6 387.745 524.033 387.278 524.42C386.812 524.807 386.305 525.14 385.758 525.42C385.225 525.7 384.645 525.913 384.018 526.06C383.405 526.22 382.738 526.3 382.018 526.3C380.898 526.3 379.872 526.067 378.938 525.6C378.005 525.133 377.198 524.46 376.518 523.58C375.852 522.687 375.332 521.587 374.958 520.28C374.598 518.973 374.418 517.48 374.418 515.8C374.418 514.28 374.625 512.867 375.038 511.56C375.452 510.253 376.045 509.12 376.818 508.16C377.592 507.2 378.518 506.453 379.598 505.92C380.678 505.373 381.892 505.1 383.238 505.1C384.385 505.1 385.365 505.287 386.178 505.66C386.992 506.02 387.718 506.507 388.358 507.12V496.28H393.298V526H390.278ZM383.698 522.38C384.725 522.38 385.598 522.167 386.318 521.74C387.038 521.313 387.718 520.707 388.358 519.92V510.72C387.798 510.04 387.185 509.56 386.518 509.28C385.865 509 385.158 508.86 384.398 508.86C383.652 508.86 382.972 509 382.358 509.28C381.758 509.56 381.245 509.987 380.818 510.56C380.405 511.12 380.085 511.84 379.858 512.72C379.632 513.587 379.518 514.613 379.518 515.8C379.518 517 379.612 518.02 379.798 518.86C379.998 519.687 380.278 520.367 380.638 520.9C380.998 521.42 381.438 521.8 381.958 522.04C382.478 522.267 383.058 522.38 383.698 522.38ZM413.891 526C413.251 526 412.831 525.7 412.631 525.1L412.231 523.12C411.804 523.6 411.358 524.033 410.891 524.42C410.424 524.807 409.918 525.14 409.371 525.42C408.838 525.7 408.258 525.913 407.631 526.06C407.018 526.22 406.351 526.3 405.631 526.3C404.511 526.3 403.484 526.067 402.551 525.6C401.618 525.133 400.811 524.46 400.131 523.58C399.464 522.687 398.944 521.587 398.571 520.28C398.211 518.973 398.031 517.48 398.031 515.8C398.031 514.28 398.238 512.867 398.651 511.56C399.064 510.253 399.658 509.12 400.431 508.16C401.204 507.2 402.131 506.453 403.211 505.92C404.291 505.373 405.504 505.1 406.851 505.1C407.998 505.1 408.978 505.287 409.791 505.66C410.604 506.02 411.331 506.507 411.971 507.12V496.28H416.911V526H413.891ZM407.311 522.38C408.338 522.38 409.211 522.167 409.931 521.74C410.651 521.313 411.331 520.707 411.971 519.92V510.72C411.411 510.04 410.798 509.56 410.131 509.28C409.478 509 408.771 508.86 408.011 508.86C407.264 508.86 406.584 509 405.971 509.28C405.371 509.56 404.858 509.987 404.431 510.56C404.018 511.12 403.698 511.84 403.471 512.72C403.244 513.587 403.131 514.613 403.131 515.8C403.131 517 403.224 518.02 403.411 518.86C403.611 519.687 403.891 520.367 404.251 520.9C404.611 521.42 405.051 521.8 405.571 522.04C406.091 522.267 406.671 522.38 407.311 522.38ZM445.158 522.04C446.371 522.04 447.424 521.933 448.318 521.72C449.224 521.493 450.084 521.187 450.898 520.8V515.54H447.278C446.931 515.54 446.658 515.447 446.458 515.26C446.258 515.06 446.158 514.82 446.158 514.54V511.5H455.778V523.2C455.044 523.733 454.278 524.2 453.478 524.6C452.691 524.987 451.844 525.307 450.938 525.56C450.044 525.813 449.084 526 448.058 526.12C447.031 526.253 445.924 526.32 444.738 526.32C442.631 526.32 440.691 525.953 438.918 525.22C437.144 524.487 435.611 523.467 434.318 522.16C433.024 520.853 432.011 519.293 431.278 517.48C430.558 515.667 430.198 513.687 430.198 511.54C430.198 509.367 430.551 507.373 431.258 505.56C431.964 503.747 432.964 502.187 434.258 500.88C435.564 499.573 437.144 498.56 438.998 497.84C440.851 497.12 442.931 496.76 445.238 496.76C447.598 496.76 449.638 497.113 451.358 497.82C453.091 498.513 454.558 499.42 455.758 500.54L454.198 502.98C453.891 503.473 453.484 503.72 452.978 503.72C452.658 503.72 452.331 503.613 451.998 503.4C451.571 503.147 451.131 502.893 450.678 502.64C450.238 502.387 449.744 502.167 449.198 501.98C448.664 501.793 448.058 501.64 447.378 501.52C446.711 501.4 445.938 501.34 445.058 501.34C443.631 501.34 442.338 501.58 441.178 502.06C440.031 502.54 439.051 503.227 438.238 504.12C437.424 505.013 436.798 506.087 436.358 507.34C435.918 508.593 435.698 509.993 435.698 511.54C435.698 513.207 435.931 514.693 436.398 516C436.864 517.293 437.518 518.387 438.358 519.28C439.198 520.173 440.198 520.86 441.358 521.34C442.518 521.807 443.784 522.04 445.158 522.04ZM465.824 505.48V518.52C465.824 519.773 466.111 520.747 466.684 521.44C467.271 522.12 468.144 522.46 469.304 522.46C470.157 522.46 470.957 522.273 471.704 521.9C472.451 521.513 473.157 520.987 473.824 520.32V505.48H478.764V526H475.744C475.104 526 474.684 525.7 474.484 525.1L474.144 523.46C473.717 523.887 473.277 524.28 472.824 524.64C472.371 524.987 471.884 525.287 471.364 525.54C470.857 525.78 470.304 525.967 469.704 526.1C469.117 526.247 468.484 526.32 467.804 526.32C466.684 526.32 465.691 526.133 464.824 525.76C463.971 525.373 463.251 524.833 462.664 524.14C462.077 523.447 461.631 522.627 461.324 521.68C461.031 520.72 460.884 519.667 460.884 518.52V505.48H465.824ZM493.318 505.16C494.612 505.16 495.798 505.367 496.878 505.78C497.972 506.193 498.912 506.8 499.698 507.6C500.485 508.387 501.098 509.36 501.538 510.52C501.978 511.667 502.198 512.98 502.198 514.46C502.198 514.833 502.178 515.147 502.138 515.4C502.112 515.64 502.052 515.833 501.958 515.98C501.878 516.113 501.765 516.213 501.618 516.28C501.472 516.333 501.285 516.36 501.058 516.36H488.378C488.525 518.467 489.092 520.013 490.078 521C491.065 521.987 492.372 522.48 493.998 522.48C494.798 522.48 495.485 522.387 496.058 522.2C496.645 522.013 497.152 521.807 497.578 521.58C498.018 521.353 498.398 521.147 498.718 520.96C499.052 520.773 499.372 520.68 499.678 520.68C499.878 520.68 500.052 520.72 500.198 520.8C500.345 520.88 500.472 520.993 500.578 521.14L502.018 522.94C501.472 523.58 500.858 524.12 500.178 524.56C499.498 524.987 498.785 525.333 498.038 525.6C497.305 525.853 496.552 526.033 495.778 526.14C495.018 526.247 494.278 526.3 493.558 526.3C492.132 526.3 490.805 526.067 489.578 525.6C488.352 525.12 487.285 524.42 486.378 523.5C485.472 522.567 484.758 521.42 484.238 520.06C483.718 518.687 483.458 517.1 483.458 515.3C483.458 513.9 483.685 512.587 484.138 511.36C484.592 510.12 485.238 509.047 486.078 508.14C486.932 507.22 487.965 506.493 489.178 505.96C490.405 505.427 491.785 505.16 493.318 505.16ZM493.418 508.7C491.978 508.7 490.852 509.107 490.038 509.92C489.225 510.733 488.705 511.887 488.478 513.38H497.758C497.758 512.74 497.672 512.14 497.498 511.58C497.325 511.007 497.058 510.507 496.698 510.08C496.338 509.653 495.885 509.32 495.338 509.08C494.792 508.827 494.152 508.7 493.418 508.7ZM519.186 509.48C519.052 509.693 518.912 509.847 518.766 509.94C518.619 510.02 518.432 510.06 518.206 510.06C517.966 510.06 517.706 509.993 517.426 509.86C517.159 509.727 516.846 509.58 516.486 509.42C516.126 509.247 515.712 509.093 515.246 508.96C514.792 508.827 514.252 508.76 513.626 508.76C512.652 508.76 511.886 508.967 511.326 509.38C510.766 509.793 510.486 510.333 510.486 511C510.486 511.44 510.626 511.813 510.906 512.12C511.199 512.413 511.579 512.673 512.046 512.9C512.526 513.127 513.066 513.333 513.666 513.52C514.266 513.693 514.879 513.887 515.506 514.1C516.132 514.313 516.746 514.56 517.346 514.84C517.946 515.107 518.479 515.453 518.946 515.88C519.426 516.293 519.806 516.793 520.086 517.38C520.379 517.967 520.526 518.673 520.526 519.5C520.526 520.487 520.346 521.4 519.986 522.24C519.626 523.067 519.099 523.787 518.406 524.4C517.712 525 516.852 525.473 515.826 525.82C514.812 526.153 513.646 526.32 512.326 526.32C511.619 526.32 510.926 526.253 510.246 526.12C509.579 526 508.932 525.827 508.306 525.6C507.692 525.373 507.119 525.107 506.586 524.8C506.066 524.493 505.606 524.16 505.206 523.8L506.346 521.92C506.492 521.693 506.666 521.52 506.866 521.4C507.066 521.28 507.319 521.22 507.626 521.22C507.932 521.22 508.219 521.307 508.486 521.48C508.766 521.653 509.086 521.84 509.446 522.04C509.806 522.24 510.226 522.427 510.706 522.6C511.199 522.773 511.819 522.86 512.566 522.86C513.152 522.86 513.652 522.793 514.066 522.66C514.492 522.513 514.839 522.327 515.106 522.1C515.386 521.873 515.586 521.613 515.706 521.32C515.839 521.013 515.906 520.7 515.906 520.38C515.906 519.9 515.759 519.507 515.466 519.2C515.186 518.893 514.806 518.627 514.326 518.4C513.859 518.173 513.319 517.973 512.706 517.8C512.106 517.613 511.486 517.413 510.846 517.2C510.219 516.987 509.599 516.74 508.986 516.46C508.386 516.167 507.846 515.8 507.366 515.36C506.899 514.92 506.519 514.38 506.226 513.74C505.946 513.1 505.806 512.327 505.806 511.42C505.806 510.58 505.972 509.78 506.306 509.02C506.639 508.26 507.126 507.6 507.766 507.04C508.419 506.467 509.226 506.013 510.186 505.68C511.159 505.333 512.279 505.16 513.546 505.16C514.959 505.16 516.246 505.393 517.406 505.86C518.566 506.327 519.532 506.94 520.306 507.7L519.186 509.48ZM532.007 526.32C530.233 526.32 528.867 525.82 527.907 524.82C526.947 523.807 526.467 522.413 526.467 520.64V509.18H524.387C524.12 509.18 523.887 509.093 523.687 508.92C523.5 508.747 523.407 508.487 523.407 508.14V506.18L526.707 505.64L527.747 500.04C527.8 499.773 527.92 499.567 528.107 499.42C528.307 499.273 528.553 499.2 528.847 499.2H531.407V505.66H536.807V509.18H531.407V520.3C531.407 520.94 531.567 521.44 531.887 521.8C532.207 522.16 532.633 522.34 533.167 522.34C533.473 522.34 533.727 522.307 533.927 522.24C534.14 522.16 534.32 522.08 534.467 522C534.627 521.92 534.767 521.847 534.887 521.78C535.007 521.7 535.127 521.66 535.247 521.66C535.393 521.66 535.513 521.7 535.607 521.78C535.7 521.847 535.8 521.953 535.907 522.1L537.387 524.5C536.667 525.1 535.84 525.553 534.907 525.86C533.973 526.167 533.007 526.32 532.007 526.32ZM553.715 509.48C553.582 509.693 553.442 509.847 553.295 509.94C553.149 510.02 552.962 510.06 552.735 510.06C552.495 510.06 552.235 509.993 551.955 509.86C551.689 509.727 551.375 509.58 551.015 509.42C550.655 509.247 550.242 509.093 549.775 508.96C549.322 508.827 548.782 508.76 548.155 508.76C547.182 508.76 546.415 508.967 545.855 509.38C545.295 509.793 545.015 510.333 545.015 511C545.015 511.44 545.155 511.813 545.435 512.12C545.729 512.413 546.109 512.673 546.575 512.9C547.055 513.127 547.595 513.333 548.195 513.52C548.795 513.693 549.409 513.887 550.035 514.1C550.662 514.313 551.275 514.56 551.875 514.84C552.475 515.107 553.009 515.453 553.475 515.88C553.955 516.293 554.335 516.793 554.615 517.38C554.909 517.967 555.055 518.673 555.055 519.5C555.055 520.487 554.875 521.4 554.515 522.24C554.155 523.067 553.629 523.787 552.935 524.4C552.242 525 551.382 525.473 550.355 525.82C549.342 526.153 548.175 526.32 546.855 526.32C546.149 526.32 545.455 526.253 544.775 526.12C544.109 526 543.462 525.827 542.835 525.6C542.222 525.373 541.649 525.107 541.115 524.8C540.595 524.493 540.135 524.16 539.735 523.8L540.875 521.92C541.022 521.693 541.195 521.52 541.395 521.4C541.595 521.28 541.849 521.22 542.155 521.22C542.462 521.22 542.749 521.307 543.015 521.48C543.295 521.653 543.615 521.84 543.975 522.04C544.335 522.24 544.755 522.427 545.235 522.6C545.729 522.773 546.349 522.86 547.095 522.86C547.682 522.86 548.182 522.793 548.595 522.66C549.022 522.513 549.369 522.327 549.635 522.1C549.915 521.873 550.115 521.613 550.235 521.32C550.369 521.013 550.435 520.7 550.435 520.38C550.435 519.9 550.289 519.507 549.995 519.2C549.715 518.893 549.335 518.627 548.855 518.4C548.389 518.173 547.849 517.973 547.235 517.8C546.635 517.613 546.015 517.413 545.375 517.2C544.749 516.987 544.129 516.74 543.515 516.46C542.915 516.167 542.375 515.8 541.895 515.36C541.429 514.92 541.049 514.38 540.755 513.74C540.475 513.1 540.335 512.327 540.335 511.42C540.335 510.58 540.502 509.78 540.835 509.02C541.169 508.26 541.655 507.6 542.295 507.04C542.949 506.467 543.755 506.013 544.715 505.68C545.689 505.333 546.809 505.16 548.075 505.16C549.489 505.16 550.775 505.393 551.935 505.86C553.095 506.327 554.062 506.94 554.835 507.7L553.715 509.48ZM578.951 496.76C580.124 496.76 581.171 496.94 582.091 497.3C583.024 497.66 583.817 498.14 584.471 498.74C585.137 499.34 585.657 500.027 586.031 500.8C586.417 501.573 586.644 502.373 586.711 503.2L583.571 503.86C583.531 503.873 583.484 503.88 583.431 503.88C583.391 503.88 583.351 503.88 583.311 503.88C583.084 503.88 582.877 503.82 582.691 503.7C582.517 503.567 582.377 503.367 582.271 503.1C582.151 502.753 581.997 502.427 581.811 502.12C581.624 501.8 581.397 501.527 581.131 501.3C580.864 501.06 580.551 500.873 580.191 500.74C579.831 500.593 579.417 500.52 578.951 500.52C578.391 500.52 577.891 500.62 577.451 500.82C577.011 501.007 576.637 501.267 576.331 501.6C576.024 501.92 575.791 502.3 575.631 502.74C575.471 503.167 575.391 503.62 575.391 504.1C575.391 504.5 575.431 504.887 575.511 505.26C575.604 505.633 575.744 506.007 575.931 506.38C576.117 506.753 576.357 507.14 576.651 507.54C576.957 507.927 577.331 508.347 577.771 508.8L585.451 516.78C585.891 515.94 586.244 515.053 586.511 514.12C586.777 513.187 586.951 512.24 587.031 511.28C587.057 510.973 587.157 510.727 587.331 510.54C587.504 510.353 587.744 510.26 588.051 510.26H591.151C591.137 512.02 590.884 513.7 590.391 515.3C589.897 516.9 589.191 518.373 588.271 519.72L594.331 526H589.491C589.237 526 589.011 525.987 588.811 525.96C588.624 525.933 588.444 525.887 588.271 525.82C588.097 525.74 587.931 525.64 587.771 525.52C587.611 525.4 587.444 525.247 587.271 525.06L585.271 523C583.991 524.04 582.564 524.853 580.991 525.44C579.431 526.027 577.737 526.32 575.911 526.32C574.791 526.32 573.697 526.133 572.631 525.76C571.564 525.373 570.611 524.82 569.771 524.1C568.931 523.38 568.251 522.513 567.731 521.5C567.224 520.473 566.971 519.32 566.971 518.04C566.971 517.147 567.117 516.3 567.411 515.5C567.704 514.687 568.111 513.933 568.631 513.24C569.151 512.547 569.764 511.92 570.471 511.36C571.191 510.8 571.977 510.32 572.831 509.92C572.124 508.92 571.604 507.947 571.271 507C570.951 506.04 570.791 505.087 570.791 504.14C570.791 503.14 570.971 502.193 571.331 501.3C571.704 500.393 572.237 499.607 572.931 498.94C573.637 498.273 574.497 497.747 575.511 497.36C576.524 496.96 577.671 496.76 578.951 496.76ZM571.991 517.64C571.991 518.373 572.117 519.033 572.371 519.62C572.624 520.207 572.971 520.707 573.411 521.12C573.851 521.52 574.357 521.833 574.931 522.06C575.517 522.273 576.137 522.38 576.791 522.38C577.964 522.38 579.031 522.2 579.991 521.84C580.964 521.467 581.851 520.953 582.651 520.3L575.051 512.5C573.984 513.193 573.204 513.973 572.711 514.84C572.231 515.707 571.991 516.64 571.991 517.64ZM612.06 514.7V526H606.68V497.08H615.5C617.473 497.08 619.16 497.287 620.56 497.7C621.973 498.1 623.126 498.667 624.02 499.4C624.926 500.133 625.586 501.013 626 502.04C626.426 503.053 626.64 504.173 626.64 505.4C626.64 506.373 626.493 507.293 626.2 508.16C625.92 509.027 625.506 509.813 624.96 510.52C624.426 511.227 623.76 511.847 622.96 512.38C622.173 512.913 621.273 513.34 620.26 513.66C620.94 514.047 621.526 514.6 622.02 515.32L629.26 526H624.42C623.953 526 623.553 525.907 623.22 525.72C622.9 525.533 622.626 525.267 622.4 524.92L616.32 515.66C616.093 515.313 615.84 515.067 615.56 514.92C615.293 514.773 614.893 514.7 614.36 514.7H612.06ZM612.06 510.84H615.42C616.433 510.84 617.313 510.713 618.06 510.46C618.82 510.207 619.44 509.86 619.92 509.42C620.413 508.967 620.78 508.433 621.02 507.82C621.26 507.207 621.38 506.533 621.38 505.8C621.38 504.333 620.893 503.207 619.92 502.42C618.96 501.633 617.486 501.24 615.5 501.24H612.06V510.84ZM641.711 505.16C643.004 505.16 644.191 505.367 645.271 505.78C646.364 506.193 647.304 506.8 648.091 507.6C648.877 508.387 649.491 509.36 649.931 510.52C650.371 511.667 650.591 512.98 650.591 514.46C650.591 514.833 650.571 515.147 650.531 515.4C650.504 515.64 650.444 515.833 650.351 515.98C650.271 516.113 650.157 516.213 650.011 516.28C649.864 516.333 649.677 516.36 649.451 516.36H636.771C636.917 518.467 637.484 520.013 638.471 521C639.457 521.987 640.764 522.48 642.391 522.48C643.191 522.48 643.877 522.387 644.451 522.2C645.037 522.013 645.544 521.807 645.971 521.58C646.411 521.353 646.791 521.147 647.111 520.96C647.444 520.773 647.764 520.68 648.071 520.68C648.271 520.68 648.444 520.72 648.591 520.8C648.737 520.88 648.864 520.993 648.971 521.14L650.411 522.94C649.864 523.58 649.251 524.12 648.571 524.56C647.891 524.987 647.177 525.333 646.431 525.6C645.697 525.853 644.944 526.033 644.171 526.14C643.411 526.247 642.671 526.3 641.951 526.3C640.524 526.3 639.197 526.067 637.971 525.6C636.744 525.12 635.677 524.42 634.771 523.5C633.864 522.567 633.151 521.42 632.631 520.06C632.111 518.687 631.851 517.1 631.851 515.3C631.851 513.9 632.077 512.587 632.531 511.36C632.984 510.12 633.631 509.047 634.471 508.14C635.324 507.22 636.357 506.493 637.571 505.96C638.797 505.427 640.177 505.16 641.711 505.16ZM641.811 508.7C640.371 508.7 639.244 509.107 638.431 509.92C637.617 510.733 637.097 511.887 636.871 513.38H646.151C646.151 512.74 646.064 512.14 645.891 511.58C645.717 511.007 645.451 510.507 645.091 510.08C644.731 509.653 644.277 509.32 643.731 509.08C643.184 508.827 642.544 508.7 641.811 508.7ZM669.818 509.82C669.671 510.007 669.524 510.153 669.378 510.26C669.244 510.367 669.044 510.42 668.778 510.42C668.524 510.42 668.278 510.347 668.038 510.2C667.798 510.04 667.511 509.867 667.178 509.68C666.844 509.48 666.444 509.307 665.978 509.16C665.524 509 664.958 508.92 664.278 508.92C663.411 508.92 662.651 509.08 661.998 509.4C661.344 509.707 660.798 510.153 660.358 510.74C659.931 511.327 659.611 512.04 659.398 512.88C659.184 513.707 659.078 514.647 659.078 515.7C659.078 516.793 659.191 517.767 659.418 518.62C659.658 519.473 659.998 520.193 660.438 520.78C660.878 521.353 661.411 521.793 662.038 522.1C662.664 522.393 663.371 522.54 664.158 522.54C664.944 522.54 665.578 522.447 666.058 522.26C666.551 522.06 666.964 521.847 667.298 521.62C667.631 521.38 667.918 521.167 668.158 520.98C668.411 520.78 668.691 520.68 668.998 520.68C669.398 520.68 669.698 520.833 669.898 521.14L671.318 522.94C670.771 523.58 670.178 524.12 669.538 524.56C668.898 524.987 668.231 525.333 667.538 525.6C666.858 525.853 666.151 526.033 665.418 526.14C664.684 526.247 663.958 526.3 663.238 526.3C661.971 526.3 660.778 526.067 659.658 525.6C658.538 525.12 657.558 524.427 656.718 523.52C655.891 522.613 655.231 521.507 654.738 520.2C654.258 518.88 654.018 517.38 654.018 515.7C654.018 514.193 654.231 512.8 654.658 511.52C655.098 510.227 655.738 509.113 656.578 508.18C657.418 507.233 658.458 506.493 659.698 505.96C660.938 505.427 662.364 505.16 663.978 505.16C665.511 505.16 666.851 505.407 667.998 505.9C669.158 506.393 670.198 507.1 671.118 508.02L669.818 509.82ZM680.52 505.48V526H675.58V505.48H680.52ZM681.26 499.5C681.26 499.927 681.174 500.327 681 500.7C680.827 501.073 680.594 501.4 680.3 501.68C680.02 501.96 679.687 502.187 679.3 502.36C678.914 502.52 678.5 502.6 678.06 502.6C677.634 502.6 677.227 502.52 676.84 502.36C676.467 502.187 676.14 501.96 675.86 501.68C675.58 501.4 675.354 501.073 675.18 500.7C675.02 500.327 674.94 499.927 674.94 499.5C674.94 499.06 675.02 498.647 675.18 498.26C675.354 497.873 675.58 497.54 675.86 497.26C676.14 496.98 676.467 496.76 676.84 496.6C677.227 496.427 677.634 496.34 678.06 496.34C678.5 496.34 678.914 496.427 679.3 496.6C679.687 496.76 680.02 496.98 680.3 497.26C680.594 497.54 680.827 497.873 681 498.26C681.174 498.647 681.26 499.06 681.26 499.5ZM686.92 532.7V505.48H689.94C690.26 505.48 690.533 505.553 690.76 505.7C690.986 505.847 691.133 506.073 691.2 506.38L691.6 508.28C692.426 507.333 693.373 506.567 694.44 505.98C695.52 505.393 696.78 505.1 698.22 505.1C699.34 505.1 700.36 505.333 701.28 505.8C702.213 506.267 703.013 506.947 703.68 507.84C704.36 508.72 704.88 509.813 705.24 511.12C705.613 512.413 705.8 513.9 705.8 515.58C705.8 517.113 705.593 518.533 705.18 519.84C704.766 521.147 704.173 522.28 703.4 523.24C702.64 524.2 701.713 524.953 700.62 525.5C699.54 526.033 698.326 526.3 696.98 526.3C695.82 526.3 694.833 526.127 694.02 525.78C693.22 525.42 692.5 524.927 691.86 524.3V532.7H686.92ZM696.52 509C695.493 509 694.613 509.22 693.88 509.66C693.16 510.087 692.486 510.693 691.86 511.48V520.68C692.42 521.373 693.026 521.86 693.68 522.14C694.346 522.407 695.06 522.54 695.82 522.54C696.566 522.54 697.24 522.4 697.84 522.12C698.453 521.84 698.966 521.413 699.38 520.84C699.806 520.267 700.133 519.547 700.36 518.68C700.586 517.8 700.7 516.767 700.7 515.58C700.7 514.38 700.6 513.367 700.4 512.54C700.213 511.7 699.94 511.02 699.58 510.5C699.22 509.98 698.78 509.6 698.26 509.36C697.753 509.12 697.173 509 696.52 509ZM718.817 505.16C720.11 505.16 721.297 505.367 722.377 505.78C723.47 506.193 724.41 506.8 725.197 507.6C725.984 508.387 726.597 509.36 727.037 510.52C727.477 511.667 727.697 512.98 727.697 514.46C727.697 514.833 727.677 515.147 727.637 515.4C727.61 515.64 727.55 515.833 727.457 515.98C727.377 516.113 727.264 516.213 727.117 516.28C726.97 516.333 726.784 516.36 726.557 516.36H713.877C714.024 518.467 714.59 520.013 715.577 521C716.564 521.987 717.87 522.48 719.497 522.48C720.297 522.48 720.984 522.387 721.557 522.2C722.144 522.013 722.65 521.807 723.077 521.58C723.517 521.353 723.897 521.147 724.217 520.96C724.55 520.773 724.87 520.68 725.177 520.68C725.377 520.68 725.55 520.72 725.697 520.8C725.844 520.88 725.97 520.993 726.077 521.14L727.517 522.94C726.97 523.58 726.357 524.12 725.677 524.56C724.997 524.987 724.284 525.333 723.537 525.6C722.804 525.853 722.05 526.033 721.277 526.14C720.517 526.247 719.777 526.3 719.057 526.3C717.63 526.3 716.304 526.067 715.077 525.6C713.85 525.12 712.784 524.42 711.877 523.5C710.97 522.567 710.257 521.42 709.737 520.06C709.217 518.687 708.957 517.1 708.957 515.3C708.957 513.9 709.184 512.587 709.637 511.36C710.09 510.12 710.737 509.047 711.577 508.14C712.43 507.22 713.464 506.493 714.677 505.96C715.904 505.427 717.284 505.16 718.817 505.16ZM718.917 508.7C717.477 508.7 716.35 509.107 715.537 509.92C714.724 510.733 714.204 511.887 713.977 513.38H723.257C723.257 512.74 723.17 512.14 722.997 511.58C722.824 511.007 722.557 510.507 722.197 510.08C721.837 509.653 721.384 509.32 720.837 509.08C720.29 508.827 719.65 508.7 718.917 508.7ZM744.684 509.48C744.551 509.693 744.411 509.847 744.264 509.94C744.117 510.02 743.931 510.06 743.704 510.06C743.464 510.06 743.204 509.993 742.924 509.86C742.657 509.727 742.344 509.58 741.984 509.42C741.624 509.247 741.211 509.093 740.744 508.96C740.291 508.827 739.751 508.76 739.124 508.76C738.151 508.76 737.384 508.967 736.824 509.38C736.264 509.793 735.984 510.333 735.984 511C735.984 511.44 736.124 511.813 736.404 512.12C736.697 512.413 737.077 512.673 737.544 512.9C738.024 513.127 738.564 513.333 739.164 513.52C739.764 513.693 740.377 513.887 741.004 514.1C741.631 514.313 742.244 514.56 742.844 514.84C743.444 515.107 743.977 515.453 744.444 515.88C744.924 516.293 745.304 516.793 745.584 517.38C745.877 517.967 746.024 518.673 746.024 519.5C746.024 520.487 745.844 521.4 745.484 522.24C745.124 523.067 744.597 523.787 743.904 524.4C743.211 525 742.351 525.473 741.324 525.82C740.311 526.153 739.144 526.32 737.824 526.32C737.117 526.32 736.424 526.253 735.744 526.12C735.077 526 734.431 525.827 733.804 525.6C733.191 525.373 732.617 525.107 732.084 524.8C731.564 524.493 731.104 524.16 730.704 523.8L731.844 521.92C731.991 521.693 732.164 521.52 732.364 521.4C732.564 521.28 732.817 521.22 733.124 521.22C733.431 521.22 733.717 521.307 733.984 521.48C734.264 521.653 734.584 521.84 734.944 522.04C735.304 522.24 735.724 522.427 736.204 522.6C736.697 522.773 737.317 522.86 738.064 522.86C738.651 522.86 739.151 522.793 739.564 522.66C739.991 522.513 740.337 522.327 740.604 522.1C740.884 521.873 741.084 521.613 741.204 521.32C741.337 521.013 741.404 520.7 741.404 520.38C741.404 519.9 741.257 519.507 740.964 519.2C740.684 518.893 740.304 518.627 739.824 518.4C739.357 518.173 738.817 517.973 738.204 517.8C737.604 517.613 736.984 517.413 736.344 517.2C735.717 516.987 735.097 516.74 734.484 516.46C733.884 516.167 733.344 515.8 732.864 515.36C732.397 514.92 732.017 514.38 731.724 513.74C731.444 513.1 731.304 512.327 731.304 511.42C731.304 510.58 731.471 509.78 731.804 509.02C732.137 508.26 732.624 507.6 733.264 507.04C733.917 506.467 734.724 506.013 735.684 505.68C736.657 505.333 737.777 505.16 739.044 505.16C740.457 505.16 741.744 505.393 742.904 505.86C744.064 506.327 745.031 506.94 745.804 507.7L744.684 509.48Z" fill="white"/>
</g>
<g id="Group 10">
<rect id="Rectangle 37" x="0.5" y="375.5" width="454" height="100" rx="39.5" fill="white" stroke="black"/>
<path id="Copy Form Link" d="M121.8 435.18C122.093 435.18 122.347 435.293 122.56 435.52L124.68 437.82C123.507 439.273 122.06 440.387 120.34 441.16C118.633 441.933 116.58 442.32 114.18 442.32C112.033 442.32 110.1 441.953 108.38 441.22C106.673 440.487 105.213 439.467 104 438.16C102.787 436.853 101.853 435.293 101.2 433.48C100.56 431.667 100.24 429.687 100.24 427.54C100.24 425.367 100.6 423.38 101.32 421.58C102.04 419.767 103.053 418.207 104.36 416.9C105.667 415.593 107.227 414.58 109.04 413.86C110.867 413.127 112.88 412.76 115.08 412.76C117.227 412.76 119.1 413.107 120.7 413.8C122.313 414.48 123.693 415.387 124.84 416.52L123.04 419.02C122.933 419.18 122.793 419.32 122.62 419.44C122.46 419.56 122.233 419.62 121.94 419.62C121.633 419.62 121.32 419.5 121 419.26C120.68 419.02 120.273 418.76 119.78 418.48C119.287 418.2 118.66 417.94 117.9 417.7C117.153 417.46 116.2 417.34 115.04 417.34C113.68 417.34 112.427 417.58 111.28 418.06C110.147 418.527 109.167 419.2 108.34 420.08C107.527 420.96 106.887 422.033 106.42 423.3C105.967 424.553 105.74 425.967 105.74 427.54C105.74 429.167 105.967 430.613 106.42 431.88C106.887 433.147 107.513 434.213 108.3 435.08C109.087 435.947 110.013 436.613 111.08 437.08C112.147 437.533 113.293 437.76 114.52 437.76C115.253 437.76 115.913 437.72 116.5 437.64C117.1 437.56 117.647 437.433 118.14 437.26C118.647 437.087 119.12 436.867 119.56 436.6C120.013 436.32 120.46 435.98 120.9 435.58C121.033 435.46 121.173 435.367 121.32 435.3C121.467 435.22 121.627 435.18 121.8 435.18ZM138.036 421.16C139.569 421.16 140.956 421.407 142.196 421.9C143.449 422.393 144.516 423.093 145.396 424C146.276 424.907 146.956 426.013 147.436 427.32C147.916 428.627 148.156 430.087 148.156 431.7C148.156 433.327 147.916 434.793 147.436 436.1C146.956 437.407 146.276 438.52 145.396 439.44C144.516 440.36 143.449 441.067 142.196 441.56C140.956 442.053 139.569 442.3 138.036 442.3C136.503 442.3 135.109 442.053 133.856 441.56C132.603 441.067 131.529 440.36 130.636 439.44C129.756 438.52 129.069 437.407 128.576 436.1C128.096 434.793 127.856 433.327 127.856 431.7C127.856 430.087 128.096 428.627 128.576 427.32C129.069 426.013 129.756 424.907 130.636 424C131.529 423.093 132.603 422.393 133.856 421.9C135.109 421.407 136.503 421.16 138.036 421.16ZM138.036 438.5C139.743 438.5 141.003 437.927 141.816 436.78C142.643 435.633 143.056 433.953 143.056 431.74C143.056 429.527 142.643 427.84 141.816 426.68C141.003 425.52 139.743 424.94 138.036 424.94C136.303 424.94 135.023 425.527 134.196 426.7C133.369 427.86 132.956 429.54 132.956 431.74C132.956 433.94 133.369 435.62 134.196 436.78C135.023 437.927 136.303 438.5 138.036 438.5ZM152.81 448.7V421.48H155.83C156.15 421.48 156.424 421.553 156.65 421.7C156.877 421.847 157.024 422.073 157.09 422.38L157.49 424.28C158.317 423.333 159.264 422.567 160.33 421.98C161.41 421.393 162.67 421.1 164.11 421.1C165.23 421.1 166.25 421.333 167.17 421.8C168.104 422.267 168.904 422.947 169.57 423.84C170.25 424.72 170.77 425.813 171.13 427.12C171.504 428.413 171.69 429.9 171.69 431.58C171.69 433.113 171.484 434.533 171.07 435.84C170.657 437.147 170.064 438.28 169.29 439.24C168.53 440.2 167.604 440.953 166.51 441.5C165.43 442.033 164.217 442.3 162.87 442.3C161.71 442.3 160.724 442.127 159.91 441.78C159.11 441.42 158.39 440.927 157.75 440.3V448.7H152.81ZM162.41 425C161.384 425 160.504 425.22 159.77 425.66C159.05 426.087 158.377 426.693 157.75 427.48V436.68C158.31 437.373 158.917 437.86 159.57 438.14C160.237 438.407 160.95 438.54 161.71 438.54C162.457 438.54 163.13 438.4 163.73 438.12C164.344 437.84 164.857 437.413 165.27 436.84C165.697 436.267 166.024 435.547 166.25 434.68C166.477 433.8 166.59 432.767 166.59 431.58C166.59 430.38 166.49 429.367 166.29 428.54C166.104 427.7 165.83 427.02 165.47 426.5C165.11 425.98 164.67 425.6 164.15 425.36C163.644 425.12 163.064 425 162.41 425ZM182.843 447.64C182.697 447.987 182.503 448.247 182.263 448.42C182.037 448.607 181.683 448.7 181.203 448.7H177.523L181.363 440.48L173.063 421.48H177.383C177.783 421.48 178.09 421.573 178.303 421.76C178.517 421.947 178.677 422.16 178.783 422.4L183.163 433.04C183.31 433.387 183.437 433.747 183.543 434.12C183.65 434.493 183.743 434.867 183.823 435.24C183.93 434.853 184.043 434.48 184.163 434.12C184.297 433.76 184.437 433.393 184.583 433.02L188.703 422.4C188.81 422.133 188.983 421.913 189.223 421.74C189.477 421.567 189.757 421.48 190.063 421.48H194.023L182.843 447.64ZM224.746 413.08V417.36H211.926V425.92H222.746V430.22H211.926V442H206.506V413.08H224.746ZM236.958 421.16C238.491 421.16 239.878 421.407 241.118 421.9C242.371 422.393 243.438 423.093 244.318 424C245.198 424.907 245.878 426.013 246.358 427.32C246.838 428.627 247.078 430.087 247.078 431.7C247.078 433.327 246.838 434.793 246.358 436.1C245.878 437.407 245.198 438.52 244.318 439.44C243.438 440.36 242.371 441.067 241.118 441.56C239.878 442.053 238.491 442.3 236.958 442.3C235.424 442.3 234.031 442.053 232.778 441.56C231.524 441.067 230.451 440.36 229.558 439.44C228.678 438.52 227.991 437.407 227.498 436.1C227.018 434.793 226.778 433.327 226.778 431.7C226.778 430.087 227.018 428.627 227.498 427.32C227.991 426.013 228.678 424.907 229.558 424C230.451 423.093 231.524 422.393 232.778 421.9C234.031 421.407 235.424 421.16 236.958 421.16ZM236.958 438.5C238.664 438.5 239.924 437.927 240.738 436.78C241.564 435.633 241.978 433.953 241.978 431.74C241.978 429.527 241.564 427.84 240.738 426.68C239.924 425.52 238.664 424.94 236.958 424.94C235.224 424.94 233.944 425.527 233.118 426.7C232.291 427.86 231.878 429.54 231.878 431.74C231.878 433.94 232.291 435.62 233.118 436.78C233.944 437.927 235.224 438.5 236.958 438.5ZM251.732 442V421.48H254.632C255.139 421.48 255.492 421.573 255.692 421.76C255.892 421.947 256.026 422.267 256.092 422.72L256.392 425.2C257.126 423.933 257.986 422.933 258.972 422.2C259.959 421.467 261.066 421.1 262.292 421.1C263.306 421.1 264.146 421.333 264.812 421.8L264.172 425.5C264.132 425.74 264.046 425.913 263.912 426.02C263.779 426.113 263.599 426.16 263.372 426.16C263.172 426.16 262.899 426.113 262.552 426.02C262.206 425.927 261.746 425.88 261.172 425.88C260.146 425.88 259.266 426.167 258.532 426.74C257.799 427.3 257.179 428.127 256.672 429.22V442H251.732ZM268.86 442V421.48H271.88C272.52 421.48 272.94 421.78 273.14 422.38L273.46 423.9C273.82 423.5 274.194 423.133 274.58 422.8C274.98 422.467 275.4 422.18 275.84 421.94C276.294 421.7 276.774 421.513 277.28 421.38C277.8 421.233 278.367 421.16 278.98 421.16C280.274 421.16 281.334 421.513 282.16 422.22C283 422.913 283.627 423.84 284.04 425C284.36 424.32 284.76 423.74 285.24 423.26C285.72 422.767 286.247 422.367 286.82 422.06C287.394 421.753 288 421.527 288.64 421.38C289.294 421.233 289.947 421.16 290.6 421.16C291.734 421.16 292.74 421.333 293.62 421.68C294.5 422.027 295.24 422.533 295.84 423.2C296.44 423.867 296.894 424.68 297.2 425.64C297.52 426.6 297.68 427.7 297.68 428.94V442H292.74V428.94C292.74 427.633 292.454 426.653 291.88 426C291.307 425.333 290.467 425 289.36 425C288.854 425 288.38 425.087 287.94 425.26C287.514 425.433 287.134 425.687 286.8 426.02C286.48 426.34 286.227 426.747 286.04 427.24C285.854 427.733 285.76 428.3 285.76 428.94V442H280.8V428.94C280.8 427.567 280.52 426.567 279.96 425.94C279.414 425.313 278.6 425 277.52 425C276.814 425 276.147 425.18 275.52 425.54C274.907 425.887 274.334 426.367 273.8 426.98V442H268.86ZM317.527 437.56H329.107V442H312.147V413.08H317.527V437.56ZM338.591 421.48V442H333.651V421.48H338.591ZM339.331 415.5C339.331 415.927 339.244 416.327 339.071 416.7C338.897 417.073 338.664 417.4 338.371 417.68C338.091 417.96 337.757 418.187 337.371 418.36C336.984 418.52 336.571 418.6 336.131 418.6C335.704 418.6 335.297 418.52 334.911 418.36C334.537 418.187 334.211 417.96 333.931 417.68C333.651 417.4 333.424 417.073 333.251 416.7C333.091 416.327 333.011 415.927 333.011 415.5C333.011 415.06 333.091 414.647 333.251 414.26C333.424 413.873 333.651 413.54 333.931 413.26C334.211 412.98 334.537 412.76 334.911 412.6C335.297 412.427 335.704 412.34 336.131 412.34C336.571 412.34 336.984 412.427 337.371 412.6C337.757 412.76 338.091 412.98 338.371 413.26C338.664 413.54 338.897 413.873 339.071 414.26C339.244 414.647 339.331 415.06 339.331 415.5ZM344.99 442V421.48H348.01C348.65 421.48 349.07 421.78 349.27 422.38L349.61 424C350.023 423.573 350.457 423.187 350.91 422.84C351.377 422.493 351.863 422.193 352.37 421.94C352.89 421.687 353.443 421.493 354.03 421.36C354.617 421.227 355.257 421.16 355.95 421.16C357.07 421.16 358.063 421.353 358.93 421.74C359.797 422.113 360.517 422.647 361.09 423.34C361.677 424.02 362.117 424.84 362.41 425.8C362.717 426.747 362.87 427.793 362.87 428.94V442H357.93V428.94C357.93 427.687 357.637 426.72 357.05 426.04C356.477 425.347 355.61 425 354.45 425C353.597 425 352.797 425.193 352.05 425.58C351.303 425.967 350.597 426.493 349.93 427.16V442H344.99ZM373.524 412.28V429.3H374.444C374.778 429.3 375.038 429.253 375.224 429.16C375.411 429.067 375.611 428.893 375.824 428.64L380.924 422.34C381.151 422.073 381.391 421.867 381.644 421.72C381.898 421.56 382.231 421.48 382.644 421.48H387.164L380.784 429.1C380.558 429.38 380.324 429.64 380.084 429.88C379.844 430.107 379.584 430.307 379.304 430.48C379.584 430.68 379.831 430.913 380.044 431.18C380.258 431.447 380.471 431.733 380.684 432.04L387.524 442H383.064C382.678 442 382.351 441.933 382.084 441.8C381.818 441.667 381.578 441.44 381.364 441.12L376.144 433.34C375.944 433.033 375.744 432.833 375.544 432.74C375.344 432.647 375.044 432.6 374.644 432.6H373.524V442H368.584V412.28H373.524Z" fill="black"/>
<g id="Group">
<path id="Vector" d="M57.0713 427.929C59.427 431.249 64.3837 430.666 66.8123 427.929L71.6427 423.072C74.3724 420.089 74.4696 416.238 71.6427 413.357C68.8839 410.548 64.6873 410.548 61.9284 413.357L57.0713 418.215" stroke="black" stroke-linecap="round" stroke-linejoin="round"/>
<path id="Vector_2" d="M61.9287 425.671C59.573 422.351 54.643 422.764 52.2145 425.501L47.3573 430.297C44.6276 433.279 44.5305 437.192 47.3573 440.072C50.1162 442.882 54.3127 442.882 57.0716 440.072L61.9287 435.215" stroke="black" stroke-linecap="round" stroke-linejoin="round"/>
</g>
</g>
<g id="Group 12">
<rect id="Rectangle 37_2" x="318.5" y="0.5" width="454" height="100" rx="39.5" fill="white" stroke="black"/>
<path id="Send Mail(s)" d="M472.42 43.34C472.273 43.6333 472.1 43.84 471.9 43.96C471.713 44.08 471.487 44.14 471.22 44.14C470.953 44.14 470.653 44.04 470.32 43.84C469.987 43.6267 469.593 43.3933 469.14 43.14C468.687 42.8867 468.153 42.66 467.54 42.46C466.94 42.2467 466.227 42.14 465.4 42.14C464.653 42.14 464 42.2333 463.44 42.42C462.893 42.5933 462.427 42.84 462.04 43.16C461.667 43.48 461.387 43.8667 461.2 44.32C461.013 44.76 460.92 45.2467 460.92 45.78C460.92 46.46 461.107 47.0267 461.48 47.48C461.867 47.9333 462.373 48.32 463 48.64C463.627 48.96 464.34 49.2467 465.14 49.5C465.94 49.7533 466.753 50.0267 467.58 50.32C468.42 50.6 469.24 50.9333 470.04 51.32C470.84 51.6933 471.553 52.1733 472.18 52.76C472.807 53.3333 473.307 54.04 473.68 54.88C474.067 55.72 474.26 56.74 474.26 57.94C474.26 59.2467 474.033 60.4733 473.58 61.62C473.14 62.7533 472.487 63.7467 471.62 64.6C470.767 65.44 469.72 66.1067 468.48 66.6C467.24 67.08 465.82 67.32 464.22 67.32C463.3 67.32 462.393 67.2267 461.5 67.04C460.607 66.8667 459.747 66.6133 458.92 66.28C458.107 65.9467 457.34 65.5467 456.62 65.08C455.913 64.6133 455.28 64.0933 454.72 63.52L456.28 60.94C456.427 60.7533 456.6 60.6 456.8 60.48C457.013 60.3467 457.247 60.28 457.5 60.28C457.833 60.28 458.193 60.42 458.58 60.7C458.967 60.9667 459.42 61.2667 459.94 61.6C460.473 61.9333 461.093 62.24 461.8 62.52C462.52 62.7867 463.38 62.92 464.38 62.92C465.913 62.92 467.1 62.56 467.94 61.84C468.78 61.1067 469.2 60.06 469.2 58.7C469.2 57.94 469.007 57.32 468.62 56.84C468.247 56.36 467.747 55.96 467.12 55.64C466.493 55.3067 465.78 55.0267 464.98 54.8C464.18 54.5733 463.367 54.3267 462.54 54.06C461.713 53.7933 460.9 53.4733 460.1 53.1C459.3 52.7267 458.587 52.24 457.96 51.64C457.333 51.04 456.827 50.2933 456.44 49.4C456.067 48.4933 455.88 47.38 455.88 46.06C455.88 45.0067 456.087 43.98 456.5 42.98C456.927 41.98 457.54 41.0933 458.34 40.32C459.153 39.5467 460.147 38.9267 461.32 38.46C462.493 37.9933 463.833 37.76 465.34 37.76C467.047 37.76 468.62 38.0267 470.06 38.56C471.5 39.0933 472.727 39.84 473.74 40.8L472.42 43.34ZM487.365 46.16C488.659 46.16 489.845 46.3667 490.925 46.78C492.019 47.1933 492.959 47.8 493.745 48.6C494.532 49.3867 495.145 50.36 495.585 51.52C496.025 52.6667 496.245 53.98 496.245 55.46C496.245 55.8333 496.225 56.1467 496.185 56.4C496.159 56.64 496.099 56.8333 496.005 56.98C495.925 57.1133 495.812 57.2133 495.665 57.28C495.519 57.3333 495.332 57.36 495.105 57.36H482.425C482.572 59.4667 483.139 61.0133 484.125 62C485.112 62.9867 486.419 63.48 488.045 63.48C488.845 63.48 489.532 63.3867 490.105 63.2C490.692 63.0133 491.199 62.8067 491.625 62.58C492.065 62.3533 492.445 62.1467 492.765 61.96C493.099 61.7733 493.419 61.68 493.725 61.68C493.925 61.68 494.099 61.72 494.245 61.8C494.392 61.88 494.519 61.9933 494.625 62.14L496.065 63.94C495.519 64.58 494.905 65.12 494.225 65.56C493.545 65.9867 492.832 66.3333 492.085 66.6C491.352 66.8533 490.599 67.0333 489.825 67.14C489.065 67.2467 488.325 67.3 487.605 67.3C486.179 67.3 484.852 67.0667 483.625 66.6C482.399 66.12 481.332 65.42 480.425 64.5C479.519 63.5667 478.805 62.42 478.285 61.06C477.765 59.6867 477.505 58.1 477.505 56.3C477.505 54.9 477.732 53.5867 478.185 52.36C478.639 51.12 479.285 50.0467 480.125 49.14C480.979 48.22 482.012 47.4933 483.225 46.96C484.452 46.4267 485.832 46.16 487.365 46.16ZM487.465 49.7C486.025 49.7 484.899 50.1067 484.085 50.92C483.272 51.7333 482.752 52.8867 482.525 54.38H491.805C491.805 53.74 491.719 53.14 491.545 52.58C491.372 52.0067 491.105 51.5067 490.745 51.08C490.385 50.6533 489.932 50.32 489.385 50.08C488.839 49.8267 488.199 49.7 487.465 49.7ZM501.052 67V46.48H504.072C504.712 46.48 505.132 46.78 505.332 47.38L505.672 49C506.086 48.5733 506.519 48.1867 506.972 47.84C507.439 47.4933 507.926 47.1933 508.432 46.94C508.952 46.6867 509.506 46.4933 510.092 46.36C510.679 46.2267 511.319 46.16 512.012 46.16C513.132 46.16 514.126 46.3533 514.992 46.74C515.859 47.1133 516.579 47.6467 517.152 48.34C517.739 49.02 518.179 49.84 518.472 50.8C518.779 51.7467 518.932 52.7933 518.932 53.94V67H513.992V53.94C513.992 52.6867 513.699 51.72 513.112 51.04C512.539 50.3467 511.672 50 510.512 50C509.659 50 508.859 50.1933 508.112 50.58C507.366 50.9667 506.659 51.4933 505.992 52.16V67H501.052ZM539.027 67C538.387 67 537.967 66.7 537.767 66.1L537.367 64.12C536.94 64.6 536.494 65.0333 536.027 65.42C535.56 65.8067 535.054 66.14 534.507 66.42C533.974 66.7 533.394 66.9133 532.767 67.06C532.154 67.22 531.487 67.3 530.767 67.3C529.647 67.3 528.62 67.0667 527.687 66.6C526.754 66.1333 525.947 65.46 525.267 64.58C524.6 63.6867 524.08 62.5867 523.707 61.28C523.347 59.9733 523.167 58.48 523.167 56.8C523.167 55.28 523.374 53.8667 523.787 52.56C524.2 51.2533 524.794 50.12 525.567 49.16C526.34 48.2 527.267 47.4533 528.347 46.92C529.427 46.3733 530.64 46.1 531.987 46.1C533.134 46.1 534.114 46.2867 534.927 46.66C535.74 47.02 536.467 47.5067 537.107 48.12V37.28H542.047V67H539.027ZM532.447 63.38C533.474 63.38 534.347 63.1667 535.067 62.74C535.787 62.3133 536.467 61.7067 537.107 60.92V51.72C536.547 51.04 535.934 50.56 535.267 50.28C534.614 50 533.907 49.86 533.147 49.86C532.4 49.86 531.72 50 531.107 50.28C530.507 50.56 529.994 50.9867 529.567 51.56C529.154 52.12 528.834 52.84 528.607 53.72C528.38 54.5867 528.267 55.6133 528.267 56.8C528.267 58 528.36 59.02 528.547 59.86C528.747 60.6867 529.027 61.3667 529.387 61.9C529.747 62.42 530.187 62.8 530.707 63.04C531.227 63.2667 531.807 63.38 532.447 63.38ZM571.534 55C571.76 55.4267 571.967 55.8733 572.154 56.34C572.354 56.7933 572.547 57.2533 572.734 57.72C572.92 57.24 573.114 56.7667 573.314 56.3C573.514 55.8333 573.727 55.3867 573.954 54.96L582.514 38.94C582.62 38.74 582.727 38.58 582.834 38.46C582.954 38.34 583.08 38.2533 583.214 38.2C583.36 38.1467 583.52 38.1133 583.694 38.1C583.867 38.0867 584.074 38.08 584.314 38.08H588.374V67H583.634V48.32C583.634 47.9733 583.64 47.5933 583.654 47.18C583.68 46.7667 583.714 46.3467 583.754 45.92L575.014 62.32C574.814 62.6933 574.554 62.9867 574.234 63.2C573.914 63.4 573.54 63.5 573.114 63.5H572.374C571.947 63.5 571.574 63.4 571.254 63.2C570.934 62.9867 570.674 62.6933 570.474 62.32L561.614 45.86C561.667 46.3 561.7 46.7333 561.714 47.16C561.74 47.5733 561.754 47.96 561.754 48.32V67H557.014V38.08H561.074C561.314 38.08 561.52 38.0867 561.694 38.1C561.867 38.1133 562.02 38.1467 562.154 38.2C562.3 38.2533 562.434 38.34 562.554 38.46C562.674 38.58 562.787 38.74 562.894 38.94L571.534 55ZM610.801 67H608.581C608.115 67 607.748 66.9333 607.481 66.8C607.215 66.6533 607.015 66.3667 606.881 65.94L606.441 64.48C605.921 64.9467 605.408 65.36 604.901 65.72C604.408 66.0667 603.895 66.36 603.361 66.6C602.828 66.84 602.261 67.02 601.661 67.14C601.061 67.26 600.395 67.32 599.661 67.32C598.795 67.32 597.995 67.2067 597.261 66.98C596.528 66.74 595.895 66.3867 595.361 65.92C594.841 65.4533 594.435 64.8733 594.141 64.18C593.848 63.4867 593.701 62.68 593.701 61.76C593.701 60.9867 593.901 60.2267 594.301 59.48C594.715 58.72 595.395 58.04 596.341 57.44C597.288 56.8267 598.548 56.32 600.121 55.92C601.695 55.52 603.648 55.2933 605.981 55.24V54.04C605.981 52.6667 605.688 51.6533 605.101 51C604.528 50.3333 603.688 50 602.581 50C601.781 50 601.115 50.0933 600.581 50.28C600.048 50.4667 599.581 50.68 599.181 50.92C598.795 51.1467 598.435 51.3533 598.101 51.54C597.768 51.7267 597.401 51.82 597.001 51.82C596.668 51.82 596.381 51.7333 596.141 51.56C595.901 51.3867 595.708 51.1733 595.561 50.92L594.661 49.34C597.021 47.18 599.868 46.1 603.201 46.1C604.401 46.1 605.468 46.3 606.401 46.7C607.348 47.0867 608.148 47.6333 608.801 48.34C609.455 49.0333 609.948 49.8667 610.281 50.84C610.628 51.8133 610.801 52.88 610.801 54.04V67ZM601.201 63.92C601.708 63.92 602.175 63.8733 602.601 63.78C603.028 63.6867 603.428 63.5467 603.801 63.36C604.188 63.1733 604.555 62.9467 604.901 62.68C605.261 62.4 605.621 62.0733 605.981 61.7V58.24C604.541 58.3067 603.335 58.4333 602.361 58.62C601.401 58.7933 600.628 59.02 600.041 59.3C599.455 59.58 599.035 59.9067 598.781 60.28C598.541 60.6533 598.421 61.06 598.421 61.5C598.421 62.3667 598.675 62.9867 599.181 63.36C599.701 63.7333 600.375 63.92 601.201 63.92ZM621.719 46.48V67H616.779V46.48H621.719ZM622.459 40.5C622.459 40.9267 622.372 41.3267 622.199 41.7C622.025 42.0733 621.792 42.4 621.499 42.68C621.219 42.96 620.885 43.1867 620.499 43.36C620.112 43.52 619.699 43.6 619.259 43.6C618.832 43.6 618.425 43.52 618.039 43.36C617.665 43.1867 617.339 42.96 617.059 42.68C616.779 42.4 616.552 42.0733 616.379 41.7C616.219 41.3267 616.139 40.9267 616.139 40.5C616.139 40.06 616.219 39.6467 616.379 39.26C616.552 38.8733 616.779 38.54 617.059 38.26C617.339 37.98 617.665 37.76 618.039 37.6C618.425 37.4267 618.832 37.34 619.259 37.34C619.699 37.34 620.112 37.4267 620.499 37.6C620.885 37.76 621.219 37.98 621.499 38.26C621.792 38.54 622.025 38.8733 622.199 39.26C622.372 39.6467 622.459 40.06 622.459 40.5ZM633.378 37.28V67H628.438V37.28H633.378ZM643.537 54.46C643.537 57.2067 643.871 59.9067 644.537 62.56C645.204 65.2133 646.157 67.7067 647.397 70.04C647.491 70.2133 647.551 70.3733 647.577 70.52C647.617 70.6667 647.637 70.8 647.637 70.92C647.637 71.1867 647.571 71.4 647.437 71.56C647.304 71.7333 647.144 71.8733 646.957 71.98L644.757 73.32C643.771 71.8 642.931 70.2733 642.237 68.74C641.544 67.2067 640.977 65.66 640.537 64.1C640.097 62.54 639.771 60.96 639.557 59.36C639.357 57.76 639.257 56.1267 639.257 54.46C639.257 52.7933 639.357 51.16 639.557 49.56C639.771 47.9467 640.097 46.36 640.537 44.8C640.977 43.24 641.544 41.7 642.237 40.18C642.931 38.6467 643.771 37.12 644.757 35.6L646.957 36.92C647.144 37.0267 647.304 37.1667 647.437 37.34C647.571 37.5 647.637 37.7067 647.637 37.96C647.637 38.2133 647.551 38.5133 647.377 38.86C646.151 41.1933 645.204 43.6933 644.537 46.36C643.871 49.0133 643.537 51.7133 643.537 54.46ZM664.75 50.48C664.616 50.6933 664.476 50.8467 664.33 50.94C664.183 51.02 663.996 51.06 663.77 51.06C663.53 51.06 663.27 50.9933 662.99 50.86C662.723 50.7267 662.41 50.58 662.05 50.42C661.69 50.2467 661.276 50.0933 660.81 49.96C660.356 49.8267 659.816 49.76 659.19 49.76C658.216 49.76 657.45 49.9667 656.89 50.38C656.33 50.7933 656.05 51.3333 656.05 52C656.05 52.44 656.19 52.8133 656.47 53.12C656.763 53.4133 657.143 53.6733 657.61 53.9C658.09 54.1267 658.63 54.3333 659.23 54.52C659.83 54.6933 660.443 54.8867 661.07 55.1C661.696 55.3133 662.31 55.56 662.91 55.84C663.51 56.1067 664.043 56.4533 664.51 56.88C664.99 57.2933 665.37 57.7933 665.65 58.38C665.943 58.9667 666.09 59.6733 666.09 60.5C666.09 61.4867 665.91 62.4 665.55 63.24C665.19 64.0667 664.663 64.7867 663.97 65.4C663.276 66 662.416 66.4733 661.39 66.82C660.376 67.1533 659.21 67.32 657.89 67.32C657.183 67.32 656.49 67.2533 655.81 67.12C655.143 67 654.496 66.8267 653.87 66.6C653.256 66.3733 652.683 66.1067 652.15 65.8C651.63 65.4933 651.17 65.16 650.77 64.8L651.91 62.92C652.056 62.6933 652.23 62.52 652.43 62.4C652.63 62.28 652.883 62.22 653.19 62.22C653.496 62.22 653.783 62.3067 654.05 62.48C654.33 62.6533 654.65 62.84 655.01 63.04C655.37 63.24 655.79 63.4267 656.27 63.6C656.763 63.7733 657.383 63.86 658.13 63.86C658.716 63.86 659.216 63.7933 659.63 63.66C660.056 63.5133 660.403 63.3267 660.67 63.1C660.95 62.8733 661.15 62.6133 661.27 62.32C661.403 62.0133 661.47 61.7 661.47 61.38C661.47 60.9 661.323 60.5067 661.03 60.2C660.75 59.8933 660.37 59.6267 659.89 59.4C659.423 59.1733 658.883 58.9733 658.27 58.8C657.67 58.6133 657.05 58.4133 656.41 58.2C655.783 57.9867 655.163 57.74 654.55 57.46C653.95 57.1667 653.41 56.8 652.93 56.36C652.463 55.92 652.083 55.38 651.79 54.74C651.51 54.1 651.37 53.3267 651.37 52.42C651.37 51.58 651.536 50.78 651.87 50.02C652.203 49.26 652.69 48.6 653.33 48.04C653.983 47.4667 654.79 47.0133 655.75 46.68C656.723 46.3333 657.843 46.16 659.11 46.16C660.523 46.16 661.81 46.3933 662.97 46.86C664.13 47.3267 665.096 47.94 665.87 48.7L664.75 50.48ZM673.791 54.46C673.791 51.7133 673.457 49.0133 672.791 46.36C672.124 43.6933 671.177 41.1933 669.951 38.86C669.777 38.5133 669.691 38.2133 669.691 37.96C669.691 37.7067 669.757 37.5 669.891 37.34C670.024 37.1667 670.184 37.0267 670.371 36.92L672.571 35.6C673.557 37.12 674.397 38.6467 675.091 40.18C675.784 41.7 676.351 43.24 676.791 44.8C677.231 46.36 677.551 47.9467 677.751 49.56C677.964 51.16 678.071 52.7933 678.071 54.46C678.071 56.1267 677.964 57.76 677.751 59.36C677.551 60.96 677.231 62.54 676.791 64.1C676.351 65.66 675.784 67.2067 675.091 68.74C674.397 70.2733 673.557 71.8 672.571 73.32L670.371 71.98C670.184 71.8733 670.024 71.7333 669.891 71.56C669.757 71.4 669.691 71.1867 669.691 70.92C669.691 70.8 669.704 70.6667 669.731 70.52C669.771 70.3733 669.837 70.2133 669.931 70.04C671.171 67.7067 672.124 65.2133 672.791 62.56C673.457 59.9067 673.791 57.2067 673.791 54.46Z" fill="black"/>
<g id="material-symbols-light:mail-outline-rounded">
<path id="Vector_3" d="M369.04 66.2087C368.138 66.2087 367.385 65.9071 366.782 65.3039C366.179 64.7007 365.876 63.9474 365.875 63.044V41.9567C365.875 41.0545 366.177 40.3019 366.782 39.6987C367.386 39.0955 368.138 38.7933 369.038 38.792H397.962C398.863 38.792 399.615 39.0942 400.218 39.6987C400.821 40.3032 401.124 41.0558 401.125 41.9567V63.0459C401.125 63.9468 400.823 64.6994 400.218 65.3039C399.614 65.9084 398.862 66.21 397.962 66.2087H369.04ZM399.167 42.4835L384.377 52.1655C384.239 52.2373 384.099 52.298 383.958 52.3476C383.816 52.3959 383.663 52.42 383.5 52.42C383.337 52.42 383.184 52.3959 383.042 52.3476C382.899 52.2993 382.76 52.2386 382.623 52.1655L367.833 42.4815V63.044C367.833 63.3965 367.946 63.6857 368.172 63.9115C368.398 64.1374 368.687 64.2503 369.04 64.2503H397.962C398.313 64.2503 398.602 64.1374 398.828 63.9115C399.054 63.6857 399.167 63.3965 399.167 63.044V42.4835ZM383.5 50.542L398.563 40.7503H368.437L383.5 50.542ZM367.833 42.8967V41.3085V41.375V40.7503V41.377V41.2752V42.8967Z" fill="black"/>
</g>
</g>
</g>
</g>
</svg>
