<svg xmlns="http://www.w3.org/2000/svg" xmlns:xlink="http://www.w3.org/1999/xlink" width="450" zoomAndPan="magnify" viewBox="0 0 337.5 149.999998" height="200" preserveAspectRatio="xMidYMid meet" version="1.0"><defs><g/><clipPath id="77ffaf1da3"><path d="M 0 1 L 313 1 L 313 149.886719 L 0 149.886719 Z M 0 1 " clip-rule="nonzero"/></clipPath><clipPath id="751aea109b"><path d="M 174 0.0703125 L 312.738281 0.0703125 L 312.738281 109 L 174 109 Z M 174 0.0703125 " clip-rule="nonzero"/></clipPath><clipPath id="98eb8e69e3"><rect x="0" width="155" y="0" height="123"/></clipPath><clipPath id="f74f3e4bab"><path d="M 0 127 L 309 127 L 309 148.886719 L 0 148.886719 Z M 0 127 " clip-rule="nonzero"/></clipPath><clipPath id="49ba08d30c"><rect x="0" width="309" y="0" height="22"/></clipPath><clipPath id="69e4885254"><rect x="0" width="313" y="0" height="149"/></clipPath></defs><g clip-path="url(#77ffaf1da3)"><g transform="matrix(1, 0, 0, 1, 0, 1)"><g clip-path="url(#69e4885254)"><g clip-path="url(#751aea109b)"><path fill="#00676f" d="M 174.78125 81.738281 C 187.457031 70.441406 212.097656 68.980469 228.550781 70.214844 C 240.394531 71.101562 260.503906 75.546875 266 87.117188 L 307.617188 88.027344 C 313.324219 88.027344 313.511719 98.511719 308.527344 99.453125 L 261.460938 97.71875 C 258.707031 98.253906 258.054688 101.609375 255.613281 103.414062 C 245.699219 110.761719 210.878906 109.363281 198.570312 107.21875 C 183.164062 104.523438 181.714844 98.953125 174.773438 86.160156 L 174.773438 81.722656 Z M 181.875 89.71875 C 181.972656 89.648438 182 88.164062 182.742188 87.507812 C 193.003906 78.535156 227.421875 78.660156 240.421875 81.433594 C 247.945312 83.035156 255.261719 85.648438 259.65625 92.207031 C 272.429688 84.582031 250.796875 76.96875 244.117188 75.082031 C 229.050781 70.832031 191.546875 70.011719 178.90625 80.082031 C 172.484375 85.210938 181.320312 90.140625 181.875 89.71875 Z M 257.445312 93.261719 C 253.679688 85.183594 239.5 82.3125 231.261719 81.703125 C 224.613281 81.210938 185.292969 81.8125 183.675781 89.289062 C 184.683594 92.277344 190.570312 93.039062 193.445312 93.726562 C 207.792969 97.171875 227.199219 97.394531 241.886719 95.929688 C 247.09375 95.410156 252.292969 94.050781 257.453125 93.269531 Z M 309.890625 92.386719 L 307.660156 89.738281 L 265.453125 88.851562 C 264.816406 91.945312 270.550781 90.425781 272.125 91.5 L 309.890625 92.394531 Z M 259.21875 94.164062 C 233.808594 100.085938 204.929688 100.238281 180.113281 91.507812 C 183.601562 101.160156 189.738281 103.953125 199.347656 105.570312 C 211.238281 107.566406 246.941406 109.363281 255.664062 100.820312 C 256.488281 100.015625 259.835938 94.925781 259.207031 94.164062 Z M 309.890625 94.164062 C 294.894531 94.328125 279.917969 93.261719 264.953125 92.332031 C 262.445312 92.152344 261.03125 94.515625 261.015625 96.8125 C 263.324219 96.277344 265.238281 95.792969 267.6875 95.855469 C 279.09375 96.140625 296.03125 98.996094 306.828125 97.742188 C 309.441406 97.441406 310.246094 97.011719 309.890625 94.15625 Z M 210.335938 0.09375 C 213.285156 2.269531 216.085938 3.648438 218.796875 6.285156 C 224.164062 11.511719 250.082031 44.753906 253.160156 50.953125 C 256.578125 57.851562 258.1875 65.519531 248.125 65.832031 C 235.582031 66.21875 214.628906 47.070312 207.292969 37.285156 C 200.769531 28.570312 186.992188 7.671875 200.554688 0.09375 Z M 198.140625 3.898438 C 192.78125 9.265625 200.984375 24.152344 204.285156 29.652344 C 211.148438 41.078125 223.816406 53.273438 235.519531 59.703125 C 245.464844 65.179688 259.933594 68.105469 251.613281 51.625 C 248.492188 45.433594 222.027344 11.894531 216.597656 6.714844 C 212.25 2.5625 202.9375 -0.898438 198.140625 3.898438 Z M 213.539062 36.390625 C 217.949219 41.722656 235.0625 58.074219 241.207031 59.355469 C 244.339844 60.007812 247.808594 59.785156 246.628906 55.742188 C 245.628906 52.289062 240.332031 51.570312 242.34375 54.210938 C 242.496094 54.40625 245.84375 55 244.992188 57.773438 C 240.867188 61.617188 217.589844 38.464844 214.421875 34.609375 C 212.195312 31.90625 209.59375 28.230469 207.839844 25.207031 C 206.246094 22.453125 200.859375 13.238281 202.710938 10.679688 C 204.117188 8.726562 208.484375 11.449219 207.660156 8.085938 C 190.9375 6.519531 209.0625 30.996094 213.527344 36.390625 Z M 213.539062 36.390625 " fill-opacity="1" fill-rule="nonzero"/></g><g transform="matrix(1, 0, 0, 1, 0, 1)"><g clip-path="url(#98eb8e69e3)"><g fill="#000000" fill-opacity="1"><g transform="translate(0.000000000000017823, 50.711965)"><g><path d="M 44.75 -25.640625 L 44.75 -15.703125 C 43.5625 -10.265625 40.96875 -6.148438 36.96875 -3.359375 C 32.976562 -0.566406 28.519531 0.828125 23.59375 0.828125 C 17.414062 0.828125 12.148438 -1.484375 7.796875 -6.109375 C 3.453125 -10.734375 1.28125 -16.320312 1.28125 -22.875 C 1.28125 -29.53125 3.40625 -35.15625 7.65625 -39.75 C 11.914062 -44.34375 17.226562 -46.640625 23.59375 -46.640625 C 31.03125 -46.640625 36.914062 -44.03125 41.25 -38.8125 L 34.421875 -31.3125 C 31.972656 -35.238281 28.566406 -37.203125 24.203125 -37.203125 C 20.984375 -37.203125 18.234375 -35.800781 15.953125 -33 C 13.679688 -30.207031 12.546875 -26.832031 12.546875 -22.875 C 12.546875 -18.988281 13.679688 -15.664062 15.953125 -12.90625 C 18.234375 -10.144531 20.984375 -8.765625 24.203125 -8.765625 C 26.867188 -8.765625 29.191406 -9.566406 31.171875 -11.171875 C 33.148438 -12.785156 34.140625 -14.925781 34.140625 -17.59375 L 23.59375 -17.59375 L 23.59375 -25.640625 Z M 44.75 -25.640625 "/></g></g></g><g fill="#000000" fill-opacity="1"><g transform="translate(43.248995, 50.711965)"><g><path d="M 12.609375 -28.484375 L 12.609375 -14.9375 C 12.609375 -12.125 13.03125 -10.125 13.875 -8.9375 C 14.726562 -7.75 16.171875 -7.15625 18.203125 -7.15625 C 20.242188 -7.15625 21.6875 -7.75 22.53125 -8.9375 C 23.382812 -10.125 23.8125 -12.125 23.8125 -14.9375 L 23.8125 -28.484375 L 33.640625 -28.484375 L 33.640625 -12.546875 C 33.640625 -7.804688 32.410156 -4.390625 29.953125 -2.296875 C 27.492188 -0.210938 23.578125 0.828125 18.203125 0.828125 C 12.835938 0.828125 8.925781 -0.210938 6.46875 -2.296875 C 4.007812 -4.390625 2.78125 -7.804688 2.78125 -12.546875 L 2.78125 -28.484375 Z M 12.609375 -28.484375 "/></g></g></g><g fill="#000000" fill-opacity="1"><g transform="translate(76.893272, 50.711965)"><g><path d="M 32.140625 -12.875 L 11.484375 -12.875 C 11.484375 -10.875 12.128906 -9.394531 13.421875 -8.4375 C 14.722656 -7.476562 16.132812 -7 17.65625 -7 C 19.25 -7 20.503906 -7.207031 21.421875 -7.625 C 22.347656 -8.050781 23.40625 -8.894531 24.59375 -10.15625 L 31.703125 -6.609375 C 28.742188 -1.648438 23.820312 0.828125 16.9375 0.828125 C 12.644531 0.828125 8.960938 -0.640625 5.890625 -3.578125 C 2.816406 -6.523438 1.28125 -10.070312 1.28125 -14.21875 C 1.28125 -18.363281 2.816406 -21.914062 5.890625 -24.875 C 8.960938 -27.832031 12.644531 -29.3125 16.9375 -29.3125 C 21.445312 -29.3125 25.117188 -28.003906 27.953125 -25.390625 C 30.785156 -22.785156 32.203125 -19.0625 32.203125 -14.21875 C 32.203125 -13.550781 32.179688 -13.101562 32.140625 -12.875 Z M 11.765625 -18.3125 L 22.59375 -18.3125 C 22.375 -19.800781 21.789062 -20.941406 20.84375 -21.734375 C 19.90625 -22.523438 18.691406 -22.921875 17.203125 -22.921875 C 15.578125 -22.921875 14.28125 -22.492188 13.3125 -21.640625 C 12.351562 -20.796875 11.835938 -19.6875 11.765625 -18.3125 Z M 11.765625 -18.3125 "/></g></g></g><g fill="#000000" fill-opacity="1"><g transform="translate(107.372986, 50.711965)"><g><path d="M 15.703125 -29.3125 C 17.335938 -29.3125 18.945312 -29.125 20.53125 -28.75 C 22.125 -28.382812 23.3125 -28.015625 24.09375 -27.640625 L 25.265625 -27.09375 L 22.046875 -20.65625 C 19.816406 -21.832031 17.703125 -22.421875 15.703125 -22.421875 C 14.597656 -22.421875 13.8125 -22.300781 13.34375 -22.0625 C 12.882812 -21.820312 12.65625 -21.367188 12.65625 -20.703125 C 12.65625 -20.554688 12.671875 -20.410156 12.703125 -20.265625 C 12.742188 -20.117188 12.820312 -19.976562 12.9375 -19.84375 C 13.050781 -19.71875 13.148438 -19.609375 13.234375 -19.515625 C 13.328125 -19.421875 13.484375 -19.316406 13.703125 -19.203125 C 13.929688 -19.097656 14.109375 -19.015625 14.234375 -18.953125 C 14.367188 -18.898438 14.582031 -18.816406 14.875 -18.703125 C 15.175781 -18.597656 15.398438 -18.515625 15.546875 -18.453125 C 15.691406 -18.398438 15.941406 -18.316406 16.296875 -18.203125 C 16.648438 -18.097656 16.914062 -18.023438 17.09375 -17.984375 C 18.238281 -17.648438 19.238281 -17.28125 20.09375 -16.875 C 20.945312 -16.46875 21.84375 -15.910156 22.78125 -15.203125 C 23.726562 -14.503906 24.460938 -13.617188 24.984375 -12.546875 C 25.503906 -11.472656 25.765625 -10.25 25.765625 -8.875 C 25.765625 -2.40625 21.265625 0.828125 12.265625 0.828125 C 10.234375 0.828125 8.300781 0.515625 6.46875 -0.109375 C 4.632812 -0.742188 3.3125 -1.375 2.5 -2 L 1.28125 -3 L 5.28125 -9.71875 C 5.570312 -9.457031 5.957031 -9.148438 6.4375 -8.796875 C 6.914062 -8.441406 7.785156 -7.957031 9.046875 -7.34375 C 10.304688 -6.738281 11.398438 -6.4375 12.328125 -6.4375 C 14.359375 -6.4375 15.375 -7.125 15.375 -8.5 C 15.375 -9.125 15.113281 -9.613281 14.59375 -9.96875 C 14.082031 -10.320312 13.207031 -10.71875 11.96875 -11.15625 C 10.726562 -11.601562 9.753906 -12.007812 9.046875 -12.375 C 7.273438 -13.300781 5.867188 -14.347656 4.828125 -15.515625 C 3.796875 -16.679688 3.28125 -18.226562 3.28125 -20.15625 C 3.28125 -23.039062 4.398438 -25.285156 6.640625 -26.890625 C 8.878906 -28.503906 11.898438 -29.3125 15.703125 -29.3125 Z M 15.703125 -29.3125 "/></g></g></g><g fill="#000000" fill-opacity="1"><g transform="translate(131.412546, 50.711965)"><g><path d="M 5 -28.484375 L 5 -39.078125 L 14.828125 -39.078125 L 14.828125 -28.484375 L 20.8125 -28.484375 L 20.8125 -20.984375 L 14.828125 -20.984375 L 14.828125 -11.9375 C 14.828125 -9.3125 15.566406 -8 17.046875 -8 C 17.410156 -8 17.796875 -8.070312 18.203125 -8.21875 C 18.609375 -8.363281 18.925781 -8.507812 19.15625 -8.65625 L 19.484375 -8.875 L 21.921875 -0.9375 C 19.816406 0.238281 17.414062 0.828125 14.71875 0.828125 C 12.863281 0.828125 11.269531 0.503906 9.9375 -0.140625 C 8.601562 -0.785156 7.59375 -1.65625 6.90625 -2.75 C 6.226562 -3.84375 5.738281 -4.988281 5.4375 -6.1875 C 5.144531 -7.394531 5 -8.679688 5 -10.046875 L 5 -20.984375 L 0.890625 -20.984375 L 0.890625 -28.484375 Z M 5 -28.484375 "/></g></g></g><g fill="#000000" fill-opacity="1"><g transform="translate(0.000000000000017823, 103.454599)"><g><path d="M 13.765625 -45.796875 L 13.765625 -9.15625 L 29.53125 -9.15625 L 29.53125 0 L 3.328125 0 L 3.328125 -45.796875 Z M 13.765625 -45.796875 "/></g></g></g><g fill="#000000" fill-opacity="1"><g transform="translate(28.59208, 103.454599)"><g><path d="M 4.265625 -44.359375 C 5.421875 -45.503906 6.789062 -46.078125 8.375 -46.078125 C 9.96875 -46.078125 11.335938 -45.503906 12.484375 -44.359375 C 13.640625 -43.210938 14.21875 -41.84375 14.21875 -40.25 C 14.21875 -38.65625 13.640625 -37.285156 12.484375 -36.140625 C 11.335938 -34.992188 9.96875 -34.421875 8.375 -34.421875 C 6.789062 -34.421875 5.421875 -34.992188 4.265625 -36.140625 C 3.117188 -37.285156 2.546875 -38.65625 2.546875 -40.25 C 2.546875 -41.84375 3.117188 -43.210938 4.265625 -44.359375 Z M 3.328125 -28.484375 L 3.328125 0 L 13.15625 0 L 13.15625 -28.484375 Z M 3.328125 -28.484375 "/></g></g></g><g fill="#000000" fill-opacity="1"><g transform="translate(42.582769, 103.454599)"><g><path d="M 15.703125 -29.3125 C 17.335938 -29.3125 18.945312 -29.125 20.53125 -28.75 C 22.125 -28.382812 23.3125 -28.015625 24.09375 -27.640625 L 25.265625 -27.09375 L 22.046875 -20.65625 C 19.816406 -21.832031 17.703125 -22.421875 15.703125 -22.421875 C 14.597656 -22.421875 13.8125 -22.300781 13.34375 -22.0625 C 12.882812 -21.820312 12.65625 -21.367188 12.65625 -20.703125 C 12.65625 -20.554688 12.671875 -20.410156 12.703125 -20.265625 C 12.742188 -20.117188 12.820312 -19.976562 12.9375 -19.84375 C 13.050781 -19.71875 13.148438 -19.609375 13.234375 -19.515625 C 13.328125 -19.421875 13.484375 -19.316406 13.703125 -19.203125 C 13.929688 -19.097656 14.109375 -19.015625 14.234375 -18.953125 C 14.367188 -18.898438 14.582031 -18.816406 14.875 -18.703125 C 15.175781 -18.597656 15.398438 -18.515625 15.546875 -18.453125 C 15.691406 -18.398438 15.941406 -18.316406 16.296875 -18.203125 C 16.648438 -18.097656 16.914062 -18.023438 17.09375 -17.984375 C 18.238281 -17.648438 19.238281 -17.28125 20.09375 -16.875 C 20.945312 -16.46875 21.84375 -15.910156 22.78125 -15.203125 C 23.726562 -14.503906 24.460938 -13.617188 24.984375 -12.546875 C 25.503906 -11.472656 25.765625 -10.25 25.765625 -8.875 C 25.765625 -2.40625 21.265625 0.828125 12.265625 0.828125 C 10.234375 0.828125 8.300781 0.515625 6.46875 -0.109375 C 4.632812 -0.742188 3.3125 -1.375 2.5 -2 L 1.28125 -3 L 5.28125 -9.71875 C 5.570312 -9.457031 5.957031 -9.148438 6.4375 -8.796875 C 6.914062 -8.441406 7.785156 -7.957031 9.046875 -7.34375 C 10.304688 -6.738281 11.398438 -6.4375 12.328125 -6.4375 C 14.359375 -6.4375 15.375 -7.125 15.375 -8.5 C 15.375 -9.125 15.113281 -9.613281 14.59375 -9.96875 C 14.082031 -10.320312 13.207031 -10.71875 11.96875 -11.15625 C 10.726562 -11.601562 9.753906 -12.007812 9.046875 -12.375 C 7.273438 -13.300781 5.867188 -14.347656 4.828125 -15.515625 C 3.796875 -16.679688 3.28125 -18.226562 3.28125 -20.15625 C 3.28125 -23.039062 4.398438 -25.285156 6.640625 -26.890625 C 8.878906 -28.503906 11.898438 -29.3125 15.703125 -29.3125 Z M 15.703125 -29.3125 "/></g></g></g><g fill="#000000" fill-opacity="1"><g transform="translate(66.622328, 103.454599)"><g><path d="M 5 -28.484375 L 5 -39.078125 L 14.828125 -39.078125 L 14.828125 -28.484375 L 20.8125 -28.484375 L 20.8125 -20.984375 L 14.828125 -20.984375 L 14.828125 -11.9375 C 14.828125 -9.3125 15.566406 -8 17.046875 -8 C 17.410156 -8 17.796875 -8.070312 18.203125 -8.21875 C 18.609375 -8.363281 18.925781 -8.507812 19.15625 -8.65625 L 19.484375 -8.875 L 21.921875 -0.9375 C 19.816406 0.238281 17.414062 0.828125 14.71875 0.828125 C 12.863281 0.828125 11.269531 0.503906 9.9375 -0.140625 C 8.601562 -0.785156 7.59375 -1.65625 6.90625 -2.75 C 6.226562 -3.84375 5.738281 -4.988281 5.4375 -6.1875 C 5.144531 -7.394531 5 -8.679688 5 -10.046875 L 5 -20.984375 L 0.890625 -20.984375 L 0.890625 -28.484375 Z M 5 -28.484375 "/></g></g></g></g></g><g clip-path="url(#f74f3e4bab)"><g transform="matrix(1, 0, 0, 1, 0, 127)"><g clip-path="url(#49ba08d30c)"><g fill="#000000" fill-opacity="1"><g transform="translate(0.000000000000017823, 17.118449)"><g><path d="M 8.796875 0 L 4.5625 0 C 4.414062 0 4.34375 -0.0703125 4.34375 -0.21875 L 4.34375 -1.109375 C 4.34375 -1.242188 4.414062 -1.3125 4.5625 -1.3125 L 5.90625 -1.3125 L 5.90625 -5.078125 L 5.203125 -6.296875 C 3.679688 -9.003906 2.703125 -10.675781 2.265625 -11.3125 L 1.078125 -11.3125 C 0.921875 -11.3125 0.84375 -11.382812 0.84375 -11.53125 L 0.84375 -12.421875 C 0.84375 -12.554688 0.921875 -12.625 1.078125 -12.625 L 5.03125 -12.625 C 5.175781 -12.625 5.25 -12.554688 5.25 -12.421875 L 5.25 -11.53125 C 5.25 -11.382812 5.175781 -11.3125 5.03125 -11.3125 L 3.875 -11.3125 L 6.640625 -6.421875 L 6.734375 -6.421875 L 9.484375 -11.3125 L 8.328125 -11.3125 C 8.179688 -11.3125 8.109375 -11.382812 8.109375 -11.53125 L 8.109375 -12.421875 C 8.109375 -12.554688 8.179688 -12.625 8.328125 -12.625 L 12.296875 -12.625 C 12.441406 -12.625 12.515625 -12.554688 12.515625 -12.421875 L 12.515625 -11.53125 C 12.515625 -11.382812 12.441406 -11.3125 12.296875 -11.3125 L 11.078125 -11.3125 C 10.503906 -10.46875 9.753906 -9.222656 8.828125 -7.578125 C 7.910156 -5.941406 7.445312 -5.117188 7.4375 -5.109375 L 7.4375 -1.3125 L 8.796875 -1.3125 C 8.941406 -1.3125 9.015625 -1.242188 9.015625 -1.109375 L 9.015625 -0.21875 C 9.015625 -0.0703125 8.941406 0 8.796875 0 Z M 8.796875 0 "/></g></g></g><g fill="#000000" fill-opacity="1"><g transform="translate(13.143274, 17.118449)"><g><path d="M 13.09375 -6.375 C 13.09375 -4.445312 12.515625 -2.878906 11.359375 -1.671875 C 10.203125 -0.472656 8.742188 0.125 6.984375 0.125 C 5.234375 0.125 3.769531 -0.476562 2.59375 -1.6875 C 1.425781 -2.90625 0.84375 -4.472656 0.84375 -6.390625 C 0.84375 -8.304688 1.445312 -9.84375 2.65625 -11 C 3.863281 -12.15625 5.304688 -12.734375 6.984375 -12.734375 C 8.660156 -12.734375 10.097656 -12.15625 11.296875 -11 C 12.492188 -9.84375 13.09375 -8.300781 13.09375 -6.375 Z M 3.84375 -2.640625 C 4.738281 -1.742188 5.785156 -1.296875 6.984375 -1.296875 C 8.179688 -1.296875 9.222656 -1.742188 10.109375 -2.640625 C 11.003906 -3.546875 11.453125 -4.78125 11.453125 -6.34375 C 11.453125 -7.90625 10.992188 -9.128906 10.078125 -10.015625 C 9.171875 -10.898438 8.140625 -11.34375 6.984375 -11.34375 C 5.828125 -11.34375 4.789062 -10.898438 3.875 -10.015625 C 2.957031 -9.128906 2.5 -7.90625 2.5 -6.34375 C 2.5 -4.78125 2.945312 -3.546875 3.84375 -2.640625 Z M 3.84375 -2.640625 "/></g></g></g><g fill="#000000" fill-opacity="1"><g transform="translate(26.462358, 17.118449)"><g><path d="M 10.375 -4.578125 L 10.375 -11.3125 L 9.03125 -11.3125 C 8.882812 -11.3125 8.8125 -11.382812 8.8125 -11.53125 L 8.8125 -12.421875 C 8.8125 -12.554688 8.882812 -12.625 9.03125 -12.625 L 13.265625 -12.625 C 13.410156 -12.625 13.484375 -12.554688 13.484375 -12.421875 L 13.484375 -11.53125 C 13.484375 -11.382812 13.410156 -11.3125 13.265625 -11.3125 L 11.90625 -11.3125 L 11.90625 -4.734375 C 11.90625 -3.148438 11.492188 -1.941406 10.671875 -1.109375 C 9.847656 -0.285156 8.679688 0.125 7.171875 0.125 C 5.660156 0.125 4.488281 -0.285156 3.65625 -1.109375 C 2.820312 -1.941406 2.40625 -3.148438 2.40625 -4.734375 L 2.40625 -11.3125 L 1.078125 -11.3125 C 0.921875 -11.3125 0.84375 -11.382812 0.84375 -11.53125 L 0.84375 -12.421875 C 0.84375 -12.554688 0.921875 -12.625 1.078125 -12.625 L 5.296875 -12.625 C 5.453125 -12.625 5.53125 -12.554688 5.53125 -12.421875 L 5.53125 -11.53125 C 5.53125 -11.382812 5.453125 -11.3125 5.296875 -11.3125 L 3.9375 -11.3125 L 3.9375 -4.6875 C 3.9375 -2.425781 5.015625 -1.296875 7.171875 -1.296875 C 8.273438 -1.296875 9.082031 -1.585938 9.59375 -2.171875 C 10.113281 -2.753906 10.375 -3.554688 10.375 -4.578125 Z M 10.375 -4.578125 "/></g></g></g><g fill="#000000" fill-opacity="1"><g transform="translate(41.171716, 17.118449)"><g><path d="M 11.53125 0 L 10 0 C 9.570312 0 9.21875 -0.28125 8.9375 -0.84375 L 7.28125 -4.203125 C 7.144531 -4.492188 6.992188 -4.707031 6.828125 -4.84375 C 6.671875 -4.988281 6.453125 -5.066406 6.171875 -5.078125 L 3.9375 -5.078125 L 3.9375 -1.3125 L 5.53125 -1.3125 C 5.664062 -1.3125 5.734375 -1.242188 5.734375 -1.109375 L 5.734375 -0.21875 C 5.734375 -0.0703125 5.664062 0 5.53125 0 L 1.078125 0 C 0.921875 0 0.84375 -0.0703125 0.84375 -0.21875 L 0.84375 -1.109375 C 0.84375 -1.242188 0.921875 -1.3125 1.078125 -1.3125 L 2.40625 -1.3125 L 2.40625 -11.3125 L 1.078125 -11.3125 C 0.921875 -11.3125 0.84375 -11.382812 0.84375 -11.53125 L 0.84375 -12.421875 C 0.84375 -12.554688 0.921875 -12.625 1.078125 -12.625 L 6.484375 -12.625 C 7.742188 -12.625 8.765625 -12.289062 9.546875 -11.625 C 10.335938 -10.96875 10.734375 -10.035156 10.734375 -8.828125 C 10.734375 -6.984375 9.867188 -5.835938 8.140625 -5.390625 C 8.367188 -5.210938 8.644531 -4.816406 8.96875 -4.203125 L 10.453125 -1.3125 L 11.53125 -1.3125 C 11.664062 -1.3125 11.734375 -1.242188 11.734375 -1.109375 L 11.734375 -0.21875 C 11.734375 -0.0703125 11.664062 0 11.53125 0 Z M 3.9375 -6.328125 L 6.1875 -6.328125 C 8.1875 -6.328125 9.1875 -7.144531 9.1875 -8.78125 C 9.1875 -10.46875 8.1875 -11.3125 6.1875 -11.3125 L 3.9375 -11.3125 Z M 3.9375 -6.328125 "/></g></g></g><g fill="#000000" fill-opacity="1"><g transform="translate(54.632005, 17.118449)"><g/></g></g><g fill="#000000" fill-opacity="1"><g transform="translate(61.01929, 17.118449)"><g><path d="M 12.265625 -3.1875 C 12.316406 -3.132812 12.34375 -3.078125 12.34375 -3.015625 C 12.34375 -2.953125 12.316406 -2.863281 12.265625 -2.75 C 12.210938 -2.644531 12.125 -2.5 12 -2.3125 C 11.882812 -2.132812 11.664062 -1.882812 11.34375 -1.5625 C 11.03125 -1.25 10.6875 -0.976562 10.3125 -0.75 C 9.9375 -0.519531 9.441406 -0.316406 8.828125 -0.140625 C 8.210938 0.0351562 7.550781 0.125 6.84375 0.125 C 5.132812 0.125 3.707031 -0.472656 2.5625 -1.671875 C 1.414062 -2.867188 0.84375 -4.4375 0.84375 -6.375 C 0.84375 -8.320312 1.421875 -9.867188 2.578125 -11.015625 C 3.734375 -12.160156 5.125 -12.734375 6.75 -12.734375 C 8.570312 -12.734375 9.894531 -12.109375 10.71875 -10.859375 L 10.703125 -12.421875 C 10.671875 -12.554688 10.738281 -12.625 10.90625 -12.625 L 11.890625 -12.625 C 12.046875 -12.625 12.125 -12.554688 12.125 -12.421875 L 12.125 -8.578125 C 12.125 -8.429688 12.046875 -8.359375 11.890625 -8.359375 L 10.78125 -8.359375 C 10.644531 -8.359375 10.578125 -8.429688 10.578125 -8.578125 L 10.578125 -8.75 C 10.578125 -9.28125 10.207031 -9.835938 9.46875 -10.421875 C 8.738281 -11.003906 7.828125 -11.296875 6.734375 -11.296875 C 5.648438 -11.296875 4.671875 -10.863281 3.796875 -10 C 2.921875 -9.132812 2.484375 -7.910156 2.484375 -6.328125 C 2.484375 -4.753906 2.921875 -3.53125 3.796875 -2.65625 C 4.679688 -1.789062 5.710938 -1.359375 6.890625 -1.359375 C 8.171875 -1.359375 9.179688 -1.644531 9.921875 -2.21875 C 10.492188 -2.664062 10.914062 -3.117188 11.1875 -3.578125 C 11.28125 -3.742188 11.394531 -3.773438 11.53125 -3.671875 Z M 12.265625 -3.1875 "/></g></g></g><g fill="#000000" fill-opacity="1"><g transform="translate(74.796179, 17.118449)"><g><path d="M 13.09375 -6.375 C 13.09375 -4.445312 12.515625 -2.878906 11.359375 -1.671875 C 10.203125 -0.472656 8.742188 0.125 6.984375 0.125 C 5.234375 0.125 3.769531 -0.476562 2.59375 -1.6875 C 1.425781 -2.90625 0.84375 -4.472656 0.84375 -6.390625 C 0.84375 -8.304688 1.445312 -9.84375 2.65625 -11 C 3.863281 -12.15625 5.304688 -12.734375 6.984375 -12.734375 C 8.660156 -12.734375 10.097656 -12.15625 11.296875 -11 C 12.492188 -9.84375 13.09375 -8.300781 13.09375 -6.375 Z M 3.84375 -2.640625 C 4.738281 -1.742188 5.785156 -1.296875 6.984375 -1.296875 C 8.179688 -1.296875 9.222656 -1.742188 10.109375 -2.640625 C 11.003906 -3.546875 11.453125 -4.78125 11.453125 -6.34375 C 11.453125 -7.90625 10.992188 -9.128906 10.078125 -10.015625 C 9.171875 -10.898438 8.140625 -11.34375 6.984375 -11.34375 C 5.828125 -11.34375 4.789062 -10.898438 3.875 -10.015625 C 2.957031 -9.128906 2.5 -7.90625 2.5 -6.34375 C 2.5 -4.78125 2.945312 -3.546875 3.84375 -2.640625 Z M 3.84375 -2.640625 "/></g></g></g><g fill="#000000" fill-opacity="1"><g transform="translate(89.664041, 17.118449)"><g><path d="M 13.09375 -6.375 C 13.09375 -4.445312 12.515625 -2.878906 11.359375 -1.671875 C 10.203125 -0.472656 8.742188 0.125 6.984375 0.125 C 5.234375 0.125 3.769531 -0.476562 2.59375 -1.6875 C 1.425781 -2.90625 0.84375 -4.472656 0.84375 -6.390625 C 0.84375 -8.304688 1.445312 -9.84375 2.65625 -11 C 3.863281 -12.15625 5.304688 -12.734375 6.984375 -12.734375 C 8.660156 -12.734375 10.097656 -12.15625 11.296875 -11 C 12.492188 -9.84375 13.09375 -8.300781 13.09375 -6.375 Z M 3.84375 -2.640625 C 4.738281 -1.742188 5.785156 -1.296875 6.984375 -1.296875 C 8.179688 -1.296875 9.222656 -1.742188 10.109375 -2.640625 C 11.003906 -3.546875 11.453125 -4.78125 11.453125 -6.34375 C 11.453125 -7.90625 10.992188 -9.128906 10.078125 -10.015625 C 9.171875 -10.898438 8.140625 -11.34375 6.984375 -11.34375 C 5.828125 -11.34375 4.789062 -10.898438 3.875 -10.015625 C 2.957031 -9.128906 2.5 -7.90625 2.5 -6.34375 C 2.5 -4.78125 2.945312 -3.546875 3.84375 -2.640625 Z M 3.84375 -2.640625 "/></g></g></g><g fill="#000000" fill-opacity="1"><g transform="translate(103.669518, 17.118449)"><g><path d="M 12.34375 0 L 10.8125 0 C 10.394531 0 10.046875 -0.28125 9.765625 -0.84375 L 8.109375 -4.203125 C 8.015625 -4.390625 7.925781 -4.535156 7.84375 -4.640625 C 7.769531 -4.742188 7.609375 -4.847656 7.359375 -4.953125 C 7.109375 -5.066406 6.796875 -5.125 6.421875 -5.125 L 3.9375 -5.125 L 3.9375 -1.3125 L 5.5625 -1.3125 C 5.707031 -1.3125 5.78125 -1.242188 5.78125 -1.109375 L 5.78125 -0.21875 C 5.78125 -0.0703125 5.707031 0 5.5625 0 L 1.078125 0 C 0.921875 0 0.84375 -0.0703125 0.84375 -0.21875 L 0.84375 -1.109375 C 0.84375 -1.242188 0.921875 -1.3125 1.078125 -1.3125 L 2.40625 -1.3125 L 2.40625 -11.3125 L 1.078125 -11.3125 C 0.921875 -11.3125 0.84375 -11.382812 0.84375 -11.53125 L 0.84375 -12.421875 C 0.84375 -12.554688 0.921875 -12.625 1.078125 -12.625 L 5.015625 -12.625 C 5.148438 -12.625 5.21875 -12.554688 5.21875 -12.421875 L 5.21875 -11.53125 C 5.21875 -11.382812 5.148438 -11.3125 5.015625 -11.3125 L 3.9375 -11.3125 L 3.9375 -6.375 L 5.78125 -6.375 C 7.03125 -6.375 7.957031 -6.738281 8.5625 -7.46875 C 9.164062 -8.195312 9.46875 -9.476562 9.46875 -11.3125 L 8.265625 -11.3125 C 8.128906 -11.3125 8.0625 -11.382812 8.0625 -11.53125 L 8.0625 -12.421875 C 8.0625 -12.554688 8.128906 -12.625 8.265625 -12.625 L 12.1875 -12.625 C 12.332031 -12.625 12.40625 -12.554688 12.40625 -12.421875 L 12.40625 -11.53125 C 12.40625 -11.382812 12.332031 -11.3125 12.1875 -11.3125 L 10.984375 -11.3125 C 10.984375 -8.488281 10.179688 -6.640625 8.578125 -5.765625 C 8.847656 -5.640625 9.0625 -5.472656 9.21875 -5.265625 C 9.375 -5.066406 9.550781 -4.765625 9.75 -4.359375 L 11.28125 -1.3125 L 12.34375 -1.3125 C 12.488281 -1.3125 12.5625 -1.242188 12.5625 -1.109375 L 12.5625 -0.21875 C 12.5625 -0.0703125 12.488281 0 12.34375 0 Z M 12.34375 0 "/></g></g></g><g fill="#000000" fill-opacity="1"><g transform="translate(117.411157, 17.118449)"><g><path d="M 6.75 0 L 1.078125 0 C 0.921875 0 0.84375 -0.0703125 0.84375 -0.21875 L 0.84375 -1.109375 C 0.84375 -1.242188 0.921875 -1.3125 1.078125 -1.3125 L 2.40625 -1.3125 L 2.40625 -11.3125 L 1.078125 -11.3125 C 0.921875 -11.3125 0.84375 -11.382812 0.84375 -11.53125 L 0.84375 -12.421875 C 0.84375 -12.554688 0.921875 -12.625 1.078125 -12.625 L 6.734375 -12.625 C 7.910156 -12.625 8.820312 -12.3125 9.46875 -11.6875 C 10.125 -11.070312 10.453125 -10.257812 10.453125 -9.25 C 10.453125 -8.070312 9.929688 -7.1875 8.890625 -6.59375 C 10.390625 -6.164062 11.140625 -5.171875 11.140625 -3.609375 C 11.140625 -2.503906 10.769531 -1.625 10.03125 -0.96875 C 9.300781 -0.320312 8.207031 0 6.75 0 Z M 3.9375 -1.3125 L 6.640625 -1.3125 C 7.554688 -1.3125 8.273438 -1.507812 8.796875 -1.90625 C 9.328125 -2.300781 9.59375 -2.910156 9.59375 -3.734375 C 9.59375 -5.191406 8.640625 -5.921875 6.734375 -5.921875 L 3.9375 -5.921875 Z M 3.9375 -7.09375 L 6.640625 -7.09375 C 7.242188 -7.101562 7.769531 -7.273438 8.21875 -7.609375 C 8.675781 -7.953125 8.90625 -8.488281 8.90625 -9.21875 C 8.90625 -9.945312 8.664062 -10.476562 8.1875 -10.8125 C 7.71875 -11.144531 7.132812 -11.3125 6.4375 -11.3125 L 3.9375 -11.3125 Z M 3.9375 -7.09375 "/></g></g></g><g fill="#000000" fill-opacity="1"><g transform="translate(129.974039, 17.118449)"><g><path d="M 13.09375 -6.375 C 13.09375 -4.445312 12.515625 -2.878906 11.359375 -1.671875 C 10.203125 -0.472656 8.742188 0.125 6.984375 0.125 C 5.234375 0.125 3.769531 -0.476562 2.59375 -1.6875 C 1.425781 -2.90625 0.84375 -4.472656 0.84375 -6.390625 C 0.84375 -8.304688 1.445312 -9.84375 2.65625 -11 C 3.863281 -12.15625 5.304688 -12.734375 6.984375 -12.734375 C 8.660156 -12.734375 10.097656 -12.15625 11.296875 -11 C 12.492188 -9.84375 13.09375 -8.300781 13.09375 -6.375 Z M 3.84375 -2.640625 C 4.738281 -1.742188 5.785156 -1.296875 6.984375 -1.296875 C 8.179688 -1.296875 9.222656 -1.742188 10.109375 -2.640625 C 11.003906 -3.546875 11.453125 -4.78125 11.453125 -6.34375 C 11.453125 -7.90625 10.992188 -9.128906 10.078125 -10.015625 C 9.171875 -10.898438 8.140625 -11.34375 6.984375 -11.34375 C 5.828125 -11.34375 4.789062 -10.898438 3.875 -10.015625 C 2.957031 -9.128906 2.5 -7.90625 2.5 -6.34375 C 2.5 -4.78125 2.945312 -3.546875 3.84375 -2.640625 Z M 3.84375 -2.640625 "/></g></g></g><g fill="#000000" fill-opacity="1"><g transform="translate(144.8419, 17.118449)"><g><path d="M 13.09375 -6.375 C 13.09375 -4.445312 12.515625 -2.878906 11.359375 -1.671875 C 10.203125 -0.472656 8.742188 0.125 6.984375 0.125 C 5.234375 0.125 3.769531 -0.476562 2.59375 -1.6875 C 1.425781 -2.90625 0.84375 -4.472656 0.84375 -6.390625 C 0.84375 -8.304688 1.445312 -9.84375 2.65625 -11 C 3.863281 -12.15625 5.304688 -12.734375 6.984375 -12.734375 C 8.660156 -12.734375 10.097656 -12.15625 11.296875 -11 C 12.492188 -9.84375 13.09375 -8.300781 13.09375 -6.375 Z M 3.84375 -2.640625 C 4.738281 -1.742188 5.785156 -1.296875 6.984375 -1.296875 C 8.179688 -1.296875 9.222656 -1.742188 10.109375 -2.640625 C 11.003906 -3.546875 11.453125 -4.78125 11.453125 -6.34375 C 11.453125 -7.90625 10.992188 -9.128906 10.078125 -10.015625 C 9.171875 -10.898438 8.140625 -11.34375 6.984375 -11.34375 C 5.828125 -11.34375 4.789062 -10.898438 3.875 -10.015625 C 2.957031 -9.128906 2.5 -7.90625 2.5 -6.34375 C 2.5 -4.78125 2.945312 -3.546875 3.84375 -2.640625 Z M 3.84375 -2.640625 "/></g></g></g><g fill="#000000" fill-opacity="1"><g transform="translate(158.847378, 17.118449)"><g><path d="M 12.34375 0 L 10.8125 0 C 10.394531 0 10.046875 -0.28125 9.765625 -0.84375 L 8.109375 -4.203125 C 8.015625 -4.390625 7.925781 -4.535156 7.84375 -4.640625 C 7.769531 -4.742188 7.609375 -4.847656 7.359375 -4.953125 C 7.109375 -5.066406 6.796875 -5.125 6.421875 -5.125 L 3.9375 -5.125 L 3.9375 -1.3125 L 5.5625 -1.3125 C 5.707031 -1.3125 5.78125 -1.242188 5.78125 -1.109375 L 5.78125 -0.21875 C 5.78125 -0.0703125 5.707031 0 5.5625 0 L 1.078125 0 C 0.921875 0 0.84375 -0.0703125 0.84375 -0.21875 L 0.84375 -1.109375 C 0.84375 -1.242188 0.921875 -1.3125 1.078125 -1.3125 L 2.40625 -1.3125 L 2.40625 -11.3125 L 1.078125 -11.3125 C 0.921875 -11.3125 0.84375 -11.382812 0.84375 -11.53125 L 0.84375 -12.421875 C 0.84375 -12.554688 0.921875 -12.625 1.078125 -12.625 L 5.015625 -12.625 C 5.148438 -12.625 5.21875 -12.554688 5.21875 -12.421875 L 5.21875 -11.53125 C 5.21875 -11.382812 5.148438 -11.3125 5.015625 -11.3125 L 3.9375 -11.3125 L 3.9375 -6.375 L 5.78125 -6.375 C 7.03125 -6.375 7.957031 -6.738281 8.5625 -7.46875 C 9.164062 -8.195312 9.46875 -9.476562 9.46875 -11.3125 L 8.265625 -11.3125 C 8.128906 -11.3125 8.0625 -11.382812 8.0625 -11.53125 L 8.0625 -12.421875 C 8.0625 -12.554688 8.128906 -12.625 8.265625 -12.625 L 12.1875 -12.625 C 12.332031 -12.625 12.40625 -12.554688 12.40625 -12.421875 L 12.40625 -11.53125 C 12.40625 -11.382812 12.332031 -11.3125 12.1875 -11.3125 L 10.984375 -11.3125 C 10.984375 -8.488281 10.179688 -6.640625 8.578125 -5.765625 C 8.847656 -5.640625 9.0625 -5.472656 9.21875 -5.265625 C 9.375 -5.066406 9.550781 -4.765625 9.75 -4.359375 L 11.28125 -1.3125 L 12.34375 -1.3125 C 12.488281 -1.3125 12.5625 -1.242188 12.5625 -1.109375 L 12.5625 -0.21875 C 12.5625 -0.0703125 12.488281 0 12.34375 0 Z M 12.34375 0 "/></g></g></g><g fill="#000000" fill-opacity="1"><g transform="translate(173.15221, 17.118449)"><g/></g></g><g fill="#000000" fill-opacity="1"><g transform="translate(179.539487, 17.118449)"><g><path d="M 5.296875 0 L 1.078125 0 C 0.921875 0 0.84375 -0.0703125 0.84375 -0.21875 L 0.84375 -1.109375 C 0.84375 -1.242188 0.921875 -1.3125 1.078125 -1.3125 L 2.40625 -1.3125 L 2.40625 -11.3125 L 1.078125 -11.3125 C 0.921875 -11.3125 0.84375 -11.382812 0.84375 -11.53125 L 0.84375 -12.421875 C 0.84375 -12.554688 0.921875 -12.625 1.078125 -12.625 L 5.296875 -12.625 C 5.453125 -12.625 5.53125 -12.554688 5.53125 -12.421875 L 5.53125 -11.53125 C 5.53125 -11.382812 5.453125 -11.3125 5.296875 -11.3125 L 3.9375 -11.3125 L 3.9375 -1.3125 L 5.296875 -1.3125 C 5.453125 -1.3125 5.53125 -1.242188 5.53125 -1.109375 L 5.53125 -0.21875 C 5.53125 -0.0703125 5.453125 0 5.296875 0 Z M 5.296875 0 "/></g></g></g><g fill="#000000" fill-opacity="1"><g transform="translate(186.788914, 17.118449)"><g><path d="M 2.0625 0 L 1.078125 0 C 0.921875 0 0.84375 -0.0703125 0.84375 -0.21875 L 0.84375 -4.328125 C 0.84375 -4.484375 0.921875 -4.5625 1.078125 -4.5625 L 2.1875 -4.5625 C 2.320312 -4.5625 2.390625 -4.484375 2.390625 -4.328125 L 2.390625 -3.953125 C 2.390625 -3.734375 2.523438 -3.4375 2.796875 -3.0625 C 3.066406 -2.695312 3.335938 -2.394531 3.609375 -2.15625 C 3.878906 -1.925781 4.238281 -1.722656 4.6875 -1.546875 C 5.132812 -1.378906 5.625 -1.296875 6.15625 -1.296875 C 7.0625 -1.296875 7.769531 -1.484375 8.28125 -1.859375 C 8.789062 -2.234375 9.046875 -2.757812 9.046875 -3.4375 C 9.046875 -3.820312 8.898438 -4.148438 8.609375 -4.421875 C 8.328125 -4.703125 7.957031 -4.921875 7.5 -5.078125 C 7.039062 -5.242188 6.53125 -5.394531 5.96875 -5.53125 C 5.414062 -5.675781 4.859375 -5.835938 4.296875 -6.015625 C 3.742188 -6.203125 3.238281 -6.421875 2.78125 -6.671875 C 2.320312 -6.929688 1.945312 -7.285156 1.65625 -7.734375 C 1.375 -8.179688 1.234375 -8.710938 1.234375 -9.328125 C 1.234375 -10.304688 1.601562 -11.117188 2.34375 -11.765625 C 3.09375 -12.410156 4.09375 -12.734375 5.34375 -12.734375 C 6.925781 -12.734375 8.085938 -12.269531 8.828125 -11.34375 L 8.796875 -12.4375 C 8.796875 -12.582031 8.875 -12.65625 9.03125 -12.65625 L 10.015625 -12.65625 C 10.148438 -12.65625 10.21875 -12.582031 10.21875 -12.4375 L 10.21875 -8.609375 C 10.21875 -8.460938 10.148438 -8.390625 10.015625 -8.390625 L 8.90625 -8.390625 C 8.757812 -8.390625 8.6875 -8.460938 8.6875 -8.609375 L 8.6875 -9.09375 C 8.6875 -9.570312 8.414062 -10.054688 7.875 -10.546875 C 7.34375 -11.046875 6.550781 -11.296875 5.5 -11.296875 C 4.726562 -11.296875 4.101562 -11.109375 3.625 -10.734375 C 3.15625 -10.367188 2.921875 -9.898438 2.921875 -9.328125 C 2.921875 -8.910156 3.066406 -8.554688 3.359375 -8.265625 C 3.648438 -7.972656 4.03125 -7.738281 4.5 -7.5625 C 4.96875 -7.382812 5.484375 -7.222656 6.046875 -7.078125 C 6.609375 -6.929688 7.171875 -6.769531 7.734375 -6.59375 C 8.296875 -6.414062 8.8125 -6.203125 9.28125 -5.953125 C 9.757812 -5.710938 10.144531 -5.378906 10.4375 -4.953125 C 10.726562 -4.523438 10.875 -4.019531 10.875 -3.4375 C 10.875 -2.394531 10.503906 -1.539062 9.765625 -0.875 C 9.023438 -0.207031 7.921875 0.125 6.453125 0.125 C 5.378906 0.125 4.488281 -0.0859375 3.78125 -0.515625 C 3.082031 -0.953125 2.570312 -1.425781 2.25 -1.9375 L 2.265625 -0.21875 C 2.265625 -0.0703125 2.195312 0 2.0625 0 Z M 2.0625 0 "/></g></g></g><g fill="#000000" fill-opacity="1"><g transform="translate(199.387069, 17.118449)"><g/></g></g><g fill="#000000" fill-opacity="1"><g transform="translate(205.774347, 17.118449)"><g><path d="M 12.265625 -3.1875 C 12.316406 -3.132812 12.34375 -3.078125 12.34375 -3.015625 C 12.34375 -2.953125 12.316406 -2.863281 12.265625 -2.75 C 12.210938 -2.644531 12.125 -2.5 12 -2.3125 C 11.882812 -2.132812 11.664062 -1.882812 11.34375 -1.5625 C 11.03125 -1.25 10.6875 -0.976562 10.3125 -0.75 C 9.9375 -0.519531 9.441406 -0.316406 8.828125 -0.140625 C 8.210938 0.0351562 7.550781 0.125 6.84375 0.125 C 5.132812 0.125 3.707031 -0.472656 2.5625 -1.671875 C 1.414062 -2.867188 0.84375 -4.4375 0.84375 -6.375 C 0.84375 -8.320312 1.421875 -9.867188 2.578125 -11.015625 C 3.734375 -12.160156 5.125 -12.734375 6.75 -12.734375 C 8.570312 -12.734375 9.894531 -12.109375 10.71875 -10.859375 L 10.703125 -12.421875 C 10.671875 -12.554688 10.738281 -12.625 10.90625 -12.625 L 11.890625 -12.625 C 12.046875 -12.625 12.125 -12.554688 12.125 -12.421875 L 12.125 -8.578125 C 12.125 -8.429688 12.046875 -8.359375 11.890625 -8.359375 L 10.78125 -8.359375 C 10.644531 -8.359375 10.578125 -8.429688 10.578125 -8.578125 L 10.578125 -8.75 C 10.578125 -9.28125 10.207031 -9.835938 9.46875 -10.421875 C 8.738281 -11.003906 7.828125 -11.296875 6.734375 -11.296875 C 5.648438 -11.296875 4.671875 -10.863281 3.796875 -10 C 2.921875 -9.132812 2.484375 -7.910156 2.484375 -6.328125 C 2.484375 -4.753906 2.921875 -3.53125 3.796875 -2.65625 C 4.679688 -1.789062 5.710938 -1.359375 6.890625 -1.359375 C 8.171875 -1.359375 9.179688 -1.644531 9.921875 -2.21875 C 10.492188 -2.664062 10.914062 -3.117188 11.1875 -3.578125 C 11.28125 -3.742188 11.394531 -3.773438 11.53125 -3.671875 Z M 12.265625 -3.1875 "/></g></g></g><g fill="#000000" fill-opacity="1"><g transform="translate(219.551235, 17.118449)"><g><path d="M 13.09375 -6.375 C 13.09375 -4.445312 12.515625 -2.878906 11.359375 -1.671875 C 10.203125 -0.472656 8.742188 0.125 6.984375 0.125 C 5.234375 0.125 3.769531 -0.476562 2.59375 -1.6875 C 1.425781 -2.90625 0.84375 -4.472656 0.84375 -6.390625 C 0.84375 -8.304688 1.445312 -9.84375 2.65625 -11 C 3.863281 -12.15625 5.304688 -12.734375 6.984375 -12.734375 C 8.660156 -12.734375 10.097656 -12.15625 11.296875 -11 C 12.492188 -9.84375 13.09375 -8.300781 13.09375 -6.375 Z M 3.84375 -2.640625 C 4.738281 -1.742188 5.785156 -1.296875 6.984375 -1.296875 C 8.179688 -1.296875 9.222656 -1.742188 10.109375 -2.640625 C 11.003906 -3.546875 11.453125 -4.78125 11.453125 -6.34375 C 11.453125 -7.90625 10.992188 -9.128906 10.078125 -10.015625 C 9.171875 -10.898438 8.140625 -11.34375 6.984375 -11.34375 C 5.828125 -11.34375 4.789062 -10.898438 3.875 -10.015625 C 2.957031 -9.128906 2.5 -7.90625 2.5 -6.34375 C 2.5 -4.78125 2.945312 -3.546875 3.84375 -2.640625 Z M 3.84375 -2.640625 "/></g></g></g><g fill="#000000" fill-opacity="1"><g transform="translate(234.419097, 17.118449)"><g><path d="M 13.09375 -6.375 C 13.09375 -4.445312 12.515625 -2.878906 11.359375 -1.671875 C 10.203125 -0.472656 8.742188 0.125 6.984375 0.125 C 5.234375 0.125 3.769531 -0.476562 2.59375 -1.6875 C 1.425781 -2.90625 0.84375 -4.472656 0.84375 -6.390625 C 0.84375 -8.304688 1.445312 -9.84375 2.65625 -11 C 3.863281 -12.15625 5.304688 -12.734375 6.984375 -12.734375 C 8.660156 -12.734375 10.097656 -12.15625 11.296875 -11 C 12.492188 -9.84375 13.09375 -8.300781 13.09375 -6.375 Z M 3.84375 -2.640625 C 4.738281 -1.742188 5.785156 -1.296875 6.984375 -1.296875 C 8.179688 -1.296875 9.222656 -1.742188 10.109375 -2.640625 C 11.003906 -3.546875 11.453125 -4.78125 11.453125 -6.34375 C 11.453125 -7.90625 10.992188 -9.128906 10.078125 -10.015625 C 9.171875 -10.898438 8.140625 -11.34375 6.984375 -11.34375 C 5.828125 -11.34375 4.789062 -10.898438 3.875 -10.015625 C 2.957031 -9.128906 2.5 -7.90625 2.5 -6.34375 C 2.5 -4.78125 2.945312 -3.546875 3.84375 -2.640625 Z M 3.84375 -2.640625 "/></g></g></g><g fill="#000000" fill-opacity="1"><g transform="translate(248.424574, 17.118449)"><g><path d="M 12.34375 0 L 10.8125 0 C 10.394531 0 10.046875 -0.28125 9.765625 -0.84375 L 8.109375 -4.203125 C 8.015625 -4.390625 7.925781 -4.535156 7.84375 -4.640625 C 7.769531 -4.742188 7.609375 -4.847656 7.359375 -4.953125 C 7.109375 -5.066406 6.796875 -5.125 6.421875 -5.125 L 3.9375 -5.125 L 3.9375 -1.3125 L 5.5625 -1.3125 C 5.707031 -1.3125 5.78125 -1.242188 5.78125 -1.109375 L 5.78125 -0.21875 C 5.78125 -0.0703125 5.707031 0 5.5625 0 L 1.078125 0 C 0.921875 0 0.84375 -0.0703125 0.84375 -0.21875 L 0.84375 -1.109375 C 0.84375 -1.242188 0.921875 -1.3125 1.078125 -1.3125 L 2.40625 -1.3125 L 2.40625 -11.3125 L 1.078125 -11.3125 C 0.921875 -11.3125 0.84375 -11.382812 0.84375 -11.53125 L 0.84375 -12.421875 C 0.84375 -12.554688 0.921875 -12.625 1.078125 -12.625 L 5.015625 -12.625 C 5.148438 -12.625 5.21875 -12.554688 5.21875 -12.421875 L 5.21875 -11.53125 C 5.21875 -11.382812 5.148438 -11.3125 5.015625 -11.3125 L 3.9375 -11.3125 L 3.9375 -6.375 L 5.78125 -6.375 C 7.03125 -6.375 7.957031 -6.738281 8.5625 -7.46875 C 9.164062 -8.195312 9.46875 -9.476562 9.46875 -11.3125 L 8.265625 -11.3125 C 8.128906 -11.3125 8.0625 -11.382812 8.0625 -11.53125 L 8.0625 -12.421875 C 8.0625 -12.554688 8.128906 -12.625 8.265625 -12.625 L 12.1875 -12.625 C 12.332031 -12.625 12.40625 -12.554688 12.40625 -12.421875 L 12.40625 -11.53125 C 12.40625 -11.382812 12.332031 -11.3125 12.1875 -11.3125 L 10.984375 -11.3125 C 10.984375 -8.488281 10.179688 -6.640625 8.578125 -5.765625 C 8.847656 -5.640625 9.0625 -5.472656 9.21875 -5.265625 C 9.375 -5.066406 9.550781 -4.765625 9.75 -4.359375 L 11.28125 -1.3125 L 12.34375 -1.3125 C 12.488281 -1.3125 12.5625 -1.242188 12.5625 -1.109375 L 12.5625 -0.21875 C 12.5625 -0.0703125 12.488281 0 12.34375 0 Z M 12.34375 0 "/></g></g></g><g fill="#000000" fill-opacity="1"><g transform="translate(262.166205, 17.118449)"><g><path d="M 5.296875 0 L 1.078125 0 C 0.921875 0 0.84375 -0.0703125 0.84375 -0.21875 L 0.84375 -1.109375 C 0.84375 -1.242188 0.921875 -1.3125 1.078125 -1.3125 L 2.40625 -1.3125 L 2.40625 -11.3125 L 1.078125 -11.3125 C 0.921875 -11.3125 0.84375 -11.382812 0.84375 -11.53125 L 0.84375 -12.421875 C 0.84375 -12.554688 0.921875 -12.625 1.078125 -12.625 L 5.296875 -12.625 C 5.453125 -12.625 5.53125 -12.554688 5.53125 -12.421875 L 5.53125 -11.53125 C 5.53125 -11.382812 5.453125 -11.3125 5.296875 -11.3125 L 3.9375 -11.3125 L 3.9375 -1.3125 L 5.296875 -1.3125 C 5.453125 -1.3125 5.53125 -1.242188 5.53125 -1.109375 L 5.53125 -0.21875 C 5.53125 -0.0703125 5.453125 0 5.296875 0 Z M 5.296875 0 "/></g></g></g><g fill="#000000" fill-opacity="1"><g transform="translate(269.32762, 17.118449)"><g><path d="M 11.78125 0 L 10.84375 0 C 10.613281 0 10.429688 -0.0390625 10.296875 -0.125 C 10.171875 -0.21875 10.050781 -0.359375 9.9375 -0.546875 L 4.859375 -8.5 L 3.96875 -9.96875 L 3.9375 -9.96875 L 3.9375 -1.3125 L 5.296875 -1.3125 C 5.453125 -1.3125 5.53125 -1.242188 5.53125 -1.109375 L 5.53125 -0.21875 C 5.53125 -0.0703125 5.453125 0 5.296875 0 L 1.078125 0 C 0.921875 0 0.84375 -0.0703125 0.84375 -0.21875 L 0.84375 -1.109375 C 0.84375 -1.242188 0.921875 -1.3125 1.078125 -1.3125 L 2.40625 -1.3125 L 2.40625 -11.3125 L 1.078125 -11.3125 C 0.921875 -11.3125 0.84375 -11.382812 0.84375 -11.53125 L 0.84375 -12.421875 C 0.84375 -12.554688 0.921875 -12.625 1.078125 -12.625 L 3.53125 -12.625 C 3.875 -12.625 4.175781 -12.425781 4.4375 -12.03125 L 9.453125 -4.1875 L 10.453125 -2.484375 L 10.484375 -2.484375 L 10.484375 -11.3125 L 9.125 -11.3125 C 8.988281 -11.3125 8.921875 -11.382812 8.921875 -11.53125 L 8.921875 -12.421875 C 8.921875 -12.554688 8.988281 -12.625 9.125 -12.625 L 13.375 -12.625 C 13.507812 -12.625 13.578125 -12.554688 13.578125 -12.421875 L 13.578125 -11.53125 C 13.578125 -11.382812 13.507812 -11.3125 13.375 -11.3125 L 12.015625 -11.3125 L 12.015625 -0.21875 C 12.015625 -0.0703125 11.9375 0 11.78125 0 Z M 11.78125 0 "/></g></g></g><g fill="#000000" fill-opacity="1"><g transform="translate(283.667381, 17.118449)"><g><path d="M 12.140625 0 L 11.203125 0 C 11.054688 0 10.984375 -0.0703125 10.984375 -0.21875 L 11 -1.421875 C 9.96875 -0.390625 8.59375 0.125 6.875 0.125 C 5.15625 0.125 3.71875 -0.472656 2.5625 -1.671875 C 1.414062 -2.867188 0.84375 -4.441406 0.84375 -6.390625 C 0.84375 -7.691406 1.132812 -8.832031 1.71875 -9.8125 C 2.300781 -10.800781 3.039062 -11.535156 3.9375 -12.015625 C 4.832031 -12.492188 5.800781 -12.734375 6.84375 -12.734375 C 8.632812 -12.734375 9.925781 -12.175781 10.71875 -11.0625 L 10.703125 -12.421875 C 10.671875 -12.554688 10.738281 -12.625 10.90625 -12.625 L 11.890625 -12.625 C 12.046875 -12.625 12.125 -12.554688 12.125 -12.421875 L 12.125 -8.796875 C 12.125 -8.648438 12.046875 -8.578125 11.890625 -8.578125 L 10.78125 -8.578125 C 10.644531 -8.578125 10.578125 -8.648438 10.578125 -8.796875 L 10.578125 -9.015625 C 10.578125 -9.523438 10.21875 -10.03125 9.5 -10.53125 C 8.789062 -11.039062 7.882812 -11.296875 6.78125 -11.296875 C 5.6875 -11.296875 4.695312 -10.835938 3.8125 -9.921875 C 2.925781 -9.015625 2.484375 -7.800781 2.484375 -6.28125 C 2.484375 -4.769531 2.925781 -3.570312 3.8125 -2.6875 C 4.707031 -1.800781 5.707031 -1.359375 6.8125 -1.359375 C 7.914062 -1.359375 8.785156 -1.53125 9.421875 -1.875 C 10.054688 -2.226562 10.535156 -2.644531 10.859375 -3.125 L 10.859375 -4.5 L 7.578125 -4.5 C 7.441406 -4.5 7.375 -4.578125 7.375 -4.734375 L 7.375 -5.546875 C 7.375 -5.679688 7.441406 -5.75 7.578125 -5.75 L 12.140625 -5.75 C 12.273438 -5.75 12.34375 -5.679688 12.34375 -5.546875 L 12.34375 -0.21875 C 12.34375 -0.0703125 12.273438 0 12.140625 0 Z M 12.140625 0 "/></g></g></g><g fill="#000000" fill-opacity="1"><g transform="translate(297.743453, 17.118449)"><g><path d="M 1.921875 -1.296875 C 2.078125 -1.140625 2.15625 -0.941406 2.15625 -0.703125 C 2.15625 -0.472656 2.078125 -0.273438 1.921875 -0.109375 C 1.765625 0.046875 1.566406 0.125 1.328125 0.125 C 1.097656 0.125 0.898438 0.046875 0.734375 -0.109375 C 0.578125 -0.273438 0.5 -0.472656 0.5 -0.703125 C 0.5 -0.941406 0.578125 -1.140625 0.734375 -1.296875 C 0.898438 -1.453125 1.097656 -1.53125 1.328125 -1.53125 C 1.566406 -1.53125 1.765625 -1.453125 1.921875 -1.296875 Z M 1.921875 -1.296875 "/></g></g></g><g fill="#000000" fill-opacity="1"><g transform="translate(301.280437, 17.118449)"><g><path d="M 1.921875 -1.296875 C 2.078125 -1.140625 2.15625 -0.941406 2.15625 -0.703125 C 2.15625 -0.472656 2.078125 -0.273438 1.921875 -0.109375 C 1.765625 0.046875 1.566406 0.125 1.328125 0.125 C 1.097656 0.125 0.898438 0.046875 0.734375 -0.109375 C 0.578125 -0.273438 0.5 -0.472656 0.5 -0.703125 C 0.5 -0.941406 0.578125 -1.140625 0.734375 -1.296875 C 0.898438 -1.453125 1.097656 -1.53125 1.328125 -1.53125 C 1.566406 -1.53125 1.765625 -1.453125 1.921875 -1.296875 Z M 1.921875 -1.296875 "/></g></g></g><g fill="#000000" fill-opacity="1"><g transform="translate(304.817421, 17.118449)"><g><path d="M 1.921875 -1.296875 C 2.078125 -1.140625 2.15625 -0.941406 2.15625 -0.703125 C 2.15625 -0.472656 2.078125 -0.273438 1.921875 -0.109375 C 1.765625 0.046875 1.566406 0.125 1.328125 0.125 C 1.097656 0.125 0.898438 0.046875 0.734375 -0.109375 C 0.578125 -0.273438 0.5 -0.472656 0.5 -0.703125 C 0.5 -0.941406 0.578125 -1.140625 0.734375 -1.296875 C 0.898438 -1.453125 1.097656 -1.53125 1.328125 -1.53125 C 1.566406 -1.53125 1.765625 -1.453125 1.921875 -1.296875 Z M 1.921875 -1.296875 "/></g></g></g></g></g></g></g></g></g></svg>