<svg xmlns="http://www.w3.org/2000/svg" xmlns:xlink="http://www.w3.org/1999/xlink" width="850" zoomAndPan="magnify" viewBox="0 0 637.5 149.999998" height="200" preserveAspectRatio="xMidYMid meet" version="1.0"><defs><g/><clipPath id="36ea02cdd8"><path d="M 353 16 L 386.648438 16 L 386.648438 79 L 353 79 Z M 353 16 " clip-rule="nonzero"/></clipPath><clipPath id="fa2e7236c3"><rect x="0" width="387" y="0" height="107"/></clipPath><clipPath id="1c8be96753"><rect x="0" width="399" y="0" height="30"/></clipPath></defs><path fill="#00676f" d="M 449.414062 108.335938 C 465.183594 94.28125 495.828125 92.464844 516.292969 94 C 531.027344 95.101562 556.042969 100.632812 562.875 115.023438 L 614.640625 116.15625 C 621.738281 116.15625 621.972656 129.199219 615.777344 130.367188 L 557.230469 128.207031 C 553.804688 128.875 552.992188 133.050781 549.953125 135.296875 C 537.625 144.433594 494.316406 142.695312 479.003906 140.027344 C 459.839844 136.675781 458.039062 129.742188 449.402344 113.832031 L 449.402344 108.3125 Z M 458.238281 118.261719 C 458.359375 118.171875 458.394531 116.324219 459.316406 115.511719 C 472.082031 104.351562 514.890625 104.507812 531.058594 107.957031 C 540.417969 109.949219 549.519531 113.195312 554.984375 121.355469 C 570.875 111.871094 543.96875 102.402344 535.65625 100.054688 C 516.914062 94.769531 470.269531 93.746094 454.542969 106.277344 C 446.554688 112.652344 457.550781 118.78125 458.238281 118.261719 Z M 552.234375 122.667969 C 547.550781 112.617188 529.914062 109.046875 519.664062 108.289062 C 511.394531 107.675781 462.488281 108.421875 460.476562 117.726562 C 461.734375 121.441406 469.054688 122.386719 472.628906 123.246094 C 490.476562 127.53125 514.613281 127.808594 532.882812 125.984375 C 539.359375 125.335938 545.824219 123.644531 552.246094 122.679688 Z M 617.46875 121.578125 L 614.695312 118.28125 L 562.195312 117.179688 C 561.40625 121.03125 568.539062 119.140625 570.496094 120.476562 L 617.46875 121.585938 Z M 554.4375 123.789062 C 522.835938 131.15625 486.914062 131.347656 456.046875 120.484375 C 460.386719 132.492188 468.019531 135.964844 479.972656 137.980469 C 494.761719 140.460938 539.171875 142.695312 550.019531 132.070312 C 551.046875 131.066406 555.207031 124.738281 554.429688 123.789062 Z M 617.46875 123.789062 C 598.816406 123.992188 580.1875 122.667969 561.570312 121.507812 C 558.457031 121.285156 556.699219 124.226562 556.675781 127.085938 C 559.546875 126.417969 561.929688 125.816406 564.976562 125.894531 C 579.164062 126.25 600.230469 129.800781 613.660156 128.242188 C 616.910156 127.863281 617.914062 127.328125 617.46875 123.78125 Z M 493.636719 6.78125 C 497.308594 9.484375 500.792969 11.199219 504.164062 14.480469 C 510.839844 20.980469 543.078125 62.332031 546.90625 70.042969 C 551.15625 78.621094 553.160156 88.160156 540.640625 88.550781 C 525.039062 89.027344 498.976562 65.214844 489.851562 53.039062 C 481.742188 42.203125 464.605469 16.207031 481.472656 6.78125 Z M 478.46875 11.511719 C 471.804688 18.1875 482.007812 36.703125 486.113281 43.546875 C 494.648438 57.757812 510.40625 72.925781 524.960938 80.925781 C 537.335938 87.738281 555.328125 91.375 544.980469 70.878906 C 541.097656 63.175781 508.179688 21.460938 501.425781 15.015625 C 496.019531 9.851562 484.433594 5.546875 478.46875 11.511719 Z M 497.621094 51.925781 C 503.105469 58.558594 524.394531 78.902344 532.039062 80.492188 C 535.933594 81.304688 540.25 81.027344 538.78125 75.996094 C 537.535156 71.703125 530.949219 70.8125 533.453125 74.09375 C 533.640625 74.339844 537.804688 75.074219 536.746094 78.523438 C 531.617188 83.308594 502.660156 54.507812 498.722656 49.710938 C 495.949219 46.351562 492.710938 41.777344 490.53125 38.015625 C 488.550781 34.589844 481.851562 23.128906 484.15625 19.945312 C 485.902344 17.519531 491.332031 20.902344 490.308594 16.71875 C 469.511719 14.769531 492.054688 45.21875 497.609375 51.925781 Z M 497.621094 51.925781 " fill-opacity="1" fill-rule="nonzero"/><g transform="matrix(1, 0, 0, 1, 10, 13)"><g clip-path="url(#fa2e7236c3)"><g fill="#000000" fill-opacity="1"><g transform="translate(0.417965, 76.933646)"><g><path d="M 68.625 -39.328125 L 68.625 -24.09375 C 66.8125 -15.75 62.835938 -9.429688 56.703125 -5.140625 C 50.578125 -0.859375 43.738281 1.28125 36.1875 1.28125 C 26.707031 1.28125 18.628906 -2.265625 11.953125 -9.359375 C 5.285156 -16.460938 1.953125 -25.035156 1.953125 -35.078125 C 1.953125 -45.296875 5.21875 -53.921875 11.75 -60.953125 C 18.28125 -67.992188 26.425781 -71.515625 36.1875 -71.515625 C 47.59375 -71.515625 56.617188 -67.515625 63.265625 -59.515625 L 52.78125 -48.015625 C 49.039062 -54.035156 43.820312 -57.046875 37.125 -57.046875 C 32.1875 -57.046875 27.96875 -54.898438 24.46875 -50.609375 C 20.976562 -46.328125 19.234375 -41.148438 19.234375 -35.078125 C 19.234375 -29.117188 20.976562 -24.023438 24.46875 -19.796875 C 27.96875 -15.566406 32.1875 -13.453125 37.125 -13.453125 C 41.207031 -13.453125 44.765625 -14.6875 47.796875 -17.15625 C 50.835938 -19.625 52.359375 -22.898438 52.359375 -26.984375 L 36.1875 -26.984375 L 36.1875 -39.328125 Z M 68.625 -39.328125 "/></g></g></g><g fill="#000000" fill-opacity="1"><g transform="translate(66.742404, 76.933646)"><g><path d="M 19.328125 -43.671875 L 19.328125 -22.90625 C 19.328125 -18.59375 19.976562 -15.523438 21.28125 -13.703125 C 22.59375 -11.890625 24.804688 -10.984375 27.921875 -10.984375 C 31.046875 -10.984375 33.257812 -11.890625 34.5625 -13.703125 C 35.875 -15.523438 36.53125 -18.59375 36.53125 -22.90625 L 36.53125 -43.671875 L 51.59375 -43.671875 L 51.59375 -19.234375 C 51.59375 -11.972656 49.703125 -6.738281 45.921875 -3.53125 C 42.148438 -0.320312 36.148438 1.28125 27.921875 1.28125 C 19.691406 1.28125 13.6875 -0.320312 9.90625 -3.53125 C 6.132812 -6.738281 4.25 -11.972656 4.25 -19.234375 L 4.25 -43.671875 Z M 19.328125 -43.671875 "/></g></g></g><g fill="#000000" fill-opacity="1"><g transform="translate(118.337541, 76.933646)"><g><path d="M 49.296875 -19.75 L 17.625 -19.75 C 17.625 -16.6875 18.613281 -14.414062 20.59375 -12.9375 C 22.582031 -11.46875 24.742188 -10.734375 27.078125 -10.734375 C 29.515625 -10.734375 31.441406 -11.054688 32.859375 -11.703125 C 34.285156 -12.359375 35.90625 -13.648438 37.71875 -15.578125 L 48.609375 -10.125 C 44.066406 -2.519531 36.519531 1.28125 25.96875 1.28125 C 19.382812 1.28125 13.734375 -0.972656 9.015625 -5.484375 C 4.304688 -10.003906 1.953125 -15.441406 1.953125 -21.796875 C 1.953125 -28.148438 4.304688 -33.597656 9.015625 -38.140625 C 13.734375 -42.679688 19.382812 -44.953125 25.96875 -44.953125 C 32.894531 -44.953125 38.523438 -42.953125 42.859375 -38.953125 C 47.203125 -34.953125 49.375 -29.234375 49.375 -21.796875 C 49.375 -20.773438 49.347656 -20.09375 49.296875 -19.75 Z M 18.046875 -28.09375 L 34.65625 -28.09375 C 34.3125 -30.363281 33.414062 -32.109375 31.96875 -33.328125 C 30.519531 -34.546875 28.660156 -35.15625 26.390625 -35.15625 C 23.890625 -35.15625 21.898438 -34.503906 20.421875 -33.203125 C 18.953125 -31.898438 18.160156 -30.195312 18.046875 -28.09375 Z M 18.046875 -28.09375 "/></g></g></g><g fill="#000000" fill-opacity="1"><g transform="translate(165.079668, 76.933646)"><g><path d="M 24.09375 -44.953125 C 26.59375 -44.953125 29.0625 -44.664062 31.5 -44.09375 C 33.9375 -43.53125 35.753906 -42.96875 36.953125 -42.40625 L 38.734375 -41.546875 L 33.796875 -31.671875 C 30.390625 -33.484375 27.15625 -34.390625 24.09375 -34.390625 C 22.394531 -34.390625 21.1875 -34.207031 20.46875 -33.84375 C 19.757812 -33.476562 19.40625 -32.78125 19.40625 -31.75 C 19.40625 -31.53125 19.429688 -31.304688 19.484375 -31.078125 C 19.546875 -30.847656 19.660156 -30.632812 19.828125 -30.4375 C 20.003906 -30.238281 20.160156 -30.066406 20.296875 -29.921875 C 20.441406 -29.785156 20.6875 -29.628906 21.03125 -29.453125 C 21.375 -29.285156 21.644531 -29.160156 21.84375 -29.078125 C 22.039062 -28.992188 22.363281 -28.863281 22.8125 -28.6875 C 23.269531 -28.519531 23.613281 -28.394531 23.84375 -28.3125 C 24.070312 -28.226562 24.453125 -28.097656 24.984375 -27.921875 C 25.523438 -27.753906 25.9375 -27.640625 26.21875 -27.578125 C 27.976562 -27.066406 29.507812 -26.5 30.8125 -25.875 C 32.125 -25.257812 33.503906 -24.410156 34.953125 -23.328125 C 36.398438 -22.242188 37.519531 -20.878906 38.3125 -19.234375 C 39.101562 -17.585938 39.5 -15.71875 39.5 -13.625 C 39.5 -3.6875 32.601562 1.28125 18.8125 1.28125 C 15.695312 1.28125 12.734375 0.796875 9.921875 -0.171875 C 7.109375 -1.140625 5.078125 -2.101562 3.828125 -3.0625 L 1.953125 -4.59375 L 8.09375 -14.90625 C 8.539062 -14.5 9.132812 -14.023438 9.875 -13.484375 C 10.613281 -12.953125 11.945312 -12.21875 13.875 -11.28125 C 15.800781 -10.34375 17.476562 -9.875 18.90625 -9.875 C 22.019531 -9.875 23.578125 -10.925781 23.578125 -13.03125 C 23.578125 -13.988281 23.179688 -14.738281 22.390625 -15.28125 C 21.597656 -15.820312 20.25 -16.429688 18.34375 -17.109375 C 16.445312 -17.796875 14.957031 -18.421875 13.875 -18.984375 C 11.15625 -20.398438 9 -22.003906 7.40625 -23.796875 C 5.8125 -25.585938 5.015625 -27.957031 5.015625 -30.90625 C 5.015625 -35.332031 6.734375 -38.78125 10.171875 -41.25 C 13.609375 -43.71875 18.25 -44.953125 24.09375 -44.953125 Z M 24.09375 -44.953125 "/></g></g></g><g fill="#000000" fill-opacity="1"><g transform="translate(201.945503, 76.933646)"><g><path d="M 7.65625 -43.671875 L 7.65625 -59.9375 L 22.734375 -59.9375 L 22.734375 -43.671875 L 31.921875 -43.671875 L 31.921875 -32.1875 L 22.734375 -32.1875 L 22.734375 -18.3125 C 22.734375 -14.28125 23.867188 -12.265625 26.140625 -12.265625 C 26.703125 -12.265625 27.296875 -12.375 27.921875 -12.59375 C 28.546875 -12.820312 29.03125 -13.050781 29.375 -13.28125 L 29.890625 -13.625 L 33.625 -1.453125 C 30.394531 0.367188 26.707031 1.28125 22.5625 1.28125 C 19.726562 1.28125 17.285156 0.785156 15.234375 -0.203125 C 13.191406 -1.203125 11.644531 -2.535156 10.59375 -4.203125 C 9.550781 -5.878906 8.800781 -7.640625 8.34375 -9.484375 C 7.882812 -11.335938 7.65625 -13.3125 7.65625 -15.40625 L 7.65625 -32.1875 L 1.359375 -32.1875 L 1.359375 -43.671875 Z M 7.65625 -43.671875 "/></g></g></g><g fill="#000000" fill-opacity="1"><g transform="translate(231.318976, 76.933646)"><g/></g></g><g fill="#000000" fill-opacity="1"><g transform="translate(250.305309, 76.933646)"><g><path d="M 21.109375 -70.234375 L 21.109375 -14.046875 L 45.296875 -14.046875 L 45.296875 0 L 5.109375 0 L 5.109375 -70.234375 Z M 21.109375 -70.234375 "/></g></g></g><g fill="#000000" fill-opacity="1"><g transform="translate(294.152665, 76.933646)"><g><path d="M 6.546875 -68.03125 C 8.304688 -69.789062 10.40625 -70.671875 12.84375 -70.671875 C 15.289062 -70.671875 17.394531 -69.789062 19.15625 -68.03125 C 20.914062 -66.269531 21.796875 -64.164062 21.796875 -61.71875 C 21.796875 -59.28125 20.914062 -57.179688 19.15625 -55.421875 C 17.394531 -53.660156 15.289062 -52.78125 12.84375 -52.78125 C 10.40625 -52.78125 8.304688 -53.660156 6.546875 -55.421875 C 4.796875 -57.179688 3.921875 -59.28125 3.921875 -61.71875 C 3.921875 -64.164062 4.796875 -66.269531 6.546875 -68.03125 Z M 5.109375 -43.671875 L 5.109375 0 L 20.171875 0 L 20.171875 -43.671875 Z M 5.109375 -43.671875 "/></g></g></g><g fill="#000000" fill-opacity="1"><g transform="translate(315.608067, 76.933646)"><g><path d="M 24.09375 -44.953125 C 26.59375 -44.953125 29.0625 -44.664062 31.5 -44.09375 C 33.9375 -43.53125 35.753906 -42.96875 36.953125 -42.40625 L 38.734375 -41.546875 L 33.796875 -31.671875 C 30.390625 -33.484375 27.15625 -34.390625 24.09375 -34.390625 C 22.394531 -34.390625 21.1875 -34.207031 20.46875 -33.84375 C 19.757812 -33.476562 19.40625 -32.78125 19.40625 -31.75 C 19.40625 -31.53125 19.429688 -31.304688 19.484375 -31.078125 C 19.546875 -30.847656 19.660156 -30.632812 19.828125 -30.4375 C 20.003906 -30.238281 20.160156 -30.066406 20.296875 -29.921875 C 20.441406 -29.785156 20.6875 -29.628906 21.03125 -29.453125 C 21.375 -29.285156 21.644531 -29.160156 21.84375 -29.078125 C 22.039062 -28.992188 22.363281 -28.863281 22.8125 -28.6875 C 23.269531 -28.519531 23.613281 -28.394531 23.84375 -28.3125 C 24.070312 -28.226562 24.453125 -28.097656 24.984375 -27.921875 C 25.523438 -27.753906 25.9375 -27.640625 26.21875 -27.578125 C 27.976562 -27.066406 29.507812 -26.5 30.8125 -25.875 C 32.125 -25.257812 33.503906 -24.410156 34.953125 -23.328125 C 36.398438 -22.242188 37.519531 -20.878906 38.3125 -19.234375 C 39.101562 -17.585938 39.5 -15.71875 39.5 -13.625 C 39.5 -3.6875 32.601562 1.28125 18.8125 1.28125 C 15.695312 1.28125 12.734375 0.796875 9.921875 -0.171875 C 7.109375 -1.140625 5.078125 -2.101562 3.828125 -3.0625 L 1.953125 -4.59375 L 8.09375 -14.90625 C 8.539062 -14.5 9.132812 -14.023438 9.875 -13.484375 C 10.613281 -12.953125 11.945312 -12.21875 13.875 -11.28125 C 15.800781 -10.34375 17.476562 -9.875 18.90625 -9.875 C 22.019531 -9.875 23.578125 -10.925781 23.578125 -13.03125 C 23.578125 -13.988281 23.179688 -14.738281 22.390625 -15.28125 C 21.597656 -15.820312 20.25 -16.429688 18.34375 -17.109375 C 16.445312 -17.796875 14.957031 -18.421875 13.875 -18.984375 C 11.15625 -20.398438 9 -22.003906 7.40625 -23.796875 C 5.8125 -25.585938 5.015625 -27.957031 5.015625 -30.90625 C 5.015625 -35.332031 6.734375 -38.78125 10.171875 -41.25 C 13.609375 -43.71875 18.25 -44.953125 24.09375 -44.953125 Z M 24.09375 -44.953125 "/></g></g></g><g clip-path="url(#36ea02cdd8)"><g fill="#000000" fill-opacity="1"><g transform="translate(352.473902, 76.933646)"><g><path d="M 7.65625 -43.671875 L 7.65625 -59.9375 L 22.734375 -59.9375 L 22.734375 -43.671875 L 31.921875 -43.671875 L 31.921875 -32.1875 L 22.734375 -32.1875 L 22.734375 -18.3125 C 22.734375 -14.28125 23.867188 -12.265625 26.140625 -12.265625 C 26.703125 -12.265625 27.296875 -12.375 27.921875 -12.59375 C 28.546875 -12.820312 29.03125 -13.050781 29.375 -13.28125 L 29.890625 -13.625 L 33.625 -1.453125 C 30.394531 0.367188 26.707031 1.28125 22.5625 1.28125 C 19.726562 1.28125 17.285156 0.785156 15.234375 -0.203125 C 13.191406 -1.203125 11.644531 -2.535156 10.59375 -4.203125 C 9.550781 -5.878906 8.800781 -7.640625 8.34375 -9.484375 C 7.882812 -11.335938 7.65625 -13.3125 7.65625 -15.40625 L 7.65625 -32.1875 L 1.359375 -32.1875 L 1.359375 -43.671875 Z M 7.65625 -43.671875 "/></g></g></g></g></g></g><g transform="matrix(1, 0, 0, 1, 10, 116)"><g clip-path="url(#1c8be96753)"><g fill="#000000" fill-opacity="1"><g transform="translate(0.417965, 22.299688)"><g><path d="M 11.328125 0 L 5.875 0 C 5.6875 0 5.59375 -0.0859375 5.59375 -0.265625 L 5.59375 -1.421875 C 5.59375 -1.609375 5.6875 -1.703125 5.875 -1.703125 L 7.609375 -1.703125 L 7.609375 -6.546875 L 6.703125 -8.109375 C 4.742188 -11.597656 3.484375 -13.75 2.921875 -14.5625 L 1.375 -14.5625 C 1.1875 -14.5625 1.09375 -14.65625 1.09375 -14.84375 L 1.09375 -16 C 1.09375 -16.175781 1.1875 -16.265625 1.375 -16.265625 L 6.484375 -16.265625 C 6.660156 -16.265625 6.75 -16.175781 6.75 -16 L 6.75 -14.84375 C 6.75 -14.65625 6.660156 -14.5625 6.484375 -14.5625 L 4.984375 -14.5625 L 8.546875 -8.265625 L 8.671875 -8.265625 L 12.21875 -14.5625 L 10.71875 -14.5625 C 10.53125 -14.5625 10.4375 -14.65625 10.4375 -14.84375 L 10.4375 -16 C 10.4375 -16.175781 10.53125 -16.265625 10.71875 -16.265625 L 15.84375 -16.265625 C 16.019531 -16.265625 16.109375 -16.175781 16.109375 -16 L 16.109375 -14.84375 C 16.109375 -14.65625 16.019531 -14.5625 15.84375 -14.5625 L 14.265625 -14.5625 C 13.523438 -13.476562 12.5625 -11.878906 11.375 -9.765625 C 10.195312 -7.648438 9.597656 -6.582031 9.578125 -6.5625 L 9.578125 -1.703125 L 11.328125 -1.703125 C 11.503906 -1.703125 11.59375 -1.609375 11.59375 -1.421875 L 11.59375 -0.265625 C 11.59375 -0.0859375 11.503906 0 11.328125 0 Z M 11.328125 0 "/></g></g></g><g fill="#000000" fill-opacity="1"><g transform="translate(17.341939, 22.299688)"><g><path d="M 16.859375 -8.203125 C 16.859375 -5.722656 16.113281 -3.707031 14.625 -2.15625 C 13.132812 -0.613281 11.257812 0.15625 9 0.15625 C 6.75 0.15625 4.867188 -0.625 3.359375 -2.1875 C 1.847656 -3.75 1.09375 -5.765625 1.09375 -8.234375 C 1.09375 -10.703125 1.867188 -12.679688 3.421875 -14.171875 C 4.972656 -15.660156 6.828125 -16.40625 8.984375 -16.40625 C 11.148438 -16.40625 13.003906 -15.660156 14.546875 -14.171875 C 16.085938 -12.679688 16.859375 -10.691406 16.859375 -8.203125 Z M 4.953125 -3.40625 C 6.109375 -2.25 7.457031 -1.671875 9 -1.671875 C 10.539062 -1.671875 11.882812 -2.25 13.03125 -3.40625 C 14.175781 -4.5625 14.75 -6.144531 14.75 -8.15625 C 14.75 -10.175781 14.160156 -11.753906 12.984375 -12.890625 C 11.816406 -14.035156 10.484375 -14.609375 8.984375 -14.609375 C 7.492188 -14.609375 6.160156 -14.035156 4.984375 -12.890625 C 3.804688 -11.753906 3.21875 -10.175781 3.21875 -8.15625 C 3.21875 -6.144531 3.796875 -4.5625 4.953125 -3.40625 Z M 4.953125 -3.40625 "/></g></g></g><g fill="#000000" fill-opacity="1"><g transform="translate(34.492297, 22.299688)"><g><path d="M 13.359375 -5.890625 L 13.359375 -14.5625 L 11.625 -14.5625 C 11.4375 -14.5625 11.34375 -14.65625 11.34375 -14.84375 L 11.34375 -16 C 11.34375 -16.175781 11.4375 -16.265625 11.625 -16.265625 L 17.078125 -16.265625 C 17.265625 -16.265625 17.359375 -16.175781 17.359375 -16 L 17.359375 -14.84375 C 17.359375 -14.65625 17.265625 -14.5625 17.078125 -14.5625 L 15.34375 -14.5625 L 15.34375 -6.09375 C 15.34375 -4.050781 14.804688 -2.5 13.734375 -1.4375 C 12.671875 -0.375 11.171875 0.15625 9.234375 0.15625 C 7.296875 0.15625 5.789062 -0.375 4.71875 -1.4375 C 3.644531 -2.5 3.109375 -4.050781 3.109375 -6.09375 L 3.109375 -14.5625 L 1.375 -14.5625 C 1.1875 -14.5625 1.09375 -14.65625 1.09375 -14.84375 L 1.09375 -16 C 1.09375 -16.175781 1.1875 -16.265625 1.375 -16.265625 L 6.8125 -16.265625 C 7.007812 -16.265625 7.109375 -16.175781 7.109375 -16 L 7.109375 -14.84375 C 7.109375 -14.65625 7.007812 -14.5625 6.8125 -14.5625 L 5.078125 -14.5625 L 5.078125 -6.03125 C 5.078125 -3.125 6.46875 -1.671875 9.25 -1.671875 C 10.664062 -1.671875 11.703125 -2.046875 12.359375 -2.796875 C 13.023438 -3.546875 13.359375 -4.578125 13.359375 -5.890625 Z M 13.359375 -5.890625 "/></g></g></g><g fill="#000000" fill-opacity="1"><g transform="translate(53.432844, 22.299688)"><g><path d="M 14.84375 0 L 12.875 0 C 12.320312 0 11.867188 -0.363281 11.515625 -1.09375 L 9.375 -5.421875 C 9.195312 -5.796875 9.003906 -6.070312 8.796875 -6.25 C 8.597656 -6.4375 8.316406 -6.535156 7.953125 -6.546875 L 5.078125 -6.546875 L 5.078125 -1.703125 L 7.109375 -1.703125 C 7.296875 -1.703125 7.390625 -1.609375 7.390625 -1.421875 L 7.390625 -0.265625 C 7.390625 -0.0859375 7.296875 0 7.109375 0 L 1.375 0 C 1.1875 0 1.09375 -0.0859375 1.09375 -0.265625 L 1.09375 -1.421875 C 1.09375 -1.609375 1.1875 -1.703125 1.375 -1.703125 L 3.109375 -1.703125 L 3.109375 -14.5625 L 1.375 -14.5625 C 1.1875 -14.5625 1.09375 -14.65625 1.09375 -14.84375 L 1.09375 -16 C 1.09375 -16.175781 1.1875 -16.265625 1.375 -16.265625 L 8.359375 -16.265625 C 9.972656 -16.265625 11.285156 -15.835938 12.296875 -14.984375 C 13.304688 -14.128906 13.8125 -12.925781 13.8125 -11.375 C 13.8125 -9 12.703125 -7.519531 10.484375 -6.9375 C 10.773438 -6.707031 11.128906 -6.203125 11.546875 -5.421875 L 13.453125 -1.703125 L 14.84375 -1.703125 C 15.019531 -1.703125 15.109375 -1.609375 15.109375 -1.421875 L 15.109375 -0.265625 C 15.109375 -0.0859375 15.019531 0 14.84375 0 Z M 5.078125 -8.15625 L 7.96875 -8.15625 C 10.539062 -8.15625 11.828125 -9.207031 11.828125 -11.3125 C 11.828125 -13.476562 10.539062 -14.5625 7.96875 -14.5625 L 5.078125 -14.5625 Z M 5.078125 -8.15625 "/></g></g></g><g fill="#000000" fill-opacity="1"><g transform="translate(70.765024, 22.299688)"><g/></g></g><g fill="#000000" fill-opacity="1"><g transform="translate(78.98963, 22.299688)"><g><path d="M 15.796875 -4.09375 C 15.867188 -4.039062 15.90625 -3.972656 15.90625 -3.890625 C 15.90625 -3.804688 15.867188 -3.691406 15.796875 -3.546875 C 15.734375 -3.398438 15.617188 -3.207031 15.453125 -2.96875 C 15.296875 -2.738281 15.015625 -2.421875 14.609375 -2.015625 C 14.203125 -1.609375 13.753906 -1.253906 13.265625 -0.953125 C 12.785156 -0.660156 12.148438 -0.398438 11.359375 -0.171875 C 10.566406 0.046875 9.71875 0.15625 8.8125 0.15625 C 6.601562 0.15625 4.765625 -0.613281 3.296875 -2.15625 C 1.828125 -3.695312 1.09375 -5.71875 1.09375 -8.21875 C 1.09375 -10.71875 1.832031 -12.707031 3.3125 -14.1875 C 4.800781 -15.664062 6.597656 -16.40625 8.703125 -16.40625 C 11.046875 -16.40625 12.742188 -15.597656 13.796875 -13.984375 L 13.78125 -16 C 13.75 -16.175781 13.835938 -16.265625 14.046875 -16.265625 L 15.3125 -16.265625 C 15.507812 -16.265625 15.609375 -16.175781 15.609375 -16 L 15.609375 -11.0625 C 15.609375 -10.863281 15.507812 -10.765625 15.3125 -10.765625 L 13.890625 -10.765625 C 13.703125 -10.765625 13.609375 -10.863281 13.609375 -11.0625 L 13.609375 -11.265625 C 13.609375 -11.953125 13.132812 -12.671875 12.1875 -13.421875 C 11.25 -14.171875 10.078125 -14.546875 8.671875 -14.546875 C 7.265625 -14.546875 6 -13.988281 4.875 -12.875 C 3.75 -11.769531 3.1875 -10.203125 3.1875 -8.171875 C 3.1875 -6.140625 3.753906 -4.5625 4.890625 -3.4375 C 6.023438 -2.3125 7.351562 -1.75 8.875 -1.75 C 10.519531 -1.75 11.820312 -2.117188 12.78125 -2.859375 C 13.519531 -3.429688 14.0625 -4.007812 14.40625 -4.59375 C 14.53125 -4.820312 14.675781 -4.867188 14.84375 -4.734375 Z M 15.796875 -4.09375 "/></g></g></g><g fill="#000000" fill-opacity="1"><g transform="translate(96.72948, 22.299688)"><g><path d="M 16.859375 -8.203125 C 16.859375 -5.722656 16.113281 -3.707031 14.625 -2.15625 C 13.132812 -0.613281 11.257812 0.15625 9 0.15625 C 6.75 0.15625 4.867188 -0.625 3.359375 -2.1875 C 1.847656 -3.75 1.09375 -5.765625 1.09375 -8.234375 C 1.09375 -10.703125 1.867188 -12.679688 3.421875 -14.171875 C 4.972656 -15.660156 6.828125 -16.40625 8.984375 -16.40625 C 11.148438 -16.40625 13.003906 -15.660156 14.546875 -14.171875 C 16.085938 -12.679688 16.859375 -10.691406 16.859375 -8.203125 Z M 4.953125 -3.40625 C 6.109375 -2.25 7.457031 -1.671875 9 -1.671875 C 10.539062 -1.671875 11.882812 -2.25 13.03125 -3.40625 C 14.175781 -4.5625 14.75 -6.144531 14.75 -8.15625 C 14.75 -10.175781 14.160156 -11.753906 12.984375 -12.890625 C 11.816406 -14.035156 10.484375 -14.609375 8.984375 -14.609375 C 7.492188 -14.609375 6.160156 -14.035156 4.984375 -12.890625 C 3.804688 -11.753906 3.21875 -10.175781 3.21875 -8.15625 C 3.21875 -6.144531 3.796875 -4.5625 4.953125 -3.40625 Z M 4.953125 -3.40625 "/></g></g></g><g fill="#000000" fill-opacity="1"><g transform="translate(115.874125, 22.299688)"><g><path d="M 16.859375 -8.203125 C 16.859375 -5.722656 16.113281 -3.707031 14.625 -2.15625 C 13.132812 -0.613281 11.257812 0.15625 9 0.15625 C 6.75 0.15625 4.867188 -0.625 3.359375 -2.1875 C 1.847656 -3.75 1.09375 -5.765625 1.09375 -8.234375 C 1.09375 -10.703125 1.867188 -12.679688 3.421875 -14.171875 C 4.972656 -15.660156 6.828125 -16.40625 8.984375 -16.40625 C 11.148438 -16.40625 13.003906 -15.660156 14.546875 -14.171875 C 16.085938 -12.679688 16.859375 -10.691406 16.859375 -8.203125 Z M 4.953125 -3.40625 C 6.109375 -2.25 7.457031 -1.671875 9 -1.671875 C 10.539062 -1.671875 11.882812 -2.25 13.03125 -3.40625 C 14.175781 -4.5625 14.75 -6.144531 14.75 -8.15625 C 14.75 -10.175781 14.160156 -11.753906 12.984375 -12.890625 C 11.816406 -14.035156 10.484375 -14.609375 8.984375 -14.609375 C 7.492188 -14.609375 6.160156 -14.035156 4.984375 -12.890625 C 3.804688 -11.753906 3.21875 -10.175781 3.21875 -8.15625 C 3.21875 -6.144531 3.796875 -4.5625 4.953125 -3.40625 Z M 4.953125 -3.40625 "/></g></g></g><g fill="#000000" fill-opacity="1"><g transform="translate(133.908318, 22.299688)"><g><path d="M 15.90625 0 L 13.9375 0 C 13.394531 0 12.941406 -0.363281 12.578125 -1.09375 L 10.4375 -5.421875 C 10.320312 -5.660156 10.210938 -5.847656 10.109375 -5.984375 C 10.015625 -6.117188 9.804688 -6.253906 9.484375 -6.390625 C 9.160156 -6.523438 8.753906 -6.59375 8.265625 -6.59375 L 5.078125 -6.59375 L 5.078125 -1.703125 L 7.15625 -1.703125 C 7.351562 -1.703125 7.453125 -1.609375 7.453125 -1.421875 L 7.453125 -0.265625 C 7.453125 -0.0859375 7.351562 0 7.15625 0 L 1.375 0 C 1.1875 0 1.09375 -0.0859375 1.09375 -0.265625 L 1.09375 -1.421875 C 1.09375 -1.609375 1.1875 -1.703125 1.375 -1.703125 L 3.109375 -1.703125 L 3.109375 -14.5625 L 1.375 -14.5625 C 1.1875 -14.5625 1.09375 -14.65625 1.09375 -14.84375 L 1.09375 -16 C 1.09375 -16.175781 1.1875 -16.265625 1.375 -16.265625 L 6.453125 -16.265625 C 6.640625 -16.265625 6.734375 -16.175781 6.734375 -16 L 6.734375 -14.84375 C 6.734375 -14.65625 6.640625 -14.5625 6.453125 -14.5625 L 5.078125 -14.5625 L 5.078125 -8.203125 L 7.453125 -8.203125 C 9.054688 -8.203125 10.242188 -8.671875 11.015625 -9.609375 C 11.796875 -10.554688 12.1875 -12.207031 12.1875 -14.5625 L 10.640625 -14.5625 C 10.460938 -14.5625 10.375 -14.65625 10.375 -14.84375 L 10.375 -16 C 10.375 -16.175781 10.460938 -16.265625 10.640625 -16.265625 L 15.703125 -16.265625 C 15.878906 -16.265625 15.96875 -16.175781 15.96875 -16 L 15.96875 -14.84375 C 15.96875 -14.65625 15.878906 -14.5625 15.703125 -14.5625 L 14.140625 -14.5625 C 14.140625 -10.925781 13.113281 -8.550781 11.0625 -7.4375 C 11.40625 -7.269531 11.675781 -7.050781 11.875 -6.78125 C 12.070312 -6.519531 12.296875 -6.132812 12.546875 -5.625 L 14.515625 -1.703125 L 15.90625 -1.703125 C 16.082031 -1.703125 16.171875 -1.609375 16.171875 -1.421875 L 16.171875 -0.265625 C 16.171875 -0.0859375 16.082031 0 15.90625 0 Z M 15.90625 0 "/></g></g></g><g fill="#000000" fill-opacity="1"><g transform="translate(151.602779, 22.299688)"><g><path d="M 8.703125 0 L 1.375 0 C 1.1875 0 1.09375 -0.0859375 1.09375 -0.265625 L 1.09375 -1.421875 C 1.09375 -1.609375 1.1875 -1.703125 1.375 -1.703125 L 3.109375 -1.703125 L 3.109375 -14.5625 L 1.375 -14.5625 C 1.1875 -14.5625 1.09375 -14.65625 1.09375 -14.84375 L 1.09375 -16 C 1.09375 -16.175781 1.1875 -16.265625 1.375 -16.265625 L 8.671875 -16.265625 C 10.179688 -16.265625 11.351562 -15.863281 12.1875 -15.0625 C 13.03125 -14.257812 13.453125 -13.210938 13.453125 -11.921875 C 13.453125 -10.390625 12.78125 -9.25 11.4375 -8.5 C 13.375 -7.9375 14.34375 -6.648438 14.34375 -4.640625 C 14.34375 -3.222656 13.867188 -2.09375 12.921875 -1.25 C 11.984375 -0.414062 10.578125 0 8.703125 0 Z M 5.078125 -1.703125 L 8.546875 -1.703125 C 9.734375 -1.703125 10.660156 -1.953125 11.328125 -2.453125 C 12.003906 -2.960938 12.34375 -3.742188 12.34375 -4.796875 C 12.34375 -6.691406 11.117188 -7.640625 8.671875 -7.640625 L 5.078125 -7.640625 Z M 5.078125 -9.125 L 8.546875 -9.125 C 9.328125 -9.144531 10.007812 -9.375 10.59375 -9.8125 C 11.175781 -10.25 11.46875 -10.9375 11.46875 -11.875 C 11.46875 -12.8125 11.160156 -13.492188 10.546875 -13.921875 C 9.929688 -14.347656 9.179688 -14.5625 8.296875 -14.5625 L 5.078125 -14.5625 Z M 5.078125 -9.125 "/></g></g></g><g fill="#000000" fill-opacity="1"><g transform="translate(167.77941, 22.299688)"><g><path d="M 16.859375 -8.203125 C 16.859375 -5.722656 16.113281 -3.707031 14.625 -2.15625 C 13.132812 -0.613281 11.257812 0.15625 9 0.15625 C 6.75 0.15625 4.867188 -0.625 3.359375 -2.1875 C 1.847656 -3.75 1.09375 -5.765625 1.09375 -8.234375 C 1.09375 -10.703125 1.867188 -12.679688 3.421875 -14.171875 C 4.972656 -15.660156 6.828125 -16.40625 8.984375 -16.40625 C 11.148438 -16.40625 13.003906 -15.660156 14.546875 -14.171875 C 16.085938 -12.679688 16.859375 -10.691406 16.859375 -8.203125 Z M 4.953125 -3.40625 C 6.109375 -2.25 7.457031 -1.671875 9 -1.671875 C 10.539062 -1.671875 11.882812 -2.25 13.03125 -3.40625 C 14.175781 -4.5625 14.75 -6.144531 14.75 -8.15625 C 14.75 -10.175781 14.160156 -11.753906 12.984375 -12.890625 C 11.816406 -14.035156 10.484375 -14.609375 8.984375 -14.609375 C 7.492188 -14.609375 6.160156 -14.035156 4.984375 -12.890625 C 3.804688 -11.753906 3.21875 -10.175781 3.21875 -8.15625 C 3.21875 -6.144531 3.796875 -4.5625 4.953125 -3.40625 Z M 4.953125 -3.40625 "/></g></g></g><g fill="#000000" fill-opacity="1"><g transform="translate(186.924055, 22.299688)"><g><path d="M 16.859375 -8.203125 C 16.859375 -5.722656 16.113281 -3.707031 14.625 -2.15625 C 13.132812 -0.613281 11.257812 0.15625 9 0.15625 C 6.75 0.15625 4.867188 -0.625 3.359375 -2.1875 C 1.847656 -3.75 1.09375 -5.765625 1.09375 -8.234375 C 1.09375 -10.703125 1.867188 -12.679688 3.421875 -14.171875 C 4.972656 -15.660156 6.828125 -16.40625 8.984375 -16.40625 C 11.148438 -16.40625 13.003906 -15.660156 14.546875 -14.171875 C 16.085938 -12.679688 16.859375 -10.691406 16.859375 -8.203125 Z M 4.953125 -3.40625 C 6.109375 -2.25 7.457031 -1.671875 9 -1.671875 C 10.539062 -1.671875 11.882812 -2.25 13.03125 -3.40625 C 14.175781 -4.5625 14.75 -6.144531 14.75 -8.15625 C 14.75 -10.175781 14.160156 -11.753906 12.984375 -12.890625 C 11.816406 -14.035156 10.484375 -14.609375 8.984375 -14.609375 C 7.492188 -14.609375 6.160156 -14.035156 4.984375 -12.890625 C 3.804688 -11.753906 3.21875 -10.175781 3.21875 -8.15625 C 3.21875 -6.144531 3.796875 -4.5625 4.953125 -3.40625 Z M 4.953125 -3.40625 "/></g></g></g><g fill="#000000" fill-opacity="1"><g transform="translate(204.958248, 22.299688)"><g><path d="M 15.90625 0 L 13.9375 0 C 13.394531 0 12.941406 -0.363281 12.578125 -1.09375 L 10.4375 -5.421875 C 10.320312 -5.660156 10.210938 -5.847656 10.109375 -5.984375 C 10.015625 -6.117188 9.804688 -6.253906 9.484375 -6.390625 C 9.160156 -6.523438 8.753906 -6.59375 8.265625 -6.59375 L 5.078125 -6.59375 L 5.078125 -1.703125 L 7.15625 -1.703125 C 7.351562 -1.703125 7.453125 -1.609375 7.453125 -1.421875 L 7.453125 -0.265625 C 7.453125 -0.0859375 7.351562 0 7.15625 0 L 1.375 0 C 1.1875 0 1.09375 -0.0859375 1.09375 -0.265625 L 1.09375 -1.421875 C 1.09375 -1.609375 1.1875 -1.703125 1.375 -1.703125 L 3.109375 -1.703125 L 3.109375 -14.5625 L 1.375 -14.5625 C 1.1875 -14.5625 1.09375 -14.65625 1.09375 -14.84375 L 1.09375 -16 C 1.09375 -16.175781 1.1875 -16.265625 1.375 -16.265625 L 6.453125 -16.265625 C 6.640625 -16.265625 6.734375 -16.175781 6.734375 -16 L 6.734375 -14.84375 C 6.734375 -14.65625 6.640625 -14.5625 6.453125 -14.5625 L 5.078125 -14.5625 L 5.078125 -8.203125 L 7.453125 -8.203125 C 9.054688 -8.203125 10.242188 -8.671875 11.015625 -9.609375 C 11.796875 -10.554688 12.1875 -12.207031 12.1875 -14.5625 L 10.640625 -14.5625 C 10.460938 -14.5625 10.375 -14.65625 10.375 -14.84375 L 10.375 -16 C 10.375 -16.175781 10.460938 -16.265625 10.640625 -16.265625 L 15.703125 -16.265625 C 15.878906 -16.265625 15.96875 -16.175781 15.96875 -16 L 15.96875 -14.84375 C 15.96875 -14.65625 15.878906 -14.5625 15.703125 -14.5625 L 14.140625 -14.5625 C 14.140625 -10.925781 13.113281 -8.550781 11.0625 -7.4375 C 11.40625 -7.269531 11.675781 -7.050781 11.875 -6.78125 C 12.070312 -6.519531 12.296875 -6.132812 12.546875 -5.625 L 14.515625 -1.703125 L 15.90625 -1.703125 C 16.082031 -1.703125 16.171875 -1.609375 16.171875 -1.421875 L 16.171875 -0.265625 C 16.171875 -0.0859375 16.082031 0 15.90625 0 Z M 15.90625 0 "/></g></g></g><g fill="#000000" fill-opacity="1"><g transform="translate(223.377907, 22.299688)"><g/></g></g><g fill="#000000" fill-opacity="1"><g transform="translate(231.602503, 22.299688)"><g><path d="M 6.8125 0 L 1.375 0 C 1.1875 0 1.09375 -0.0859375 1.09375 -0.265625 L 1.09375 -1.421875 C 1.09375 -1.609375 1.1875 -1.703125 1.375 -1.703125 L 3.109375 -1.703125 L 3.109375 -14.5625 L 1.375 -14.5625 C 1.1875 -14.5625 1.09375 -14.65625 1.09375 -14.84375 L 1.09375 -16 C 1.09375 -16.175781 1.1875 -16.265625 1.375 -16.265625 L 6.8125 -16.265625 C 7.007812 -16.265625 7.109375 -16.175781 7.109375 -16 L 7.109375 -14.84375 C 7.109375 -14.65625 7.007812 -14.5625 6.8125 -14.5625 L 5.078125 -14.5625 L 5.078125 -1.703125 L 6.8125 -1.703125 C 7.007812 -1.703125 7.109375 -1.609375 7.109375 -1.421875 L 7.109375 -0.265625 C 7.109375 -0.0859375 7.007812 0 6.8125 0 Z M 6.8125 0 "/></g></g></g><g fill="#000000" fill-opacity="1"><g transform="translate(240.937248, 22.299688)"><g><path d="M 2.65625 0 L 1.375 0 C 1.1875 0 1.09375 -0.0859375 1.09375 -0.265625 L 1.09375 -5.578125 C 1.09375 -5.773438 1.1875 -5.875 1.375 -5.875 L 2.8125 -5.875 C 2.988281 -5.875 3.078125 -5.773438 3.078125 -5.578125 L 3.078125 -5.09375 C 3.078125 -4.8125 3.25 -4.429688 3.59375 -3.953125 C 3.945312 -3.472656 4.296875 -3.082031 4.640625 -2.78125 C 4.992188 -2.476562 5.457031 -2.21875 6.03125 -2 C 6.613281 -1.78125 7.242188 -1.671875 7.921875 -1.671875 C 9.085938 -1.671875 10 -1.910156 10.65625 -2.390625 C 11.3125 -2.878906 11.640625 -3.554688 11.640625 -4.421875 C 11.640625 -4.921875 11.453125 -5.347656 11.078125 -5.703125 C 10.710938 -6.054688 10.234375 -6.335938 9.640625 -6.546875 C 9.054688 -6.753906 8.40625 -6.945312 7.6875 -7.125 C 6.96875 -7.3125 6.25 -7.519531 5.53125 -7.75 C 4.820312 -7.988281 4.171875 -8.269531 3.578125 -8.59375 C 2.992188 -8.914062 2.515625 -9.367188 2.140625 -9.953125 C 1.765625 -10.535156 1.578125 -11.21875 1.578125 -12 C 1.578125 -13.269531 2.054688 -14.320312 3.015625 -15.15625 C 3.984375 -15.988281 5.273438 -16.40625 6.890625 -16.40625 C 8.929688 -16.40625 10.425781 -15.804688 11.375 -14.609375 L 11.328125 -16.015625 C 11.328125 -16.203125 11.425781 -16.296875 11.625 -16.296875 L 12.890625 -16.296875 C 13.066406 -16.296875 13.15625 -16.203125 13.15625 -16.015625 L 13.15625 -11.078125 C 13.15625 -10.898438 13.066406 -10.8125 12.890625 -10.8125 L 11.46875 -10.8125 C 11.28125 -10.8125 11.1875 -10.898438 11.1875 -11.078125 L 11.1875 -11.71875 C 11.1875 -12.332031 10.835938 -12.957031 10.140625 -13.59375 C 9.453125 -14.226562 8.4375 -14.546875 7.09375 -14.546875 C 6.09375 -14.546875 5.285156 -14.304688 4.671875 -13.828125 C 4.066406 -13.359375 3.765625 -12.75 3.765625 -12 C 3.765625 -11.476562 3.953125 -11.023438 4.328125 -10.640625 C 4.703125 -10.265625 5.191406 -9.960938 5.796875 -9.734375 C 6.398438 -9.515625 7.0625 -9.304688 7.78125 -9.109375 C 8.507812 -8.921875 9.238281 -8.710938 9.96875 -8.484375 C 10.695312 -8.265625 11.363281 -7.992188 11.96875 -7.671875 C 12.570312 -7.359375 13.0625 -6.925781 13.4375 -6.375 C 13.8125 -5.820312 14 -5.171875 14 -4.421875 C 14 -3.085938 13.519531 -1.988281 12.5625 -1.125 C 11.613281 -0.269531 10.195312 0.15625 8.3125 0.15625 C 6.925781 0.15625 5.78125 -0.117188 4.875 -0.671875 C 3.96875 -1.234375 3.3125 -1.835938 2.90625 -2.484375 L 2.921875 -0.265625 C 2.921875 -0.0859375 2.832031 0 2.65625 0 Z M 2.65625 0 "/></g></g></g><g fill="#000000" fill-opacity="1"><g transform="translate(257.159299, 22.299688)"><g/></g></g><g fill="#000000" fill-opacity="1"><g transform="translate(265.383895, 22.299688)"><g><path d="M 15.796875 -4.09375 C 15.867188 -4.039062 15.90625 -3.972656 15.90625 -3.890625 C 15.90625 -3.804688 15.867188 -3.691406 15.796875 -3.546875 C 15.734375 -3.398438 15.617188 -3.207031 15.453125 -2.96875 C 15.296875 -2.738281 15.015625 -2.421875 14.609375 -2.015625 C 14.203125 -1.609375 13.753906 -1.253906 13.265625 -0.953125 C 12.785156 -0.660156 12.148438 -0.398438 11.359375 -0.171875 C 10.566406 0.046875 9.71875 0.15625 8.8125 0.15625 C 6.601562 0.15625 4.765625 -0.613281 3.296875 -2.15625 C 1.828125 -3.695312 1.09375 -5.71875 1.09375 -8.21875 C 1.09375 -10.71875 1.832031 -12.707031 3.3125 -14.1875 C 4.800781 -15.664062 6.597656 -16.40625 8.703125 -16.40625 C 11.046875 -16.40625 12.742188 -15.597656 13.796875 -13.984375 L 13.78125 -16 C 13.75 -16.175781 13.835938 -16.265625 14.046875 -16.265625 L 15.3125 -16.265625 C 15.507812 -16.265625 15.609375 -16.175781 15.609375 -16 L 15.609375 -11.0625 C 15.609375 -10.863281 15.507812 -10.765625 15.3125 -10.765625 L 13.890625 -10.765625 C 13.703125 -10.765625 13.609375 -10.863281 13.609375 -11.0625 L 13.609375 -11.265625 C 13.609375 -11.953125 13.132812 -12.671875 12.1875 -13.421875 C 11.25 -14.171875 10.078125 -14.546875 8.671875 -14.546875 C 7.265625 -14.546875 6 -13.988281 4.875 -12.875 C 3.75 -11.769531 3.1875 -10.203125 3.1875 -8.171875 C 3.1875 -6.140625 3.753906 -4.5625 4.890625 -3.4375 C 6.023438 -2.3125 7.351562 -1.75 8.875 -1.75 C 10.519531 -1.75 11.820312 -2.117188 12.78125 -2.859375 C 13.519531 -3.429688 14.0625 -4.007812 14.40625 -4.59375 C 14.53125 -4.820312 14.675781 -4.867188 14.84375 -4.734375 Z M 15.796875 -4.09375 "/></g></g></g><g fill="#000000" fill-opacity="1"><g transform="translate(283.123746, 22.299688)"><g><path d="M 16.859375 -8.203125 C 16.859375 -5.722656 16.113281 -3.707031 14.625 -2.15625 C 13.132812 -0.613281 11.257812 0.15625 9 0.15625 C 6.75 0.15625 4.867188 -0.625 3.359375 -2.1875 C 1.847656 -3.75 1.09375 -5.765625 1.09375 -8.234375 C 1.09375 -10.703125 1.867188 -12.679688 3.421875 -14.171875 C 4.972656 -15.660156 6.828125 -16.40625 8.984375 -16.40625 C 11.148438 -16.40625 13.003906 -15.660156 14.546875 -14.171875 C 16.085938 -12.679688 16.859375 -10.691406 16.859375 -8.203125 Z M 4.953125 -3.40625 C 6.109375 -2.25 7.457031 -1.671875 9 -1.671875 C 10.539062 -1.671875 11.882812 -2.25 13.03125 -3.40625 C 14.175781 -4.5625 14.75 -6.144531 14.75 -8.15625 C 14.75 -10.175781 14.160156 -11.753906 12.984375 -12.890625 C 11.816406 -14.035156 10.484375 -14.609375 8.984375 -14.609375 C 7.492188 -14.609375 6.160156 -14.035156 4.984375 -12.890625 C 3.804688 -11.753906 3.21875 -10.175781 3.21875 -8.15625 C 3.21875 -6.144531 3.796875 -4.5625 4.953125 -3.40625 Z M 4.953125 -3.40625 "/></g></g></g><g fill="#000000" fill-opacity="1"><g transform="translate(302.26839, 22.299688)"><g><path d="M 16.859375 -8.203125 C 16.859375 -5.722656 16.113281 -3.707031 14.625 -2.15625 C 13.132812 -0.613281 11.257812 0.15625 9 0.15625 C 6.75 0.15625 4.867188 -0.625 3.359375 -2.1875 C 1.847656 -3.75 1.09375 -5.765625 1.09375 -8.234375 C 1.09375 -10.703125 1.867188 -12.679688 3.421875 -14.171875 C 4.972656 -15.660156 6.828125 -16.40625 8.984375 -16.40625 C 11.148438 -16.40625 13.003906 -15.660156 14.546875 -14.171875 C 16.085938 -12.679688 16.859375 -10.691406 16.859375 -8.203125 Z M 4.953125 -3.40625 C 6.109375 -2.25 7.457031 -1.671875 9 -1.671875 C 10.539062 -1.671875 11.882812 -2.25 13.03125 -3.40625 C 14.175781 -4.5625 14.75 -6.144531 14.75 -8.15625 C 14.75 -10.175781 14.160156 -11.753906 12.984375 -12.890625 C 11.816406 -14.035156 10.484375 -14.609375 8.984375 -14.609375 C 7.492188 -14.609375 6.160156 -14.035156 4.984375 -12.890625 C 3.804688 -11.753906 3.21875 -10.175781 3.21875 -8.15625 C 3.21875 -6.144531 3.796875 -4.5625 4.953125 -3.40625 Z M 4.953125 -3.40625 "/></g></g></g><g fill="#000000" fill-opacity="1"><g transform="translate(320.302584, 22.299688)"><g><path d="M 15.90625 0 L 13.9375 0 C 13.394531 0 12.941406 -0.363281 12.578125 -1.09375 L 10.4375 -5.421875 C 10.320312 -5.660156 10.210938 -5.847656 10.109375 -5.984375 C 10.015625 -6.117188 9.804688 -6.253906 9.484375 -6.390625 C 9.160156 -6.523438 8.753906 -6.59375 8.265625 -6.59375 L 5.078125 -6.59375 L 5.078125 -1.703125 L 7.15625 -1.703125 C 7.351562 -1.703125 7.453125 -1.609375 7.453125 -1.421875 L 7.453125 -0.265625 C 7.453125 -0.0859375 7.351562 0 7.15625 0 L 1.375 0 C 1.1875 0 1.09375 -0.0859375 1.09375 -0.265625 L 1.09375 -1.421875 C 1.09375 -1.609375 1.1875 -1.703125 1.375 -1.703125 L 3.109375 -1.703125 L 3.109375 -14.5625 L 1.375 -14.5625 C 1.1875 -14.5625 1.09375 -14.65625 1.09375 -14.84375 L 1.09375 -16 C 1.09375 -16.175781 1.1875 -16.265625 1.375 -16.265625 L 6.453125 -16.265625 C 6.640625 -16.265625 6.734375 -16.175781 6.734375 -16 L 6.734375 -14.84375 C 6.734375 -14.65625 6.640625 -14.5625 6.453125 -14.5625 L 5.078125 -14.5625 L 5.078125 -8.203125 L 7.453125 -8.203125 C 9.054688 -8.203125 10.242188 -8.671875 11.015625 -9.609375 C 11.796875 -10.554688 12.1875 -12.207031 12.1875 -14.5625 L 10.640625 -14.5625 C 10.460938 -14.5625 10.375 -14.65625 10.375 -14.84375 L 10.375 -16 C 10.375 -16.175781 10.460938 -16.265625 10.640625 -16.265625 L 15.703125 -16.265625 C 15.878906 -16.265625 15.96875 -16.175781 15.96875 -16 L 15.96875 -14.84375 C 15.96875 -14.65625 15.878906 -14.5625 15.703125 -14.5625 L 14.140625 -14.5625 C 14.140625 -10.925781 13.113281 -8.550781 11.0625 -7.4375 C 11.40625 -7.269531 11.675781 -7.050781 11.875 -6.78125 C 12.070312 -6.519531 12.296875 -6.132812 12.546875 -5.625 L 14.515625 -1.703125 L 15.90625 -1.703125 C 16.082031 -1.703125 16.171875 -1.609375 16.171875 -1.421875 L 16.171875 -0.265625 C 16.171875 -0.0859375 16.082031 0 15.90625 0 Z M 15.90625 0 "/></g></g></g><g fill="#000000" fill-opacity="1"><g transform="translate(337.997034, 22.299688)"><g><path d="M 6.8125 0 L 1.375 0 C 1.1875 0 1.09375 -0.0859375 1.09375 -0.265625 L 1.09375 -1.421875 C 1.09375 -1.609375 1.1875 -1.703125 1.375 -1.703125 L 3.109375 -1.703125 L 3.109375 -14.5625 L 1.375 -14.5625 C 1.1875 -14.5625 1.09375 -14.65625 1.09375 -14.84375 L 1.09375 -16 C 1.09375 -16.175781 1.1875 -16.265625 1.375 -16.265625 L 6.8125 -16.265625 C 7.007812 -16.265625 7.109375 -16.175781 7.109375 -16 L 7.109375 -14.84375 C 7.109375 -14.65625 7.007812 -14.5625 6.8125 -14.5625 L 5.078125 -14.5625 L 5.078125 -1.703125 L 6.8125 -1.703125 C 7.007812 -1.703125 7.109375 -1.609375 7.109375 -1.421875 L 7.109375 -0.265625 C 7.109375 -0.0859375 7.007812 0 6.8125 0 Z M 6.8125 0 "/></g></g></g><g fill="#000000" fill-opacity="1"><g transform="translate(347.218451, 22.299688)"><g><path d="M 15.171875 0 L 13.953125 0 C 13.671875 0 13.445312 -0.0546875 13.28125 -0.171875 C 13.113281 -0.285156 12.953125 -0.460938 12.796875 -0.703125 L 6.25 -10.9375 L 5.125 -12.84375 L 5.078125 -12.84375 L 5.078125 -1.703125 L 6.8125 -1.703125 C 7.007812 -1.703125 7.109375 -1.609375 7.109375 -1.421875 L 7.109375 -0.265625 C 7.109375 -0.0859375 7.007812 0 6.8125 0 L 1.375 0 C 1.1875 0 1.09375 -0.0859375 1.09375 -0.265625 L 1.09375 -1.421875 C 1.09375 -1.609375 1.1875 -1.703125 1.375 -1.703125 L 3.109375 -1.703125 L 3.109375 -14.5625 L 1.375 -14.5625 C 1.1875 -14.5625 1.09375 -14.65625 1.09375 -14.84375 L 1.09375 -16 C 1.09375 -16.175781 1.1875 -16.265625 1.375 -16.265625 L 4.546875 -16.265625 C 4.984375 -16.265625 5.367188 -16.007812 5.703125 -15.5 L 12.171875 -5.390625 L 13.453125 -3.1875 L 13.5 -3.1875 L 13.5 -14.5625 L 11.765625 -14.5625 C 11.578125 -14.5625 11.484375 -14.65625 11.484375 -14.84375 L 11.484375 -16 C 11.484375 -16.175781 11.578125 -16.265625 11.765625 -16.265625 L 17.21875 -16.265625 C 17.394531 -16.265625 17.484375 -16.175781 17.484375 -16 L 17.484375 -14.84375 C 17.484375 -14.65625 17.394531 -14.5625 17.21875 -14.5625 L 15.46875 -14.5625 L 15.46875 -0.265625 C 15.46875 -0.0859375 15.367188 0 15.171875 0 Z M 15.171875 0 "/></g></g></g><g fill="#000000" fill-opacity="1"><g transform="translate(365.683086, 22.299688)"><g><path d="M 15.625 0 L 14.4375 0 C 14.238281 0 14.140625 -0.0859375 14.140625 -0.265625 L 14.15625 -1.828125 C 12.832031 -0.503906 11.0625 0.15625 8.84375 0.15625 C 6.632812 0.15625 4.789062 -0.613281 3.3125 -2.15625 C 1.832031 -3.695312 1.09375 -5.71875 1.09375 -8.21875 C 1.09375 -9.894531 1.460938 -11.367188 2.203125 -12.640625 C 2.953125 -13.910156 3.90625 -14.851562 5.0625 -15.46875 C 6.21875 -16.09375 7.46875 -16.40625 8.8125 -16.40625 C 11.125 -16.40625 12.785156 -15.6875 13.796875 -14.25 L 13.78125 -16 C 13.75 -16.175781 13.835938 -16.265625 14.046875 -16.265625 L 15.3125 -16.265625 C 15.507812 -16.265625 15.609375 -16.175781 15.609375 -16 L 15.609375 -11.328125 C 15.609375 -11.148438 15.507812 -11.0625 15.3125 -11.0625 L 13.890625 -11.0625 C 13.703125 -11.0625 13.609375 -11.148438 13.609375 -11.328125 L 13.609375 -11.59375 C 13.609375 -12.257812 13.148438 -12.914062 12.234375 -13.5625 C 11.328125 -14.21875 10.160156 -14.546875 8.734375 -14.546875 C 7.316406 -14.546875 6.035156 -13.957031 4.890625 -12.78125 C 3.753906 -11.613281 3.1875 -10.050781 3.1875 -8.09375 C 3.1875 -6.144531 3.757812 -4.597656 4.90625 -3.453125 C 6.0625 -2.316406 7.347656 -1.75 8.765625 -1.75 C 10.179688 -1.75 11.300781 -1.972656 12.125 -2.421875 C 12.945312 -2.878906 13.566406 -3.414062 13.984375 -4.03125 L 13.984375 -5.796875 L 9.765625 -5.796875 C 9.585938 -5.796875 9.5 -5.894531 9.5 -6.09375 L 9.5 -7.140625 C 9.5 -7.316406 9.585938 -7.40625 9.765625 -7.40625 L 15.625 -7.40625 C 15.8125 -7.40625 15.90625 -7.316406 15.90625 -7.140625 L 15.90625 -0.265625 C 15.90625 -0.0859375 15.8125 0 15.625 0 Z M 15.625 0 "/></g></g></g><g fill="#000000" fill-opacity="1"><g transform="translate(383.80818, 22.299688)"><g><path d="M 2.46875 -1.65625 C 2.675781 -1.457031 2.78125 -1.207031 2.78125 -0.90625 C 2.78125 -0.601562 2.675781 -0.347656 2.46875 -0.140625 C 2.269531 0.0546875 2.019531 0.15625 1.71875 0.15625 C 1.414062 0.15625 1.160156 0.0546875 0.953125 -0.140625 C 0.742188 -0.347656 0.640625 -0.601562 0.640625 -0.90625 C 0.640625 -1.207031 0.742188 -1.457031 0.953125 -1.65625 C 1.160156 -1.863281 1.414062 -1.96875 1.71875 -1.96875 C 2.019531 -1.96875 2.269531 -1.863281 2.46875 -1.65625 Z M 2.46875 -1.65625 "/></g></g></g><g fill="#000000" fill-opacity="1"><g transform="translate(388.362587, 22.299688)"><g><path d="M 2.46875 -1.65625 C 2.675781 -1.457031 2.78125 -1.207031 2.78125 -0.90625 C 2.78125 -0.601562 2.675781 -0.347656 2.46875 -0.140625 C 2.269531 0.0546875 2.019531 0.15625 1.71875 0.15625 C 1.414062 0.15625 1.160156 0.0546875 0.953125 -0.140625 C 0.742188 -0.347656 0.640625 -0.601562 0.640625 -0.90625 C 0.640625 -1.207031 0.742188 -1.457031 0.953125 -1.65625 C 1.160156 -1.863281 1.414062 -1.96875 1.71875 -1.96875 C 2.019531 -1.96875 2.269531 -1.863281 2.46875 -1.65625 Z M 2.46875 -1.65625 "/></g></g></g><g fill="#000000" fill-opacity="1"><g transform="translate(392.916995, 22.299688)"><g><path d="M 2.46875 -1.65625 C 2.675781 -1.457031 2.78125 -1.207031 2.78125 -0.90625 C 2.78125 -0.601562 2.675781 -0.347656 2.46875 -0.140625 C 2.269531 0.0546875 2.019531 0.15625 1.71875 0.15625 C 1.414062 0.15625 1.160156 0.0546875 0.953125 -0.140625 C 0.742188 -0.347656 0.640625 -0.601562 0.640625 -0.90625 C 0.640625 -1.207031 0.742188 -1.457031 0.953125 -1.65625 C 1.160156 -1.863281 1.414062 -1.96875 1.71875 -1.96875 C 2.019531 -1.96875 2.269531 -1.863281 2.46875 -1.65625 Z M 2.46875 -1.65625 "/></g></g></g></g></g></svg>